<svg
   xmlns="http://www.w3.org/2000/svg"
   x="0px"
   y="0px"
   viewBox="0 0 512 512"
   enable-background="new 0 0 429 117.3"
   width="512"
   height="512">
<g
   transform="scale(4.3611584)">
	<linearGradient
   id="autoidmagic-SVGID_1_"
   gradientUnits="userSpaceOnUse"
   x1="58.666"
   y1="117.332"
   x2="58.666"
   y2="-9.094947e-13">
		<stop
   offset="0"
   style="stop-color:#0882C8" />
		<stop
   offset="1"
   style="stop-color:#26B6DB" />
	</linearGradient>
	<circle
   cx="58.700001"
   cy="58.700001"
   r="58.700001"
   style="fill:url(#autoidmagic-SVGID_1_)" />
	<g>
		<circle
   stroke-miterlimit="10"
   cx="58.700001"
   cy="58.5"
   r="43.700001"
   style="fill:none;stroke:#ffffff;stroke-width:6;stroke-miterlimit:10" />
		<g>
			<path
   d="m 94.7,47.8 c 4.7,1.6 9.8,-0.9 11.4,-5.6 1.6,-4.7 -0.9,-9.8 -5.6,-11.4 -4.7,-1.6 -9.8,0.9 -11.4,5.6 -1.6,4.7 0.9,9.8 5.6,11.4 z"
   style="fill:#ffffff" />
			<line
   stroke-miterlimit="10"
   x1="97.599998"
   y1="39.400002"
   x2="67.5"
   y2="64.400002"
   style="fill:none;stroke:#ffffff;stroke-width:6;stroke-miterlimit:10" />
		</g>
		<g>
			<path
   d="m 77.6,91 c -0.4,4.9 3.2,9.3 8.2,9.8 5,0.4 9.3,-3.2 9.8,-8.2 C 96,87.7 92.4,83.3 87.4,82.8 82.4,82.4 78,86 77.6,91 Z"
   style="fill:#ffffff" />
			<line
   stroke-miterlimit="10"
   x1="86.5"
   y1="91.800003"
   x2="67.5"
   y2="64.400002"
   style="fill:none;stroke:#ffffff;stroke-width:6;stroke-miterlimit:10" />
		</g>
		<path
   d="m 60,69.3 c 2.7,4.2 8.3,5.4 12.4,2.7 4.2,-2.7 5.4,-8.3 2.7,-12.4 -2.7,-4.2 -8.3,-5.4 -12.4,-2.7 -4.2,2.6 -5.4,8.2 -2.7,12.4 z"
   style="fill:#ffffff" />
		<g>
			<path
   d="m 21.2,61.4 c -4.3,-2.5 -9.8,-1.1 -12.3,3.1 -2.5,4.3 -1.1,9.8 3.1,12.3 4.3,2.5 9.8,1.1 12.3,-3.1 2.5,-4.2 1.1,-9.7 -3.1,-12.3 z"
   style="fill:#ffffff" />
			<line
   stroke-miterlimit="10"
   x1="16.6"
   y1="69.099998"
   x2="67.5"
   y2="64.400002"
   style="fill:none;stroke:#ffffff;stroke-width:6;stroke-miterlimit:10" />
		</g>
	</g>
</g>

</svg>
