<svg
   width="512"
   height="512"
   viewBox="0 0 512 512"
   xmlns:xlink="http://www.w3.org/1999/xlink"
   xmlns="http://www.w3.org/2000/svg">
  <defs>
    <linearGradient
       id="autoidmagic-linearGradient3790">
      <stop
         style="stop-color:#a9a9a9;stop-opacity:1;"
         offset="0" />
      <stop
         style="stop-color:#000000;stop-opacity:1;"
         offset="1" />
    </linearGradient>
    <linearGradient
       xlink:href="#autoidmagic-linearGradient3790"
       id="autoidmagic-linearGradient3912"
       x1="186.74416"
       y1="354.42426"
       x2="255.84358"
       y2="254.35953"
       gradientUnits="userSpaceOnUse"
       gradientTransform="matrix(1.2227304,0,0,0.89945099,-289.31433,113.40259)" />
    <linearGradient
       xlink:href="#autoidmagic-linearGradient3857"
       id="autoidmagic-linearGradient3865"
       x1="120.68947"
       y1="239.61774"
       x2="120.68947"
       y2="602.17517"
       gradientUnits="userSpaceOnUse"
       gradientTransform="matrix(1.1905384,0,0,1.1905384,37.300888,-160.21844)" />
    <linearGradient
       id="autoidmagic-linearGradient3857">
      <stop
         style="stop-color:#ffffff;stop-opacity:1;"
         offset="0" />
      <stop
         style="stop-color:#ffffff;stop-opacity:0;"
         offset="1" />
    </linearGradient>
    <radialGradient
       xlink:href="#autoidmagic-linearGradient3790"
       id="autoidmagic-radialGradient3798"
       cx="294.45947"
       cy="208.37973"
       fx="294.45947"
       fy="208.37973"
       r="107.58125"
       gradientUnits="userSpaceOnUse"
       gradientTransform="matrix(1.5488558,0,0,1.5488558,-261.44061,-126.25709)" />
    <filter
       style="color-interpolation-filters:sRGB;"
       id="autoidmagic-filter25"
       x="-0.028124999"
       y="-0.030720314"
       width="1.05625"
       height="1.0614406">
      <feFlood
         result="flood"
         in="SourceGraphic"
         flood-opacity="1.000000"
         flood-color="rgb(255,255,255)" />
      <feGaussianBlur
         result="blur"
         in="SourceGraphic"
         stdDeviation="6.000000" />
      <feOffset
         result="offset"
         in="blur"
         dx="0.000000"
         dy="0.000000" />
      <feComposite
         result="comp1"
         operator="in"
         in="flood"
         in2="offset" />
      <feComposite
         result="comp2"
         operator="over"
         in="SourceGraphic"
         in2="comp1" />
    </filter>
  </defs>
  <g
     transform="matrix(0.94674554,0,0,0.94674618,13.633144,13.632989)">
    <g
       style="filter:url(#autoidmagic-filter25)">
      <path
         style="fill:#000000;fill-opacity:1;fill-rule:nonzero;stroke:none;stroke-width:1.54886"
         d="M 13.635188,21.627394 C 2.607888,45.236434 -2.129112,70.848784 0.89488807,97.234124 8.665088,165.03394 65.443888,220.09634 142.67109,244.62772 c -10.2624,-34.70602 -8.2724,-69.5997 4.0882,-101.98334 C 72.821588,120.67744 20.302888,76.340364 13.635188,21.627394 Z" />
      <path
         style="fill:#000000;fill-opacity:1;fill-rule:nonzero;stroke:none;stroke-width:1.54886"
         d="m 374.91439,23.708114 c 11.0272,23.60904 15.7642,49.22139 12.7403,75.60673 -7.7702,67.799816 -64.549,122.862206 -141.7762,147.393596 10.2623,-34.70602 8.2723,-69.5997 -4.0882,-101.98335 73.9377,-21.96694 126.4564,-66.304006 133.1241,-121.016976 z" />
      <path
         style="fill:#000000;fill-opacity:1;fill-rule:nonzero;stroke:none;stroke-width:1.54886"
         d="m 202.19999,236.65263 18.7026,-21.53792 c 6.317,-7.27466 30.9117,3.80974 55.145,24.8529 l 202.1284,175.51973 c 24.2333,21.04316 38.6569,43.84055 32.3399,51.11521 l -18.7026,21.53793 c -6.317,7.27466 -30.9117,-3.80974 -55.145,-24.8529 L 234.53989,287.76784 c -24.2333,-21.04316 -38.6569,-43.84054 -32.3399,-51.11521 z" />
      <circle
         style="fill:url(#autoidmagic-radialGradient3798);fill-opacity:1;fill-rule:nonzero;stroke:none;stroke-width:1.54886"
         cx="194.63452"
         cy="196.49309"
         r="166.62785" />
    </g>
    <circle
       style="fill:url(#autoidmagic-linearGradient3865);fill-opacity:1;fill-rule:nonzero;stroke:none;stroke-width:1.19054"
       cx="194.24341"
       cy="196.10191"
       r="120.86385" />
    <circle
       style="fill:#1a1a1a;fill-opacity:1;fill-rule:nonzero;stroke:none;stroke-width:1.54886"
       cx="196.12061"
       cy="198.72874"
       r="42.243675" />
    <circle
       style="fill:#ffffff;fill-opacity:1;fill-rule:nonzero;stroke:none;stroke-width:1.54886"
       cx="213.3623"
       cy="184.0927"
       r="8.6051931" />
  </g>
</svg>
