<svg
   xmlns="http://www.w3.org/2000/svg"
   width="512"
   height="512"
   viewBox="0 0 512 512">
  <path
     d="M 413.43884,316.22654 C 409.81341,153.08199 137.90582,165.77101 161.47115,323.47741 183.22375,481.18381 311.92668,512 311.92668,512 c 0,0 106.95031,-34.44163 101.51216,-195.77346 z"
     style="fill:#a40000;stroke-width:1.8127172" />
  <path
     d="m 208.60179,406.8624 c 83.385,7.25087 121.45206,5.43815 188.5226,-29.00348 -9.06359,87.01043 -83.385,119.63934 -83.385,119.63934 0,0 -77.94684,-21.7526 -103.32488,-90.63586 z"
     style="fill:#ffffff;stroke-width:1.8127172" />
  <g
     style="fill:none;stroke:#4e9a06;stroke-width:15"
     transform="matrix(1.8127172,0,0,1.8127172,76.273439,-24.5643)">
    <path
       d="M 103,137 C 77,69 13,62 13,62" />
    <path
       d="M 105,136 C 105,86 37,20 37,20" />
    <path
       d="M 105,135 C 112,73 83,17 83,17" />
  </g>
</svg>
