<svg
   xmlns="http://www.w3.org/2000/svg"
   width="512"
   height="512"
   viewBox="0 0 512 512">
  <path
     d="m 455.13594,110.31437 q 7.96543,7.96544 13.65503,21.62047 5.6896,13.65504 5.6896,25.03423 v 327.72086 q 0,11.3792 -7.96544,19.34463 Q 458.5497,512 447.1705,512 H 64.8295 q -11.3792,0 -19.34463,-7.96544 -7.96544,-7.96543 -7.96544,-19.34463 V 29.522074 q 0,-11.379196 7.96544,-19.344634 Q 53.4503,2.212003 64.8295,2.212003 h 254.894 q 11.3792,0 25.03423,5.6895981 13.65504,5.6895979 21.62047,13.6550359 z M 328.82686,40.901271 V 147.86572 H 435.7913 q -2.8448,-8.24992 -6.25856,-11.66368 L 340.49053,47.159829 Q 337.07677,43.74607 328.82686,40.901271 Z M 438.06714,475.58657 V 184.27914 H 319.7235 q -11.3792,0 -19.34463,-7.96543 -7.96544,-7.96544 -7.96544,-19.34464 V 38.625431 H 73.93286 V 475.58657 Z"
     style="fill:#0000ff;stroke-width:0.28447992" />
  <text
     xml:space="preserve"
     style="font-style:normal;font-weight:normal;font-size:3.41375899px;line-height:0%;font-family:sans-serif;letter-spacing:0px;word-spacing:0px;fill:#0000ff;fill-opacity:1;stroke:none;stroke-width:0.28447992px;stroke-linecap:butt;stroke-linejoin:miter;stroke-opacity:1"
     x="21.294685"
     y="467.65359"
     transform="scale(0.95420813,1.0479894)"><tspan
       x="21.294685"
       y="467.65359"
       style="font-style:normal;font-variant:normal;font-weight:normal;font-stretch:normal;font-size:641.4967041px;line-height:1.25;font-family:'Cabin Condensed';-inkscape-font-specification:'Cabin Condensed, ';fill:#0000ff;stroke-width:0.28447992px">B</tspan></text>
  <text
     xml:space="preserve"
     style="font-style:normal;font-weight:normal;font-size:3.41375899px;line-height:0%;font-family:sans-serif;letter-spacing:0px;word-spacing:0px;fill:#0000ff;fill-opacity:1;stroke:none;stroke-width:0.28447992px;stroke-linecap:butt;stroke-linejoin:miter;stroke-opacity:1"
     x="402.81888"
     y="219.26285"><tspan
       x="402.81888"
       y="219.26285"
       style="font-style:normal;font-variant:normal;font-weight:normal;font-stretch:normal;font-size:67.5639801px;line-height:87.99999952%;font-family:'Cabin Condensed';-inkscape-font-specification:'Cabin Condensed, ';fill:#0000ff;stroke-width:0.28447992px">p</tspan><tspan
       x="402.81888"
       y="278.71915"
       style="font-style:normal;font-variant:normal;font-weight:normal;font-stretch:normal;font-size:67.5639801px;line-height:87.99999952%;font-family:'Cabin Condensed';-inkscape-font-specification:'Cabin Condensed, ';fill:#0000ff;stroke-width:0.28447992px">a</tspan><tspan
       x="402.81888"
       y="338.17545"
       style="font-style:normal;font-variant:normal;font-weight:normal;font-stretch:normal;font-size:67.5639801px;line-height:87.99999952%;font-family:'Cabin Condensed';-inkscape-font-specification:'Cabin Condensed, ';fill:#0000ff;stroke-width:0.28447992px">s</tspan><tspan
       x="402.81888"
       y="397.63174"
       style="font-style:normal;font-variant:normal;font-weight:normal;font-stretch:normal;font-size:67.5639801px;line-height:87.99999952%;font-family:'Cabin Condensed';-inkscape-font-specification:'Cabin Condensed, ';fill:#0000ff;stroke-width:0.28447992px">t</tspan><tspan
       x="402.81888"
       y="457.08804"
       style="font-style:normal;font-variant:normal;font-weight:normal;font-stretch:normal;font-size:67.5639801px;line-height:87.99999952%;font-family:'Cabin Condensed';-inkscape-font-specification:'Cabin Condensed, ';fill:#0000ff;stroke-width:0.28447992px">y</tspan></text>
</svg>
