<svg
   xmlns="http://www.w3.org/2000/svg"
   xmlns:xlink="http://www.w3.org/1999/xlink"
   width="512"
   height="512"
   style="fill:url(#autoidmagic-linearGradient8)"
   viewBox="0 0 512 512">
  <defs>
    <linearGradient
       x1="331.94678"
       y1="12"
       x2="331.94678"
       y2="123"
       gradientUnits="userSpaceOnUse"
       id="autoidmagic-linearGradient8">
      <stop
         style="stop-color:#99a29b;stop-opacity:1"
         offset="0" />
      <stop
         style="stop-color:#738777;stop-opacity:1"
         offset="1" />
    </linearGradient>
    <linearGradient
       xlink:href="#autoidmagic-linearGradient8"
       id="autoidmagic-linearGradient27"
       gradientUnits="userSpaceOnUse"
       x1="331.94678"
       y1="12"
       x2="331.94678"
       y2="123"
       gradientTransform="matrix(3.5127656,0,0,3.1903866,-2.0368349,35.78584)" />
  </defs>
  <path
     d="M 454.62268,39.375 V 69.88308 H 101.86774 c -19.240578,0 -33.397888,4.37836 -42.51178,13.0681 -9.113951,8.69024 -13.641139,22.03378 -13.641139,40.13778 v 148.28697 c 0,5.56095 1.371946,9.71908 4.17141,12.46243 2.799448,2.66927 7.15311,3.98801 13.063095,3.98798 H 377.12229 c 9.3551,0 15.90694,1.91725 19.64953,5.78257 4.05375,3.86557 6.03729,10.42331 6.03759,19.64082 v 21.03662 c 0,9.19035 -1.99594,15.68718 -6.03759,19.54111 -3.73139,3.85404 -10.32213,5.78258 -19.64953,5.78258 H 56.03357 V 328.50378 L -0.5,395.50188 56.03357,462.5 v -31.10627 h 356.65547 c 24.34224,0 42.36791,-5.456 53.899,-16.45042 11.53034,-10.99435 17.23411,-27.9418 17.2345,-50.84679 v -87.23713 c -3.5e-4,-21.08287 -5.30405,-36.73884 -15.91722,-46.85881 -10.61385,-10.40078 -27.10211,-15.55312 -49.50803,-15.55312 H 152.41508 c -9.01732,0 -15.60745,-1.92821 -19.64954,-5.78257 -4.04229,-3.85399 -6.03757,-10.35034 -6.03757,-19.54113 v -20.93693 c 0,-9.19046 1.99528,-15.78635 6.03757,-19.64079 4.04209,-3.85392 10.63222,-5.78234 19.64954,-5.78257 h 302.2076 v 30.50805 l 56.53357,-66.8984 z"
     style="fill:url(#autoidmagic-linearGradient27);stroke-width:3.34769773" />
</svg>
