<svg
   xmlns="http://www.w3.org/2000/svg"
   width="512"
   height="512"
   viewBox="0 0 512 512">
  <g
     transform="translate(-196.12392,-109.04327)">
    <g
       transform="matrix(3.5859,0,0,3.5859,-507.15684,-1664.7313)">
      <path
         transform="scale(-1,1)"
         d="m -328.19676,621.04327 v -66.36423 h -10.70861 v -11.65563 h 24.76821 v 78.01986 h -14.0596 m 86.25165,0 -24.47682,-39.04635 -12.09271,12.45695 v 26.5894 H -292.3557 V 511.04328 h 13.84106 v 68.25827 l 29.86754,-36.27814 h 16.17219 l -24.98675,29.649 30.52317,48.37086 h -15.00662 m 31.76159,0 v -66.36423 h -10.70861 v -11.65563 h 24.76821 v 78.01986 h -14.0596"
         style="fill:currentColor;fill-opacity:1;stroke:none"/>
      <path
         d="m 138.39009,589.48792 h 14.586 v 14.61204 h -14.586 z"
         transform="matrix(-0.699056,0.715067,0.715067,0.699056,0,0)"
         style="fill:#c00040;fill-opacity:0.94117647;stroke:none" />
      <path
         d="m 221.10176,504.88187 h 14.586 v 14.61205 h -14.586 z"
         transform="matrix(-0.699056,0.715067,0.715067,0.699056,0,0)"
         style="fill:#c00040;fill-opacity:0.94117647;stroke:none" />
    </g>
  </g>
</svg>
