<svg
   viewBox="0 0 512 512"
   width="512"
   height="512"
   xmlns="http://www.w3.org/2000/svg">
  <style
     type="text/css">
.st0{fill-rule:evenodd;clip-rule:evenodd;fill:#404F54;}
.st1{fill-rule:evenodd;clip-rule:evenodd;fill:#E5E5E5;}
.st2{fill-rule:evenodd;clip-rule:evenodd;fill:#CCCCCC;}
.st3{fill-rule:evenodd;clip-rule:evenodd;fill:#37BEFF;}
</style>
  <polygon
     class="st3"
     points="582.79,372.95 582.79,549.77 295.96,384.1 295.96,207.27 "
     transform="matrix(0.89253029,0,0,0.89253029,-8.1577269,-126.5608)"
     style="clip-rule:evenodd;fill:#37beff;fill-rule:evenodd" />
  <polygon
     class="st0"
     points="9.14,372.95 9.14,549.77 295.96,384.1 295.96,207.27 "
     transform="matrix(0.89253029,0,0,0.89253029,-8.1577269,-126.5608)"
     style="clip-rule:evenodd;fill:#404f54;fill-rule:evenodd" />
  <path
     class="st2"
     d="m 255.99554,0 c 97.78562,0 177.08693,79.30132 177.08693,177.08693 0,97.78562 -79.30131,177.08694 -177.08693,177.08694 -97.78562,0 -177.086937,-79.30132 -177.086937,-177.08694 C 78.908603,79.30132 158.20992,0 255.99554,0"
     style="clip-rule:evenodd;fill:#cccccc;fill-rule:evenodd;stroke-width:0.89253" />
  <path
     class="st1"
     d="m 255.99554,0 c 97.82132,0 177.14941,79.30132 177.14941,177.08693 0,97.78562 -79.32809,177.08694 -177.14941,177.08694 C 199.84646,316.38414 176.61389,240.2513 176.61389,177.18511 176.61389,114.11892 199.84646,37.86113 255.99554,0"
     style="clip-rule:evenodd;fill:#e5e5e5;fill-rule:evenodd;stroke-width:0.89253" />
  <polygon
     class="st3"
     points="582.79,549.77 582.79,372.95 295.96,538.62 295.96,715.45 "
     transform="matrix(0.89253029,0,0,0.89253029,-8.1577269,-126.5608)"
     style="clip-rule:evenodd;fill:#37beff;fill-rule:evenodd" />
  <polygon
     class="st0"
     points="9.14,549.77 9.14,372.95 295.96,538.62 295.96,715.45 "
     transform="matrix(0.89253029,0,0,0.89253029,-8.1577269,-126.5608)"
     style="clip-rule:evenodd;fill:#404f54;fill-rule:evenodd" />
</svg>
