<svg
   width="512"
   height="512"
   viewBox="0 0 512 512"
   xmlns="http://www.w3.org/2000/svg">
  <g
     transform="translate(-118.91273,-33.549159)">
    <rect
       ry="256"
       rx="256"
       y="33.549168"
       x="118.91273"
       height="512"
       width="512"
       style="display:inline;opacity:1;vector-effect:none;fill:#2a00ff;fill-opacity:1;stroke:none;stroke-width:7.68869;stroke-linecap:butt;stroke-linejoin:miter;stroke-miterlimit:4;stroke-dasharray:none;stroke-dashoffset:0;stroke-opacity:1;marker:none;marker-start:none;marker-mid:none;marker-end:none;paint-order:stroke markers fill" />
    <path
       style="font-style:normal;font-variant:normal;font-weight:bold;font-stretch:normal;font-size:14.948px;line-height:1.25;font-family:sans-serif;-inkscape-font-specification:'sans-serif Bold';letter-spacing:0px;word-spacing:0px;display:inline;fill:#ffffff;fill-opacity:1;stroke:none;stroke-width:10.1257"
       d="M 269.43659,153.97578 V 449.26 h 76.13084 V 346.80184 h 50.2365 c 37.57568,0 66.39375,-8.30751 86.43432,-24.91975 20.17221,-16.74421 30.2609,-40.59999 30.2609,-71.58372 0,-30.85174 -10.08869,-54.59193 -30.2609,-71.20451 -20.04057,-16.74422 -48.85864,-25.11808 -86.43432,-25.11808 z m 76.13084,55.18066 h 42.13432 c 14.76643,0 26.17017,3.56275 34.21267,10.68268 8.04249,7.11958 12.07211,17.27499 12.07211,30.45925 0,13.18461 -4.02962,23.40671 -12.07211,30.65829 -8.0425,7.11956 -19.44624,10.68233 -34.21267,10.68233 h -42.13432 z" />
  </g>
</svg>
