<svg
   xmlns="http://www.w3.org/2000/svg"
   x="0px"
   y="0px"
   width="512"
   height="512"
   viewBox="0 0 512 512">
<g
   transform="matrix(10.520908,0,0,10.520908,6.09e-6,6.09e-6)">
	<g>
		<path
   d="m 40.332,31.592 c -2.377,0 -4.515,1 -6.033,2.598 L 16.562,25.504 c 0.061,-0.406 0.103,-0.82 0.103,-1.246 0,-0.414 -0.04,-0.818 -0.098,-1.215 l 17.711,-8.589 c 1.519,1.609 3.666,2.619 6.054,2.619 4.603,0 8.333,-3.731 8.333,-8.333 0,-4.603 -3.73,-8.333 -8.333,-8.333 -4.603,0 -8.333,3.73 -8.333,8.333 0,0.414 0.04,0.817 0.098,1.215 L 14.388,18.544 C 12.869,16.935 10.722,15.925 8.334,15.925 3.73,15.925 0,19.656 0,24.258 c 0,4.603 3.73,8.333 8.333,8.333 2.377,0 4.515,-1 6.033,-2.596 l 17.736,8.685 c -0.062,0.406 -0.104,0.82 -0.104,1.245 0,4.604 3.73,8.333 8.333,8.333 4.603,0 8.333,-3.729 8.333,-8.333 10e-4,-4.603 -3.729,-8.333 -8.332,-8.333 z"
   fill="currentColor" />
	</g>
</g>
</svg>
