<?xml version="1.0" encoding="UTF-8" standalone="no"?>
<!-- Generator: Adobe Illustrator 16.0.0, SVG Export Plug-In . SVG Version: 6.00 Build 0)  -->

<svg
   xmlns:dc="http://purl.org/dc/elements/1.1/"
   xmlns:cc="http://creativecommons.org/ns#"
   xmlns:rdf="http://www.w3.org/1999/02/22-rdf-syntax-ns#"
   xmlns:svg="http://www.w3.org/2000/svg"
   xmlns="http://www.w3.org/2000/svg"
   xmlns:sodipodi="http://sodipodi.sourceforge.net/DTD/sodipodi-0.dtd"
   xmlns:inkscape="http://www.inkscape.org/namespaces/inkscape"
   version="1.1"
   id="Capa_1"
   x="0px"
   y="0px"
   width="512"
   height="512"
   viewBox="0 0 511.99999 511.99999"
   xml:space="preserve"
   sodipodi:docname="sharing.svg"
   inkscape:version="0.92.4 (5da689c313, 2019-01-14)"><metadata
   id="metadata75653"><rdf:RDF><cc:Work
       rdf:about=""><dc:format>image/svg+xml</dc:format><dc:type
         rdf:resource="http://purl.org/dc/dcmitype/StillImage" /><dc:title></dc:title></cc:Work></rdf:RDF></metadata><defs
   id="defs75651" /><sodipodi:namedview
   pagecolor="#ffffff"
   bordercolor="#666666"
   borderopacity="1"
   objecttolerance="10"
   gridtolerance="10"
   guidetolerance="10"
   inkscape:pageopacity="0"
   inkscape:pageshadow="2"
   inkscape:window-width="1633"
   inkscape:window-height="1332"
   id="namedview75649"
   showgrid="false"
   fit-margin-top="0"
   fit-margin-left="0"
   fit-margin-right="0"
   fit-margin-bottom="0"
   inkscape:zoom="0.60618513"
   inkscape:cx="10.196697"
   inkscape:cy="-371.50636"
   inkscape:window-x="1613"
   inkscape:window-y="500"
   inkscape:window-maximized="0"
   inkscape:current-layer="Capa_1" />
<g
   id="g75616"
   transform="matrix(10.520908,0,0,10.520908,6.09e-6,6.09e-6)">
	<g
   id="g75614">
		<path
   d="m 40.332,31.592 c -2.377,0 -4.515,1 -6.033,2.598 L 16.562,25.504 c 0.061,-0.406 0.103,-0.82 0.103,-1.246 0,-0.414 -0.04,-0.818 -0.098,-1.215 l 17.711,-8.589 c 1.519,1.609 3.666,2.619 6.054,2.619 4.603,0 8.333,-3.731 8.333,-8.333 0,-4.603 -3.73,-8.333 -8.333,-8.333 -4.603,0 -8.333,3.73 -8.333,8.333 0,0.414 0.04,0.817 0.098,1.215 L 14.388,18.544 C 12.869,16.935 10.722,15.925 8.334,15.925 3.73,15.925 0,19.656 0,24.258 c 0,4.603 3.73,8.333 8.333,8.333 2.377,0 4.515,-1 6.033,-2.596 l 17.736,8.685 c -0.062,0.406 -0.104,0.82 -0.104,1.245 0,4.604 3.73,8.333 8.333,8.333 4.603,0 8.333,-3.729 8.333,-8.333 10e-4,-4.603 -3.729,-8.333 -8.332,-8.333 z"
   id="path75612"
   inkscape:connector-curvature="0" />
	</g>
</g>
<g
   id="g75618"
   transform="matrix(10.520908,0,0,10.520908,6.09e-6,6.09e-6)">
</g>
<g
   id="g75620"
   transform="matrix(10.520908,0,0,10.520908,6.09e-6,6.09e-6)">
</g>
<g
   id="g75622"
   transform="matrix(10.520908,0,0,10.520908,6.09e-6,6.09e-6)">
</g>
<g
   id="g75624"
   transform="matrix(10.520908,0,0,10.520908,6.09e-6,6.09e-6)">
</g>
<g
   id="g75626"
   transform="matrix(10.520908,0,0,10.520908,6.09e-6,6.09e-6)">
</g>
<g
   id="g75628"
   transform="matrix(10.520908,0,0,10.520908,6.09e-6,6.09e-6)">
</g>
<g
   id="g75630"
   transform="matrix(10.520908,0,0,10.520908,6.09e-6,6.09e-6)">
</g>
<g
   id="g75632"
   transform="matrix(10.520908,0,0,10.520908,6.09e-6,6.09e-6)">
</g>
<g
   id="g75634"
   transform="matrix(10.520908,0,0,10.520908,6.09e-6,6.09e-6)">
</g>
<g
   id="g75636"
   transform="matrix(10.520908,0,0,10.520908,6.09e-6,6.09e-6)">
</g>
<g
   id="g75638"
   transform="matrix(10.520908,0,0,10.520908,6.09e-6,6.09e-6)">
</g>
<g
   id="g75640"
   transform="matrix(10.520908,0,0,10.520908,6.09e-6,6.09e-6)">
</g>
<g
   id="g75642"
   transform="matrix(10.520908,0,0,10.520908,6.09e-6,6.09e-6)">
</g>
<g
   id="g75644"
   transform="matrix(10.520908,0,0,10.520908,6.09e-6,6.09e-6)">
</g>
<g
   id="g75646"
   transform="matrix(10.520908,0,0,10.520908,6.09e-6,6.09e-6)">
</g>
</svg>