<?xml version="1.0" encoding="UTF-8" standalone="no"?>
<svg
   width="512"
   height="512"
   viewBox="0 0 512 512"
   version="1.1"
   id="svg5"
   sodipodi:docname="sogo.svg"
   inkscape:version="1.2.2 (b0a8486541, 2022-12-01)"
   inkscape:export-filename="sogo.png"
   inkscape:export-xdpi="48"
   inkscape:export-ydpi="48"
   xmlns:inkscape="http://www.inkscape.org/namespaces/inkscape"
   xmlns:sodipodi="http://sodipodi.sourceforge.net/DTD/sodipodi-0.dtd"
   xmlns="http://www.w3.org/2000/svg"
   xmlns:svg="http://www.w3.org/2000/svg">
  <defs
     id="defs9" />
  <sodipodi:namedview
     id="namedview7"
     pagecolor="#ffffff"
     bordercolor="#000000"
     borderopacity="0.25"
     inkscape:showpageshadow="2"
     inkscape:pageopacity="0.0"
     inkscape:pagecheckerboard="0"
     inkscape:deskcolor="#d1d1d1"
     showgrid="false"
     inkscape:zoom="1.3427734"
     inkscape:cx="103.51709"
     inkscape:cy="245.76"
     inkscape:window-width="3840"
     inkscape:window-height="2091"
     inkscape:window-x="0"
     inkscape:window-y="0"
     inkscape:window-maximized="1"
     inkscape:current-layer="svg5" />
  <g
     id="surface1"
     transform="translate(0,116)">
    <path
       style="fill:#4fbd35;fill-opacity:1;fill-rule:nonzero;stroke:none"
       d="m 455.86328,69.753906 c -7.95703,0 -13.60547,-5.824218 -13.60547,-13.640625 0,-7.820312 5.64844,-13.644531 13.60547,-13.644531 8.01953,0 13.66797,5.824219 13.66797,13.644531 0,7.816407 -5.64844,13.640625 -13.66797,13.640625 z M 455.83984,29.125 c -15.7539,0 -26.94531,11.519531 -26.94531,26.988281 0,15.464844 11.19141,26.984375 26.94531,26.984375 15.85547,0 27.04688,-11.519531 27.04688,-26.984375 0,-15.46875 -11.19141,-26.988281 -27.04688,-26.988281 z m -0.0234,67.960938 c -23.91016,0 -40.89844,-17.496094 -40.89844,-40.972657 0,-23.480469 16.98828,-40.964843 40.89844,-40.964843 24.0664,0 41.04687,17.484374 41.04687,40.964843 0,23.476563 -16.98047,40.972657 -41.04687,40.972657 z M 455.78516,0 c -32.7461,0 -55.9961,23.957031 -55.9961,56.113281 0,32.152344 23.25,56.101559 55.9961,56.101559 C 488.73828,112.21484 512,88.265625 512,56.113281 512,23.957031 488.73828,0 455.78516,0 Z M 63.5625,100.33203 46.75,96.324219 C 31.445312,92.808594 23.667969,88.792969 23.667969,77.757812 c 0,-12.546874 12.792969,-17.574218 24.335937,-17.574218 11.734375,0 20.304688,5.863281 25.355469,14.992187 0.01563,0.03516 0.03906,0.07813 0.07031,0.125 0.101562,0.195313 0.222656,0.386719 0.324218,0.585938 l 0.02344,-0.01953 c 1.589844,2.402343 4.257812,4.007812 7.136718,4.007812 4.894532,0 8.445313,-3.539062 8.445313,-8.4375 0,-1.871094 -0.402344,-3.855469 -1.28125,-5.351562 C 79.46875,51.445312 65.269531,45.132812 49.007812,45.132812 c -22.074218,0 -43.410156,11.039063 -43.410156,35.375 0,22.335938 22.085938,28.863278 30.113282,30.863278 l 16.054687,3.76563 c 12.292969,3.01172 22.328125,7.03516 22.328125,18.8164 0,13.55079 -14.046875,19.15235 -27.597656,19.15235 -13.796875,0 -24.011719,-7.4961 -31.050782,-17.89453 h -0.0078 c -1.566406,-2.40235 -3.992188,-3.46485 -6.960938,-3.46485 -4.789062,0 -8.644531,4.14844 -8.47265575,8.92969 0.08203125,1.95313 0.73046875,3.71094 1.72265575,5.125 11.03125,16.50781 26.984376,22.73047 44.769532,22.73047 22.835937,0 45.667968,-10.51563 45.667968,-36.10547 0,-16.55469 -12.292968,-28.32422 -28.601562,-32.09375 z m 112.25,53.12891 c -27.08984,0 -44.15625,-20.32422 -44.15625,-46.66797 0,-26.351564 17.06641,-46.671876 44.15625,-46.671876 27.35547,0 44.41406,20.320312 44.41406,46.671876 0,26.34375 -17.05859,46.66797 -44.41406,46.66797 z m 0,-108.394534 c -36.375,0 -62.21875,26.34375 -62.21875,61.726564 0,35.375 25.84375,61.71875 62.21875,61.71875 36.62891,0 62.47656,-26.34375 62.47656,-61.71875 0,-35.382814 -25.84765,-61.726564 -62.47656,-61.726564 z m 176.19141,95.593754 c -0.61719,0.58984 -1.24219,1.17578 -1.92188,1.73828 -0.88281,0.8125 -1.91016,1.6914 -3.08203,2.5664 -7.0625,5.11328 -15.98438,8.07422 -26.41406,8.07422 -27.10157,0 -44.15625,-20.32031 -44.15625,-46.66406 0,-26.351562 17.05468,-46.671875 44.15625,-46.671875 27.34765,0 44.40625,20.320313 44.40625,46.671875 0,13.75781 -4.65235,25.85547 -12.98828,34.28516 z m -40.4961,66.89843 c 2.02344,0 4.11719,-0.13281 6.28906,-0.40234 4.01563,-0.50391 7.67188,-0.72656 10.98438,-0.72656 15.39062,0.0859 23.23047,4.55859 27.95312,9.72656 4.71875,5.19922 6.53516,12.25 6.52735,18.23828 0.008,2.86719 -0.44141,5.43359 -0.94141,6.97656 -2.35547,7.14063 -7.10937,12 -14.39453,15.66016 -7.23047,3.58594 -16.87891,5.42187 -26.96875,5.40625 -3.60937,0 -7.28125,-0.23047 -10.91016,-0.66797 -6.85937,-0.78906 -15.92968,-3.73437 -22.5039,-8.87109 -3.3086,-2.5625 -5.16797,-5.59375 -7.08594,-9.19141 -1.90234,-3.60937 -2.22656,-7.79687 -2.22656,-13.15234 v -0.59375 c 0,-9.875 3.87109,-16.4336 8.83984,-21.19922 2.45703,-2.32422 4.55469,-4.05078 6.39453,-5.15235 0.29297,-0.17187 0.34766,-0.33203 0.60157,-0.47265 4.875,2.88281 10.71093,4.44922 17.4414,4.42187 z m 9.07813,-162.906246 c -36.375,0 -62.22657,26.339844 -62.22657,61.722656 0,23.91016 11.8086,43.67969 30.69922,53.99219 -0.25,0.25 -0.49609,0.51172 -0.73047,0.77343 -4.88281,5.34766 -7.38281,12.19922 -7.39062,19.12891 -0.004,3.05859 0.5,6.19531 1.58203,9.19531 -2.44922,1.56641 -5.375,3.70703 -8.36719,6.51953 -7.22265,6.72657 -14.98828,18.03125 -15.21875,33.67579 -0.008,0.36328 -0.008,0.66406 -0.008,0.89453 -0.008,8.05859 1.90625,15.32422 5.16797,21.41797 4.90625,9.17578 12.54687,15.55859 20.43359,19.8164 7.9336,4.26953 16.20313,6.53516 23.41797,7.42188 4.29688,0.51172 8.66016,0.78906 13.01172,0.78906 12.12109,-0.0156 24.21094,-2.0625 34.73047,-7.21484 10.46484,-5.07422 19.46484,-13.80469 23.35156,-26.05079 1.15625,-3.64062 1.76953,-7.77343 1.78516,-12.33984 -0.0156,-9.27734 -2.67969,-20.60937 -11.01563,-29.96484 -8.33593,-9.38672 -22.12109,-15.65235 -41.02734,-15.56641 -4.11328,0 -8.48438,0.28516 -13.14063,0.86328 -1.5039,0.17969 -2.8789,0.26563 -4.13281,0.26563 -5.79297,-0.0352 -8.69922,-1.64063 -10.42969,-3.27735 -1.70703,-1.66797 -2.55859,-3.87109 -2.58203,-6.44531 -0.008,-2.625 1.02735,-5.38281 2.77344,-7.26172 1.78516,-1.86719 4.00391,-3.1289 7.875,-3.17578 0.34766,0 0.71875,0.008 1.09766,0.0391 2.48437,0.17188 4.89062,0.25782 7.23047,0.25782 19.35156,0.0391 33.90625,-5.95704 43.80468,-14.20704 9.9336,-8.25 15.17969,-18.28125 17.65625,-26.20703 l -0.0312,-0.008 c 2.69532,-7.11719 4.16016,-14.97265 4.16016,-23.33203 0,-35.382812 -25.84375,-61.722656 -62.47656,-61.722656 z m 0,0"
       id="path2" />
  </g>
</svg>
