<?xml version="1.0" encoding="UTF-8" standalone="no"?>
<svg
   xmlns:dc="http://purl.org/dc/elements/1.1/"
   xmlns:cc="http://creativecommons.org/ns#"
   xmlns:rdf="http://www.w3.org/1999/02/22-rdf-syntax-ns#"
   xmlns:svg="http://www.w3.org/2000/svg"
   xmlns="http://www.w3.org/2000/svg"
   xmlns:sodipodi="http://sodipodi.sourceforge.net/DTD/sodipodi-0.dtd"
   xmlns:inkscape="http://www.inkscape.org/namespaces/inkscape"
   width="512"
   height="512"
   id="svg2856"
   version="1.1"
   sodipodi:docname="minetest.svg"
   inkscape:version="0.92.4 (5da689c313, 2019-01-14)">
  <sodipodi:namedview
     pagecolor="#ffffff"
     bordercolor="#666666"
     borderopacity="1"
     objecttolerance="10"
     gridtolerance="10"
     guidetolerance="10"
     inkscape:pageopacity="0"
     inkscape:pageshadow="2"
     inkscape:window-width="2272"
     inkscape:window-height="1469"
     id="namedview66016"
     showgrid="false"
     fit-margin-top="0"
     fit-margin-left="0"
     fit-margin-right="0"
     fit-margin-bottom="0"
     inkscape:zoom="0.43457604"
     inkscape:cx="-820.57807"
     inkscape:cy="-768.38702"
     inkscape:window-x="0"
     inkscape:window-y="27"
     inkscape:window-maximized="0"
     inkscape:current-layer="svg2856" />
  <style
     id="style65991">.s0{fill:#2e3436;filter:url(#filter3864);opacity:0.3;}.s1{fill:#4e9a06;stroke-linecap:round;stroke:#316004;}</style>
  <defs
     id="defs2858">
    <filter
       id="filter3864">
      <feGaussianBlur
         stdDeviation="0.2"
         id="feGaussianBlur3866" />
    </filter>
  </defs>
  <metadata
     id="metadata2861">
    <rdf:RDF>
      <cc:Work
         rdf:about="">
        <dc:format>image/svg+xml</dc:format>
        <dc:type
           rdf:resource="http://purl.org/dc/dcmitype/StillImage" />
        <dc:title></dc:title>
      </cc:Work>
    </rdf:RDF>
  </metadata>
  <g
     id="layer1"
     transform="matrix(11.836065,0,0,11.836065,-33.771143,-40.493753)">
    <path
       d="M 0,16 V 28 L 21,40.1 42,27.7 V 16.2 L 20.8,4 Z"
       id="path3047"
       transform="translate(3.4641013,6)"
       style="fill:#e9b96e;stroke:#573a0d;stroke-linecap:square"
       inkscape:connector-curvature="0" />
    <path
       d="m 8.5,30.9 -2,-1.2 v 6 L 17.3,42 v -2 l -1.7,-1 v -2 l -2.1,-1.2 v -4 l -5,-2.9 z"
       id="path3831"
       style="fill:#2e3436;stroke:#2e3436;stroke-linecap:round"
       inkscape:connector-curvature="0" />
    <path
       d="m 6.9,36 3.5,-2 3.5,2 1.6,0.9 v 2 l 2,1.2 v 2 z"
       id="path3870"
       style="fill:#555753;stroke:#2e3436"
       inkscape:connector-curvature="0" />
    <path
       d="m 26,19 5.5,3.2 v 2 l 6.6,3.8 3.5,-2 3.9,-2.3 v 2.5 -4 L 32.9,15 Z"
       id="path3851"
       style="fill:#fce94f;stroke:#625802;stroke-linecap:round;stroke-linejoin:round"
       inkscape:connector-curvature="0" />
    <path
       d="m 24.8,18.3 8.7,-5 v 2 l -8.7,5 z"
       id="path5684"
       style="fill:#e9b96e;stroke:#573a0d;stroke-linecap:round;stroke-linejoin:round;stroke-dashoffset:0.5"
       inkscape:connector-curvature="0" />
    <path
       d="m 26,5 -22.5,13 14,8.1 14,-7.9 -6.7,-3.9 8.7,-5 z"
       id="path3821"
       transform="translate(0,4)"
       style="fill:#73d216;stroke:#325b09;stroke-linecap:square;stroke-linejoin:round"
       inkscape:connector-curvature="0" />
    <path
       d="m 17.5,28.1 v 2 l 1.6,0.9 v 2 l 5.4,3.1 12,-7.1 v -2.1 l 2,-1.2 v -1.5 l -7,-4 z"
       id="path3825"
       transform="translate(0,4)"
       style="fill:#729fcf;stroke:#19314b;stroke-linecap:round"
       inkscape:connector-curvature="0" />
    <g
       id="g5691">
      <path
         id="path3862"
         d="m 13.9,20 6.9,4 -6.9,4 L 7,24 Z"
         class="s0"
         inkscape:connector-curvature="0"
         style="opacity:0.3;fill:#2e3436;filter:url(#filter3864)" />
      <g
         id="g3858">
        <path
           d="m 15.6,21 1.7,1 1.7,-1 v -6 l -1.7,-1 -1.7,1 z"
           id="path3833"
           transform="translate(-3.4641015,2)"
           style="fill:#c17d11;stroke:#8f5902;stroke-linecap:round"
           inkscape:connector-curvature="0" />
        <path
           d="m 10,13.8 7.3,4.2 6.6,-3.8 V 5.9 L 17.3,2 10,6.2 v 7.5 z"
           id="path3837"
           transform="translate(-3.4641015,2)"
           class="s1"
           inkscape:connector-curvature="0"
           style="fill:#4e9a06;stroke:#316004;stroke-linecap:round" />
      </g>
    </g>
    <g
       id="g5686"
       transform="translate(-4.2591582e-7,2)">
      <path
         transform="translate(24.248712,-2)"
         d="m 13.9,20 5.2,3 -5.2,3 -5.2,-3 z"
         id="path3868"
         class="s0"
         inkscape:connector-curvature="0"
         style="opacity:0.3;fill:#2e3436;filter:url(#filter3864)" />
      <path
         d="m 15.7,21.1 1.6,0.9 1.4,-0.8 V 12.8 L 17.3,12 15.7,13.1 Z"
         id="path3853"
         transform="translate(20.78461)"
         class="s1"
         inkscape:connector-curvature="0"
         style="fill:#4e9a06;stroke:#316004;stroke-linecap:round" />
    </g>
    <path
       d="M 12.1,33 11.3,32.5"
       id="path3872"
       style="fill:none;stroke:#ef2929;stroke-width:0.5;stroke-dasharray:0.5;stroke-dashoffset:0.30000001"
       inkscape:connector-curvature="0" />
    <path
       d="m 45.5,26.7 -4,2.3 v 1 l -2,1.2 v 2 l -2,1.2 v 4 l 8,-4.6 v -7 z"
       id="path3874"
       style="fill:#888a85;stroke:#2e3436;stroke-linecap:round;stroke-dashoffset:0.5"
       inkscape:connector-curvature="0" />
  </g>
</svg>
