<svg
   xmlns="http://www.w3.org/2000/svg"
   width="512"
   height="512"
   viewBox="0 0 512 512">
  <style>.s0{fill:#2e3436;filter:url(#filter3864);opacity:0.3;}.s1{fill:#4e9a06;stroke-linecap:round;stroke:#316004;}</style>
  <g
     transform="matrix(11.836065,0,0,11.836065,-33.771143,-40.493753)">
    <path
       d="M 0,16 V 28 L 21,40.1 42,27.7 V 16.2 L 20.8,4 Z"
       transform="translate(3.4641013,6)"
       style="fill:#e9b96e;stroke:#573a0d;stroke-linecap:square" />
    <path
       d="m 8.5,30.9 -2,-1.2 v 6 L 17.3,42 v -2 l -1.7,-1 v -2 l -2.1,-1.2 v -4 l -5,-2.9 z"
       style="fill:#2e3436;stroke:#2e3436;stroke-linecap:round" />
    <path
       d="m 6.9,36 3.5,-2 3.5,2 1.6,0.9 v 2 l 2,1.2 v 2 z"
       style="fill:#555753;stroke:#2e3436" />
    <path
       d="m 26,19 5.5,3.2 v 2 l 6.6,3.8 3.5,-2 3.9,-2.3 v 2.5 -4 L 32.9,15 Z"
       style="fill:#fce94f;stroke:#625802;stroke-linecap:round;stroke-linejoin:round" />
    <path
       d="m 24.8,18.3 8.7,-5 v 2 l -8.7,5 z"
       style="fill:#e9b96e;stroke:#573a0d;stroke-linecap:round;stroke-linejoin:round;stroke-dashoffset:0.5" />
    <path
       d="m 26,5 -22.5,13 14,8.1 14,-7.9 -6.7,-3.9 8.7,-5 z"
       transform="translate(0,4)"
       style="fill:#73d216;stroke:#325b09;stroke-linecap:square;stroke-linejoin:round" />
    <path
       d="m 17.5,28.1 v 2 l 1.6,0.9 v 2 l 5.4,3.1 12,-7.1 v -2.1 l 2,-1.2 v -1.5 l -7,-4 z"
       transform="translate(0,4)"
       style="fill:#729fcf;stroke:#19314b;stroke-linecap:round" />
    <g>
      <path
         d="m 13.9,20 6.9,4 -6.9,4 L 7,24 Z"
         class="s0"
         style="opacity:0.3;fill:#2e3436;filter:url(#filter3864)" />
      <g>
        <path
           d="m 15.6,21 1.7,1 1.7,-1 v -6 l -1.7,-1 -1.7,1 z"
           transform="translate(-3.4641015,2)"
           style="fill:#c17d11;stroke:#8f5902;stroke-linecap:round" />
        <path
           d="m 10,13.8 7.3,4.2 6.6,-3.8 V 5.9 L 17.3,2 10,6.2 v 7.5 z"
           transform="translate(-3.4641015,2)"
           class="s1"
           style="fill:#4e9a06;stroke:#316004;stroke-linecap:round" />
      </g>
    </g>
    <g
       transform="translate(-4.2591582e-7,2)">
      <path
         transform="translate(24.248712,-2)"
         d="m 13.9,20 5.2,3 -5.2,3 -5.2,-3 z"
         class="s0"
         style="opacity:0.3;fill:#2e3436;filter:url(#filter3864)" />
      <path
         d="m 15.7,21.1 1.6,0.9 1.4,-0.8 V 12.8 L 17.3,12 15.7,13.1 Z"
         transform="translate(20.78461)"
         class="s1"
         style="fill:#4e9a06;stroke:#316004;stroke-linecap:round" />
    </g>
    <path
       d="M 12.1,33 11.3,32.5"
       style="fill:none;stroke:#ef2929;stroke-width:0.5;stroke-dasharray:0.5;stroke-dashoffset:0.30000001" />
    <path
       d="m 45.5,26.7 -4,2.3 v 1 l -2,1.2 v 2 l -2,1.2 v 4 l 8,-4.6 v -7 z"
       style="fill:#888a85;stroke:#2e3436;stroke-linecap:round;stroke-dashoffset:0.5" />
  </g>
</svg>
