<svg
   xmlns="http://www.w3.org/2000/svg"
   width="512"
   height="512"
   viewBox="0 0 512 512"
   fill="currentColor">
  <g
     transform="matrix(1.5023122,0,0,1.5023122,14.64378,0)">
    <path
       d="m 10.875,9.711 v 321.386 h 23.13 v 7.711 H 2 V 2 h 32 v 7.71 z" />
    <path
       d="m 100,111.595 v 16.264 h 0.463 c 4.338,-6.191 9.563,-11 15.684,-14.406 6.117,-3.402 13.129,-5.11 21.027,-5.11 7.588,0 14.521,1.475 20.793,4.415 6.274,2.945 11.038,8.131 14.291,15.567 3.56,-5.265 8.4,-9.913 14.521,-13.94 6.117,-4.025 13.358,-6.042 21.724,-6.042 6.351,0 12.234,0.776 17.66,2.325 5.418,1.549 10.065,4.027 13.938,7.434 3.869,3.41 6.889,7.863 9.062,13.357 2.167,5.504 3.253,12.122 3.253,19.869 v 80.385 H 219.41 v -68.074 c 0,-4.025 -0.154,-7.82 -0.465,-11.385 -0.313,-3.56 -1.161,-6.656 -2.555,-9.293 -1.395,-2.631 -3.45,-4.724 -6.157,-6.274 -2.711,-1.543 -6.391,-2.322 -11.037,-2.322 -4.646,0 -8.403,0.896 -11.269,2.671 -2.868,1.784 -5.112,4.109 -6.737,6.971 -1.626,2.869 -2.711,6.12 -3.252,9.762 -0.545,3.638 -0.814,7.318 -0.814,11.035 v 66.91 h -33 v -67.375 c 0,-3.562 -0.081,-7.087 -0.23,-10.57 -0.158,-3.487 -0.814,-6.7 -1.978,-9.645 -1.162,-2.94 -3.1,-5.304 -5.809,-7.088 -2.711,-1.775 -6.7,-2.671 -11.965,-2.671 -1.551,0 -3.603,0.349 -6.156,1.048 -2.556,0.697 -5.036,2.016 -7.435,3.949 -2.404,1.938 -4.454,4.726 -6.158,8.363 -1.705,3.642 -2.556,8.402 -2.556,14.287 v 69.701 H 68.856 V 111.595 Z" />
    <path
       d="M 310.443,331.097 V 9.711 h -23.13 v -7.71 h 32 v 336.807 h -32 v -7.711 z" />
  </g>
</svg>
