<?xml version="1.0" encoding="UTF-8" standalone="no"?>
<svg
   xmlns:dc="http://purl.org/dc/elements/1.1/"
   xmlns:cc="http://creativecommons.org/ns#"
   xmlns:rdf="http://www.w3.org/1999/02/22-rdf-syntax-ns#"
   xmlns:svg="http://www.w3.org/2000/svg"
   xmlns="http://www.w3.org/2000/svg"
   xmlns:sodipodi="http://sodipodi.sourceforge.net/DTD/sodipodi-0.dtd"
   xmlns:inkscape="http://www.inkscape.org/namespaces/inkscape"
   version="1.1"
   id="Layer_1"
   x="0px"
   y="0px"
   width="512"
   height="512"
   viewBox="0 0 512 512"
   enable-background="new 0 0 64 64"
   xml:space="preserve"
   sodipodi:docname="wordpress.svg"
   inkscape:version="1.0.2 (e86c870879, 2021-01-15)"
   inkscape:export-filename="/home/bunny/work/freedombox/freedombox/static/themes/default/icons/wordpress.png"
   inkscape:export-xdpi="48"
   inkscape:export-ydpi="48"><metadata
     id="metadata15"><rdf:RDF><cc:Work
         rdf:about=""><dc:format>image/svg+xml</dc:format><dc:type
           rdf:resource="http://purl.org/dc/dcmitype/StillImage" /><dc:title /></cc:Work></rdf:RDF></metadata><defs
     id="defs13" /><sodipodi:namedview
     pagecolor="#ffffff"
     bordercolor="#666666"
     borderopacity="1"
     objecttolerance="10"
     gridtolerance="10"
     guidetolerance="10"
     inkscape:pageopacity="0"
     inkscape:pageshadow="2"
     inkscape:window-width="1848"
     inkscape:window-height="1016"
     id="namedview11"
     showgrid="false"
     inkscape:zoom="0.77929688"
     inkscape:cx="458.42259"
     inkscape:cy="386.63154"
     inkscape:window-x="0"
     inkscape:window-y="0"
     inkscape:window-maximized="1"
     inkscape:current-layer="Layer_1"
     inkscape:document-rotation="0" /><style
     id="style2">.style0{fill:	#0073aa;}</style><g
     id="g8"
     transform="scale(8)"><g
       id="g6"><path
         d="m 4.548,31.999 c 0,10.9 6.3,20.3 15.5,24.706 L 6.925,20.827 C 5.402,24.2 4.5,28 4.5,31.999 Z m 45.983,-1.385 c 0,-3.394 -1.219,-5.742 -2.264,-7.57 -1.391,-2.263 -2.695,-4.177 -2.695,-6.439 0,-2.523 1.912,-4.872 4.609,-4.872 0.121,0 0.2,0 0.4,0.022 C 45.653,7.3 39.1,4.5 32,4.548 c -9.591,0 -18.027,4.921 -22.936,12.4 0.645,0 1.3,0 1.8,0.033 2.871,0 7.316,-0.349 7.316,-0.349 1.479,-0.086 1.7,2.1 0.2,2.3 0,0 -1.487,0.174 -3.142,0.261 l 9.997,29.735 6.008,-18.017 -4.276,-11.718 c -1.479,-0.087 -2.879,-0.261 -2.879,-0.261 -1.48,-0.087 -1.306,-2.349 0.174,-2.262 0,0 4.5,0.3 7.2,0.349 2.87,0 7.317,-0.349 7.317,-0.349 1.479,-0.086 1.7,2.1 0.2,2.262 0,0 -1.489,0.174 -3.142,0.261 l 9.92,29.508 2.739,-9.148 C 49.628,35.7 50.5,33 50.5,30.614 Z M 32.481,34.4 24.244,58.334 c 2.46,0.7 5.1,1.1 7.8,1.1 3.197,0 6.262,-0.552 9.116,-1.556 -0.072,-0.118 -0.141,-0.243 -0.196,-0.379 z M 56.088,18.8 c 0.119,0.9 0.2,1.8 0.2,2.823 0,2.785 -0.521,5.916 -2.088,9.832 l -8.385,24.242 c 8.161,-4.758 13.65,-13.6 13.65,-23.728 C 59.451,27.2 58.2,22.7 56.1,18.83 Z M 32,0 C 14.355,0 0,14.355 0,32 0,49.6 14.4,64 32,64 49.6,64 64,49.645 64,31.999 64,14.4 49.6,0 32,0 Z m 0,62.533 C 15.165,62.533 1.467,48.835 1.467,31.999 1.467,15.2 15.2,1.5 32,1.5 48.8,1.5 62.534,15.2 62.5,32.032 62.533,48.8 48.8,62.5 32,62.533 Z"
         class="style0"
         id="path4" /></g></g></svg>
