<?xml version="1.0" encoding="UTF-8" standalone="no"?>
<svg
   xmlns:dc="http://purl.org/dc/elements/1.1/"
   xmlns:cc="http://creativecommons.org/ns#"
   xmlns:rdf="http://www.w3.org/1999/02/22-rdf-syntax-ns#"
   xmlns:svg="http://www.w3.org/2000/svg"
   xmlns="http://www.w3.org/2000/svg"
   xmlns:sodipodi="http://sodipodi.sourceforge.net/DTD/sodipodi-0.dtd"
   xmlns:inkscape="http://www.inkscape.org/namespaces/inkscape"
   viewBox="0 0 512 512"
   x="0px"
   y="0px"
   version="1.1"
   id="svg12"
   sodipodi:docname="coturn.svg"
   width="512"
   height="512"
   inkscape:version="0.92.4 (5da689c313, 2019-01-14)"
   inkscape:export-filename="/home/bunny/work/freedombox/plinth/static/themes/default/icons/coturn.png"
   inkscape:export-xdpi="48"
   inkscape:export-ydpi="48">
  <metadata
     id="metadata18">
    <rdf:RDF>
      <cc:Work
         rdf:about="">
        <dc:format>image/svg+xml</dc:format>
        <dc:type
           rdf:resource="http://purl.org/dc/dcmitype/StillImage" />
        <dc:title>Communication, video, call, camera, talk, record, media</dc:title>
      </cc:Work>
    </rdf:RDF>
  </metadata>
  <defs
     id="defs16" />
  <sodipodi:namedview
     pagecolor="#ffffff"
     bordercolor="#666666"
     borderopacity="1"
     objecttolerance="10"
     gridtolerance="10"
     guidetolerance="10"
     inkscape:pageopacity="0"
     inkscape:pageshadow="2"
     inkscape:window-width="1782"
     inkscape:window-height="1122"
     id="namedview14"
     showgrid="false"
     inkscape:zoom="0.73750001"
     inkscape:cx="23.98607"
     inkscape:cy="48.884982"
     inkscape:window-x="1233"
     inkscape:window-y="454"
     inkscape:window-maximized="0"
     inkscape:current-layer="svg12" />
  <title
     id="title2">Communication, video, call, camera, talk, record, media</title>
  <g
     data-name="Video Call"
     id="g6"
     transform="matrix(10.24,0,0,10.24,-71.68,-71.68)">
    <path
       d="m 36.1963,35.02 -5,-1 a 0.9967,0.9967 0 0 0 -1.1025,0.5576 l -2.1484,4.6061 a 19.09,19.09 0 0 1 -9.1286,-9.1286 l 4.6061,-2.1483 a 1.0008,1.0008 0 0 0 0.5576,-1.1026 l -1,-5 A 1,1 0 0 0 22,21 h -6 a 1,1 0 0 0 -1,1 21.0508,21.0508 0 0 0 21,21 1,1 0 0 0 1,-1 V 36 A 1,1 0 0 0 36.1963,35.02 Z M 21.8652,26.4258 18.06,28.2009 A 16.9646,16.9646 0 0 1 17.0507,23 h 4.13 z m 9.709,9.709 L 35,36.82 v 4.13 A 17.4236,17.4236 0 0 1 29.8,39.9381 Z M 56.5254,20.1494 A 0.9978,0.9978 0 0 0 55.5527,20.1055 L 45,25.3818 V 19 A 3.0033,3.0033 0 0 0 42,16 H 10 a 3.0033,3.0033 0 0 0 -3,3 v 26 a 3.0033,3.0033 0 0 0 3,3 h 32 a 3.0033,3.0033 0 0 0 3,-3 v -6.3818 l 10.5527,5.2763 A 1,1 0 0 0 57,43 V 21 A 1,1 0 0 0 56.5254,20.1494 Z M 43,45 a 1.0009,1.0009 0 0 1 -1,1 H 10 A 1.0013,1.0013 0 0 1 9,45 V 19 a 1.0013,1.0013 0 0 1 1,-1 h 32 a 1.0009,1.0009 0 0 1 1,1 z m 12,-3.6182 -10,-5 v -8.7636 l 10,-5 z"
       id="path4"
       inkscape:connector-curvature="0" />
  </g>
</svg>
