<svg
   xmlns="http://www.w3.org/2000/svg"
   width="512"
   height="512"
   viewBox="0 0 512 512" >
  <g
     transform="matrix(1.7663401,0,0,1.7663401,-4.5673475,9.5668645)">
    <path
       style="display:inline;fill:#bf0303;stroke-width:0.31999999"
       d="M 11.7124,83.16759 V 70.847587 h 36.96 36.96 v 12.320003 12.32 h -36.96 -36.96 z m 98.88,0 V 70.847587 h 36.95999 36.96 v 12.320003 12.32 h -36.96 -36.95999 z m 98.75423,11.81382 c -0.10683,-0.27839 -0.19424,-5.59461 -0.19424,-11.81382 0,-6.219213 0.0874,-11.535437 0.19424,-11.81383 0.17556,-0.457517 3.74373,-0.506173 37.12,-0.506173 h 36.92576 v 12.320003 12.32 h -36.92576 c -33.37627,0 -36.94444,-0.0487 -37.12,-0.50618 z" />
    <path
       style="display:inline;fill:#007f00;stroke-width:0.31999999"
       d="m 36.52795,207.93332 c -0.30094,-0.19113 -0.41625,-3.16879 -0.48,-12.3951 l -0.0839,-12.14353 -12.16,-0.16 -12.16,-0.16 v -12.32 -12.32 l 12.16,-0.16 12.16,-0.16 0.16,-12.16 0.16,-12.16 h 12.16 12.16 l 0.16,12.16 0.16,12.16 12.16,0.16 12.16,0.16 v 12.32 12.32 l -12.16,0.16 -12.16,0.16 -0.0839,12.14353 c -0.0637,9.22631 -0.17906,12.20397 -0.48,12.3951 -0.21785,0.13837 -5.58009,0.25157 -11.91609,0.25157 -6.336,0 -11.69824,-0.1132 -11.91609,-0.25157 z m 98.88,0 c -0.30094,-0.19113 -0.41625,-3.16879 -0.48,-12.3951 l -0.0839,-12.14353 -12.16,-0.16 -12.16,-0.16 v -12.32 -12.32 l 12.16,-0.16 12.16,-0.16 0.16,-12.16 0.16,-12.16 h 12.15999 12.16 l 0.16,12.16 0.16,12.16 12.16,0.16 12.16,0.16 v 12.32 12.32 l -12.16,0.16 -12.16,0.16 -0.0839,12.14353 c -0.0637,9.22631 -0.17906,12.20397 -0.48,12.3951 -0.21785,0.13837 -5.58009,0.25157 -11.91609,0.25157 -6.33599,0 -11.69823,-0.1132 -11.91608,-0.25157 z m 98.87999,0 c -0.30094,-0.19113 -0.41625,-3.16879 -0.48,-12.3951 l -0.0839,-12.14353 -12.16,-0.16 -12.16,-0.16 v -12.32 -12.32 l 12.16,-0.16 12.16,-0.16 0.0838,-12.24379 0.0838,-12.2438 12.2362,0.0838 12.23619,0.0838 0.16,12.16 0.16,12.16 12.16,0.16966 c 6.688,0.0933 12.19771,0.2013 12.2438,0.24 0.0461,0.0387 0.0461,5.57834 0,12.31034 l -0.0838,12.24 -12.16,0.16 -12.16,0.16 -0.0839,12.14353 c -0.0638,9.22631 -0.17906,12.20397 -0.48,12.3951 -0.21785,0.13837 -5.58009,0.25157 -11.91609,0.25157 -6.336,0 -11.69824,-0.1132 -11.91609,-0.25157 z" />
  </g>
</svg>
