<?xml version="1.0" encoding="UTF-8" standalone="no"?>
<!-- Created with Inkscape (http://www.inkscape.org/) -->

<svg
   xmlns:dc="http://purl.org/dc/elements/1.1/"
   xmlns:cc="http://creativecommons.org/ns#"
   xmlns:rdf="http://www.w3.org/1999/02/22-rdf-syntax-ns#"
   xmlns:svg="http://www.w3.org/2000/svg"
   xmlns="http://www.w3.org/2000/svg"
   xmlns:xlink="http://www.w3.org/1999/xlink"
   xmlns:sodipodi="http://sodipodi.sourceforge.net/DTD/sodipodi-0.dtd"
   xmlns:inkscape="http://www.inkscape.org/namespaces/inkscape"
   width="512"
   height="512"
   id="svg2"
   sodipodi:version="0.32"
   inkscape:version="0.92.4 (5da689c313, 2019-01-14)"
   version="1.0"
   sodipodi:docname="mumble.svg"
   inkscape:output_extension="org.inkscape.output.svg.inkscape"
   style="display:inline">
  <title
     id="title3169">Mumble logo</title>
  <defs
     id="defs4">
    <linearGradient
       id="linearGradient4117">
      <stop
         style="stop-color:#000000;stop-opacity:0;"
         offset="0"
         id="stop4119" />
      <stop
         id="stop4125"
         offset="0.81720757"
         style="stop-color:#000000;stop-opacity:0.01960784;" />
      <stop
         style="stop-color:#000000;stop-opacity:0.14509804;"
         offset="0.89931339"
         id="stop4127" />
      <stop
         id="stop4129"
         offset="0.91198522"
         style="stop-color:#000000;stop-opacity:0.20784314;" />
      <stop
         style="stop-color:#000000;stop-opacity:0.25098039;"
         offset="0.95598048"
         id="stop4131" />
      <stop
         style="stop-color:#000000;stop-opacity:0.33333334;"
         offset="1"
         id="stop4121" />
    </linearGradient>
    <linearGradient
       inkscape:collect="always"
       id="linearGradient3972">
      <stop
         style="stop-color:#b3b3b3;stop-opacity:1;"
         offset="0"
         id="stop3974" />
      <stop
         style="stop-color:#b3b3b3;stop-opacity:0;"
         offset="1"
         id="stop3976" />
    </linearGradient>
    <radialGradient
       inkscape:collect="always"
       xlink:href="#linearGradient1125-2"
       id="radialGradient1131-6"
       cx="333.52826"
       cy="217.58252"
       fx="333.52826"
       fy="217.58252"
       r="29.875"
       gradientTransform="matrix(-1.2415269,-0.49562449,-1.0311593,2.5830284,727.1113,-256.89966)"
       gradientUnits="userSpaceOnUse" />
    <linearGradient
       inkscape:collect="always"
       id="linearGradient1125-2">
      <stop
         style="stop-color:#e6e6e6;stop-opacity:1;"
         offset="0"
         id="stop1127-4" />
      <stop
         style="stop-color:#e6e6e6;stop-opacity:0;"
         offset="1"
         id="stop1129-5" />
    </linearGradient>
    <radialGradient
       inkscape:collect="always"
       xlink:href="#linearGradient961-9"
       id="radialGradient967-9"
       cx="172.61411"
       cy="303.20566"
       fx="172.61411"
       fy="303.20566"
       r="22.630014"
       gradientTransform="matrix(1.5851771,0,0,0.93451135,-25.833009,18.268694)"
       gradientUnits="userSpaceOnUse" />
    <linearGradient
       inkscape:collect="always"
       id="linearGradient961-9">
      <stop
         style="stop-color:#999999;stop-opacity:1;"
         offset="0"
         id="stop963-8" />
      <stop
         style="stop-color:#999999;stop-opacity:0;"
         offset="1"
         id="stop965-3" />
    </linearGradient>
    <radialGradient
       inkscape:collect="always"
       xlink:href="#linearGradient1125-6"
       id="radialGradient1131-8"
       cx="335.08649"
       cy="219.03677"
       fx="335.08649"
       fy="219.03677"
       r="29.875"
       gradientTransform="matrix(0.66404978,-0.33701905,0.77812877,1.5331957,13.09352,-82.319789)"
       gradientUnits="userSpaceOnUse" />
    <linearGradient
       id="linearGradient1125-6">
      <stop
         style="stop-color:#969696;stop-opacity:1;"
         offset="0"
         id="stop1127-9" />
      <stop
         style="stop-color:#e6e6e6;stop-opacity:0;"
         offset="1"
         id="stop1129-8" />
    </linearGradient>
    <radialGradient
       r="38.624973"
       fy="25.979427"
       fx="250.46019"
       cy="25.979427"
       cx="250.46019"
       gradientTransform="matrix(-1.4414039,0.96585081,0.25732018,0.38401614,527.94082,-317.29896)"
       gradientUnits="userSpaceOnUse"
       id="radialGradient1193-8"
       xlink:href="#linearGradient1117-8-2"
       inkscape:collect="always" />
    <linearGradient
       id="linearGradient1117-8-2">
      <stop
         style="stop-color:#afafaf;stop-opacity:1;"
         offset="0"
         id="stop1119-1-6" />
      <stop
         style="stop-color:#e6e6e6;stop-opacity:0;"
         offset="1"
         id="stop1121-2-2" />
    </linearGradient>
    <linearGradient
       id="linearGradient1284-7">
      <stop
         style="stop-color:#bebebe;stop-opacity:1;"
         offset="0"
         id="stop1286-8" />
      <stop
         style="stop-color:#b3b3b3;stop-opacity:0;"
         offset="1"
         id="stop1288-0" />
    </linearGradient>
    <radialGradient
       r="103.51558"
       fy="230.12292"
       fx="458.02847"
       cy="230.12292"
       cx="458.02847"
       gradientTransform="matrix(0.50702417,-0.01293105,0.01078573,0.42290687,10.458888,-37.518655)"
       gradientUnits="userSpaceOnUse"
       id="radialGradient1847"
       xlink:href="#linearGradient1284-7"
       inkscape:collect="always" />
    <linearGradient
       id="linearGradient1117-8-2-0">
      <stop
         style="stop-color:#afafaf;stop-opacity:1;"
         offset="0"
         id="stop1119-1-6-8" />
      <stop
         style="stop-color:#e6e6e6;stop-opacity:0;"
         offset="1"
         id="stop1121-2-2-9" />
    </linearGradient>
    <radialGradient
       r="38.624973"
       fy="25.979427"
       fx="250.46019"
       cy="25.979427"
       cx="250.46019"
       gradientTransform="matrix(1.4414039,0.96585081,-0.25732018,0.38401614,-40.962809,-318.32728)"
       gradientUnits="userSpaceOnUse"
       id="radialGradient2262"
       xlink:href="#linearGradient1117-8-2-0"
       inkscape:collect="always" />
    <linearGradient
       id="linearGradient1125-6-2">
      <stop
         style="stop-color:#969696;stop-opacity:1;"
         offset="0"
         id="stop1127-9-0" />
      <stop
         style="stop-color:#e6e6e6;stop-opacity:0;"
         offset="1"
         id="stop1129-8-5" />
    </linearGradient>
    <radialGradient
       r="29.875"
       fy="219.03677"
       fx="335.08649"
       cy="219.03677"
       cx="335.08649"
       gradientTransform="matrix(-0.66404978,-0.33701905,-0.77812877,1.5331957,478.8387,-83.660861)"
       gradientUnits="userSpaceOnUse"
       id="radialGradient2300"
       xlink:href="#linearGradient1125-6-2"
       inkscape:collect="always" />
    <radialGradient
       inkscape:collect="always"
       xlink:href="#linearGradient3972"
       id="radialGradient3978"
       cx="171.23438"
       cy="217.67747"
       fx="171.23438"
       fy="217.67747"
       r="19.572203"
       gradientTransform="matrix(1.4366495,0,0,3.3364291,-37.190415,-526.5238)"
       gradientUnits="userSpaceOnUse" />
    <radialGradient
       inkscape:collect="always"
       xlink:href="#linearGradient3972"
       id="radialGradient3980"
       cx="212.03125"
       cy="217.67747"
       fx="212.03125"
       fy="217.67747"
       r="16.494078"
       gradientTransform="matrix(1.4366495,0,0,3.9590737,-37.190415,-662.05947)"
       gradientUnits="userSpaceOnUse" />
    <radialGradient
       inkscape:collect="always"
       xlink:href="#linearGradient3972"
       id="radialGradient3982"
       cx="248.85938"
       cy="217.67747"
       fx="248.85938"
       fy="217.67747"
       r="16.697203"
       gradientTransform="matrix(1.4366495,0,0,3.9109105,-37.190415,-651.57549)"
       gradientUnits="userSpaceOnUse" />
    <radialGradient
       inkscape:collect="always"
       xlink:href="#linearGradient4117"
       id="radialGradient4123"
       cx="206.64375"
       cy="214.43469"
       fx="206.64375"
       fy="214.43469"
       r="190.25014"
       gradientTransform="matrix(1.3666269,0.02324281,-0.02340243,1.4006286,-19.933129,-162.45024)"
       gradientUnits="userSpaceOnUse" />
  </defs>
  <sodipodi:namedview
     id="base"
     pagecolor="#ffffff"
     bordercolor="#666666"
     borderopacity="1.0"
     inkscape:pageopacity="0.0"
     inkscape:pageshadow="2"
     inkscape:zoom="1.2780955"
     inkscape:cx="174.95355"
     inkscape:cy="98.426215"
     inkscape:document-units="px"
     inkscape:current-layer="layer5"
     showgrid="false"
     inkscape:snap-page="false"
     inkscape:snap-global="false"
     inkscape:window-width="1745"
     inkscape:window-height="1267"
     inkscape:window-x="844"
     inkscape:window-y="384"
     inkscape:window-maximized="0"
     inkscape:snap-object-midpoints="true"
     inkscape:snap-nodes="true"
     inkscape:snap-grids="false"
     inkscape:snap-to-guides="false"
     inkscape:snap-center="true"
     inkscape:snap-bbox="true"
     inkscape:bbox-nodes="true"
     inkscape:snap-bbox-edge-midpoints="true"
     inkscape:snap-bbox-midpoints="true"
     inkscape:bbox-paths="true" />
  <metadata
     id="metadata7">
    <rdf:RDF>
      <cc:Work
         rdf:about="">
        <dc:format>image/svg+xml</dc:format>
        <dc:type
           rdf:resource="http://purl.org/dc/dcmitype/StillImage" />
        <dc:title>Mumble logo</dc:title>
        <dc:date>2009.08.17</dc:date>
        <dc:creator>
          <cc:Agent>
            <dc:title>Martin Skilnand</dc:title>
          </cc:Agent>
        </dc:creator>
        <dc:rights>
          <cc:Agent>
            <dc:title>Martin Skilnand</dc:title>
          </cc:Agent>
        </dc:rights>
        <dc:publisher>
          <cc:Agent>
            <dc:title>Mumble team</dc:title>
          </cc:Agent>
        </dc:publisher>
        <dc:identifier>mumble.svg</dc:identifier>
        <dc:source>https://github.com/mumble-voip/mumble/</dc:source>
        <dc:description>Logo for voice chat program mumble</dc:description>
        <cc:license
           rdf:resource="BSD" />
      </cc:Work>
    </rdf:RDF>
  </metadata>
  <g
     inkscape:label="Circle"
     inkscape:groupmode="layer"
     id="layer1"
     transform="translate(0,-540.36218)"
     style="display:inline">
    <ellipse
       style="display:inline;fill:#1a1a1a;stroke:#000000;stroke-width:6.52594185;stroke-linejoin:round;stroke-miterlimit:4;stroke-dasharray:none;stroke-opacity:1"
       id="path26"
       cx="256.18661"
       cy="796.41754"
       rx="252.55042"
       ry="250.86903" />
    <ellipse
       style="display:inline;fill:#ffffff;stroke:#333333;stroke-width:1.97541142;stroke-linejoin:round;stroke-miterlimit:4;stroke-dasharray:none;stroke-opacity:1"
       id="path26-9"
       cx="253.75244"
       cy="792.7171"
       rx="248.58435"
       ry="245.03886" />
    <ellipse
       style="display:inline;fill:none;stroke:#000000;stroke-width:2.6213851;stroke-linejoin:round;stroke-miterlimit:4;stroke-dasharray:none;stroke-opacity:1"
       id="path26-8"
       cx="254.92615"
       cy="795.41248"
       rx="253.61545"
       ry="251.92699" />
  </g>
  <g
     inkscape:groupmode="layer"
     id="layer6"
     inkscape:label="Effects"
     style="display:inline"
     transform="translate(0,112)">
    <ellipse
       style="display:inline;opacity:0.75;fill:url(#radialGradient4123);fill-opacity:1;stroke:none;stroke-width:1.42088568"
       id="path26-9-5"
       cx="257.45349"
       cy="142.69611"
       rx="251.47275"
       ry="250.09352" />
  </g>
  <g
     inkscape:groupmode="layer"
     id="layer4"
     inkscape:label="Headstrap"
     style="display:inline"
     transform="translate(0,112)">
    <path
       style="fill:#000000;fill-opacity:1;fill-rule:evenodd;stroke:#ffffff;stroke-width:1.37044775"
       d="m 195.76332,-76.161885 c -33.78371,-0.843391 -68.00558,21.52236 -76.54294,54.991198 -1.98867,8.11365 -2.79975,15.8058459 -2.94303,23.6416489 0,29.0637771 0,58.1275631 0,87.1913271 11.42039,0 22.8408,0 34.2612,0 0.12073,-30.673492 -0.17361,-61.182415 0.23311,-91.9186501 1.0533,-19.5193939 16.13476,-40.0967639 37.06869,-39.8585289 0.15353,31.0663 -0.31408,62.151723 0.24674,93.205508 1.78547,25.251932 25.71257,46.151752 51.04012,44.010571 15.82261,-0.383996 31.76372,0.92249 47.48263,-0.993235 23.93593,-4.487424 40.50096,-28.865078 38.27529,-52.692752 0,-27.800537 0,-55.601075 0,-83.401613 21.77378,-1.590074 38.28699,19.547137 39.25285,39.8585289 0.40429,30.7353171 0.11306,61.2485161 0.2331,91.9186501 11.4204,0 22.84081,0 34.26121,0 0,-30.835068 0,-61.670143 0,-92.5052151 -1.121,-9.9714809 -2.70225,-22.1740999 -8.10606,-31.7922999 -14.01816,-28.438459 -46.80514,-43.782957 -77.72828,-41.471436 -9.03262,-1.147242 -18.74969,4.960661 -21.22398,13.521605 0.14905,36.643723 0.25459,73.300061 -0.0205,109.937121 -1.03253,15.348851 -16.15814,27.085503 -31.25337,25.136808 -10.67869,0.463952 -22.74072,0.01864 -30.02414,-9.156934 -9.81558,-10.374907 -6.52768,-25.223599 -7.10388,-38.114442 0.0264,-29.7647091 -0.0978,-59.502619 0.17116,-89.216655 -4.46675,-9.032975 -14.39393,-13.695715 -24.22821,-12.213331 l -1.62771,-0.02249 -1.72433,-0.05539 h 3.4e-4 z"
       id="rect1019"
       inkscape:connector-curvature="0" />
    <path
       style="display:inline;opacity:0.96660007;fill:url(#radialGradient1131-6);fill-opacity:1;fill-rule:evenodd;stroke:none;stroke-width:1.30518842"
       d="M 133.89588,83.804113 V 315.9237 c -45.8488,-5.02953 -81.884255,-55.0635 -81.884255,-116.05979 0,-60.99631 36.035455,-111.030269 81.884255,-116.059797 z"
       id="path833-1-4"
       inkscape:connector-curvature="0" />
  </g>
  <g
     inkscape:groupmode="layer"
     id="layer2"
     inkscape:label="Headphones"
     style="display:inline"
     transform="translate(0,112)">
    <path
       style="fill:#000000;fill-opacity:1;fill-rule:evenodd;stroke:#ffffff;stroke-width:1.37044775"
       d="m 384.90974,309.68255 c -0.95816,-0.01 -4.5369,-0.7881 -5.40015,-0.22883 0,0 -1.41922,4.1343 -6.30987,7.77392 -4.29323,3.19502 -8.37022,6.2577 -12.7378,9.13067 -3.92163,2.5796 -8.13053,5.36904 -12.07343,7.26672 -3.10264,1.49326 -5.63798,1.71059 -5.63798,1.71059 H 298.5953 c -2.75834,0 -5.01828,2.17512 -5.01828,4.88221 v 1.19914 c 0,2.70711 2.25994,4.92505 5.01828,4.92505 h 46.43002 c 1.06851,0 4.92966,-1.12406 7.22567,-2.13143 5.72413,-2.51143 9.45468,-5.7093 16.04781,-9.63074 7.00896,-4.48297 19.97102,-14.91873 19.97102,-14.91873 2.30198,-1.4914 2.91603,-4.50736 1.39639,-6.76658 l -0.65457,-1.02784 c -0.94977,-1.41201 -2.50497,-2.16861 -4.1019,-2.18415 z"
       id="rect134"
       sodipodi:nodetypes="ccsasccccccaccccc"
       inkscape:connector-curvature="0" />
    <path
       style="opacity:0.96660007;fill:#000000;fill-opacity:1;fill-rule:evenodd;stroke:#ffffff;stroke-width:1.37044775"
       d="M 381.93009,83.944098 V 316.0637 c 45.8488,-5.02953 81.88426,-55.0635 81.88426,-116.05981 0,-60.99629 -36.03546,-111.030265 -81.88426,-116.059792 z"
       id="path833"
       inkscape:connector-curvature="0" />
    <path
       style="display:inline;opacity:0.96660007;fill:#000000;fill-opacity:1;fill-rule:evenodd;stroke:#ffffff;stroke-width:1.37044775"
       d="M 132.47234,85.177369 V 317.29696 c -45.8488,-5.02953 -81.884258,-55.0635 -81.884258,-116.0598 0,-60.9963 36.035458,-111.030263 81.884258,-116.059791 z"
       id="path833-2"
       inkscape:connector-curvature="0" />
    <ellipse
       style="opacity:0.96660007;fill:#000000;fill-opacity:1;fill-rule:evenodd;stroke:#ffffff;stroke-width:1.64311182"
       id="path906"
       cx="261.14444"
       cy="339.29031"
       rx="37.687313"
       ry="21.927164" />
    <rect
       style="display:inline;opacity:0.96660007;fill:#000000;fill-opacity:1;fill-rule:evenodd;stroke:#ffffff;stroke-width:1.43955755"
       id="rect908-1"
       width="18.151211"
       height="235.64711"
       x="361.90756"
       y="80.189293"
       rx="5.2941036"
       ry="4.8515582" />
    <rect
       style="display:inline;opacity:0.96660007;fill:#000000;fill-opacity:1;fill-rule:evenodd;stroke:#ffffff;stroke-width:1.42516017"
       id="rect908-1-6"
       width="17.78887"
       height="235.66154"
       x="133.9922"
       y="81.552544"
       rx="5.1884203"
       ry="4.8518553" />
  </g>
  <g
     inkscape:groupmode="layer"
     id="layer3"
     inkscape:label="Sign"
     style="display:inline"
     transform="translate(0,112)">
    <rect
       style="fill:#000000;fill-opacity:1;fill-rule:evenodd;stroke:none;stroke-width:1.30518842"
       id="rect287"
       width="183.81561"
       height="146.0313"
       x="165.69884"
       y="126.31268" />
    <path
       id="path1297-8"
       style="font-style:normal;font-variant:normal;font-weight:bold;font-stretch:normal;font-size:64px;font-family:Tahoma;-inkscape-font-specification:'Tahoma Bold';text-align:center;text-anchor:middle;display:inline;fill:url(#radialGradient3978);fill-opacity:1;stroke:none;stroke-width:1.9365772"
       d="m 235.54852,223.27669 c -5e-5,6.03678 -0.62858,11.33927 -1.8856,15.90757 -1.25712,4.56834 -2.94817,8.34809 -5.07316,11.33922 -2.5142,3.58943 -5.27525,6.14549 -8.2832,7.66826 -3.00801,1.52279 -6.83159,2.28416 -11.47074,2.28416 H 182.07823 V 139.00746 h 23.61492 c 4.90852,1.2e-4 8.62735,0.34003 11.15648,1.01972 2.52906,0.67992 4.90103,2.10754 7.11591,4.28279 2.39436,2.33867 4.18269,5.4658 5.36498,9.38138 1.18219,3.91581 1.77332,8.42976 1.77337,13.54181 -5e-5,5.92804 -0.81566,11.20336 -2.4468,15.82598 -1.63124,4.6228 -3.88348,8.02185 -6.75674,10.19715 v 0.65262 c 4.13031,1.57724 7.43761,4.79953 9.92187,9.66691 2.48415,4.86749 3.72625,11.43446 3.7263,19.70087 z m -21.50485,-49.92523 c -4e-5,-1.95776 -0.27689,-3.96998 -0.83057,-6.03672 -0.55374,-2.06653 -1.41423,-3.56209 -2.58146,-4.48675 -1.10746,-0.87004 -2.4169,-1.3459 -3.92836,-1.42758 -1.51149,-0.0814 -3.76374,-0.12217 -6.75673,-0.12243 h -1.16727 v 25.69681 h 2.11008 c 2.87326,9e-5 4.88607,-0.0542 6.0384,-0.16315 1.1523,-0.1086 2.34202,-0.67971 3.56919,-1.71313 1.34682,-1.14199 2.27466,-2.71913 2.7835,-4.73146 0.50878,-2.01216 0.76318,-4.3507 0.76322,-7.01565 z m 4.22017,49.3542 c -5e-5,-3.7525 -0.41908,-6.68928 -1.25707,-8.81034 -0.83809,-2.12095 -2.09516,-3.72529 -3.7712,-4.81305 -1.01767,-0.70695 -2.41691,-1.10124 -4.19772,-1.18286 -1.78088,-0.0814 -4.16782,-0.12243 -7.1608,-0.12243 h -3.09777 v 30.4283 h 0.8979 c 4.36978,2e-5 7.39273,-0.0542 9.06885,-0.16316 1.67605,-0.10859 3.38208,-0.84293 5.11807,-2.20258 1.52639,-1.19643 2.64129,-2.95033 3.34469,-5.26172 0.70332,-2.31134 1.055,-4.93539 1.05505,-7.87222 z"
       inkscape:connector-curvature="0" />
    <path
       id="path1297"
       style="font-style:normal;font-variant:normal;font-weight:bold;font-stretch:normal;font-size:64px;font-family:Tahoma;-inkscape-font-specification:'Tahoma Bold';text-align:center;text-anchor:middle;fill:#ffffff;fill-opacity:1;stroke:none;stroke-width:1.9365772"
       d="m 229.70251,222.86335 c -7e-5,6.03676 -0.6286,11.33925 -1.8856,15.90755 -1.25713,4.56835 -2.94819,8.3481 -5.07318,11.33923 -2.51419,3.58942 -5.27525,6.1455 -8.28319,7.66825 -3.00801,1.5228 -6.8316,2.28417 -11.47074,2.28417 H 176.2322 V 138.5941 h 23.61493 c 4.90852,1.3e-4 8.62734,0.34004 11.15647,1.01973 2.52907,0.67993 4.90103,2.10753 7.11592,4.28279 2.39436,2.33867 4.18268,5.4658 5.36498,9.38137 1.18219,3.91581 1.77331,8.42976 1.77337,13.54182 -6e-5,5.92804 -0.81565,11.20336 -2.4468,15.82598 -1.63125,4.62281 -3.88348,8.02184 -6.75673,10.19715 v 0.65262 c 4.1303,1.57724 7.4376,4.79953 9.92185,9.6669 2.48416,4.86749 3.72625,11.43446 3.72632,19.70089 z M 208.19766,172.9381 c -4e-5,-1.95774 -0.2769,-3.96998 -0.83057,-6.03671 -0.55374,-2.06653 -1.41424,-3.56209 -2.58148,-4.48674 -1.10745,-0.87005 -2.41688,-1.34592 -3.92834,-1.4276 -1.5115,-0.0814 -3.76375,-0.12216 -6.75673,-0.12243 h -1.16729 v 25.69682 h 2.11008 c 2.87327,8e-5 4.88608,-0.0542 6.03842,-0.16315 1.15229,-0.1086 2.34201,-0.67972 3.56918,-1.71312 1.34681,-1.14201 2.27466,-2.71915 2.78351,-4.73148 0.50878,-2.01216 0.76318,-4.3507 0.76322,-7.01564 z m 4.22015,49.3542 c -4e-5,-3.7525 -0.41907,-6.68927 -1.25707,-8.81033 -0.83808,-2.12096 -2.09514,-3.7253 -3.7712,-4.81306 -1.01766,-0.70693 -2.4169,-1.10122 -4.19772,-1.18285 -1.78087,-0.0814 -4.1678,-0.12243 -7.16078,-0.12243 h -3.09779 v 30.42829 h 0.89791 c 4.36979,2e-5 7.39272,-0.0542 9.06885,-0.16316 1.67606,-0.10859 3.38207,-0.84291 5.11806,-2.20258 1.52641,-1.19643 2.6413,-2.95033 3.3447,-5.26171 0.70333,-2.31134 1.055,-4.93538 1.05504,-7.87221 z"
       inkscape:connector-curvature="0" />
    <path
       id="path1299-8"
       style="font-style:normal;font-variant:normal;font-weight:bold;font-stretch:normal;font-size:64px;font-family:Tahoma;-inkscape-font-specification:'Tahoma Bold';text-align:center;text-anchor:middle;display:inline;fill:url(#radialGradient3980);fill-opacity:1;stroke:none;stroke-width:1.9365772"
       d="M 289.73715,260.4759 H 245.11122 V 139.00746 h 16.79084 v 98.30052 h 27.83509 z"
       inkscape:connector-curvature="0" />
    <path
       style="fill:#ffffff;fill-opacity:1;stroke:none;stroke-width:1.30518842"
       d="m 238.36656,137.70947 v 123.38109 h 18.43579 0.0815 27.8984 v -25.12487 h -27.89837 v -98.25622 z"
       id="rect3178"
       inkscape:connector-curvature="0" />
    <path
       id="path1301-2"
       style="font-style:normal;font-variant:normal;font-weight:bold;font-stretch:normal;font-size:64px;font-family:Tahoma;-inkscape-font-specification:'Tahoma Bold';text-align:center;text-anchor:middle;display:inline;fill:url(#radialGradient3982);fill-opacity:1;stroke:none;stroke-width:1.9365772"
       d="M 297.72851,260.4759 V 139.00746 h 45.20957 v 23.16792 h -28.50852 v 21.29164 h 26.26376 v 23.16793 h -26.26376 v 30.67303 h 28.50852 v 23.16792 z"
       inkscape:connector-curvature="0" />
    <path
       style="display:inline;fill:#ffffff;fill-opacity:1;stroke:none;stroke-width:1.30518842"
       d="m 291.2267,137.62789 v 123.3811 h 18.51735 27.89841 v -25.12488 h -27.89841 v -29.08123 h 25.65511 v -24.34992 h -25.65511 v -19.70019 h 27.89841 v -25.12488 h -27.89841 -0.0815 z"
       id="rect3178-7"
       inkscape:connector-curvature="0" />
  </g>
  <g
     inkscape:groupmode="layer"
     id="layer5"
     inkscape:label="Shadow-Glows"
     style="display:inline"
     transform="translate(0,112)">
    <g
       id="g68911"
       transform="matrix(1.074325,0,0,1.074325,-5.0280669,-7.6346651)">
      <path
         inkscape:connector-curvature="0"
         id="rect1019-2"
         d="m 187.74893,-64.624492 c -31.44646,-0.785043 -63.30073,20.033383 -71.24746,51.186739 -1.85108,7.5523305 -2.60606,14.7123605 -2.73943,22.0060525 0,27.0530425 0,54.1061135 0,81.1591625 10.63031,0 21.2606,0 31.8909,0 0.11238,-28.551411 -0.16159,-56.949634 0.21699,-85.5594315 0.98042,-18.1689905 15.0185,-37.3227555 34.50417,-37.1009995 0.14291,28.9170425 -0.29235,57.851858 0.22968,86.757262 1.66194,23.504932 23.93369,42.958839 47.509,40.965789 14.72796,-0.35743 29.56621,0.85866 44.19764,-0.92452 22.27997,-4.17697 37.69899,-26.868115 35.62729,-49.047321 0,-25.877201 0,-51.7544055 0,-77.631619 20.26741,-1.48007 35.63817,18.194806 36.53722,37.1010005 0.37633,28.6089365 0.10521,57.0111445 0.21699,85.5594295 10.63028,0 21.26061,0 31.89091,0 0,-28.701811 0,-57.403623 0,-86.1054155 -1.04344,-9.28163 -2.5153,-20.6400375 -7.54527,-29.5928225 -13.04834,-26.470997 -43.56702,-40.753917 -72.3508,-38.602313 -8.40772,-1.067874 -17.45252,4.617467 -19.75563,12.586138 0.13874,34.108607 0.23698,68.228942 -0.0191,102.331325 -0.9611,14.286978 -15.04028,25.211647 -29.09118,23.397778 -9.93991,0.431845 -21.16745,0.01737 -27.94699,-8.523436 -9.1365,-9.657136 -6.07608,-23.478556 -6.61241,-35.477566 0.0247,-27.7054845 -0.091,-55.386038 0.15934,-83.044371 -4.15774,-8.408046 -13.39813,-12.748203 -22.55205,-11.368376 l -1.51509,-0.02093 -1.60504,-0.05156 h 3.2e-4 z"
         style="display:inline;fill:url(#radialGradient1847);fill-opacity:1;fill-rule:evenodd;stroke:none;stroke-width:1.21489155" />
      <path
         inkscape:connector-curvature="0"
         id="rect1019-7-4-1"
         d="m 186.73103,-63.095511 c -38.45745,0 -68.23917,25.796393 -72.87069,59.2373485 h 32.76789 c 4.42802,-15.0963295 15.93183,-26.1412375 29.77813,-27.4261725 0.89945,-0.850133 2.15276,-1.395228 3.54786,-1.395228 h 32.32941 l 0.11954,-18.975087 c 0,0 -2.88947,-4.525822 -5.22213,-6.657225 -2.64293,-2.41488 -6.21023,-4.16507 -9.72673,-4.544454 -2.94635,-0.317874 -6.31691,-0.04999 -10.72331,-0.239182 z"
         style="display:inline;fill:url(#radialGradient1193-8);fill-opacity:1;fill-rule:evenodd;stroke:none;stroke-width:1.21489155" />
      <ellipse
         ry="20.410177"
         rx="35.07999"
         cy="322.79272"
         cx="247.79092"
         id="path906-4"
         style="display:inline;opacity:0.96660007;fill:url(#radialGradient967-9);fill-opacity:1;fill-rule:evenodd;stroke:none;stroke-width:1.52943647" />
      <path
         inkscape:connector-curvature="0"
         id="path833-1"
         d="M 361.82729,86.320602 V 302.38146 c 42.67684,-4.68157 76.21926,-51.25403 76.21926,-108.03044 0,-56.77638 -33.54242,-103.348848 -76.21926,-108.030418 z"
         style="display:inline;opacity:0.96660007;fill:url(#radialGradient1131-8);fill-opacity:1;fill-rule:evenodd;stroke:none;stroke-width:1.21489155" />
      <path
         inkscape:connector-curvature="0"
         id="rect1019-7-4-1-2"
         d="m 300.24698,-64.123828 c 38.45745,0 68.23916,25.796393 72.8707,59.2373485 h -32.7679 c -4.42802,-15.0963295 -15.93183,-26.1412375 -29.77812,-27.4261725 -0.89946,-0.850133 -2.15275,-1.395228 -3.54787,-1.395228 h -32.3294 l -0.11954,-18.975087 c 0,0 2.88947,-4.525822 5.22214,-6.657225 2.64292,-2.41488 6.21023,-4.16507 9.72672,-4.544454 2.94636,-0.317874 6.31691,-0.04999 10.72331,-0.239182 z"
         style="display:inline;fill:url(#radialGradient2262);fill-opacity:1;fill-rule:evenodd;stroke:none;stroke-width:1.21489155" />
      <path
         inkscape:connector-curvature="0"
         id="path833-1-5"
         d="M 130.10495,84.979532 V 301.04039 C 87.428116,296.35882 53.885699,249.78636 53.885699,193.00997 c 0,-56.7764 33.542417,-103.348868 76.219251,-108.030438 z"
         style="display:inline;opacity:0.96660007;fill:url(#radialGradient2300);fill-opacity:1;fill-rule:evenodd;stroke:none;stroke-width:1.21489155" />
    </g>
  </g>
</svg>
