<svg
   width="512"
   height="512"
   xmlns:xlink="http://www.w3.org/1999/xlink"
   xmlns="http://www.w3.org/2000/svg"
   viewBox="0 0 512 512">
  <defs>
    <linearGradient
       id="autoidmagic-a">
      <stop
         offset="0"
         stop-color="#9aa29a" />
      <stop
         offset="1"
         stop-color="#b5beb5" />
    </linearGradient>
    <radialGradient
       id="autoidmagic-b"
       cx="6.7030001"
       cy="73.615997"
       r="7.2280002"
       gradientTransform="matrix(3.4251013,0,0,1.0381524,2.0723312,-20.765398)"
       gradientUnits="userSpaceOnUse">
      <stop
         offset="0" />
      <stop
         offset="1"
         stop-opacity="0" />
    </radialGradient>
    <linearGradient
       id="autoidmagic-i"
       x1="8.7799997"
       x2="9.7620001"
       y1="37.785"
       y2="32.202999"
       gradientTransform="matrix(2.3949,0,0,0.78106,2.88,0.343)"
       gradientUnits="userSpaceOnUse">
      <stop
         offset="0"
         stop-opacity=".129" />
      <stop
         offset="1"
         stop-opacity="0" />
    </linearGradient>
    <linearGradient
       id="autoidmagic-h"
       x1="11.233"
       x2="21.112"
       y1="13.686"
       y2="24.132999"
       gradientTransform="matrix(1.3709,0,0,1.4438,2.431,-0.14)"
       gradientUnits="userSpaceOnUse">
      <stop
         offset="0"
         stop-color="#fff" />
      <stop
         offset="1"
         stop-color="#ededed" />
    </linearGradient>
    <linearGradient
       id="autoidmagic-g"
       x1="8.9160004"
       x2="9.8859997"
       y1="37.196999"
       y2="52.091"
       gradientTransform="matrix(2.4548,0,0,0.762,2.88,0.343)"
       gradientUnits="userSpaceOnUse"
       xlink:href="#autoidmagic-a" />
    <linearGradient
       id="autoidmagic-f"
       x1="10.184"
       x2="15.311"
       y1="15.148"
       y2="29.569"
       gradientTransform="matrix(1.8193,0,0,1.0282,2.88,0.343)"
       gradientUnits="userSpaceOnUse">
      <stop
         offset="0"
         stop-color="#fff" />
      <stop
         offset="1"
         stop-color="#dcdcdc" />
    </linearGradient>
    <linearGradient
       id="autoidmagic-e"
       x1="5.8270001"
       x2="13.467"
       y1="7.2309999"
       y2="17.877001"
       gradientTransform="matrix(1.5706,0,0,1.191,2.88,0.343)"
       gradientUnits="userSpaceOnUse">
      <stop
         offset="0"
         stop-color="#ededed" />
      <stop
         offset="1"
         stop-color="#c8c8c8" />
    </linearGradient>
    <linearGradient
       id="autoidmagic-c"
       x1="11.573"
       x2="18.475"
       y1="4.7459998"
       y2="26.023001"
       gradientTransform="matrix(1.3435,0,0,1.4179,2.88,0.315)"
       gradientUnits="userSpaceOnUse">
      <stop
         offset="0"
         stop-color="#fff" />
      <stop
         offset="1"
         stop-color="#e2e2e2" />
    </linearGradient>
    <linearGradient
       id="autoidmagic-d"
       x1="2.062"
       x2="30.6"
       y1="15.257"
       y2="15.257"
       gradientTransform="matrix(1.3435,0,0,1.4179,2.88,0.315)"
       gradientUnits="userSpaceOnUse">
      <stop
         offset="0"
         stop-color="#989690" />
      <stop
         offset="1"
         stop-color="#656460" />
    </linearGradient>
    <linearGradient
       xlink:href="#autoidmagic-a"
       id="autoidmagic-90"
       gradientUnits="userSpaceOnUse"
       gradientTransform="matrix(2.4548,0,0,0.762,2.88,0.343)"
       x1="8.9160004"
       y1="37.196999"
       x2="9.8859997"
       y2="52.091" />
  </defs>
  <g
     transform="matrix(12.823403,0,0,12.823403,-62.27045,-23.451719)">
    <path
       fill="url(#autoidmagic-c)"
       fill-rule="evenodd"
       stroke="url(#autoidmagic-d)"
       stroke-linejoin="round"
       stroke-width="0.857"
       d="m 6.333,16.972 v 24.51 H 43.306 L 43.244,17.09 C 43.241,15.712 31.396,2.412 29.211,2.412 H 20.66 c -2.297,0 -14.326,13.262 -14.326,14.56 z" />
    <path
       fill="url(#autoidmagic-e)"
       fill-rule="evenodd"
       d="M 6.923,16.787 C 6.525,16.357 18.81,3.093 20.667,3.093 h 8.376 c 1.747,0 14.037,13.128 13.427,13.886 L 31.61,30.474 19.295,30.156 6.923,16.786 Z" />
    <path
       fill-opacity="0.146"
       fill-rule="evenodd"
       d="m 19.078,30.018 -7.333,-8.746 24.818,-6.936 3.029,6.216 -7.416,9.44" />
    <path
       fill-opacity="0.146"
       fill-rule="evenodd"
       d="m 18.292,29.836 -7.483,-8.81 24.648,-6.893 3.174,6.271 -7.241,9.407" />
    <path
       fill-opacity="0.146"
       fill-rule="evenodd"
       d="m 18.775,29.957 -7.675,-8.66 24.968,-7.065 3.286,6.593 -7.48,9.107" />
    <path
       fill="url(#autoidmagic-f)"
       fill-rule="evenodd"
       d="m 18.594,30.441 -7.333,-8.746 24.712,-6.894 3.11,6.388 -7.12,8.986" />
    <path
       fill="url(#autoidmagic-90)"
       fill-rule="evenodd"
       d="M 20.488,29.064 7.092,40.036 21.001,30.432 h 9.018 l 12.42,9.482 -11.864,-10.85 z" />
    <path
       fill="url(#autoidmagic-g)"
       fill-rule="evenodd"
       d="M 6.963,16.885 18.48,31.201 19.548,30.347 6.964,16.885 Z"
       color="#000000" />
    <path
       fill="none"
       stroke="url(#autoidmagic-h)"
       stroke-width="0.857"
       d="m 7.308,17.131 0.03,23.211 H 42.284 L 42.221,17.258 C 42.219,16.508 31.005,3.459 28.837,3.459 h -7.895 c -2.253,0 -13.635,12.892 -13.634,13.672 z" />
    <path
       fill="#ffffff"
       fill-rule="evenodd"
       d="m 20.957,30.453 -11.941,8.271 2.219,0.006 9.998,-6.869 8.822,-1.423 z m -9.529,-8.783 1.324,1.411 22.791,-6.884 2.915,5.682 0.614,-0.712 -3.069,-6.378 z" />
    <path
       fill="url(#autoidmagic-i)"
       fill-rule="evenodd"
       d="m 13.308,23.636 6.026,6.454 1.197,-1.026 10.087,0.043 0.812,0.727 3.975,-4.744 C 34.251,23.679 13.308,23.636 13.308,23.636 Z" />
    <path
       fill="#b1b1b1"
       fill-rule="evenodd"
       d="M 41.813,17.848 31.861,30.479 30.793,29.624 Z"
       color="#000000" />
  </g>
</svg>
