<svg
   width="512"
   height="512"
   viewBox="0 0 512 512"
   xmlns="http://www.w3.org/2000/svg">
  <g
     transform="translate(-21.620786,4.6924658)">
    <g
       transform="matrix(4.53598,0,0,4.53598,-76.450656,-152.9486)">
      <path
         d="m 44.60119,53.885714 c 0,0 13.84755,9.4684 28.966598,7.956494 15.119046,-1.511906 16.254149,-12.120795 40.180792,-11.782112"
         style="fill:none;stroke:#2879d0;stroke-width:5.165;stroke-linecap:round;stroke-linejoin:miter;stroke-miterlimit:4;stroke-dasharray:none;stroke-opacity:1" />
      <path
         d="m 41.336974,69.217924 c 0,0 15.033848,9.388906 33.915017,7.330244 C 104.84158,73.32194 106.58142,59.5661 125.12911,61.780234"
         style="fill:none;stroke:#2879d0;stroke-width:5.165;stroke-linecap:round;stroke-linejoin:miter;stroke-miterlimit:4;stroke-dasharray:none;stroke-opacity:1" />
      <path
         d="M 39.916782,83.991609 C 59.849937,96.667245 76.994779,94.139501 87.320366,91.551134 108.13511,86.333396 107.23453,78.597106 128.5119,78.680951"
         style="fill:none;stroke:#2879d0;stroke-width:5.165;stroke-linecap:round;stroke-linejoin:miter;stroke-miterlimit:4;stroke-dasharray:none;stroke-opacity:1" />
      <path
         d="m 25.175709,72.174388 c 0,0 -4.712343,13.276034 5.891055,26.240174 10.603398,12.964138 37.476141,18.631968 49.647841,18.674138 15.504894,0.0537 25.118725,-6.58216 25.118725,-6.58216 l 17.00893,18.52084 -6.47145,-24.17149 c 0,0 10.13218,-3.05206 15.54288,-10.224344"
         style="fill:none;stroke:#2879d0;stroke-width:5.165;stroke-linecap:round;stroke-linejoin:miter;stroke-miterlimit:4;stroke-dasharray:none;stroke-opacity:1" />
    </g>
  </g>
</svg>
