<svg
   width="512"
   height="512"
   viewBox="0 0 512 512"
   xmlns="http://www.w3.org/2000/svg">
  <g>
    <g
       transform="matrix(1.4584376,0,0,1.4559519,-35.756104,-35.922376)">
      <rect
         style="display:inline;fill:#3db7ed;fill-opacity:1;stroke:none;stroke-width:6;stroke-dasharray:none;stroke-opacity:1"
         width="351.06061"
         height="351.65997"
         x="24.516718"
         y="24.672777"
         rx="27.427588"
         ry="27.427588" />
      <path
         style="fill:#ffffff;fill-opacity:1;stroke:none;stroke-width:1px;stroke-linecap:butt;stroke-linejoin:miter;stroke-opacity:1"
         d="m 93.540138,214.62714 -0.703144,95.63584 a 7.3637398,7.3637398 45.277884 0 0 7.346256,7.41786 l 202.50305,0.47543 a 6.8319137,6.8319137 135.06864 0 0 6.84795,-6.83156 l 0.005,-96.58845 28.86224,0.19532 a 5.2986741,5.2986741 112.56308 0 0 3.76544,-9.06234 l -33.64783,-33.34198 0.25133,-44.31303 a 6.8858444,6.8858444 45.516933 0 0 -6.80054,-6.92437 l -19.3796,-0.23979 a 6.9883849,6.9883849 135.40629 0 0 -7.07484,6.97521 l -0.0213,11.78286 -69.96618,-70.708974 a 5.7338785,5.7338785 0.14370144 0 0 -8.13135,-0.02039 L 60.681075,205.86618 a 5.3083747,5.3083747 67.196859 0 0 3.809347,9.06069 z" />
      <g>
        <ellipse
           style="fill:none;stroke:#3db7ed;stroke-width:4.9;stroke-dasharray:none;stroke-opacity:1"
           cx="179.24469"
           cy="149.3372"
           rx="7.3252597"
           ry="7.3252592" />
        <ellipse
           style="fill:none;stroke:#3db7ed;stroke-width:4.9;stroke-dasharray:none;stroke-opacity:1"
           cx="169.45244"
           cy="190.98294"
           rx="7.3252597"
           ry="7.3252592" />
        <ellipse
           style="fill:none;stroke:#3db7ed;stroke-width:4.9;stroke-dasharray:none;stroke-opacity:1"
           cx="138.19283"
           cy="222.78395"
           rx="7.3252597"
           ry="7.3252592" />
        <ellipse
           style="fill:none;stroke:#3db7ed;stroke-width:4.9;stroke-dasharray:none;stroke-opacity:1"
           cx="141.91083"
           cy="257.76157"
           rx="7.3252597"
           ry="7.3252592" />
        <ellipse
           style="fill:none;stroke:#3db7ed;stroke-width:4.9;stroke-dasharray:none;stroke-opacity:1"
           cx="179.11179"
           cy="262.82785"
           rx="7.3252597"
           ry="7.3252592" />
        <ellipse
           style="fill:none;stroke:#3db7ed;stroke-width:4.9;stroke-dasharray:none;stroke-opacity:1"
           cx="147.65073"
           cy="294.24802"
           rx="7.3252597"
           ry="7.3252592" />
        <ellipse
           style="fill:none;stroke:#3db7ed;stroke-width:4.9;stroke-dasharray:none;stroke-opacity:1"
           cx="255.81784"
           cy="294.59372"
           rx="7.3252597"
           ry="7.3252592" />
        <ellipse
           style="fill:none;stroke:#3db7ed;stroke-width:4.9;stroke-dasharray:none;stroke-opacity:1"
           cx="274.44196"
           cy="259.56049"
           rx="7.3252597"
           ry="7.3252592" />
        <ellipse
           style="fill:none;stroke:#3db7ed;stroke-width:4.9;stroke-dasharray:none;stroke-opacity:1"
           cx="225.69614"
           cy="227.99767"
           rx="7.3252597"
           ry="7.3252592" />
        <ellipse
           style="fill:none;stroke:#3db7ed;stroke-width:4.9;stroke-dasharray:none;stroke-opacity:1"
           cx="251.68121"
           cy="165.4055"
           rx="7.3252597"
           ry="7.3252592" />
        <ellipse
           style="fill:none;stroke:#3db7ed;stroke-width:4.9;stroke-dasharray:none;stroke-opacity:1"
           cx="223.96227"
           cy="149.19836"
           rx="7.3252597"
           ry="7.3252592" />
        <ellipse
           style="fill:none;stroke:#3db7ed;stroke-width:4.9;stroke-dasharray:none;stroke-opacity:1"
           cx="229.48242"
           cy="192.50766"
           rx="7.3252597"
           ry="7.3252592" />
        <ellipse
           style="fill:none;stroke:#3db7ed;stroke-width:4.9;stroke-dasharray:none;stroke-opacity:1"
           cx="274.20001"
           cy="192.36882"
           rx="7.3252597"
           ry="7.3252592" />
        <ellipse
           style="fill:none;stroke:#3db7ed;stroke-width:4.9;stroke-dasharray:none;stroke-opacity:1"
           cx="142.36525"
           cy="164.90781"
           rx="7.3252597"
           ry="7.3252592" />
        <path
           style="fill:none;stroke:#3db7ed;stroke-width:6;stroke-linecap:butt;stroke-linejoin:miter;stroke-dasharray:none;stroke-opacity:1"
           d="m 251.49286,172.81947 0.0666,61.7281 -49.7452,49.80448 m 66.78444,-86.57997 -16.96839,16.54133 -15.64318,-15.88293 m 30.5797,60.84935 -40.48194,0.22401 -0.14847,-22.94487 m 23.03301,58.54101 -24.716,0.0115 -22.8132,22.58867 m 17.48042,-163.52317 -17.1326,16.68666 -0.37143,145.80773 -54.16934,-54.41329 m 32.00458,8.05924 -0.0525,23.92802 -23.86244,-0.18309 m 45.55819,-40.76105 -58.50429,-57.16861 -0.0519,-22.53777 m 27.22317,25.92054 0.24132,23.39815 -24.00093,0.0152 m 39.09799,-67.98579 16.75747,16.12059" />
      </g>
    </g>
  </g>
</svg>
