<?xml version="1.0" encoding="UTF-8" standalone="no"?>
<!-- Created with Inkscape (http://www.inkscape.org/) -->

<svg
   width="88"
   height="31"
   id="svg14507"
   version="1.1"
   inkscape:version="1.1.2 (0a00cf5339, 2022-02-04)"
   sodipodi:docname="poweredby_freedombox.svg"
   xmlns:inkscape="http://www.inkscape.org/namespaces/inkscape"
   xmlns:sodipodi="http://sodipodi.sourceforge.net/DTD/sodipodi-0.dtd"
   xmlns:xlink="http://www.w3.org/1999/xlink"
   xmlns="http://www.w3.org/2000/svg"
   xmlns:svg="http://www.w3.org/2000/svg"
   xmlns:rdf="http://www.w3.org/1999/02/22-rdf-syntax-ns#"
   xmlns:cc="http://creativecommons.org/ns#"
   xmlns:dc="http://purl.org/dc/elements/1.1/">
  <defs
     id="defs14509">
    <linearGradient
       inkscape:collect="always"
       id="linearGradient147149">
      <stop
         style="stop-color:#e8e8e8;stop-opacity:1"
         offset="0"
         id="stop147145" />
      <stop
         style="stop-color:#b3b3b3;stop-opacity:1"
         offset="1"
         id="stop147147" />
    </linearGradient>
    <linearGradient
       inkscape:collect="always"
       id="linearGradient32350">
      <stop
         style="stop-color:#e8e8e8;stop-opacity:1"
         offset="0"
         id="stop32346" />
      <stop
         style="stop-color:#fefefe;stop-opacity:1"
         offset="1"
         id="stop32348" />
    </linearGradient>
    <linearGradient
       inkscape:collect="always"
       xlink:href="#linearGradient10958-4"
       id="linearGradient14441"
       gradientUnits="userSpaceOnUse"
       gradientTransform="matrix(0.0499827,0,0,0.05386203,-1239.9158,-138.47406)"
       x1="2677.0659"
       y1="-1001.1581"
       x2="2677.0659"
       y2="-1126.5048" />
    <linearGradient
       inkscape:collect="always"
       id="linearGradient10958-4">
      <stop
         style="stop-color:#646464;stop-opacity:1"
         offset="0"
         id="stop10960-1" />
      <stop
         style="stop-color:#969696;stop-opacity:1"
         offset="1"
         id="stop10962-1" />
    </linearGradient>
    <linearGradient
       id="linearGradient12651">
      <stop
         id="stop12653"
         offset="0"
         style="stop-color:#61a6ed;stop-opacity:1" />
      <stop
         id="stop12657"
         offset="1"
         style="stop-color:#257edb;stop-opacity:1" />
    </linearGradient>
    <linearGradient
       inkscape:collect="always"
       xlink:href="#linearGradient32350"
       id="linearGradient32352"
       x1="-1095.976"
       y1="-154.40886"
       x2="-1095.976"
       y2="-216.47957"
       gradientUnits="userSpaceOnUse"
       gradientTransform="matrix(0.50000001,0,0,0.49999998,-585,-108.28321)" />
    <linearGradient
       inkscape:collect="always"
       xlink:href="#linearGradient10958-4"
       id="linearGradient117823"
       x1="-1088.1097"
       y1="-190.0298"
       x2="-1088.5486"
       y2="-201.37666"
       gradientUnits="userSpaceOnUse"
       gradientTransform="translate(-19.655896,-12.673823)" />
    <linearGradient
       inkscape:collect="always"
       xlink:href="#linearGradient147149"
       id="linearGradient147151"
       x1="-1142.3906"
       y1="-336.51468"
       x2="-1142.3906"
       y2="-306.11819"
       gradientUnits="userSpaceOnUse"
       gradientTransform="translate(-12.394531,120.03127)" />
    <radialGradient
       inkscape:collect="always"
       xlink:href="#linearGradient12651"
       id="radialGradient14443-6"
       gradientUnits="userSpaceOnUse"
       gradientTransform="matrix(-0.39198002,0.39198149,-0.39146024,-0.39146023,-873.62468,-122.57082)"
       cx="245.80219"
       cy="466.2821"
       fx="245.80219"
       fy="466.2821"
       r="34.49239" />
  </defs>
  <sodipodi:namedview
     id="base"
     pagecolor="#ffffff"
     bordercolor="#666666"
     borderopacity="1.0"
     inkscape:pageopacity="0.0"
     inkscape:pageshadow="2"
     inkscape:zoom="4"
     inkscape:cx="-25.25"
     inkscape:cy="43.125"
     inkscape:document-units="px"
     inkscape:current-layer="layer1"
     showgrid="false"
     fit-margin-top="0"
     fit-margin-left="0"
     fit-margin-right="0"
     fit-margin-bottom="0"
     inkscape:window-width="1846"
     inkscape:window-height="1016"
     inkscape:window-x="0"
     inkscape:window-y="0"
     inkscape:window-maximized="1"
     inkscape:pagecheckerboard="0" />
  <metadata
     id="metadata14512">
    <rdf:RDF>
      <cc:Work
         rdf:about="">
        <dc:format>image/svg+xml</dc:format>
        <dc:type
           rdf:resource="http://purl.org/dc/dcmitype/StillImage" />
      </cc:Work>
    </rdf:RDF>
  </metadata>
  <g
     inkscape:label="Layer 1"
     inkscape:groupmode="layer"
     id="layer1"
     transform="translate(1170,216.56643)">
    <rect
       style="fill:url(#linearGradient32352);fill-opacity:1;stroke:url(#linearGradient147151);stroke-width:0.5;stroke-miterlimit:4;stroke-dasharray:none;stroke-opacity:0.94902"
       id="rect938"
       width="87.5"
       height="30.5"
       x="-1169.75"
       y="-216.31644"
       ry="4.5"
       rx="4.5" />
    <path
       id="path4916-7"
       d="m -1134.2961,-199.31628 c -0.5137,-0.002 -1.1828,0.0254 -1.7618,0.62446 -0.2312,0.23926 -0.3171,0.65632 -0.3171,1.01329 v 3.81916 c 0,0.11147 0.035,0.20496 0.1062,0.28108 0.071,0.0734 0.1562,0.1111 0.2546,0.1111 h 0.7107 c 0.098,0 0.1818,-0.0377 0.2499,-0.1111 0.071,-0.0761 0.1062,-0.16961 0.1062,-0.28108 v -1.7135 h 2.4304 c 0.098,0 0.1802,-0.036 0.2483,-0.1094 0.071,-0.0761 0.1063,-0.16664 0.1063,-0.27268 v -0.38882 c 0,-0.10331 -0.035,-0.19148 -0.1063,-0.26763 -0.068,-0.0761 -0.1499,-0.11444 -0.2483,-0.11445 h -2.4304 v -0.77931 c -0.017,-0.62859 0.3912,-0.65645 0.6342,-0.65645 h 2.4085 c 0.099,0 0.1818,-0.036 0.2499,-0.1094 0.071,-0.0761 0.1063,-0.16832 0.1063,-0.27437 v -0.38377 c 0,-0.10603 -0.036,-0.19653 -0.1063,-0.27268 -0.068,-0.0761 -0.1514,-0.11444 -0.2499,-0.11445 h -2.1805 c -0.066,0 -0.1374,4.5e-4 -0.2109,0 z m 19.6948,0 c -0.066,1e-5 -0.1203,0.0252 -0.1656,0.0741 -0.043,0.0462 -0.064,0.10501 -0.064,0.17843 v 1.25228 c -0.4087,-0.13867 -0.7744,-0.20703 -1.0949,-0.20703 -0.6207,0 -1.1155,0.19952 -1.4838,0.59921 -0.3659,0.39698 -0.5482,0.96915 -0.5482,1.71686 0,0.745 0.1763,1.31716 0.5295,1.71685 0.3556,0.39968 0.7971,0.59921 1.3245,0.59921 0.5273,0 0.9914,-0.15161 1.3901,-0.45613 v 0.12623 c 0,0.0707 0.021,0.13116 0.064,0.1801 0.043,0.0462 0.097,0.069 0.1655,0.069 h 0.728 c 0.068,0 0.1226,-0.0228 0.1655,-0.069 0.045,-0.0489 0.069,-0.1094 0.069,-0.1801 v -5.34748 c 0,-0.0734 -0.023,-0.1322 -0.069,-0.17843 -0.043,-0.0489 -0.097,-0.074 -0.1655,-0.0741 z m 14.8449,0 c -0.098,1e-5 -0.1839,0.0384 -0.2546,0.11445 -0.071,0.0762 -0.1062,0.16665 -0.1062,0.27268 v 5.07819 c 0,0.10604 0.035,0.19654 0.1062,0.27267 0.071,0.0734 0.1562,0.1111 0.2546,0.1111 h 3.2535 c 0.5628,0 1.037,-0.15331 1.423,-0.45784 0.3885,-0.30724 0.5841,-0.75484 0.5841,-1.34487 0,-0.59 -0.2434,-1.02609 -0.7279,-1.30615 0.3407,-0.29908 0.5108,-0.64724 0.5108,-1.04694 0,-0.4024 -0.099,-0.73309 -0.2983,-0.9914 -0.3583,-0.46766 -0.9153,-0.70188 -1.6697,-0.70189 z m 1.0668,1.10585 h 2.0243 c 0.1589,1e-5 0.2867,0.0515 0.3827,0.15486 0.096,0.10333 0.1437,0.24769 0.1437,0.43258 0,0.18218 -0.048,0.32421 -0.1437,0.42752 -0.096,0.10062 -0.2238,0.1515 -0.3827,0.1515 h -2.0243 z m -29.571,0.19189 c -0.3861,0 -0.6991,0.0486 -0.9388,0.14644 -0.2371,0.0952 -0.4845,0.24316 -0.7419,0.44436 v -0.25753 c 0,-0.0734 -0.021,-0.1322 -0.064,-0.17842 -0.043,-0.0489 -0.099,-0.074 -0.1672,-0.0741 h -0.8481 c -0.066,1e-5 -0.1202,0.0252 -0.1656,0.0741 -0.043,0.0462 -0.064,0.10501 -0.064,0.17842 v 3.96896 c 0,0.0734 0.021,0.13388 0.064,0.1801 0.043,0.0462 0.097,0.069 0.1656,0.069 h 0.8481 c 0.066,0 0.1196,-0.0228 0.1625,-0.069 0.045,-0.0462 0.069,-0.10668 0.069,-0.1801 v -2.60557 c 0.3104,-0.40241 0.6355,-0.60427 0.9762,-0.60428 l 0.5826,0.0236 h 0.1219 c 0.068,0 0.1241,-0.0228 0.167,-0.069 0.045,-0.0462 0.067,-0.105 0.067,-0.17841 v -0.6211 c 0,-0.0707 -0.022,-0.12882 -0.067,-0.17505 -0.043,-0.0489 -0.099,-0.0724 -0.167,-0.0724 z m 2.6272,0 c -0.6939,0 -1.2365,0.20017 -1.6276,0.60257 -0.391,0.3997 -0.5857,0.9742 -0.5857,1.72191 0,0.74501 0.194,1.31483 0.5825,1.71181 0.3886,0.39696 0.9312,0.59584 1.6276,0.59584 1.3802,0.003 2.0697,-0.3861 2.0697,-1.16644 0,-0.0734 -0.022,-0.1322 -0.067,-0.17843 -0.043,-0.0489 -0.099,-0.0741 -0.1671,-0.0741 h -0.5639 c -0.1817,0.003 -0.3341,0.086 -0.4577,0.24912 -0.1237,0.16313 -0.3533,0.24406 -0.6888,0.24406 -0.3356,0 -0.5802,-0.0767 -0.7341,-0.22892 -0.1514,-0.15225 -0.2404,-0.39438 -0.2656,-0.72882 h 2.8506 c 0.068,1e-5 0.1227,-0.0228 0.1656,-0.069 0.045,-0.0489 0.069,-0.11173 0.069,-0.18516 v -0.23227 c 0,-0.72869 -0.194,-1.28764 -0.5826,-1.67645 -0.3885,-0.39153 -0.9306,-0.58576 -1.6244,-0.58576 z m 4.9233,0 c -0.6939,0 -1.2365,0.20017 -1.6276,0.60257 -0.3912,0.3997 -0.5857,0.9742 -0.5857,1.72191 0,0.74501 0.194,1.31483 0.5826,1.71181 0.3886,0.39696 0.9312,0.59584 1.6276,0.59584 1.38,0.003 2.0695,-0.3861 2.0695,-1.16644 0,-0.0734 -0.023,-0.1322 -0.069,-0.17843 -0.043,-0.0489 -0.098,-0.0741 -0.1656,-0.0741 h -0.5638 c -0.1817,0.003 -0.334,0.086 -0.4577,0.24912 -0.1236,0.16313 -0.3532,0.24406 -0.6888,0.24406 -0.3356,0 -0.5818,-0.0767 -0.7358,-0.22892 -0.1512,-0.15225 -0.2386,-0.39438 -0.2638,-0.72882 h 2.8489 c 0.068,1e-5 0.1243,-0.0228 0.1672,-0.069 0.045,-0.0489 0.069,-0.11173 0.069,-0.18516 v -0.23227 c 0,-0.72869 -0.194,-1.28764 -0.5826,-1.67645 -0.3885,-0.39153 -0.9306,-0.58576 -1.6244,-0.58576 z m 10.035,0 c -0.7368,0 -1.3011,0.19423 -1.6947,0.58576 -0.3936,0.38881 -0.5904,0.96628 -0.5904,1.73031 0,0.76131 0.1968,1.3371 0.5904,1.72863 0.3936,0.39153 0.9579,0.58743 1.6947,0.58743 0.7394,0 1.3059,-0.1959 1.6995,-0.58743 0.3936,-0.39153 0.5905,-0.96732 0.5905,-1.72863 0,-0.76403 -0.1969,-1.3415 -0.5905,-1.73031 -0.3936,-0.39153 -0.9601,-0.58576 -1.6995,-0.58576 z m 5.3393,0 c -0.2472,0 -0.459,0.0515 -0.6356,0.15485 -0.1742,0.10061 -0.3526,0.24562 -0.5342,0.43595 v -0.25753 c 0,-0.0734 -0.021,-0.1322 -0.064,-0.17842 -0.043,-0.0489 -0.099,-0.074 -0.1672,-0.0741 h -0.848 c -0.066,1e-5 -0.1202,0.0252 -0.1656,0.0741 -0.043,0.0462 -0.064,0.10501 -0.064,0.17842 l 0.026,3.96896 c 0,0.0734 -0.01,0.13388 0.038,0.1801 0.043,0.0462 0.097,0.069 0.1656,0.069 h 0.848 c 0.066,0 0.1196,-0.0228 0.1625,-0.069 0.045,-0.0462 0.069,-0.10668 0.069,-0.1801 v -2.7335 c 0.2573,-0.3888 0.5259,-0.58237 0.8059,-0.58238 0.439,-0.003 0.6591,0.32201 0.6591,0.97456 v 2.34132 c 0,0.0707 0.021,0.13116 0.064,0.1801 0.046,0.0462 0.1022,0.069 0.1703,0.069 h 0.8435 c 0.066,0 0.1195,-0.0228 0.1624,-0.069 0.045,-0.0462 0.069,-0.10668 0.069,-0.1801 v -2.34132 c 0,-0.11691 -0.01,-0.23318 -0.022,-0.3501 0.2851,-0.41599 0.5603,-0.62445 0.8278,-0.62446 0.439,-0.003 0.6591,0.32201 0.6591,0.97456 v 2.34132 c 0,0.0707 0.021,0.13116 0.064,0.1801 0.045,0.0462 0.1022,0.069 0.1703,0.069 h 0.8434 c 0.068,0 0.1242,-0.0228 0.1671,-0.069 0.043,-0.0462 0.064,-0.10668 0.064,-0.1801 v -2.34132 c 0,-0.66886 -0.1435,-1.16308 -0.4311,-1.4812 -0.2851,-0.32083 -0.6753,-0.47971 -1.1699,-0.47971 -0.492,-0.003 -0.9723,0.25792 -1.4417,0.78268 -0.3027,-0.52203 -0.7476,-0.78268 -1.3355,-0.78268 z m 13.5516,0 c -0.7368,0 -1.3011,0.19423 -1.6947,0.58576 -0.3936,0.38881 -0.5904,0.96628 -0.5904,1.73031 0,0.76131 0.1968,1.3371 0.5904,1.72863 0.3936,0.39153 0.9579,0.58743 1.6947,0.58743 0.7393,0 1.3058,-0.1959 1.6995,-0.58743 0.3936,-0.39153 0.5904,-0.96732 0.5904,-1.72863 0,-0.76403 -0.1968,-1.3415 -0.5904,-1.73031 -0.3937,-0.39153 -0.9602,-0.58576 -1.6995,-0.58576 z m 2.5663,0.0808 c -0.056,1e-5 -0.099,0.0192 -0.1297,0.0572 -0.071,0.087 -0.065,0.18711 0.015,0.30129 l 1.2293,1.87171 -1.3168,1.88012 c -0.04,0.0489 -0.061,0.0939 -0.061,0.13466 0,0.038 0.01,0.0721 0.015,0.0993 0.021,0.0843 0.074,0.12625 0.1624,0.12625 h 0.806 c 0.2322,0 0.4284,-0.12094 0.5873,-0.36021 l 0.7309,-1.06041 0.7264,1.06041 c 0.1615,0.23927 0.3583,0.36021 0.5905,0.36021 h 0.8058 c 0.088,0 0.1423,-0.042 0.1625,-0.12625 0.01,-0.0218 0.015,-0.0535 0.015,-0.0943 0,-0.0435 -0.021,-0.0908 -0.061,-0.1397 l -1.3168,-1.88012 1.2293,-1.87171 c 0.081,-0.11418 0.086,-0.21427 0.015,-0.30129 -0.03,-0.038 -0.073,-0.0572 -0.1282,-0.0572 h -0.8215 c -0.2447,1e-5 -0.4416,0.11925 -0.5904,0.35852 l -0.628,1.02843 -0.6294,-1.02843 c -0.1489,-0.23927 -0.3456,-0.35851 -0.5905,-0.35852 z m -36.4187,0.84496 c 0.5601,1e-5 0.8526,0.31942 0.8779,0.9611 h -1.7604 c 0.03,-0.64168 0.325,-0.96109 0.8825,-0.9611 z m 4.9234,0 c 0.5601,1e-5 0.8526,0.31942 0.8778,0.9611 h -1.7603 c 0.03,-0.64168 0.3248,-0.96109 0.8825,-0.9611 z m 10.0381,0 c 0.3382,1e-5 0.5856,0.10968 0.7421,0.32991 0.1589,0.22024 0.2389,0.57138 0.2389,1.05536 0,0.48397 -0.08,0.83745 -0.2389,1.06041 -0.1565,0.22295 -0.4039,0.33495 -0.7421,0.33495 -0.3356,0 -0.5808,-0.112 -0.7373,-0.33495 -0.1562,-0.22296 -0.2357,-0.57644 -0.2357,-1.06041 0,-0.48398 0.08,-0.83512 0.2357,-1.05536 0.1565,-0.22023 0.4017,-0.3299 0.7373,-0.32991 z m 18.8909,0 c 0.3381,1e-5 0.5855,0.10968 0.7419,0.32991 0.159,0.22024 0.239,0.57138 0.239,1.05536 0,0.48397 -0.08,0.83745 -0.239,1.06041 -0.1564,0.22295 -0.4038,0.33495 -0.7419,0.33495 -0.3356,0 -0.5808,-0.112 -0.7372,-0.33495 -0.1564,-0.22296 -0.2359,-0.57644 -0.2359,-1.06041 0,-0.48398 0.08,-0.83512 0.2359,-1.05536 0.1564,-0.22023 0.4016,-0.3299 0.7372,-0.32991 z m -23.8683,0.0606 c 0.2221,1e-5 0.496,0.0545 0.8215,0.16328 v 2.13258 c -0.3633,0.24472 -0.6823,0.36694 -0.9574,0.36694 -0.2725,0 -0.4776,-0.10604 -0.6139,-0.31811 -0.1362,-0.21208 -0.2046,-0.55002 -0.2046,-1.01497 0,-0.46494 0.072,-0.80223 0.2156,-1.0116 0.1438,-0.21208 0.3906,-0.31811 0.7388,-0.31812 z m 16.9629,1.0604 h 2.1648 c 0.1943,0 0.3434,0.0618 0.4468,0.18684 0.1035,0.12508 0.1546,0.29755 0.1546,0.51505 0,0.21753 -0.051,0.38831 -0.1546,0.51338 -0.1034,0.12508 -0.2525,0.18683 -0.4468,0.18682 h -2.1648 z"
       style="font-style:normal;font-variant:normal;font-weight:bold;font-stretch:normal;font-size:155.076px;line-height:125%;font-family:'PT Sans';-inkscape-font-specification:'PT Sans Bold';text-align:start;letter-spacing:0px;word-spacing:0px;writing-mode:lr-tb;text-anchor:start;fill:url(#linearGradient14441);fill-opacity:1;stroke:none;stroke-width:0.0518859"
       inkscape:connector-curvature="0"
       sodipodi:nodetypes="cccscsscscscssccccscsssccsccsccccscscscssccccccccsscssccccccccccscscccccscccsssssscscccscccccccsscsccccscccccsccccsscsccccscccccsccccssssccccccscccsssssscsccsccsscccccsccssccsccccccssssccccccccscsscccsscccccccccccccccccccccccscsssccccscssscccccssscccscccccc" />
    <g
       aria-label="Powered by"
       id="text92055"
       style="font-size:8px;line-height:1.25;fill:url(#linearGradient117823)">
      <path
         d="m -1135.6031,-206.53759 v 2.144 h -0.772 v -5.732 h 1.692 q 0.544,0 0.944,0.128 0.404,0.124 0.668,0.356 0.264,0.232 0.392,0.56 0.132,0.328 0.132,0.732 0,0.4 -0.14,0.732 -0.14,0.332 -0.412,0.572 -0.268,0.24 -0.668,0.376 -0.396,0.132 -0.916,0.132 z m 0,-0.616 h 0.92 q 0.332,0 0.584,-0.088 0.256,-0.088 0.428,-0.244 0.176,-0.16 0.264,-0.38 0.088,-0.22 0.088,-0.484 0,-0.548 -0.34,-0.856 -0.336,-0.308 -1.024,-0.308 h -0.92 z"
         style="font-family:Lato;-inkscape-font-specification:'Lato, Normal'"
         id="path183216" />
      <path
         d="m -1130.2431,-208.50959 q 0.444,0 0.8,0.148 0.356,0.148 0.608,0.42 0.252,0.272 0.384,0.66 0.136,0.384 0.136,0.86 0,0.48 -0.136,0.864 -0.132,0.384 -0.384,0.656 -0.252,0.272 -0.608,0.42 -0.356,0.144 -0.8,0.144 -0.448,0 -0.808,-0.144 -0.356,-0.148 -0.608,-0.42 -0.252,-0.272 -0.388,-0.656 -0.132,-0.384 -0.132,-0.864 0,-0.476 0.132,-0.86 0.136,-0.388 0.388,-0.66 0.252,-0.272 0.608,-0.42 0.36,-0.148 0.808,-0.148 z m 0,3.616 q 0.6,0 0.896,-0.4 0.296,-0.404 0.296,-1.124 0,-0.724 -0.296,-1.128 -0.296,-0.404 -0.896,-0.404 -0.304,0 -0.532,0.104 -0.224,0.104 -0.376,0.3 -0.148,0.196 -0.224,0.484 -0.072,0.284 -0.072,0.644 0,0.72 0.296,1.124 0.3,0.4 0.908,0.4 z"
         style="font-family:Lato;-inkscape-font-specification:'Lato, Normal'"
         id="path183218" />
      <path
         d="m -1127.9071,-208.44559 h 0.56 q 0.084,0 0.14,0.044 0.06,0.044 0.08,0.104 l 0.776,2.608 q 0.032,0.14 0.06,0.276 0.028,0.132 0.048,0.264 0.032,-0.132 0.072,-0.264 0.04,-0.136 0.084,-0.276 l 0.856,-2.624 q 0.02,-0.06 0.068,-0.1 0.052,-0.04 0.124,-0.04 h 0.312 q 0.08,0 0.132,0.04 0.052,0.04 0.072,0.1 l 0.836,2.624 q 0.04,0.14 0.076,0.276 0.036,0.136 0.068,0.268 0.024,-0.132 0.052,-0.264 0.032,-0.136 0.068,-0.28 l 0.792,-2.608 q 0.02,-0.064 0.076,-0.104 0.056,-0.044 0.132,-0.044 h 0.536 l -1.312,4.052 h -0.564 q -0.104,0 -0.144,-0.136 l -0.896,-2.748 q -0.032,-0.092 -0.052,-0.184 -0.02,-0.096 -0.04,-0.188 -0.02,0.092 -0.044,0.188 -0.02,0.096 -0.048,0.188 l -0.912,2.744 q -0.036,0.136 -0.16,0.136 h -0.536 z"
         style="font-family:Lato;-inkscape-font-specification:'Lato, Normal'"
         id="path183220" />
      <path
         d="m -1119.5871,-208.50959 q 0.364,0 0.672,0.124 0.312,0.12 0.536,0.352 0.228,0.228 0.356,0.568 0.128,0.336 0.128,0.768 0,0.168 -0.036,0.224 -0.036,0.056 -0.136,0.056 h -2.708 q 0.01,0.384 0.104,0.668 0.096,0.284 0.264,0.476 0.168,0.188 0.4,0.284 0.232,0.092 0.52,0.092 0.268,0 0.46,-0.06 0.196,-0.064 0.336,-0.136 0.14,-0.072 0.232,-0.132 0.096,-0.064 0.164,-0.064 0.088,0 0.136,0.068 l 0.2,0.26 q -0.132,0.16 -0.316,0.28 -0.184,0.116 -0.396,0.192 -0.208,0.076 -0.432,0.112 -0.224,0.04 -0.444,0.04 -0.42,0 -0.776,-0.14 -0.352,-0.144 -0.612,-0.416 -0.256,-0.276 -0.4,-0.68 -0.144,-0.404 -0.144,-0.928 0,-0.424 0.128,-0.792 0.132,-0.368 0.376,-0.636 0.244,-0.272 0.596,-0.424 0.352,-0.156 0.792,-0.156 z m 0.016,0.524 q -0.516,0 -0.812,0.3 -0.296,0.296 -0.368,0.824 h 2.216 q 0,-0.248 -0.072,-0.452 -0.068,-0.208 -0.204,-0.356 -0.132,-0.152 -0.324,-0.232 -0.192,-0.084 -0.436,-0.084 z"
         style="font-family:Lato;-inkscape-font-specification:'Lato, Normal'"
         id="path183222" />
      <path
         d="m -1117.0231,-204.39359 v -4.052 h 0.408 q 0.116,0 0.16,0.044 0.044,0.044 0.06,0.152 l 0.044,0.616 q 0.192,-0.416 0.472,-0.648 0.284,-0.236 0.688,-0.236 0.128,0 0.244,0.028 0.12,0.028 0.212,0.088 l -0.052,0.532 q -0.024,0.1 -0.12,0.1 -0.056,0 -0.164,-0.024 -0.108,-0.024 -0.244,-0.024 -0.192,0 -0.344,0.06 -0.152,0.056 -0.272,0.168 -0.116,0.108 -0.208,0.268 -0.092,0.16 -0.168,0.368 v 2.56 z"
         style="font-family:Lato;-inkscape-font-specification:'Lato, Normal'"
         id="path183224" />
      <path
         d="m -1112.6151,-208.50959 q 0.364,0 0.672,0.124 0.312,0.12 0.536,0.352 0.228,0.228 0.356,0.568 0.128,0.336 0.128,0.768 0,0.168 -0.036,0.224 -0.036,0.056 -0.136,0.056 h -2.708 q 0.01,0.384 0.104,0.668 0.096,0.284 0.264,0.476 0.168,0.188 0.4,0.284 0.232,0.092 0.52,0.092 0.268,0 0.46,-0.06 0.196,-0.064 0.336,-0.136 0.14,-0.072 0.232,-0.132 0.096,-0.064 0.164,-0.064 0.088,0 0.136,0.068 l 0.2,0.26 q -0.132,0.16 -0.316,0.28 -0.184,0.116 -0.396,0.192 -0.208,0.076 -0.432,0.112 -0.224,0.04 -0.444,0.04 -0.42,0 -0.776,-0.14 -0.352,-0.144 -0.612,-0.416 -0.256,-0.276 -0.4,-0.68 -0.144,-0.404 -0.144,-0.928 0,-0.424 0.128,-0.792 0.132,-0.368 0.376,-0.636 0.244,-0.272 0.596,-0.424 0.352,-0.156 0.792,-0.156 z m 0.016,0.524 q -0.516,0 -0.812,0.3 -0.296,0.296 -0.368,0.824 h 2.216 q 0,-0.248 -0.072,-0.452 -0.068,-0.208 -0.204,-0.356 -0.132,-0.152 -0.324,-0.232 -0.192,-0.084 -0.436,-0.084 z"
         style="font-family:Lato;-inkscape-font-specification:'Lato, Normal'"
         id="path183226" />
      <path
         d="m -1107.1231,-204.39359 q -0.152,0 -0.192,-0.148 l -0.064,-0.492 q -0.26,0.316 -0.596,0.508 -0.332,0.188 -0.764,0.188 -0.348,0 -0.632,-0.132 -0.284,-0.136 -0.484,-0.396 -0.2,-0.26 -0.308,-0.648 -0.108,-0.388 -0.108,-0.892 0,-0.448 0.12,-0.832 0.12,-0.388 0.344,-0.672 0.224,-0.284 0.548,-0.444 0.328,-0.164 0.736,-0.164 0.372,0 0.636,0.128 0.268,0.124 0.476,0.352 v -2.248 h 0.712 v 5.892 z m -1.384,-0.52 q 0.352,0 0.612,-0.16 0.264,-0.16 0.484,-0.452 v -1.956 q -0.2,-0.264 -0.432,-0.372 -0.232,-0.108 -0.52,-0.108 -0.564,0 -0.868,0.404 -0.304,0.404 -0.304,1.152 0,0.396 0.068,0.68 0.068,0.28 0.2,0.464 0.132,0.18 0.324,0.264 0.192,0.084 0.436,0.084 z"
         style="font-family:Lato;-inkscape-font-specification:'Lato, Normal'"
         id="path183228" />
      <path
         d="m -1103.5231,-204.39359 v -5.892 h 0.716 v 2.428 q 0.252,-0.3 0.576,-0.476 0.324,-0.176 0.744,-0.176 0.356,0 0.64,0.136 0.288,0.136 0.488,0.396 0.2,0.256 0.304,0.624 0.108,0.368 0.108,0.828 0,0.492 -0.12,0.896 -0.12,0.404 -0.348,0.692 -0.224,0.284 -0.548,0.444 -0.324,0.156 -0.728,0.156 -0.4,0 -0.676,-0.148 -0.272,-0.152 -0.476,-0.428 l -0.036,0.368 q -0.032,0.152 -0.184,0.152 z m 1.8,-3.548 q -0.348,0 -0.608,0.16 -0.26,0.16 -0.476,0.452 v 1.96 q 0.196,0.264 0.428,0.372 0.236,0.108 0.516,0.108 0.572,0 0.876,-0.404 0.304,-0.404 0.304,-1.204 0,-0.744 -0.272,-1.092 -0.268,-0.352 -0.768,-0.352 z"
         style="font-family:Lato;-inkscape-font-specification:'Lato, Normal'"
         id="path183230" />
      <path
         d="m -1097.9112,-203.19759 q -0.036,0.08 -0.092,0.128 -0.052,0.048 -0.164,0.048 h -0.528 l 0.74,-1.608 -1.672,-3.816 h 0.616 q 0.092,0 0.144,0.048 0.056,0.044 0.076,0.1 l 1.084,2.552 q 0.032,0.092 0.06,0.18 0.028,0.084 0.048,0.176 0.052,-0.18 0.12,-0.36 l 1.052,-2.548 q 0.024,-0.064 0.08,-0.104 0.06,-0.044 0.132,-0.044 h 0.564 z"
         style="font-family:Lato;-inkscape-font-specification:'Lato, Normal'"
         id="path183232" />
    </g>
    <path
       sodipodi:nodetypes="cccccsccccsccccczcccccccccccccccccczc"
       style="fill:url(#radialGradient14443-6);fill-opacity:1;stroke:none;stroke-width:0.0542576"
       d="m -1163.8753,-211.48722 c -0.667,0.0187 -1.2571,0.22291 -1.6379,0.65957 -1.1904,1.3652 0.12,2.63479 0.5748,4.36095 0.6073,2.30333 -0.083,4.75429 1.76,6.36679 0.6349,0.55524 1.4015,0.70152 2.1381,0.76979 -0.9685,1.14101 -1.5523,2.72328 -1.2344,4.34908 0.5565,2.84567 3.3693,4.74018 6.1583,4.26431 1.5908,-0.27154 2.8709,-1.24628 3.5674,-2.57724 0.025,-0.0439 0.085,-0.0441 0.1102,0 0.6966,1.33065 1.9768,2.30574 3.5674,2.57724 2.789,0.47587 5.5899,-1.41864 6.1464,-4.26431 0.3179,-1.6258 -0.2541,-3.20807 -1.2225,-4.34908 0.7366,-0.0683 1.4914,-0.21455 2.1262,-0.76979 1.8434,-1.6125 1.1527,-4.06346 1.76,-6.36679 0.4549,-1.72616 1.7635,-2.99575 0.5731,-4.36095 -0.3808,-0.43666 -0.9573,-0.64089 -1.6244,-0.65957 -1.4676,-0.0414 -2.9965,0.54745 -4.5457,1.28183 -1.5492,0.73439 -3.2584,1.99535 -4.3338,3.34533 l 3.9693,2.30594 -6.2787,3.64543 -0.5493,6.91615 -0.1424,-7.23491 -0.7427,-0.43067 -0.546,6.85342 -0.1424,-7.25357 -0.7443,-0.43236 -0.5443,6.87546 -0.1459,-7.27561 -0.7392,-0.42898 -0.5477,6.89242 -0.1441,-7.29595 -0.7375,-0.42729 -0.5494,6.91277 -0.1441,-7.3163 3.8014,-2.20761 c -1.0882,-1.39532 -2.8633,-2.70939 -4.4101,-3.44367 -1.5469,-0.73427 -3.0499,-1.31459 -4.5458,-1.28183 z"
       id="path13218-7"
       inkscape:connector-curvature="0" />
  </g>
</svg>
