<svg
   xmlns="http://www.w3.org/2000/svg"
   viewBox="0 0 512 512"
   width="512"
   height="512">
  <g
     transform="scale(8)">
    <path
       d="M 32,0 C 14.354,0 0,14.353 0,32 0,49.647 14.354,64 32,64 49.646,64 64,49.646 64,32 64,14.354 49.646,0 32,0 Z m 0,4.795 c 15.057,0 27.218,12.148 27.218,27.204 C 59.218,47.055 47.057,59.204 32,59.204 16.944,59.204 4.796,47.056 4.796,32 4.796,16.944 16.944,4.795 32,4.795 Z"
       style="color:#000000;text-indent:0;text-decoration:none;text-decoration-line:none;text-transform:none;fill:#3465a4;fill-opacity:1;stroke-width:1.36899996" />
    <path
       d="m 42.707,18.892 c -1.306,-0.048 -3.285,0.978 -5.064,2.747 l -3.836,3.815 -11.496,-3.86 -2.242,2.314 8.668,6.587 -1.938,1.928 c -0.641243,0.636519 -1.212499,1.33986 -1.704,2.098 l -5.223,-0.39 -1.274,1.292 5.194,3.846 3.798,5.184 1.28,-1.283 -0.386,-5.274 c 0.658,-0.431 1.33,-0.966 1.977,-1.61 l 2.04,-2.029 6.652,8.735 2.314,-2.242 -3.878,-11.552 3.716,-3.695 c 2.372,-2.36 3.465,-5.121 2.451,-6.191 -0.253,-0.268 -0.613,-0.404 -1.049,-0.42 z"
       style="fill:#3465a4;fill-opacity:1;stroke-width:1.36899996" />
  </g>
</svg>
