<?xml version="1.0" encoding="UTF-8" standalone="no"?>
<!-- Created with Inkscape (http://www.inkscape.org/) -->

<svg
   xmlns:dc="http://purl.org/dc/elements/1.1/"
   xmlns:cc="http://creativecommons.org/ns#"
   xmlns:rdf="http://www.w3.org/1999/02/22-rdf-syntax-ns#"
   xmlns:svg="http://www.w3.org/2000/svg"
   xmlns="http://www.w3.org/2000/svg"
   xmlns:sodipodi="http://sodipodi.sourceforge.net/DTD/sodipodi-0.dtd"
   xmlns:inkscape="http://www.inkscape.org/namespaces/inkscape"
   width="512"
   height="512"
   viewBox="0 0 135.46667 135.46666"
   version="1.1"
   id="svg5311"
   inkscape:version="0.92.4 (5da689c313, 2019-01-14)"
   sodipodi:docname="i2p.svg"
   inkscape:export-filename="/home/bunny/work/freedombox/i2p/logo.png"
   inkscape:export-xdpi="158.14484"
   inkscape:export-ydpi="158.14484">
  <title
     id="title4548">I2P</title>
  <defs
     id="defs5305" />
  <sodipodi:namedview
     id="base"
     pagecolor="#ffffff"
     bordercolor="#666666"
     borderopacity="1.0"
     inkscape:pageopacity="0.0"
     inkscape:pageshadow="2"
     inkscape:zoom="0.98994949"
     inkscape:cx="469.30791"
     inkscape:cy="298.89334"
     inkscape:document-units="px"
     inkscape:current-layer="layer1"
     showgrid="false"
     fit-margin-top="0"
     fit-margin-left="0"
     fit-margin-right="0.2"
     fit-margin-bottom="0"
     inkscape:window-width="2165"
     inkscape:window-height="1223"
     inkscape:window-x="426"
     inkscape:window-y="282"
     inkscape:window-maximized="0"
     units="px" />
  <metadata
     id="metadata5308">
    <rdf:RDF>
      <cc:Work
         rdf:about="">
        <dc:format>image/svg+xml</dc:format>
        <dc:type
           rdf:resource="http://purl.org/dc/dcmitype/StillImage" />
        <dc:title>I2P</dc:title>
        <cc:license
           rdf:resource="https://www.gnu.org/licenses/agpl-3.0.en.html" />
        <dc:creator>
          <cc:Agent>
            <dc:title>Sunil Mohan Adapa &lt;sunil@medhas.org&gt;</dc:title>
          </cc:Agent>
        </dc:creator>
        <dc:date>2019-04-01</dc:date>
        <dc:description />
        <dc:source>https://commons.wikimedia.org/wiki/File:I2P_logo.svg</dc:source>
      </cc:Work>
    </rdf:RDF>
  </metadata>
  <g
     inkscape:label="Layer 1"
     inkscape:groupmode="layer"
     id="layer1"
     transform="translate(-70.574828,-22.744926)">
    <g
       id="g4343"
       transform="matrix(1.6671598,0,0,1.6671598,-47.084684,-118.59077)">
      <g
         transform="matrix(1.5533984,0,0,1.5533984,-113.33574,24.244873)"
         id="g5041">
        <path
           d="m 125.47315,47.54207 a 3.540375,3.540375 0 1 1 -7.08075,0 3.540375,3.540375 0 1 1 7.08075,0 z"
           id="path3798-3"
           style="fill:#ff0000;fill-opacity:1;stroke:none;stroke-width:1.46127701"
           inkscape:connector-curvature="0" />
        <path
           d="m 125.47315,59.2592 a 3.540375,3.540375 0 1 1 -7.08075,0 3.540375,3.540375 0 1 1 7.08075,0 z"
           id="path3800-6"
           style="fill:#ff0000;fill-opacity:1;stroke:none;stroke-width:1.46127701"
           inkscape:connector-curvature="0" />
        <path
           d="m 125.47315,70.97627 a 3.540375,3.540375 0 1 1 -7.08075,0 3.540375,3.540375 0 1 1 7.08075,0 z"
           id="path3802-7"
           style="fill:#ff0000;fill-opacity:1;stroke:none;stroke-width:1.46127701"
           inkscape:connector-curvature="0" />
        <path
           d="m 125.47315,82.69341 a 3.540375,3.540375 0 1 1 -7.08075,0 3.540375,3.540375 0 1 1 7.08075,0 z"
           id="path3804-5"
           style="fill:#ff0000;fill-opacity:1;stroke:none;stroke-width:1.46127701"
           inkscape:connector-curvature="0" />
      </g>
      <g
         transform="translate(-8.0673233,-4.3621223e-4)"
         id="g6025">
        <path
           d="m 107.20556,98.097074 a 5.499614,5.4996023 0 1 1 -10.999228,0 5.499614,5.4996023 0 1 1 10.999228,0 z"
           id="path3873-0"
           style="fill:#ebed02;fill-opacity:1;stroke:none;stroke-width:2.269943"
           inkscape:connector-curvature="0" />
        <path
           d="m 107.20556,116.29841 a 5.499614,5.4996023 0 1 1 -10.999228,0 5.499614,5.4996023 0 1 1 10.999228,0 z"
           id="path3875-9"
           style="fill:#ff0000;fill-opacity:1;stroke:none;stroke-width:2.269943"
           inkscape:connector-curvature="0" />
        <path
           d="m 107.20556,134.49965 a 5.499614,5.4996023 0 1 1 -10.999228,0 5.499614,5.4996023 0 1 1 10.999228,0 z"
           id="path3877-3"
           style="fill:#ebed02;fill-opacity:1;stroke:none;stroke-width:2.269943"
           inkscape:connector-curvature="0" />
        <path
           d="m 107.20556,152.70099 a 5.499614,5.4996023 0 1 1 -10.999228,0 5.499614,5.4996023 0 1 1 10.999228,0 z"
           id="path3879-6"
           style="fill:#ff0000;fill-opacity:1;stroke:none;stroke-width:2.269943"
           inkscape:connector-curvature="0" />
      </g>
      <g
         transform="translate(8.5383197,0.00534911)"
         id="g6019">
        <path
           d="m 125.72828,98.096947 a 5.4996129,5.4996129 0 1 1 -10.99922,0 5.4996129,5.4996129 0 1 1 10.99922,0 z"
           id="path3921-0"
           style="fill:#16ff0e;fill-opacity:0.85882353;stroke:none;stroke-width:2.26994538"
           inkscape:connector-curvature="0" />
        <path
           d="m 125.72828,116.29832 a 5.4996129,5.4996129 0 1 1 -10.99922,0 5.4996129,5.4996129 0 1 1 10.99922,0 z"
           id="path3923-6"
           style="fill:#ebed02;fill-opacity:1;stroke:none;stroke-width:2.26994538"
           inkscape:connector-curvature="0" />
        <path
           d="m 125.72828,134.49959 a 5.4996129,5.4996129 0 1 1 -10.99922,0 5.4996129,5.4996129 0 1 1 10.99922,0 z"
           id="path3925-2"
           style="fill:#16ff0e;fill-opacity:1;stroke:none;stroke-width:2.26994538"
           inkscape:connector-curvature="0" />
        <path
           d="m 125.72828,152.70098 a 5.4996129,5.4996129 0 1 1 -10.99922,0 5.4996129,5.4996129 0 1 1 10.99922,0 z"
           id="path3927-6"
           style="fill:#ebed02;fill-opacity:1;stroke:none;stroke-width:2.26994538"
           inkscape:connector-curvature="0" />
      </g>
      <g
         transform="matrix(1.5533984,0,0,1.5533984,-324.6688,22.140315)"
         id="g5169">
        <path
           d="m 306.74654,48.896879 a 3.540375,3.540375 0 1 1 -7.08075,0 3.540375,3.540375 0 1 1 7.08075,0 z"
           id="path3953-1"
           style="fill:#16ff0e;fill-opacity:1;stroke:none;stroke-width:1.46127701"
           inkscape:connector-curvature="0" />
        <path
           d="m 306.74654,60.614009 a 3.540375,3.540375 0 1 1 -7.08075,0 3.540375,3.540375 0 1 1 7.08075,0 z"
           id="path3955-8"
           style="fill:#16ff0e;fill-opacity:1;stroke:none;stroke-width:1.46127701"
           inkscape:connector-curvature="0" />
        <path
           d="m 306.74654,72.331079 a 3.540375,3.540375 0 1 1 -7.08075,0 3.540375,3.540375 0 1 1 7.08075,0 z"
           id="path3957-7"
           style="fill:#16ff0e;fill-opacity:1;stroke:none;stroke-width:1.46127701"
           inkscape:connector-curvature="0" />
        <path
           d="m 306.74654,84.048219 a 3.540375,3.540375 0 1 1 -7.08075,0 3.540375,3.540375 0 1 1 7.08075,0 z"
           id="path3959-9"
           style="fill:#16ff0e;fill-opacity:1;stroke:none;stroke-width:1.46127701"
           inkscape:connector-curvature="0" />
      </g>
      <g
         transform="translate(35.695276,-0.1044443)"
         id="g6013">
        <path
           d="m 81.007144,98.201083 a 5.499615,5.4996033 0 1 1 -10.99923,0 5.499615,5.4996033 0 1 1 10.99923,0 z"
           id="path3873-0-7"
           style="fill:#ebed02;fill-opacity:1;stroke:none;stroke-width:2.269943"
           inkscape:connector-curvature="0" />
        <path
           d="m 81.007144,134.60366 a 5.499615,5.4996033 0 1 1 -10.99923,0 5.499615,5.4996033 0 1 1 10.99923,0 z"
           id="path3877-3-5"
           style="fill:#ebed02;fill-opacity:1;stroke:none;stroke-width:2.269943"
           inkscape:connector-curvature="0" />
        <path
           d="m 81.007137,116.40233 a 5.499613,5.499613 0 1 1 -10.99922,0 5.499613,5.499613 0 1 1 10.99922,0 z"
           id="path3923-6-9"
           style="fill:#ebed02;fill-opacity:1;stroke:none;stroke-width:2.26994538"
           inkscape:connector-curvature="0" />
        <path
           d="m 81.007137,152.80499 a 5.499613,5.499613 0 1 1 -10.99922,0 5.499613,5.499613 0 1 1 10.99922,0 z"
           id="path3927-6-2"
           style="fill:#ebed02;fill-opacity:1;stroke:none;stroke-width:2.26994538"
           inkscape:connector-curvature="0" />
      </g>
    </g>
  </g>
</svg>
