<?xml version="1.0" encoding="UTF-8" standalone="no"?>
<svg
   id="Layer_1"
   data-name="Layer 1"
   viewBox="0 0 512.00001 511.99999"
   version="1.1"
   sodipodi:docname="miniflux.svg"
   width="512"
   height="512"
   inkscape:version="1.2.2 (b0a8486541, 2022-12-01)"
   inkscape:export-filename="miniflux.png"
   inkscape:export-xdpi="48"
   inkscape:export-ydpi="48"
   xmlns:inkscape="http://www.inkscape.org/namespaces/inkscape"
   xmlns:sodipodi="http://sodipodi.sourceforge.net/DTD/sodipodi-0.dtd"
   xmlns="http://www.w3.org/2000/svg"
   xmlns:svg="http://www.w3.org/2000/svg"
   xmlns:rdf="http://www.w3.org/1999/02/22-rdf-syntax-ns#"
   xmlns:cc="http://creativecommons.org/ns#"
   xmlns:dc="http://purl.org/dc/elements/1.1/">
  <defs
     id="defs83" />
  <sodipodi:namedview
     id="namedview81"
     pagecolor="#ffffff"
     bordercolor="#666666"
     borderopacity="1.0"
     inkscape:showpageshadow="2"
     inkscape:pageopacity="0.0"
     inkscape:pagecheckerboard="0"
     inkscape:deskcolor="#d1d1d1"
     showgrid="false"
     inkscape:zoom="0.54434451"
     inkscape:cx="279.23493"
     inkscape:cy="868.01647"
     inkscape:window-width="1504"
     inkscape:window-height="1282"
     inkscape:window-x="26"
     inkscape:window-y="23"
     inkscape:window-maximized="0"
     inkscape:current-layer="Layer_1" />
  <title
     id="title76">icon</title>
  <path
     d="M 166.81225,96.150624 A 113.67357,113.67357 0 0 1 220.80571,83.09152 q 59.78696,0 76.1702,51.99898 a 165.13831,165.13831 0 0 1 44.60278,-36.886035 q 26.27254,-15.112945 58.57602,-15.112945 44.84021,0 64.10833,27.40038 19.26811,27.40037 19.24437,82.27235 v 206.57129 c 0,5.16429 0.72419,8.6665 2.17256,10.54226 1.44837,1.87576 4.58256,3.56158 9.40255,4.91497 L 512,420.42006 v 12.64359 H 411.71795 q -13.05911,0 -18.79324,-9.84182 -5.73413,-9.84181 -5.79349,-29.51357 V 180.12067 q 0,-31.62678 -6.99256,-44.97081 -6.99256,-13.34403 -23.3758,-13.3559 -26.0351,0 -55.44183,30.86697 a 249.31018,249.31018 0 0 1 2.92049,40.10332 v 206.57129 c 0,5.16429 0.72419,8.6665 2.17256,10.54226 1.44837,1.87576 4.58256,3.56158 9.40255,4.91497 l 16.86999,5.62729 v 12.64359 H 232.38083 q -13.05911,0 -18.80511,-9.84182 -5.74601,-9.84181 -5.7935,-29.51357 V 180.12067 q 0,-31.62678 -6.98068,-44.97081 -6.98069,-13.34403 -23.38767,-13.3559 -25.56023,0 -52.54509,28.11269 v 249.42889 c 0,5.16429 0.71232,8.78522 2.16069,10.88655 1.44837,2.10133 4.41635,3.87024 8.92768,5.27113 l 16.38324,4.92684 v 12.64359 H 0 v -12.64359 l 16.869989,-5.62729 q 7.229995,-2.10132 9.402555,-4.91497 c 1.448373,-1.87576 2.17256,-5.37797 2.17256,-10.54226 V 133.74897 q 0,-7.72861 -2.17256,-10.54226 -2.17256,-2.81364 -9.402555,-4.92684 L 0,112.66446 V 100.02087 L 115.70367,78.93635 h 8.19162 v 49.18534 a 169.21038,169.21038 0 0 1 42.91696,-31.971066 z"
     id="path78"
     style="stroke-width:1.18719" />
  <metadata
     id="metadata85">
    <rdf:RDF>
      <cc:Work
         rdf:about="">
        <dc:title>icon</dc:title>
      </cc:Work>
    </rdf:RDF>
  </metadata>
</svg>
