<?xml version="1.0" encoding="UTF-8" standalone="no"?>
<!-- Created with Inkscape (http://www.inkscape.org/) -->

<svg
   xmlns:dc="http://purl.org/dc/elements/1.1/"
   xmlns:cc="http://creativecommons.org/ns#"
   xmlns:rdf="http://www.w3.org/1999/02/22-rdf-syntax-ns#"
   xmlns:svg="http://www.w3.org/2000/svg"
   xmlns="http://www.w3.org/2000/svg"
   xmlns:xlink="http://www.w3.org/1999/xlink"
   xmlns:sodipodi="http://sodipodi.sourceforge.net/DTD/sodipodi-0.dtd"
   xmlns:inkscape="http://www.inkscape.org/namespaces/inkscape"
   version="1.1"
   id="svg4670"
   width="512"
   height="512"
   viewBox="0 0 512 512"
   sodipodi:docname="ejabberd.svg"
   inkscape:version="0.92.4 (5da689c313, 2019-01-14)">
  <metadata
     id="metadata4676">
    <rdf:RDF>
      <cc:Work
         rdf:about="">
        <dc:format>image/svg+xml</dc:format>
        <dc:type
           rdf:resource="http://purl.org/dc/dcmitype/StillImage" />
        <dc:title></dc:title>
      </cc:Work>
    </rdf:RDF>
  </metadata>
  <defs
     id="defs4674">
    <linearGradient
       inkscape:collect="always"
       id="1">
      <stop
         style="stop-color:#3fb2f3;stop-opacity:1"
         offset="0"
         id="stop5283" />
      <stop
         style="stop-color:#49c8c6;stop-opacity:1"
         offset="1"
         id="stop5285" />
    </linearGradient>
    <linearGradient
       inkscape:collect="always"
       xlink:href="#1"
       id="linearGradient5291"
       gradientUnits="userSpaceOnUse"
       x1="506.164"
       y1="897.51288"
       x2="506.164"
       y2="128.18068"
       gradientTransform="matrix(0.66697552,0,0,0.66697552,-85.307583,-85.482171)" />
  </defs>
  <sodipodi:namedview
     pagecolor="#ffffff"
     bordercolor="#666666"
     borderopacity="1"
     objecttolerance="10"
     gridtolerance="10"
     guidetolerance="10"
     inkscape:pageopacity="0"
     inkscape:pageshadow="2"
     inkscape:window-width="2406"
     inkscape:window-height="1596"
     id="namedview4672"
     showgrid="false"
     inkscape:zoom="0.4609375"
     inkscape:cx="679.76068"
     inkscape:cy="684.56784"
     inkscape:window-x="360"
     inkscape:window-y="176"
     inkscape:window-maximized="0"
     inkscape:current-layer="svg4670" />
  <path
     inkscape:connector-curvature="0"
     id="path55690"
     d="m 22.71497,365.69226 c 0,-96.78776 -0.40234,-141.38713 1.20287,-156.02866 6.44884,-58.82121 33.72282,-112.060031 77.15278,-150.593881 15.86816,-14.07925 29.94351,-24.1697 48.85857,-33.81826 24.2013,-12.34507 45.75644,-18.7887797 75.51234,-23.3636597 13.30553,-2.04567999 45.02409,-2.89686 61.2289,-0.1279 28.13604,4.80767 51.05526,11.0185897 75.25656,23.3636597 13.71286,6.99492 22.05918,12.44601 33.56017,21.05403 53.34559,39.92696 86.57853,98.036001 93.21856,164.381301 1.01407,10.13231 0.84226,35.9671 -0.31003,46.82589 -5.57194,52.50759 -28.16943,100.36301 -65.32657,138.34413 -18.74038,19.15597 -37.94156,33.00688 -60.80864,44.56419 -26.40718,13.34652 -47.90913,19.84352 -79.93665,24.2163 -3.91319,0.53428 -33.22101,1.03784 -93.76027,1.34066 -94.78589,0.47414 -90.7228,-0.061 -105.3743,3.67775 -13.03428,3.32612 -26.47548,9.60448 -36.56103,16.8188 -7.03893,5.03503 -15.61484,12.9312 -19.75722,19.02725 C 25.06379,508.03342 23.57162,512 23.08611,512 22.35645,512 22.71497,487.47538 22.71497,365.69226 Z m 241.16185,17.65451 c 31.82882,-2.12959 53.76526,-9.35719 72.30888,-23.25032 5.28214,-3.95745 7.91313,-8.79737 9.16787,-15.98467 1.75999,-10.08148 -1.65009,-19.68856 -9.04886,-27.59787 -6.60742,-7.06336 -14.66683,-10.12814 -24.21989,-9.62673 -4.87238,0.25573 -7.24389,1.15 -12.7562,3.8417 -8.31896,4.06221 -23.36809,8.8061 -30.7782,9.79291 -7.87584,1.04883 -22.38658,0.41053 -29.8358,-1.28946 -8.35089,-1.90576 -13.01891,-3.46467 -22.06018,-7.80658 -16.41488,-7.88297 -26.19927,-16.47647 -38.27486,-32.48721 -5.04709,-6.6918 -11.92086,-16.51795 -11.92086,-18.03369 0,-0.98364 8.99373,-0.17118 107.74764,-0.18178 117.20682,-0.0126 113.30384,0.21449 120.84512,-3.60697 7.54482,-3.82325 14.73542,-13.65006 16.36528,-22.42176 0.84963,-4.5726 0.74455,-15.87294 -0.71526,-25.5975 -6.14544,-40.93802 -33.2388,-82.65846 -70.06043,-107.3262 -34.70077,-23.246921 -73.69502,-31.573231 -111.5199,-23.941861 -29.41553,5.93474 -61.58044,24.527611 -83.72636,47.927721 -21.23185,22.43426 -34.9718,49.54515 -40.87774,80.89661 -1.71868,9.1235 -1.44292,37.07177 0.28921,46.6106 5.71134,31.45233 17.71104,56.86846 39.82451,81.65652 19.51009,21.8698 52.61186,40.85283 80.94991,46.26207 13.1122,2.50289 23.68465,3.14209 38.29612,2.16447 z M 166.01784,196.72721 c 0,-0.74011 1.97739,-3.62392 3.84154,-6.62954 17.15641,-27.66182 43.80669,-46.26482 72.32639,-51.01387 9.59204,-1.59725 20.85634,-1.64826 28.78687,-0.45061 19.7296,2.97955 37.31724,12.15074 53.99369,27.9141 10.7124,10.12586 22.24569,25.4918 23.29409,29.19751 l 0.18087,1.51413 -90.71432,-0.0904 c -91.5303,-0.0912 -91.70913,0.90175 -91.70913,-0.44128 z"
     style="display:inline;fill:url(#linearGradient5291);fill-opacity:1;stroke-width:0.6669755"
     sodipodi:nodetypes="ssssssssssssssssssssssscssssssscssssssssssscsssscss" />
</svg>
