<svg
   width="512"
   height="512"
   viewBox="0 0 512 512"
   xmlns="http://www.w3.org/2000/svg">
  <g
     transform="translate(-287.39406,537.92107)">
    <g
       style="display:inline"
       transform="matrix(0.33404254,0,0,0.33404254,315.3007,-534.98507)">
      <path
         d="m 682.82726,-3.9267425 c -424.56866,0 -766.369442,341.7999625 -766.369442,766.3675825 0,284.50316 153.495472,531.82336 382.513822,664.05286 L 343.61666,1076.246 C 267.51601,993.98437 221.06132,883.85915 221.06132,762.44084 c 0,-255.81771 205.94762,-461.76481 461.76594,-461.76481 255.81832,0 461.76594,205.9471 461.76594,461.76481 0,121.41831 -46.4547,231.54353 -122.5554,313.80516 l 44.6451,350.2477 c 229.0183,-132.2295 382.5138,-379.5497 382.5138,-664.05286 0,-424.56762 -341.8008,-766.3675825 -766.36944,-766.3675825 z"
         style="vector-effect:none;fill:#f58220;fill-opacity:1;stroke:none;stroke-width:6.60173;stroke-linecap:butt;stroke-linejoin:miter;stroke-miterlimit:4;stroke-dasharray:none;stroke-dashoffset:0;stroke-opacity:1;marker:none;marker-start:none;marker-mid:none;marker-end:none;paint-order:stroke markers fill" />
      <rect
         ry="236.55318"
         rx="236.55374"
         y="546.95117"
         x="446.27341"
         height="473.10635"
         width="473.10748"
         style="vector-effect:none;fill:#0a3667;fill-opacity:1;stroke:none;stroke-width:2.03775;stroke-linecap:butt;stroke-linejoin:miter;stroke-miterlimit:4;stroke-dasharray:none;stroke-dashoffset:0;stroke-opacity:1;marker:none;marker-start:none;marker-mid:none;marker-end:none;paint-order:stroke markers fill" />
      <path
         d="M 596.955,994.13332 499.74112,1519.0871 H 865.9134 L 768.6995,994.13332 Z"
         style="vector-effect:none;fill:#0a3667;fill-opacity:1;stroke:none;stroke-width:2.1465;stroke-linecap:butt;stroke-linejoin:miter;stroke-miterlimit:4;stroke-dasharray:none;stroke-dashoffset:0;stroke-opacity:1;marker:none;marker-start:none;marker-mid:none;marker-end:none;paint-order:stroke markers fill" />
    </g>
  </g>
</svg>
