<?xml version="1.0" encoding="UTF-8" standalone="no"?>
<!-- Created with Inkscape (http://www.inkscape.org/) -->

<svg
   xmlns:dc="http://purl.org/dc/elements/1.1/"
   xmlns:cc="http://creativecommons.org/ns#"
   xmlns:rdf="http://www.w3.org/1999/02/22-rdf-syntax-ns#"
   xmlns:svg="http://www.w3.org/2000/svg"
   xmlns="http://www.w3.org/2000/svg"
   xmlns:sodipodi="http://sodipodi.sourceforge.net/DTD/sodipodi-0.dtd"
   xmlns:inkscape="http://www.inkscape.org/namespaces/inkscape"
   width="512"
   height="512"
   viewBox="0 0 135.46667 135.46667"
   version="1.1"
   id="svg101357"
   inkscape:version="0.92.4 (5da689c313, 2019-01-14)"
   sodipodi:docname="ttrss.svg">
  <defs
     id="defs101351" />
  <sodipodi:namedview
     id="base"
     pagecolor="#ffffff"
     bordercolor="#666666"
     borderopacity="1.0"
     inkscape:pageopacity="0.0"
     inkscape:pageshadow="2"
     inkscape:zoom="0.9899495"
     inkscape:cx="211.53976"
     inkscape:cy="72.201459"
     inkscape:document-units="px"
     inkscape:current-layer="layer1"
     showgrid="false"
     fit-margin-top="0"
     fit-margin-left="0"
     fit-margin-right="0"
     fit-margin-bottom="0"
     inkscape:window-width="1764"
     inkscape:window-height="1413"
     inkscape:window-x="1260"
     inkscape:window-y="165"
     inkscape:window-maximized="0"
     units="px" />
  <metadata
     id="metadata101354">
    <rdf:RDF>
      <cc:Work
         rdf:about="">
        <dc:format>image/svg+xml</dc:format>
        <dc:type
           rdf:resource="http://purl.org/dc/dcmitype/StillImage" />
        <dc:title></dc:title>
      </cc:Work>
    </rdf:RDF>
  </metadata>
  <g
     inkscape:label="Layer 1"
     inkscape:groupmode="layer"
     id="layer1"
     transform="translate(-48.268459,86.306551)">
    <g
       id="g198979"
       style="display:inline;fill:#f18d36;fill-opacity:1"
       transform="matrix(0.77409524,0,0,0.77409524,14.208268,-115.72217)">
      <circle
         id="circle198940"
         r="24"
         cy="189"
         cx="68"
         style="fill:#f18d36;fill-opacity:1" />
      <path
         id="path198942"
         d="M 160,213 H 126 A 82,82 0 0 0 44,131 V 97 a 116,116 0 0 1 116,116 z"
         inkscape:connector-curvature="0"
         style="fill:#f18d36;fill-opacity:1" />
      <path
         id="path198944"
         d="M 184,213 A 140,140 0 0 0 44,73 V 38 a 175,175 0 0 1 175,175 z"
         inkscape:connector-curvature="0"
         style="fill:#f18d36;fill-opacity:1" />
    </g>
    <path
       inkscape:connector-curvature="0"
       id="text199007"
       d="m 135.048,-78.557287 -31.97143,8.229092 -5.254515,19.611233 H 82.763664 l -5.676249,21.185883 H 92.144579 L 81.401621,10.566616 c -2.510595,9.805309 -1.617376,16.924965 2.680407,21.360737 4.297783,4.435773 11.641561,6.654375 22.030512,6.654375 4.55251,0 9.203,-0.584668 13.95148,-1.75189 4.89655,-1.28402 9.0697,-2.91809 12.51972,-4.902485 l 1.94916,-18.384998 c -4.30671,2.568108 -8.85362,3.852332 -13.63958,3.852332 -7.70419,0 -10.5078,-3.910799 -8.41219,-11.7317143 l 9.43052,-35.1940517 h 26.26438 l 5.67625,-21.185883 H 127.5879 Z"
       style="font-style:normal;font-variant:normal;font-weight:bold;font-stretch:normal;font-size:830.21112061px;line-height:1.25;font-family:'Work Sans';-inkscape-font-specification:'Work Sans Bold';letter-spacing:0px;word-spacing:0px;display:inline;fill:#ffffff;fill-opacity:1;stroke:#2d4364;stroke-width:6.54638863;stroke-miterlimit:2.5999999;stroke-dasharray:none;stroke-opacity:1;paint-order:fill markers stroke" />
  </g>
</svg>
