<svg
   xmlns="http://www.w3.org/2000/svg"
   xmlns:xlink="http://www.w3.org/1999/xlink"
   viewBox="0 0 512 512"
   height="512"
   width="512">
  <defs>
    <linearGradient
       id="autoidmagic-endcap-3">
      <stop
         style="stop-color:#601a22;stop-opacity:1"
         offset="0" />
      <stop
         offset="0.86720961"
         style="stop-color:#45181d;stop-opacity:1" />
      <stop
         style="stop-color:#a13642;stop-opacity:0"
         offset="1"/>
    </linearGradient>
    <linearGradient
       id="autoidmagic-linearGradient6757">
      <stop
         style="stop-color:#ffffff;stop-opacity:1"
         offset="0" />
      <stop
         style="stop-color:#ffffff;stop-opacity:0.39215687"
         offset="1" />
    </linearGradient>
    <linearGradient
       id="autoidmagic-linearGradient6741">
      <stop
         style="stop-color:#ffffff;stop-opacity:1"
         offset="0" />
      <stop
         style="stop-color:#5b757b;stop-opacity:0;"
         offset="1" />
    </linearGradient>
    <linearGradient
       id="autoidmagic-linearGradient5969">
      <stop
         style="stop-color:#000001;stop-opacity:0"
         offset="0" />
      <stop
         offset="0.49999997"
         style="stop-color:#000000;stop-opacity:1" />
      <stop
         style="stop-color:#000000;stop-opacity:0"
         offset="1" />
    </linearGradient>
    <linearGradient
       id="autoidmagic-linearGradient5935">
      <stop
         style="stop-color:#ffa900;stop-opacity:1;"
         offset="0" />
      <stop
         style="stop-color:#ffeda0;stop-opacity:1"
         offset="1" />
    </linearGradient>
    <linearGradient
       xlink:href="#autoidmagic-linearGradient5935"
       id="autoidmagic-linearGradient5941"
       x1="-788.95172"
       y1="152.39156"
       x2="-147.65315"
       y2="150.93695"
       gradientUnits="userSpaceOnUse" />
    <linearGradient
       xlink:href="#autoidmagic-linearGradient5969"
       id="autoidmagic-linearGradient5975"
       x1="162.85715"
       y1="168.79073"
       x2="162.85715"
       y2="134.50502"
       gradientUnits="userSpaceOnUse" />
    <linearGradient
       xlink:href="#autoidmagic-linearGradient5969"
       id="autoidmagic-linearGradient5981"
       gradientUnits="userSpaceOnUse"
       x1="162.85715"
       y1="168.79073"
       x2="162.85715"
       y2="134.50502"
       gradientTransform="translate(-0.71428572,737.85714)" />
    <radialGradient
       xlink:href="#autoidmagic-linearGradient6741"
       id="autoidmagic-radialGradient6747"
       cx="393.92856"
       cy="257.00507"
       fx="393.92856"
       fy="257.00507"
       r="111.78571"
       gradientTransform="matrix(1.7457256,-0.00436375,3.8094882e-4,0.0894564,-302.43191,231.09043)"
       gradientUnits="userSpaceOnUse" />
    <radialGradient
       xlink:href="#autoidmagic-linearGradient6741"
       id="autoidmagic-radialGradient6751"
       gradientUnits="userSpaceOnUse"
       gradientTransform="matrix(1.7332115,-0.00436375,3.78218e-4,0.0894564,-297.50152,863.23329)"
       cx="393.92856"
       cy="257.00507"
       fx="393.92856"
       fy="257.00507"
       r="111.78571" />
    <radialGradient
       xlink:href="#autoidmagic-linearGradient6757"
       id="autoidmagic-radialGradient6763"
       cx="-570.48199"
       cy="382.41348"
       fx="-570.48199"
       fy="382.41348"
       r="204.88641"
       gradientTransform="matrix(1.1942885,0.04114054,-0.02212466,0.64226641,27.905882,157.70157)"
       gradientUnits="userSpaceOnUse" />
    <filter
       style="color-interpolation-filters:sRGB"
       id="autoidmagic-filter7470">
      <feFlood
         flood-opacity="0.498039"
         flood-color="rgb(0,0,0)"
         result="flood" />
      <feComposite
         in="flood"
         in2="SourceGraphic"
         operator="in"
         result="composite1" />
      <feGaussianBlur
         in="composite1"
         stdDeviation="3"
         result="blur" />
      <feOffset
         dx="6"
         dy="6"
         result="offset" />
      <feComposite
         in="SourceGraphic"
         in2="offset"
         operator="over"
         result="composite2" />
    </filter>
    <radialGradient
       xlink:href="#autoidmagic-endcap-3"
       id="autoidmagic-radialGradient4287"
       cx="620.27869"
       cy="-27.452856"
       fx="620.27869"
       fy="-27.452856"
       r="41.080517"
       gradientTransform="matrix(10.935912,-1.2967219,0.08820477,0.74387601,-6207.307,928.16347)"
       gradientUnits="userSpaceOnUse" />
    <radialGradient
       xlink:href="#autoidmagic-endcap-3"
       id="autoidmagic-radialGradient4309"
       gradientUnits="userSpaceOnUse"
       gradientTransform="matrix(11.938212,-1.443998,0.08995089,0.74366689,-6850.4532,1021.976)"
       cx="620.70544"
       cy="1109.0797"
       fx="620.70544"
       fy="1109.0797"
       r="41.080517" />
    <filter
       style="color-interpolation-filters:sRGB"
       id="autoidmagic-filter4345">
      <feFlood
         flood-opacity="0.498039"
         flood-color="rgb(0,0,0)"
         result="flood" />
      <feComposite
         in="flood"
         in2="SourceGraphic"
         operator="in"
         result="composite1" />
      <feGaussianBlur
         in="composite1"
         stdDeviation="3"
         result="blur" />
      <feOffset
         dx="6"
         dy="6"
         result="offset" />
      <feComposite
         in="SourceGraphic"
         in2="offset"
         operator="over"
         result="composite2" />
    </filter>
    <linearGradient
       xlink:href="#autoidmagic-linearGradient5935"
       id="autoidmagic-linearGradient964"
       gradientUnits="userSpaceOnUse"
       x1="-788.95172"
       y1="152.39156"
       x2="-147.65315"
       y2="150.93695" />
    <linearGradient
       xlink:href="#autoidmagic-linearGradient5935"
       id="autoidmagic-linearGradient966"
       gradientUnits="userSpaceOnUse"
       x1="-788.95172"
       y1="152.39156"
       x2="-147.65315"
       y2="150.93695" />
    <linearGradient
       xlink:href="#autoidmagic-linearGradient5935"
       id="autoidmagic-linearGradient968"
       gradientUnits="userSpaceOnUse"
       x1="-788.95172"
       y1="152.39156"
       x2="-147.65315"
       y2="150.93695" />
    <linearGradient
       xlink:href="#autoidmagic-linearGradient5935"
       id="autoidmagic-linearGradient970"
       gradientUnits="userSpaceOnUse"
       x1="-788.95172"
       y1="152.39156"
       x2="-147.65315"
       y2="150.93695" />
    <linearGradient
       xlink:href="#autoidmagic-linearGradient5935"
       id="autoidmagic-linearGradient972"
       gradientUnits="userSpaceOnUse"
       x1="-788.95172"
       y1="152.39156"
       x2="-147.65315"
       y2="150.93695" />
    <linearGradient
       xlink:href="#autoidmagic-linearGradient5935"
       id="autoidmagic-linearGradient974"
       gradientUnits="userSpaceOnUse"
       x1="-788.95172"
       y1="152.39156"
       x2="-147.65315"
       y2="150.93695" />
    <linearGradient
       xlink:href="#autoidmagic-linearGradient5935"
       id="autoidmagic-linearGradient976"
       gradientUnits="userSpaceOnUse"
       x1="-788.95172"
       y1="152.39156"
       x2="-147.65315"
       y2="150.93695" />
    <radialGradient
       xlink:href="#autoidmagic-linearGradient6757"
       id="autoidmagic-radialGradient978"
       gradientUnits="userSpaceOnUse"
       gradientTransform="matrix(1.1942885,0.04114054,-0.02212466,0.64226641,27.905882,157.70157)"
       cx="-570.48199"
       cy="382.41348"
       fx="-570.48199"
       fy="382.41348"
       r="204.88641" />
    <radialGradient
       xlink:href="#autoidmagic-linearGradient6757"
       id="autoidmagic-radialGradient980"
       gradientUnits="userSpaceOnUse"
       gradientTransform="matrix(1.1942885,0.04114054,-0.02212466,0.64226641,27.905882,157.70157)"
       cx="-570.48199"
       cy="382.41348"
       fx="-570.48199"
       fy="382.41348"
       r="204.88641" />
    <radialGradient
       xlink:href="#autoidmagic-linearGradient6757"
       id="autoidmagic-radialGradient982"
       gradientUnits="userSpaceOnUse"
       gradientTransform="matrix(1.1942885,0.04114054,-0.02212466,0.64226641,27.905882,157.70157)"
       cx="-570.48199"
       cy="382.41348"
       fx="-570.48199"
       fy="382.41348"
       r="204.88641" />
    <radialGradient
       xlink:href="#autoidmagic-linearGradient6757"
       id="autoidmagic-radialGradient984"
       gradientUnits="userSpaceOnUse"
       gradientTransform="matrix(1.1942885,0.04114054,-0.02212466,0.64226641,27.905882,157.70157)"
       cx="-570.48199"
       cy="382.41348"
       fx="-570.48199"
       fy="382.41348"
       r="204.88641" />
    <radialGradient
       xlink:href="#autoidmagic-linearGradient6757"
       id="autoidmagic-radialGradient986"
       gradientUnits="userSpaceOnUse"
       gradientTransform="matrix(1.1942885,0.04114054,-0.02212466,0.64226641,27.905882,157.70157)"
       cx="-570.48199"
       cy="382.41348"
       fx="-570.48199"
       fy="382.41348"
       r="204.88641" />
    <radialGradient
       xlink:href="#autoidmagic-linearGradient6757"
       id="autoidmagic-radialGradient988"
       gradientUnits="userSpaceOnUse"
       gradientTransform="matrix(1.1942885,0.04114054,-0.02212466,0.64226641,27.905882,157.70157)"
       cx="-570.48199"
       cy="382.41348"
       fx="-570.48199"
       fy="382.41348"
       r="204.88641" />
    <radialGradient
       xlink:href="#autoidmagic-linearGradient6757"
       id="autoidmagic-radialGradient990"
       gradientUnits="userSpaceOnUse"
       gradientTransform="matrix(1.1942885,0.04114054,-0.02212466,0.64226641,27.905882,157.70157)"
       cx="-570.48199"
       cy="382.41348"
       fx="-570.48199"
       fy="382.41348"
       r="204.88641" />
    <radialGradient
       xlink:href="#autoidmagic-linearGradient6757"
       id="autoidmagic-radialGradient992"
       gradientUnits="userSpaceOnUse"
       gradientTransform="matrix(1.1942885,0.04114054,-0.02212466,0.64226641,27.905882,157.70157)"
       cx="-570.48199"
       cy="382.41348"
       fx="-570.48199"
       fy="382.41348"
       r="204.88641" />
    <radialGradient
       xlink:href="#autoidmagic-linearGradient6757"
       id="autoidmagic-radialGradient994"
       gradientUnits="userSpaceOnUse"
       gradientTransform="matrix(1.1942885,0.04114054,-0.02212466,0.64226641,27.905882,157.70157)"
       cx="-570.48199"
       cy="382.41348"
       fx="-570.48199"
       fy="382.41348"
       r="204.88641" />
    <radialGradient
       xlink:href="#autoidmagic-linearGradient6757"
       id="autoidmagic-radialGradient996"
       gradientUnits="userSpaceOnUse"
       gradientTransform="matrix(1.1942885,0.04114054,-0.02212466,0.64226641,27.905882,157.70157)"
       cx="-570.48199"
       cy="382.41348"
       fx="-570.48199"
       fy="382.41348"
       r="204.88641" />
  </defs>
  <g
     transform="translate(0,-540.36216)">
    <g
       transform="matrix(0.55595254,0,0,0.55595254,-32.165826,509.86346)">
      <rect
         ry="13.699058"
         y="163.22679"
         x="286.52591"
         height="806.42017"
         width="197.66254"
         style="fill:#5b757b;fill-opacity:1;fill-rule:evenodd;stroke:none;stroke-width:2;stroke-miterlimit:4;stroke-dasharray:none;stroke-opacity:1" />
      <rect
         ry="18.711"
         y="79.363213"
         x="59.015781"
         height="890.28375"
         width="222.68274"
         style="fill:#4d1e00;fill-opacity:1;fill-rule:evenodd;stroke:none;stroke-width:2;stroke-miterlimit:4;stroke-dasharray:none;stroke-opacity:1" />
      <g
         style="font-style:normal;font-variant:normal;font-weight:normal;font-stretch:normal;font-size:150.29335022px;line-height:125%;font-family:Constantia;-inkscape-font-specification:Constantia;letter-spacing:5px;word-spacing:0px;fill:url(#autoidmagic-linearGradient5941);fill-opacity:1;stroke:none;stroke-width:1px;stroke-linecap:butt;stroke-linejoin:miter;stroke-opacity:1;filter:url(#autoidmagic-filter7470)"
         transform="matrix(-0.00109603,-1.0176807,0.98262526,-0.00113513,15.930032,48.452047)">
        <path
           style="font-style:normal;font-variant:normal;font-weight:normal;font-stretch:normal;font-size:150.29335022px;font-family:Constantia;-inkscape-font-specification:Constantia;letter-spacing:5px;fill:url(#autoidmagic-linearGradient964);fill-opacity:1;stroke:none;stroke-opacity:1"
           d="m -709.87308,130.38905 -2.93541,0.44032 -5.35714,-19.30037 q -9.09979,-2.27495 -16.51172,-2.27495 -17.97943,0 -28.25339,12.54891 -10.27396,12.54891 -10.27396,32.58313 0,21.42854 11.74167,34.19761 11.74167,12.76906 32.50974,12.76906 11.66829,0 24.58412,-4.47651 l 0.80724,3.30234 q -14.45693,9.98042 -32.7299,9.98042 -23.70349,0 -38.2338,-14.45693 -14.53032,-14.45693 -14.53032,-38.08703 0,-25.1712 15.99802,-39.84829 15.99803,-14.67708 41.8297,-14.67708 12.40213,0 25.39135,3.0088 l 0.5137,0.58708 z" />
        <path
           style="font-style:normal;font-variant:normal;font-weight:normal;font-stretch:normal;font-size:150.29335022px;font-family:Constantia;-inkscape-font-specification:Constantia;letter-spacing:5px;fill:url(#autoidmagic-linearGradient966);fill-opacity:1;stroke:none;stroke-opacity:1"
           d="m -637.94556,103.23645 32.58312,89.75037 q 1.83464,5.0636 3.30235,6.89823 1.54109,1.76125 4.32974,2.64188 l 6.89823,2.05479 0.14677,3.15557 q -9.61349,-0.22015 -17.83266,-0.22015 -8.36594,0 -19.74068,0.22015 l -0.29354,-3.15557 6.97161,-2.05479 q 1.46771,-0.5137 2.0548,-1.10078 0.66047,-0.66047 0.66047,-1.98141 0,-1.46771 -0.80724,-3.81604 -0.73386,-2.42172 -2.12818,-6.38454 l -6.89823,-19.66729 h -35.37178 l -7.70547,19.59391 q -1.54109,4.10958 -2.42171,6.5313 -0.88063,2.42172 -0.88063,3.81604 0,1.24756 0.66047,1.90803 0.73385,0.58708 2.12818,1.02739 l 6.82484,1.98141 0.14677,3.30234 q -10.42073,-0.22015 -17.02542,-0.22015 -6.60469,0 -14.75047,0.22015 l -0.36692,-3.15557 7.41192,-2.27495 q 2.78865,-0.88062 4.10959,-2.71526 1.32093,-1.83464 2.93541,-5.72406 l 37.49996,-89.53022 z m -23.40996,59.66235 h 30.2348 l -14.31016,-40.43537 z" />
        <path
           style="font-style:normal;font-variant:normal;font-weight:normal;font-stretch:normal;font-size:150.29335022px;font-family:Constantia;-inkscape-font-specification:Constantia;letter-spacing:5px;fill:url(#autoidmagic-linearGradient968);fill-opacity:1;stroke:none;stroke-opacity:1"
           d="m -554.27639,125.17869 v 59.66235 q 0,8.14578 0.14677,16.07141 h 35.73871 l 9.39333,-19.44714 3.30234,-0.5137 -1.61448,26.27198 -0.44031,0.5137 q -19.00682,-0.22015 -35.15162,-0.22015 h -18.41974 q -8.87963,0 -18.19958,0.22015 l -0.29354,-3.15557 9.0264,-2.71526 q 1.83464,-0.5137 1.98141,-2.27495 0.0734,-2.93542 0.0734,-6.5313 0.0734,-3.66927 0.0734,-8.0724 v -59.51558 q 0,-3.74266 -0.0734,-6.75146 0,-3.0088 -0.0734,-5.43052 -0.0734,-1.90802 -1.76125,-2.4951 l -9.09979,-2.86204 -0.14677,-3.15557 q 9.46671,0.29354 18.19958,0.29354 8.80625,0 18.19959,-0.29354 l 0.29354,3.15557 -9.0998,2.71526 q -1.76125,0.44032 -1.90802,2.27495 -0.0734,2.56849 -0.14677,7.48532 0,4.91682 0,4.77005 z" />
        <path
           style="font-style:normal;font-variant:normal;font-weight:normal;font-stretch:normal;font-size:150.29335022px;font-family:Constantia;-inkscape-font-specification:Constantia;letter-spacing:5px;fill:url(#autoidmagic-linearGradient970);fill-opacity:1;stroke:none;stroke-opacity:1"
           d="m -465.61699,184.98781 q 0,4.40313 0,7.99901 0.0734,3.59589 0.14677,6.5313 0.0734,1.83464 2.56849,2.49511 l 8.29255,2.56849 0.14677,3.15557 q -9.46672,-0.22015 -18.19958,-0.22015 -8.87964,0 -18.19959,0.22015 l -0.29354,-3.15557 9.02641,-2.71526 q 1.83463,-0.5137 1.9814,-2.27495 0.0734,-2.93542 0.0734,-6.5313 0.0734,-3.66927 0.0734,-8.0724 v -59.51558 q 0,-3.74266 -0.0734,-6.75146 0,-3.0088 -0.0734,-5.43052 -0.0734,-1.90802 -1.76125,-2.4951 l -9.09979,-2.86204 -0.14677,-3.15557 q 9.46672,0.29354 18.19958,0.29354 8.80625,0 18.19959,-0.29354 l 0.29354,3.15557 -9.09979,2.71526 q -1.76125,0.44032 -1.90802,2.27495 -0.0734,2.56849 -0.14677,5.65068 0,3.0088 0,6.60469 z" />
        <path
           style="font-style:normal;font-variant:normal;font-weight:normal;font-stretch:normal;font-size:150.29335022px;font-family:Constantia;-inkscape-font-specification:Constantia;letter-spacing:5px;fill:url(#autoidmagic-linearGradient972);fill-opacity:1;stroke:none;stroke-opacity:1"
           d="m -435.07886,104.77754 q 9.46672,0.29354 18.41974,0.29354 3.37573,-0.14677 10.93443,-0.44031 7.5587,-0.29354 10.20058,-0.29354 15.85125,0 23.92364,6.0176 8.14579,5.94422 8.14579,17.17219 0,18.05282 -19.44714,24.58412 11.37474,1.90802 17.83266,8.43932 6.5313,6.53131 6.5313,16.6585 0,14.67708 -10.64089,22.74948 -10.64088,7.99901 -29.50094,7.99901 -3.74265,0 -8.14578,-0.22016 -4.32974,-0.22015 -9.76026,-0.22015 -8.87964,0 -18.19959,0.22015 l -0.29354,-3.15557 9.02641,-2.71526 q 1.83463,-0.5137 1.98141,-2.27495 0.0734,-2.93542 0.0734,-6.5313 0.0734,-3.66927 0.0734,-8.0724 v -59.51558 q 0,-3.74266 -0.0734,-6.75146 0,-3.0088 -0.0734,-5.43052 -0.0734,-1.90802 -1.76125,-2.4951 l -9.0998,-2.86204 z m 25.39136,51.66334 v 44.54495 q 2.20156,0.80724 5.06359,1.0274 2.93542,0.22016 5.35714,0.22016 12.18198,0 18.49313,-6.01761 6.38453,-6.0176 6.38453,-17.46573 0,-11.44813 -6.45792,-16.95203 -6.38453,-5.5773 -20.69469,-5.5773 -4.18297,0 -8.14578,0.22016 z m 0,-5.87083 q 4.5499,0.0734 9.24656,0.0734 10.86105,0 16.36495,-5.21036 5.57729,-5.28375 5.57729,-15.26417 0,-10.49412 -5.72406,-15.04401 -5.65068,-4.62329 -16.36495,-4.62329 -1.90802,0 -4.18297,0.14677 -2.27495,0.0734 -4.91682,0.36693 v 39.55475 z" />
        <path
           style="font-style:normal;font-variant:normal;font-weight:normal;font-stretch:normal;font-size:150.29335022px;font-family:Constantia;-inkscape-font-specification:Constantia;letter-spacing:5px;fill:url(#autoidmagic-linearGradient974);fill-opacity:1;stroke:none;stroke-opacity:1"
           d="m -314.717,184.98781 q 0,4.40313 0,7.92563 0.0734,3.5225 0.14677,6.38453 0.0734,2.27495 1.90802,2.86203 l 8.14578,2.42172 0.22016,3.15557 q -8.73287,-0.22015 -17.46573,-0.22015 -8.87964,0 -18.19959,0.22015 l -0.29354,-3.15557 9.02641,-2.71526 q 1.83464,-0.5137 1.98141,-2.27495 0.0734,-2.93542 0.0734,-6.5313 0.0734,-3.66927 0.0734,-8.0724 v -59.51558 q 0,-3.74266 -0.0734,-6.75146 0,-3.0088 -0.0734,-5.43052 -0.0734,-1.90802 -1.76125,-2.4951 l -9.0998,-2.86204 -0.14677,-3.15557 q 9.46672,0.29354 18.41974,0.29354 1.76125,0 4.47651,-0.0734 2.71527,-0.14677 6.60469,-0.29354 3.96282,-0.14678 6.60469,-0.22016 2.64188,-0.0734 4.18297,-0.0734 16.73188,0 25.09782,6.31115 8.36593,6.31115 8.36593,18.41974 0,10.93443 -5.72406,17.75927 -5.72406,6.75146 -17.46573,10.42073 4.62328,7.04501 8.51271,13.64969 3.88943,6.53131 7.19177,12.03521 3.37573,5.43053 6.16438,9.61349 2.78864,4.18297 5.21036,6.60469 1.24755,1.24755 2.49511,2.20157 1.24755,0.88062 2.56849,1.4677 1.39432,0.58709 2.86203,1.0274 1.54109,0.44031 3.37573,0.88062 l 0.22015,3.22896 q -5.28375,0.66047 -8.87963,0.66047 -3.00881,0 -5.28375,-0.14677 -2.27495,-0.14677 -4.0362,-0.58708 -1.76125,-0.44031 -3.22896,-1.10078 -1.39432,-0.73386 -2.78865,-1.83464 -3.0088,-2.27495 -5.94422,-6.5313 -2.86203,-4.32974 -6.0176,-9.76026 -3.08219,-5.43052 -6.45792,-11.52151 -3.37573,-6.16438 -7.11838,-12.03521 -1.10079,-1.76125 -1.90803,-2.78865 -0.73385,-1.0274 -1.68786,-1.61448 -0.88063,-0.58708 -2.12818,-0.80724 -1.17416,-0.22016 -3.08219,-0.29354 l -5.06359,-0.14677 v 25.46474 z m 0,-30.96865 q 4.47651,0.22016 8.29255,0.22016 12.69568,0 18.56652,-5.35714 5.94422,-5.43052 5.94422,-16.95203 0,-11.15459 -5.65068,-16.29157 -5.65068,-5.13698 -17.68589,-5.13698 -2.05479,0 -4.40313,0.14677 -2.34833,0.14678 -5.06359,0.44032 z" />
        <path
           style="font-style:normal;font-variant:normal;font-weight:normal;font-stretch:normal;font-size:150.29335022px;font-family:Constantia;-inkscape-font-specification:Constantia;letter-spacing:5px;fill:url(#autoidmagic-linearGradient976);fill-opacity:1;stroke:none;stroke-opacity:1"
           d="m -222.24158,105.07108 h 17.83266 q 16.43834,0 34.71131,-0.29354 l 0.44031,0.58708 -4.25636,22.6761 -2.93541,0.5137 -4.5499,-16.95203 h -33.90407 v 40.36198 h 6.67808 q 7.63208,0 17.02542,-0.14677 1.90802,-0.0734 2.4951,-1.90802 l 2.56849,-9.90704 3.96281,-0.14677 q -0.22015,10.27396 -0.22015,15.19079 0,4.77005 0.22015,14.97062 l -3.96281,0.29355 -2.64187,-10.05381 q -0.58709,-1.90802 -2.27495,-1.9814 -9.54011,-0.14678 -17.24558,-0.14678 h -6.60469 v 26.7123 q 0,8.14578 0.14678,16.07141 h 35.225 l 8.95302,-18.6399 3.30235,-0.58708 -1.61448,25.53812 -0.5137,0.5137 q -19.00683,-0.22015 -35.07823,-0.22015 h -17.46574 q -8.87963,0 -18.19958,0.22015 l -0.29354,-3.15557 9.0264,-2.71526 q 1.83464,-0.5137 1.98141,-2.27495 0.0734,-2.93542 0.0734,-6.5313 0.0734,-3.66927 0.0734,-8.0724 v -59.51558 q 0,-3.74266 -0.0734,-6.75146 0,-3.0088 -0.0734,-5.43052 -0.0734,-1.90802 -1.76125,-2.4951 l -9.09979,-2.86204 -0.14677,-3.15557 q 9.46672,0.29354 18.19958,0.29354 z" />
      </g>
      <rect
         transform="matrix(1.0109069,0,0,0.99720262,-1.1682991,0.42422237)"
         y="133.79074"
         x="58.57143"
         height="35.714287"
         width="222.14285"
         style="fill:url(#autoidmagic-linearGradient5975);fill-opacity:1;fill-rule:evenodd;stroke:none;stroke-width:2;stroke-miterlimit:4;stroke-dasharray:none;stroke-opacity:1" />
      <rect
         style="fill:url(#autoidmagic-linearGradient5981);fill-opacity:1;fill-rule:evenodd;stroke:none;stroke-width:2;stroke-miterlimit:4;stroke-dasharray:none;stroke-opacity:1"
         width="222.14285"
         height="35.714287"
         x="57.857143"
         y="871.64789" />
      <rect
         y="242.36217"
         x="285.71432"
         height="20"
         width="199.28571"
         style="fill:url(#autoidmagic-radialGradient6747);fill-opacity:1;fill-rule:evenodd;stroke:none;stroke-width:2;stroke-miterlimit:4;stroke-dasharray:none;stroke-opacity:1" />
      <rect
         style="fill:url(#autoidmagic-radialGradient6751);fill-opacity:1;fill-rule:evenodd;stroke:none;stroke-width:2;stroke-miterlimit:4;stroke-dasharray:none;stroke-opacity:1"
         width="197.85715"
         height="20"
         x="286.42859"
         y="874.505" />
      <g
         style="font-style:italic;font-variant:normal;font-weight:500;font-stretch:normal;font-size:90px;line-height:125%;font-family:Z003;-inkscape-font-specification:'Z003 Medium Italic';letter-spacing:0px;word-spacing:0px;fill:url(#autoidmagic-radialGradient6763);fill-opacity:1;stroke:none;stroke-width:1px;stroke-linecap:butt;stroke-linejoin:miter;stroke-opacity:1"
         transform="rotate(-91.414339,-5.3533435,5.2228015)">
        <path
           style="fill:url(#autoidmagic-radialGradient978);fill-opacity:1"
           d="m -799.08134,403.51296 c -3.6,5.04 -5.49,6.48 -8.55,6.48 -3.15,0 -6.3,-2.61 -8.91,-7.38 -2.61,-4.86 -3.87,-8.1 -8.46,-20.79 -1.89,-5.13 -2.88,-8.01 -5.04,-13.77 13.77,-11.7 17.73,-14.31 21.69,-14.31 1.62,0 2.79,0.27 5.31,1.35 l 3.33,-6.66 c -2.25,-0.9 -3.42,-1.17 -5.04,-1.17 -2.25,0 -3.78,0.54 -5.94,2.07 -1.35,0.9 -1.35,0.9 -12.87,10.17 l -9,7.56 c -0.27,0.27 -1.35,1.08 -2.88,2.25 l 4.68,-18.81 c 2.61,-0.72 3.33,-1.17 4.68,-2.79 -4.05,-0.27 -6.03,-0.36 -8.28,-0.36 -7.11,0 -12.78,0.99 -16.74,2.88 -6.75,3.33 -10.44,8.64 -10.44,15.12 0,2.34 0.36,3.78 1.53,6.75 l 7.38,-3.15 c -1.44,-3.51 -1.98,-5.67 -1.98,-8.55 0,-6.3 4.5,-9.72 12.87,-9.72 0.9,0 2.43,0.09 4.32,0.27 l -0.9,3.51 c -5.4,22.5 -6.75,27 -9.54,33.12 -2.97,5.67 -6.39,8.01 -11.52,7.74 h -3.42 l -3.96,3.87 h 12.33 c 6.3,0 6.66,0 8.37,-0.72 1.8,-0.81 3.78,-1.89 5.85,-3.15 h -10.89 c 10.98,-10.98 12.42,-13.32 15.3,-24.57 l 0.63,1.98 c 0.54,1.53 0.54,1.62 1.62,4.95 l 1.62,5.4 c 3.87,12.6 6.57,18.81 9.81,22.5 3.96,4.5 9.45,6.84 16.11,6.84 2.97,0 4.59,-0.27 7.92,-1.53 z" />
        <path
           style="fill:url(#autoidmagic-radialGradient980);fill-opacity:1"
           d="m -786.82446,362.20296 c -3.6,0 -9.36,2.61 -14.67,6.57 -5.76,4.32 -9.81,13.68 -9.81,22.68 0,5.4 3.06,8.91 7.83,8.91 2.52,0 5.13,-0.9 9.18,-3.06 4.5,-2.52 7.47,-4.77 9.09,-6.84 3.6,-4.95 6.48,-13.77 6.48,-19.98 0,-4.86 -3.33,-8.28 -8.1,-8.28 z m -4.68,4.23 c 3.6,0 5.85,3.42 5.85,8.91 0,3.87 -1.26,8.46 -3.42,12.87 -2.61,5.13 -5.85,7.92 -9.27,7.92 -3.69,0 -6.03,-3.33 -6.03,-8.46 0,-10.44 6.57,-21.24 12.87,-21.24 z" />
        <path
           style="fill:url(#autoidmagic-radialGradient982);fill-opacity:1"
           d="m -773.21196,379.84296 c 2.61,-8.1 3.24,-8.91 6.57,-9.09 5.04,-0.09 6.39,-0.18 8.64,-0.72 -5.31,5.94 -6.75,7.74 -8.01,9.81 -2.61,4.32 -4.14,9.45 -4.14,13.86 0,4.14 1.89,6.66 4.86,6.66 7.11,0 16.47,-7.47 22.68,-18.09 3.6,-6.03 5.94,-13.05 5.94,-17.55 0,-2.16 -0.63,-3.33 -2.34,-4.86 -2.16,0.63 -3.15,0.99 -6.03,2.43 1.08,2.43 1.44,3.78 1.44,6.3 0,5.49 -1.62,11.16 -4.68,16.38 -3.51,5.94 -8.46,10.26 -11.79,10.26 -2.07,0 -3.6,-2.34 -3.6,-5.4 0,-4.14 1.44,-9.09 3.96,-13.59 1.8,-3.24 3.6,-5.67 7.74,-10.44 v -0.63 c 0,-0.18 0,-0.54 -0.09,-0.99 h -0.9 c -0.99,1.26 -1.98,1.53 -4.77,1.53 -1.17,0 -2.25,0 -5.04,-0.18 -2.25,-0.09 -3.78,-0.18 -4.41,-0.18 -1.8,0 -2.61,0.27 -3.15,0.99 -1.17,1.44 -2.61,5.13 -4.41,11.61 z" />
        <path
           style="fill:url(#autoidmagic-radialGradient984);fill-opacity:1"
           d="m -717.74805,343.75296 c -2.52,1.98 -4.59,3.6 -6.21,4.68 0.63,1.89 1.44,3.42 3.42,6.3 2.52,-2.25 2.79,-2.52 5.85,-4.86 -0.27,-0.54 -0.45,-0.9 -1.17,-2.07 -0.54,-1.08 -0.63,-1.08 -1.35,-2.88 z m 3.42,45 -1.53,0.81 c -6.21,3.42 -7.29,3.87 -8.37,3.87 -0.99,0 -1.62,-0.99 -1.62,-2.52 0,-1.53 0,-1.53 2.97,-13.41 3.33,-13.68 3.33,-13.68 3.33,-14.4 0,-0.54 -0.45,-0.9 -1.08,-0.9 -1.53,0 -6.84,2.97 -14.22,7.92 l -0.18,2.52 c 5.49,-2.97 5.76,-3.06 6.57,-3.06 0.72,0 1.08,0.54 1.08,1.53 0,1.26 -0.27,2.52 -1.62,7.65 -4.23,15.66 -4.23,15.66 -4.23,18 0,2.16 0.81,3.6 2.16,3.6 1.53,0 3.96,-1.17 8.73,-4.23 1.71,-1.08 3.42,-2.16 5.13,-3.33 0.81,-0.45 1.44,-0.9 2.52,-1.53 z" />
        <path
           style="fill:url(#autoidmagic-radialGradient986);fill-opacity:1"
           d="m -675.96696,387.40296 -2.52,1.62 c -2.25,1.53 -3.78,2.61 -4.23,2.88 -1.89,1.17 -3.6,1.98 -4.05,1.98 -0.72,0 -1.26,-0.99 -1.26,-2.34 0,-2.97 7.47,-35.55 9.45,-41.13 1.98,-5.4 3.96,-7.47 7.2,-7.47 1.26,0 2.07,0.18 4.14,0.72 l 3.15,-5.04 c -1.35,-0.27 -1.98,-0.36 -2.88,-0.36 -2.16,0 -3.42,0.36 -5.4,1.53 -2.25,1.26 -5.31,3.6 -7.83,5.94 -4.41,4.23 -4.68,4.86 -7.02,14.13 -0.09,0.36 -0.36,1.62 -0.72,2.88 -1.62,-0.36 -2.88,-0.54 -3.69,-0.54 -2.79,0 -10.53,4.86 -14.13,8.82 -3.06,3.51 -7.11,16.2 -7.11,22.41 0,3.42 1.8,6.93 3.42,6.93 1.71,0 5.85,-2.52 15.12,-9.27 -0.45,2.43 -0.72,4.77 -0.72,6.48 0,1.8 0.63,2.79 1.98,2.79 1.44,0 9.27,-4.77 16.74,-10.17 z m -17.64,0.36 c -7.65,5.4 -9.63,6.57 -10.89,6.57 -1.26,0 -1.89,-1.26 -1.89,-3.96 0,-2.97 0.54,-6.3 1.62,-10.35 2.52,-9.09 6.12,-13.59 10.71,-13.59 1.71,0 2.88,0.63 4.68,2.43 z" />
        <path
           style="fill:url(#autoidmagic-radialGradient988);fill-opacity:1"
           d="m -608.9029,377.59296 h 1.89 l 4.14,-2.52 c -3.51,-0.27 -11.07,-0.45 -20.25,-0.45 l -5.49,2.79 v 0.72 c 4.59,-0.27 9,-0.45 13.14,-0.54 l -3.24,12.96 c -3.87,3.6 -9.18,6.03 -13.32,6.03 -6.66,0 -10.8,-5.22 -10.8,-13.41 0,-17.55 11.79,-33.93 24.48,-33.93 3.69,0 6.84,1.53 8.55,4.23 1.17,1.8 1.62,3.33 2.16,7.11 l 6.66,-7.47 c -1.71,-5.13 -4.95,-7.11 -11.88,-7.11 -9.9,0 -18.72,4.05 -25.92,11.79 -7.29,7.83 -11.88,18.81 -11.88,28.35 0,8.73 4.77,14.13 12.51,14.13 5.58,0 10.26,-1.35 18.36,-5.49 -1.35,5.4 -2.97,11.25 -3.78,13.23 -1.8,4.86 -4.41,6.84 -9.18,6.84 -2.61,0 -6.93,-0.36 -9.72,-0.81 l -3.78,5.94 c 3.24,0.36 4.59,0.45 6.48,0.45 7.2,0 13.32,-3.24 19.26,-10.08 3.87,-4.5 5.49,-8.28 8.1,-18.72 z" />
        <path
           style="fill:url(#autoidmagic-radialGradient990);fill-opacity:1"
           d="m -575.00805,362.20296 c -3.6,0 -9.36,2.61 -14.67,6.57 -5.76,4.32 -9.81,13.68 -9.81,22.68 0,5.4 3.06,8.91 7.83,8.91 2.52,0 5.13,-0.9 9.18,-3.06 4.5,-2.52 7.47,-4.77 9.09,-6.84 3.6,-4.95 6.48,-13.77 6.48,-19.98 0,-4.86 -3.33,-8.28 -8.1,-8.28 z m -4.68,4.23 c 3.6,0 5.85,3.42 5.85,8.91 0,3.87 -1.26,8.46 -3.42,12.87 -2.61,5.13 -5.85,7.92 -9.27,7.92 -3.69,0 -6.03,-3.33 -6.03,-8.46 0,-10.44 6.57,-21.24 12.87,-21.24 z" />
        <path
           style="fill:url(#autoidmagic-radialGradient992);fill-opacity:1"
           d="m -569.58977,420.88296 c 2.88,0.36 6.66,0.63 9.9,0.63 6.3,0 9.81,-1.71 15.03,-7.2 5.22,-5.67 5.58,-6.57 8.73,-21.24 3.15,-14.4 4.86,-21.06 7.92,-31.23 -1.17,0.63 -2.16,1.17 -2.52,1.35 l -3.15,1.53 c -0.81,0.36 -1.35,0.63 -1.98,0.99 l -0.81,3.24 -1.89,7.38 -1.8,7.38 -0.99,3.87 c -9,5.58 -9.45,5.85 -11.07,5.85 -1.08,0 -1.89,-1.17 -1.89,-2.88 0,-2.52 0.72,-5.76 3.87,-17.64 2.16,-9 2.16,-9 2.16,-9.63 0,-0.63 -0.45,-1.08 -0.99,-1.08 -0.99,0 -6.66,2.97 -14.31,7.47 l -0.27,2.43 c 4.5,-2.25 5.22,-2.52 6.21,-2.52 0.9,0 1.35,0.45 1.35,1.35 0,1.62 -0.63,4.23 -2.79,12.24 -2.25,8.19 -2.61,9.72 -2.61,12.15 0,2.97 1.35,5.04 3.15,5.04 1.08,0 2.34,-0.63 5.4,-2.52 7.74,-4.86 7.74,-4.86 11.52,-7.56 l -0.99,4.77 c -2.7,12.87 -3.15,14.49 -4.23,16.83 -1.53,3.15 -4.32,4.5 -9.36,4.5 -2.7,0 -4.68,-0.36 -9.99,-1.62 z" />
        <path
           style="fill:url(#autoidmagic-radialGradient994);fill-opacity:1"
           d="m -489.56149,387.40296 c -6.57,4.5 -8.1,5.4 -9,5.4 -0.63,0 -1.08,-0.72 -1.08,-1.8 0,-2.43 2.07,-11.88 5.4,-24.21 0.99,-1.44 1.17,-1.62 2.61,-3.24 -4.32,-0.99 -7.38,-1.35 -11.34,-1.35 -3.69,0 -5.49,0.36 -7.74,1.8 -3.24,1.89 -7.02,4.68 -8.19,5.94 -3.42,3.78 -7.11,15.93 -7.11,23.22 0,4.32 1.44,7.2 3.69,7.2 1.98,0 4.95,-1.8 16.2,-9.9 -0.99,4.59 -1.35,6.84 -1.35,8.01 0,1.26 0.54,1.89 1.44,1.89 1.17,0 1.89,-0.36 8.28,-4.59 3.06,-2.07 4.77,-3.24 8.1,-5.67 z m -15.84,-0.63 c -3.15,2.34 -4.77,3.51 -4.86,3.6 -2.97,1.89 -5.31,3.06 -6.48,3.06 -1.53,0 -2.34,-1.62 -2.34,-4.5 0,-4.59 1.35,-10.53 3.69,-15.75 2.16,-4.95 4.14,-6.84 7.2,-6.84 1.62,0 4.68,0.45 7.65,1.17 -1.8,6.48 -2.43,8.91 -2.52,9.36 -0.54,2.25 -0.99,4.5 -1.53,6.84 -0.09,0.45 -0.36,1.53 -0.81,3.06 z" />
        <path
           style="fill:url(#autoidmagic-radialGradient996);fill-opacity:1"
           d="m -468.41852,387.58296 c -1.89,1.08 -1.89,1.08 -5.76,3.51 -2.61,1.62 -4.14,2.34 -5.13,2.34 -0.9,0 -1.62,-1.08 -1.62,-2.34 v -0.81 -0.81 c 0,-1.62 4.05,-19.08 7.38,-31.77 3.51,-13.32 4.32,-14.85 8.28,-14.85 1.35,0 2.25,0.09 4.41,0.63 l 3.87,-4.77 c -1.89,-0.45 -2.79,-0.54 -4.05,-0.54 -3.6,0 -6.39,1.35 -10.8,5.31 -3.96,3.51 -4.95,4.95 -6.12,8.19 -0.72,2.16 -2.7,9.45 -3.6,13.41 l -6.48,28.17 c -0.09,0.54 -0.18,1.08 -0.18,1.62 0,2.79 1.53,5.49 2.97,5.49 h 0.54 0.27 c 0.54,0.27 3.42,-1.71 16.02,-10.8 z" />
      </g>
      <rect
         transform="matrix(0.98420937,-0.17700821,0.19459355,0.98088396,0,0)"
         ry="13.472634"
         y="497.91531"
         x="560.07922"
         height="593.90881"
         width="220.95114"
         style="fill:#79abff;fill-opacity:1;fill-rule:evenodd;stroke:none;stroke-width:2;stroke-miterlimit:4;stroke-dasharray:none;stroke-opacity:1" />
      <text
         y="864.97888"
         x="680.23669"
         style="font-style:normal;font-weight:normal;line-height:0%;font-family:sans-serif;letter-spacing:0px;word-spacing:0px;fill:#000000;fill-opacity:1;stroke:none;stroke-width:1px;stroke-linecap:butt;stroke-linejoin:miter;stroke-opacity:1"
         xml:space="preserve"><tspan
           style="font-size:90px;line-height:1.25;font-family:sans-serif"
           y="864.97888"
           x="680.23669"> </tspan></text>
      <path
         d="m 785.34706,662.30978 18.44112,-40.18977 30.67103,31.77403 -49.4241,-288.42662 -49.11215,8.41574 z"
         style="fill:#0c13ba;fill-opacity:1;fill-rule:evenodd;stroke:#000000;stroke-width:1.12602389px;stroke-linecap:butt;stroke-linejoin:miter;stroke-opacity:1;filter:url(#autoidmagic-filter4345)" />
      <g
         transform="rotate(-7.222335,596.07169,515.32721)">
        <g>
          <g>
            <path
               style="fill:#d6b865;fill-opacity:1;fill-rule:evenodd;stroke:none;stroke-width:2;stroke-miterlimit:4;stroke-dasharray:none;stroke-opacity:1"
               d="m 624.9082,72.820312 c -0.83386,-0.08218 -1.68937,-0.0815 -2.55664,0.0078 L 515.95117,83.785156 c -6.93817,0.714477 -11.94885,6.874331 -11.23437,13.8125 l 89.83203,872.349614 c 0.71448,6.93817 6.87628,11.94885 13.81445,11.23437 l 106.40039,-10.95703 c 6.93817,-0.71448 11.94885,-6.87433 11.23438,-13.8125 L 636.16406,84.0625 C 635.5389,77.991602 630.74522,73.39555 624.9082,72.820312 Z"
               transform="rotate(5.799032,720.99401,330.78116)" />
          </g>
          <g>
            <path
               transform="rotate(5.799032,720.99401,330.78116)"
               d="m 624.9082,72.820312 c -0.83386,-0.08218 -1.68937,-0.0815 -2.55664,0.0078 L 515.95117,83.785156 c -6.93817,0.714477 -11.94885,6.874331 -11.23437,13.8125 l 89.83203,872.349614 c 0.71448,6.93817 6.87628,11.94885 13.81445,11.23437 l 106.40039,-10.95703 c 6.93817,-0.71448 11.94885,-6.87433 11.23438,-13.8125 L 636.16406,84.0625 C 635.5389,77.991602 630.74522,73.39555 624.9082,72.820312 Z"
               style="fill:url(#autoidmagic-radialGradient4309);fill-opacity:1;fill-rule:evenodd;stroke:none;stroke-width:2;stroke-miterlimit:4;stroke-dasharray:none;stroke-opacity:1" />
            <path
               transform="rotate(5.799032,720.99401,330.78116)"
               d="m 624.9082,72.820312 c -0.83386,-0.08218 -1.68937,-0.0815 -2.55664,0.0078 L 515.95117,83.785156 c -6.93817,0.714477 -11.94885,6.874331 -11.23437,13.8125 l 89.83203,872.349614 c 0.71448,6.93817 6.87628,11.94885 13.81445,11.23437 l 106.40039,-10.95703 c 6.93817,-0.71448 11.94885,-6.87433 11.23438,-13.8125 L 636.16406,84.0625 C 635.5389,77.991602 630.74522,73.39555 624.9082,72.820312 Z"
               style="fill:url(#autoidmagic-radialGradient4287);fill-opacity:1;fill-rule:evenodd;stroke:none;stroke-width:2;stroke-miterlimit:4;stroke-dasharray:none;stroke-opacity:1" />
          </g>
        </g>
      </g>
    </g>
  </g>
</svg>
