<?xml version="1.0" encoding="UTF-8" standalone="no"?>
<!-- Generator: Adobe Illustrator 24.1.2, SVG Export Plug-In . SVG Version: 6.00 Build 0)  -->

<svg
   version="1.1"
   id="Layer_1"
   x="0px"
   y="0px"
   viewBox="0 0 512 512"
   xml:space="preserve"
   sodipodi:docname="kiwix.svg"
   width="512"
   height="512"
   inkscape:version="1.2.2 (b0a8486541, 2022-12-01)"
   xmlns:inkscape="http://www.inkscape.org/namespaces/inkscape"
   xmlns:sodipodi="http://sodipodi.sourceforge.net/DTD/sodipodi-0.dtd"
   xmlns="http://www.w3.org/2000/svg"
   xmlns:svg="http://www.w3.org/2000/svg"><defs
   id="defs9" /><sodipodi:namedview
   id="namedview7"
   pagecolor="#ffffff"
   bordercolor="#666666"
   borderopacity="1.0"
   inkscape:showpageshadow="2"
   inkscape:pageopacity="0.0"
   inkscape:pagecheckerboard="0"
   inkscape:deskcolor="#d1d1d1"
   showgrid="false"
   inkscape:zoom="0.59282121"
   inkscape:cx="448.70189"
   inkscape:cy="609.79599"
   inkscape:window-width="1504"
   inkscape:window-height="1282"
   inkscape:window-x="26"
   inkscape:window-y="23"
   inkscape:window-maximized="0"
   inkscape:current-layer="Layer_1" />
<style
   type="text/css"
   id="style2">
	.st0{fill:#010101;}
</style>
<path
   class="st0"
   d="m 511.31939,320.69463 c -3.94623,-17.30636 -32.56828,-67.181 -91.09611,-111.44534 -10.69761,-8.13018 -20.34923,-14.88156 -28.38433,-20.25414 11.69606,-50.06482 -49.11392,-110.446904 -108.45,-82.01502 C 240.78868,66.899736 193.29129,50.544276 149.59749,51.209906 33.920647,52.826436 -55.321204,173.35286 40.672028,288.36407 c 0.04754,0.0476 0.09509,0.0951 0.19018,0.19018 1.473893,1.75916 2.995331,3.51833 4.516769,5.27749 6.228389,7.46456 10.364799,14.0733 13.883124,25.72181 l 28.622054,93.80617 H 77.757083 c -9.318809,0 -16.925999,7.55964 -16.925999,16.926 h 38.416311 l 64.566025,30.52385 c 3.99378,-8.463 0.38036,-18.54253 -8.03509,-22.48876 l -16.926,-7.98755 h 48.68602 c 0,-9.31881 -7.55965,-16.926 -16.926,-16.926 h -44.1217 c -7.70228,0 -14.54876,-5.03976 -16.78337,-12.40923 L 87.028346,326.49511 c -5.657848,-19.58851 7.321921,-32.3781 19.540974,-33.89954 11.12551,-1.3788 16.73581,5.80048 21.96576,23.20193 l 20.15905,66.08747 h -10.12707 c -9.31881,0 -16.926,7.55964 -16.926,16.926 h 38.41631 l 64.56603,30.52385 c 3.99378,-8.463 0.38036,-18.54253 -8.03509,-22.48876 l -16.926,-7.98755 h 35.70625 c 3.61341,6.1333 8.03509,11.93378 13.31258,17.16373 33.28146,33.28145 87.34006,33.28145 120.62151,0 33.28146,-33.28146 33.28146,-87.34006 0,-120.62152 -33.28145,-33.28145 -87.34005,-33.28145 -120.62151,0 -23.39211,23.39211 -30.38122,57.05393 -20.87223,86.53179 h -40.4132 c -7.70228,0 -14.54875,-5.03976 -16.78336,-12.40923 l -33.47164,-110.01899 5.7054,-3.04287 c 79.44759,-33.329 164.4104,26.19726 223.5563,-30.9993 0.14264,-0.14264 0.28527,-0.28527 0.38036,-0.38036 7.32192,-6.65629 14.64384,-13.45522 36.27679,0.0951 23.29702,14.59629 74.69311,52.67979 97.99013,117.81636 0.0475,0 14.16839,-5.03977 10.2697,-22.29858 z M 347.85989,176.39574 c -0.19018,-8.8909 -7.41702,-16.02265 -16.40301,-16.02265 -9.03354,0 -16.403,7.32193 -16.403,16.40301 0,4.94467 2.18706,9.31881 5.6103,12.31414 -11.88623,-2.28216 -20.82468,-12.64696 -20.82468,-25.15127 0,-14.1684 11.45833,-25.62673 25.62672,-25.62673 14.16839,0 25.62672,11.45833 25.62672,25.62673 0,4.51676 -1.18862,8.74826 -3.23305,12.45677 z"
   id="path4"
   style="stroke-width:0.475449" />
</svg>
