<svg
   width="1300.2"
   height="1536"
   viewBox="0 0 1300.2 1536"
   xmlns="http://www.w3.org/2000/svg">
  <path
     d="m 455.25476,327.22013 c 20.31563,0 36.01406,-16.62188 36.01406,-36.01407 0,-19.39219 -15.69843,-36.01407 -36.01406,-36.01407 -19.39219,0 -35.09063,16.62188 -35.09063,36.01407 0,19.39219 15.69844,36.01407 35.09063,36.01407 z m 389.69068,0 c 19.39219,0 35.09063,-16.62188 35.09063,-36.01407 0,-19.39219 -15.69844,-36.01407 -35.09063,-36.01407 -20.31563,0 -36.01407,16.62188 -36.01407,36.01407 0,19.39219 15.69844,36.01407 36.01407,36.01407 z M 95.114077,497.13265 c 51.712503,0 94.190643,42.47814 94.190643,94.19064 v 397.07819 c 0,52.63592 -41.5547,95.11412 -94.190643,95.11412 C 42.478131,1083.5156 0,1041.0374 0,988.40148 V 591.32329 c 0,-51.7125 42.478131,-94.19064 95.114077,-94.19064 z M 1073.958,514.67797 v 615.00943 c 0,56.3297 -45.2485,101.5782 -100.65473,101.5782 h -69.25782 v 209.6203 c 0,52.636 -42.47813,95.1141 -95.11408,95.1141 -52.63594,0 -95.11407,-42.4781 -95.11407,-95.1141 V 1231.2656 H 586.3829 v 209.6203 c 0,52.636 -42.47813,95.1141 -95.11408,95.1141 -51.7125,0 -94.19063,-42.4781 -94.19063,-95.1141 l -0.92344,-209.6203 h -68.33439 c -56.32969,0 -101.57814,-45.2485 -101.57814,-101.5782 V 514.67797 Z M 859.72044,140.68572 c 129.28127,66.48751 217.00786,193.92191 217.00786,340.74849 H 222.54847 c 0,-146.82658 87.72658,-274.26098 217.93128,-340.74849 L 374.91568,19.715394 c -3.69375,-6.464064 -1.84687,-14.7750026 4.61719,-18.4687532 6.46406,-2.7703129 14.775,-0.92343763 18.46875,5.5406259 L 464.48913,128.68104 c 56.3297,-24.93282 119.12346,-38.784386 185.61097,-38.784386 66.48751,0 129.28127,13.851566 185.61097,38.784386 L 902.19858,6.7872667 c 3.69375,-6.46406353 12.00468,-8.3109388 18.46875,-5.5406259 6.46406,3.6937506 8.31094,12.0046892 4.61719,18.4687532 z m 440.47976,450.63757 v 397.07819 c 0,52.63592 -42.4781,95.11412 -95.1141,95.11412 -51.7125,0 -94.1906,-42.4782 -94.1906,-95.11412 V 591.32329 c 0,-52.63594 42.4781,-94.19064 94.1906,-94.19064 52.636,0 95.1141,41.5547 95.1141,94.19064 z"
     style="stroke-width:0.923438;fill:currentColor;" />
</svg>
