<svg xmlns="http://www.w3.org/2000/svg" xmlns:xlink="http://www.w3.org/1999/xlink" version="1.1" x="0px" y="0px" viewBox="0 0 100 100" enable-background="new 0 0 100 100" xml:space="preserve"><path d="M79.032,11.72H20.996c-5.219,0-9.45,4.231-9.45,9.45v57.658c0,5.219,4.231,9.45,9.45,9.45h58.035  c5.219,0,9.451-4.231,9.451-9.45V21.171C88.482,15.951,84.251,11.72,79.032,11.72z M20.538,55.867  c-0.002-2.529-0.003-5.057,0.001-7.585c0.001-0.961,0.518-1.507,1.47-1.509c4.566-0.008,9.132-0.003,13.698-0.001  c0.054,0,0.108,0.012,0.259,0.03c-0.107,0.212-0.179,0.371-0.266,0.522c-1.861,3.227-3.727,6.451-5.578,9.684  c-0.184,0.322-0.383,0.447-0.762,0.444c-2.419-0.019-4.839-0.008-7.258-0.01C21.036,57.44,20.538,56.937,20.538,55.867z   M30.645,72.454c-1.52,1.055-3.056,2.088-4.6,3.108c-0.171,0.113-0.491,0.183-0.641,0.098c-0.174-0.1-0.238-0.394-0.29-0.493  c0.229-1.936,0.426-3.722,0.66-5.503c0.087-0.662,0.616-0.937,1.201-0.62c1.227,0.667,2.439,1.361,3.638,2.077  C31.189,71.467,31.204,72.066,30.645,72.454z M32.194,69.707c-0.109-0.039-0.362-0.093-0.578-0.213  c-1.111-0.62-2.216-1.25-3.315-1.891c-0.806-0.47-0.995-1.177-0.526-1.991c5.337-9.259,10.678-18.515,16.02-27.77  c0.485-0.84,1.186-1.03,2.028-0.558c1.078,0.604,2.152,1.215,3.222,1.834c0.863,0.499,1.05,1.198,0.546,2.072  c-5.327,9.243-10.658,18.484-15.986,27.727C33.321,69.411,32.928,69.713,32.194,69.707z M44.038,57.409  c0.107-0.2,0.186-0.358,0.274-0.511c1.851-3.211,3.711-6.416,5.545-9.637c0.222-0.39,0.468-0.519,0.898-0.503  c0.853,0.031,1.71-0.006,2.563,0.023c0.172,0.006,0.427,0.14,0.495,0.285c1.609,3.396,3.199,6.802,4.79,10.207  c0.013,0.029,0.002,0.069,0.002,0.136C53.767,57.409,48.931,57.409,44.038,57.409z M63.448,59.957  c-0.746-1.351-1.546-2.676-2.218-4.063c-4.22-8.713-8.082-17.588-11.774-26.536c-0.523-1.268-0.832-2.626-1.226-3.947  c-0.072-0.24-0.075-0.501-0.088-0.599c0-0.265-0.031-0.387,0.006-0.481c0.095-0.24,0.168-0.56,0.354-0.669  c0.132-0.077,0.501,0.075,0.65,0.233c0.495,0.529,1.006,1.064,1.39,1.672c1.386,2.197,2.707,4.435,4.081,6.64  c5.039,8.087,9.517,16.487,13.936,24.921c0.529,1.01,0.457,1.779-0.391,2.55c-0.903,0.82-1.923,1.449-3.23,1.266  C64.294,60.855,63.771,60.542,63.448,59.957z M68.637,67.995c-0.732-1.104-1.444-2.223-2.132-3.354  c-0.447-0.736-0.221-1.473,0.541-1.886c0.638-0.345,1.284-0.678,1.937-0.993c0.77-0.372,1.563-0.145,1.97,0.596  c0.585,1.065,1.134,2.15,1.685,3.233c0.104,0.205,0.145,0.443,0.19,0.583c-0.036,0.654-0.245,1.121-0.729,1.426  c-0.476,0.3-0.957,0.592-1.45,0.863C69.901,68.874,69.107,68.704,68.637,67.995z M74.394,75.242  c-0.693-0.357-1.42-0.653-2.089-1.048c-0.853-0.502-1.461-1.247-1.806-2.184c-0.376-1.021-0.042-2.133,0.894-2.659  c0.542-0.305,1.166-0.527,1.78-0.629c1.006-0.167,1.825,0.301,2.243,1.193c0.387,0.825,0.691,1.727,0.821,2.625  c0.182,1.263,0.169,2.555,0.238,3.819C75.689,75.935,75.047,75.578,74.394,75.242z M79.491,55.885  c-0.001,1.037-0.506,1.554-1.528,1.556c-2.273,0.004-4.547,0.001-6.681,0.001c-1.898-3.597-3.735-7.078-5.619-10.647  c0.243-0.011,0.412-0.026,0.582-0.026c3.875-0.001,7.751-0.003,11.626,0c1.124,0.001,1.62,0.506,1.621,1.638  C79.492,50.899,79.493,53.392,79.491,55.885z"></path></svg>