<svg
   width="1451.214"
   height="1536"
   viewBox="0 0 1451.214 1536"
   xmlns="http://www.w3.org/2000/svg"
   fill="currentColor">
  <path
     d="m 1451.2144,768 c 0,33.5199 -12.8165,66.05392 -36.4776,89.71502 L 772.9294,1499.5225 C 749.26829,1522.1977 716.73427,1536 683.21438,1536 c -33.5199,0 -65.06804,-13.8023 -88.72914,-36.4775 l -73.94095,-73.941 c -23.66111,-23.6611 -37.46342,-56.1951 -37.46342,-89.715 0,-33.5199 13.80231,-66.0539 37.46342,-89.715 L 809.40693,957.28883 H 115.34788 C 44.36457,957.28883 0,898.13607 0,831.09628 V 704.90372 C 0,637.86393 44.36457,578.71117 115.34788,578.71117 H 809.40693 L 520.54429,288.86264 c -23.66111,-22.67522 -37.46342,-55.20924 -37.46342,-88.72914 0,-33.51989 13.80231,-66.05391 37.46342,-88.72914 L 594.48524,37.463415 C 618.14634,13.802311 649.69448,0 683.21438,0 c 33.51989,0 66.05391,13.802311 89.71502,37.463415 l 641.8074,641.807445 c 23.6611,22.67522 36.4776,55.20924 36.4776,88.72914 z"
     style="stroke-width:0.985879" />
</svg>
