<svg
   width="1536"
   height="1536"
   viewBox="0 0 1536 1536"
   xmlns="http://www.w3.org/2000/svg"
   fill="currentColor">
  <path
     d="m 1311.9863,767.49358 c 0,-108.64519 -31.9996,-209.31642 -86.9991,-294.03975 L 470.99509,1224.0028 c 85.9991,55.8177 187.99804,88.7103 296.9969,88.7103 299.99681,0 543.99431,-244.2026 543.99431,-545.21952 z M 312.99674,1065.5204 1067.9888,313.97465 c -85.99904,-57.81121 -188.99796,-90.70378 -299.99681,-90.70378 -299.99687,0 -543.99433,244.2025 -543.99433,544.22271 0,110.6387 32.99966,212.30667 88.99908,298.02682 z M 1535.984,767.49358 c 0,424.61332 -343.9964,768.49042 -767.99201,768.49042 C 343.99641,1535.984 0,1192.1069 0,767.49358 0,343.877 343.99641,0 767.99199,0 1191.9876,0 1535.984,343.877 1535.984,767.49358 Z"
     style="stroke-width:0.998366" />
</svg>
