<svg
   width="1843.2"
   height="1536"
   viewBox="0 0 1843.2 1536"
   fill="currentColor"
   xmlns="http://www.w3.org/2000/svg">
  <path
     d="m 1843.2,1305.6 v 153.6 c 0,42 -34.8,76.8 -76.8,76.8 H 76.8 C 34.8,1536 0,1501.2 0,1459.2 v -153.6 c 0,-42 34.8,-76.8 76.8,-76.8 h 1689.6 c 42,0 76.8,34.8 76.8,76.8 z m 0,-614.4 v 153.6 c 0,42 -34.8,76.8 -76.8,76.8 H 76.8 C 34.8,921.6 0,886.8 0,844.8 V 691.2 c 0,-42 34.8,-76.8 76.8,-76.8 h 1689.6 c 42,0 76.8,34.8 76.8,76.8 z m 0,-614.4 v 153.6 c 0,42 -34.8,76.8 -76.8,76.8 H 76.8 C 34.8,307.2 0,272.4 0,230.4 V 76.8 C 0,34.8 34.8,0 76.8,0 h 1689.6 c 42,0 76.8,34.8 76.8,76.8 z"
     style="stroke-width:1.2" />
</svg>
