<svg
   width="1426.286"
   height="1536"
   viewBox="0 0 1426.286 1536"
   xmlns="http://www.w3.org/2000/svg"
   fill="currentColor">
  <path
     d="m 726.85714,1453.7143 c 0,-7.7143 -6,-13.7143 -13.71428,-13.7143 -67.71429,0 -123.42857,-55.7143 -123.42857,-123.4286 0,-7.7143 -6,-13.7143 -13.71429,-13.7143 -7.71429,0 -13.71429,6 -13.71429,13.7143 0,83.1429 67.71429,150.8572 150.85715,150.8572 7.71428,0 13.71428,-6 13.71428,-13.7143 z m 699.42856,-246.8572 c 0,60 -49.7143,109.7143 -109.7143,109.7143 H 932.57143 C 932.57143,1437.4286 834,1536 713.14286,1536 592.28571,1536 493.71429,1437.4286 493.71429,1316.5714 h -384 C 49.71429,1316.5714 0,1266.8571 0,1206.8571 126.85714,1099.7143 274.28571,907.71429 274.28571,493.71429 c 0,-164.57143 136.28572,-344.57143 363.42858,-378 -4.28572,-10.28572 -6.85715,-21.428576 -6.85715,-33.428576 C 630.85714,36.857143 667.71429,0 713.14286,0 c 45.42857,0 82.28571,36.857143 82.28571,82.285714 0,12 -2.57143,23.142856 -6.85714,33.428576 227.14287,33.42857 363.42857,213.42857 363.42857,378 0,414 147.4286,606.00001 274.2857,713.14281 z"
     style="stroke-width:0.857143" />
</svg>
