<svg
   width="1664.3781"
   height="1536"
   viewBox="0 0 1664.378 1536"
   xmlns="http://www.w3.org/2000/svg"
   fill="currentColor">
  <path
     d="m 1639.2625,350 c 25,36 32,83 18,129 l -275,906 c -25,85 -113,151 -199,151 H 260.26251 c -102,0 -211.000001,-81 -248.000001,-185 -15.9999997,-45 -15.9999997,-89 -2,-127 2,-20 6,-40 7,-64 1,-16 -7.9999997,-29 -6,-41 4,-24 25,-41 41,-68 30,-50 64.000001,-131 75.000001,-183 5,-19 -5,-41 0,-58 5,-19 24,-33 34,-51 27,-46 62,-135 67,-182 2,-21 -8,-44 -2,-60 7,-23 29,-33 44,-53 24,-33 64,-128 70,-181 2,-17 -8,-34 -5,-52 4,-19 28,-39 44,-62 42,-62 50,-199 177,-163 l -1,3 c 17,-4 34,-9 51,-9 h 760.99999 c 47,0 89,21 114,56 26,36 32,83 18,130 l -274,906 c -47,154 -73,188 -200,188 H 156.26251 c -13,0 -29,3 -38,15 -8,12 -9,21 -1,43 20,58 89,70 144,70 h 922.99999 c 37,0 80,-21 91,-57 l 300,-987 c 6,-19 6,-39 5,-57 23,9 44,23 59,43 z m -1063.99999,2 c -6,18 4,32 22,32 h 607.99999 c 17,0 36,-14 42,-32 l 21,-64 c 6,-18 -4,-32 -22,-32 H 638.26251 c -17,0 -36,14 -42,32 z m -83,256 c -6,18 4,32 22,32 h 607.99999 c 17,0 36,-14 42,-32 l 21,-64 c 6,-18 -4,-32 -22,-32 H 555.26251 c -17,0 -36,14 -42,32 z" />
</svg>
