<svg
   width="1536"
   height="1536"
   xmlns="http://www.w3.org/2000/svg"
   viewBox="0 0 1536 1536"
   fill="currentColor">
  <path
     d="m 1284,606 c 0,-17 -6,-34 -18,-46 l -91,-90 c -12,-12 -28,-19 -45,-19 -17,0 -33,7 -45,19 L 677,877 451,651 c -12,-12 -28,-19 -45,-19 -17,0 -33,7 -45,19 l -91,90 c -12,12 -18,29 -18,46 0,17 6,33 18,45 l 362,362 c 12,12 29,19 45,19 17,0 34,-7 46,-19 l 543,-543 c 12,-12 18,-28 18,-45 z m 252,162 c 0,424 -344,768 -768,768 C 344,1536 0,1192 0,768 0,344 344,0 768,0 c 424,0 768,344 768,768 z" />
</svg>
