<svg
   width="1536"
   height="1536"
   viewBox="0 0 1536 1536"
   fill="currentColor"
   xmlns="http://www.w3.org/2000/svg">
  <path
     d="m 1536,409.26967 c 0,24.77419 -9.9097,49.54838 -27.7471,67.3858 L 790.79228,1194.1161 656.02065,1328.8877 c -17.83743,17.8374 -42.61162,27.7472 -67.38581,27.7472 -24.77419,0 -49.54838,-9.9097 -67.38581,-27.7472 L 386.47742,1194.1161 27.747097,835.3858 C 9.9096775,817.54837 0,792.77418 0,767.99999 0,743.2258 9.9096775,718.45161 27.747097,700.61418 L 162.51871,565.84257 c 17.83742,-17.83742 42.61161,-27.7471 67.38581,-27.7471 24.77419,0 49.54838,9.90968 67.3858,27.7471 L 588.63484,858.17806 1238.7097,207.11225 c 17.8374,-17.83742 42.6116,-27.7471 67.3858,-27.7471 24.7741,0 49.5484,9.90968 67.3858,27.7471 l 134.7716,134.77161 C 1526.0903,359.72128 1536,384.49547 1536,409.26967 Z"
     style="stroke-width:0.990968" />
</svg>
