<svg
   width="1536"
   height="1536"
   xmlns="http://www.w3.org/2000/svg"
   viewBox="0 0 1536 1536"
   fill="currentColor">
  <path
     d="M 1024,768 C 1024,627 909,512 768,512 627,512 512,627 512,768 c 0,141 115,256 256,256 141,0 256,-115 256,-256 z m 512,-109 v 222 c 0,15 -12,33 -28,36 l -185,28 c -11,32 -23,62 -39,91 34,49 70,93 107,138 6,7 10,16 10,25 0,9 -3,16 -9,23 -24,32 -159,179 -193,179 -9,0 -18,-4 -26,-9 l -138,-108 c -29,15 -60,28 -91,38 -7,61 -13,126 -29,186 -4,16 -18,28 -36,28 H 657 c -18,0 -34,-13 -36,-30 l -28,-184 c -31,-10 -61,-22 -90,-37 l -141,107 c -7,6 -16,9 -25,9 -9,0 -18,-4 -25,-11 -53,-48 -123,-110 -165,-168 -5,-7 -7,-15 -7,-23 0,-9 3,-16 8,-23 34,-46 71,-90 105,-137 -17,-32 -31,-65 -41,-99 L 29,913 C 12,910 0,894 0,877 V 655 c 0,-15 12,-33 27,-36 l 186,-28 c 10,-32 23,-62 39,-92 -34,-48 -70,-93 -107,-138 -6,-7 -10,-15 -10,-24 0,-9 4,-16 9,-23 24,-33 159,-179 193,-179 9,0 18,4 26,10 l 138,107 c 29,-15 60,-28 91,-38 7,-61 13,-126 29,-186 4,-16 18,-28 36,-28 h 222 c 18,0 34,13 36,30 l 28,184 c 31,10 61,22 90,37 l 142,-107 c 6,-6 15,-9 24,-9 9,0 18,4 25,10 53,49 123,111 165,170 5,6 7,14 7,22 0,9 -3,16 -8,23 -34,46 -71,90 -105,137 17,32 31,65 41,98 l 183,28 c 17,3 29,19 29,36 z" />
</svg>
