<svg
   width="1954.627"
   height="1536"
   viewBox="0 0 1954.627 1536"
   xmlns="http://www.w3.org/2000/svg"
   fill="currentColor">
  <path
     d="m 1535.7783,558.46491 c 0,308.68279 -343.5867,558.46489 -767.88913,558.46489 -66.53585,0 -130.8902,-6.5445 -191.97229,-17.452 -90.53239,64.3543 -193.06305,111.2567 -303.22897,139.6162 -29.45028,7.6353 -61.08208,13.089 -93.80464,17.452 h -3.27225 c -16.36128,0 -31.6318,-13.089 -34.90405,-31.6318 -4.36301,-20.7242 9.81676,-33.8133 21.81503,-47.993 42.53931,-47.9931 90.53238,-90.5324 127.61794,-181.0648 C 113.43818,893.3257 0,735.1667 0,558.46491 0,249.78216 343.58677,0 767.88917,0 1192.1916,0 1535.7783,249.78216 1535.7783,558.46491 Z M 1954.627,837.6974 c 0,177.7925 -113.4382,334.8608 -290.14,437.3914 37.0856,90.5324 85.0787,133.0717 127.618,181.0648 11.9982,14.1798 26.178,27.2688 21.815,47.9931 -4.363,19.6335 -20.7243,33.8133 -38.1763,31.6318 -32.7226,-4.363 -64.3544,-9.8168 -93.8047,-17.452 -110.1659,-28.3596 -212.6966,-75.2619 -303.2289,-139.6163 -61.0821,10.9076 -125.4364,17.4521 -191.9723,17.4521 -197.42604,0 -378.49081,-54.5376 -514.83477,-143.9793 31.6318,2.1815 64.35434,4.363 95.98614,4.363 234.51163,0 455.93423,-67.6266 625.00073,-189.7908 182.1555,-133.0717 282.5046,-313.0457 282.5046,-508.29029 0,-56.71909 -8.726,-112.34743 -25.0873,-165.79427 184.3371,101.43992 304.3198,262.87118 304.3198,445.02676 z"
     style="stroke-width:1.09075" />
</svg>
