<svg
   width="1536"
   height="1911.9399"
   viewBox="0 0 1536 1911.9399"
   xmlns="http://www.w3.org/2000/svg">
  <path
     d="M 1.4478122,620.83454 C 11.373474,590.37045 13.171254,572.07044 16.960994,554.44047 -10.469811,589.50623 4.3391961,596.98115 1.4478122,620.83454 M 64.791525,409.34741 c 4.936691,45.69667 -34.377594,63.4312 8.709361,33.30213 23.094795,-52.02571 -9.026239,-14.36837 -8.709361,-33.30213 M 804.08211,9.4668817 C 825.50076,1.6217356 856.74157,5.1650146 879.46614,0 849.84813,2.48595 820.37095,3.9668507 791.264,7.721382 l 12.81704,1.7454997 M 1492.367,862.38032 l -4.654,11.67223 c -8.5333,60.61023 -26.956,120.58671 -55.1987,176.19195 31.2045,-58.67267 51.3908,-122.84538 59.8527,-187.86418 M 621.38293,1051.6902 c -11.0182,-12.1822 -17.54142,-26.8504 -24.8403,-41.4652 6.98093,25.6864 21.27888,47.759 34.58991,70.2019 l -9.74961,-28.7367 m -49.22288,1.9386 -4.4427,22.2135 c 20.82116,28.2791 37.34046,58.9192 63.92625,81.0271 -19.12794,-37.3405 -33.3384,-52.7662 -59.48355,-103.2406 M 1358.8032,826.06304 c 1.8863,51.23298 -14.9851,76.09035 -30.1995,120.09379 l -27.3796,13.68127 c -22.4066,43.5105 2.1691,27.62605 -13.8744,62.2341 -34.9772,31.0989 -106.149,97.3159 -128.9269,103.3632 -16.6249,-0.3702 11.2657,-19.6219 14.9157,-27.1672 -46.8255,32.1573 -37.5698,48.2701 -109.1823,67.8035 l -2.0976,-4.654 C 885.44309,1244.5071 640.10544,1079.8444 643.33184,855.17 c -1.88634,14.26274 -5.3592,10.70132 -9.2727,16.46595 -9.1148,-115.59881 53.38284,-231.70868 158.79139,-279.11457 103.0997,-51.03879 223.97017,-30.09493 297.82107,38.73174 -40.5669,-53.13638 -121.31009,-109.46289 -217.00529,-104.19225 -93.73952,1.48091 -181.43061,61.05302 -210.6944,125.71972 -48.02365,30.23577 -53.59516,116.55158 -74.52195,132.3475 -28.15419,206.92066 52.96033,296.32201 190.17304,401.48411 21.59682,14.5615 6.08257,16.7658 9.00916,27.8544 -45.58997,-21.3493 -87.33899,-53.577 -121.66324,-93.0322 18.21252,26.6563 37.86859,52.572 63.27329,72.9355 -42.98132,-14.5636 -100.40143,-104.1581 -117.16826,-107.807 74.09838,132.6643 300.6239,232.6603 419.23785,183.0502 -54.88187,2.0271 -124.6069,1.1288 -186.2766,-21.6673 -25.89869,-13.3281 -61.12236,-40.936 -54.8296,-46.1021 161.87802,60.4705 329.0971,45.8034 469.166,-66.4815 35.6291,-27.7498 74.5571,-74.9626 85.8037,-75.6145 -16.9429,25.4751 2.8914,12.2526 -10.1188,34.7489 35.5064,-57.2622 -15.4268,-23.3071 36.7046,-98.88643 l 19.2517,26.51533 c -7.157,-47.52961 59.0247,-105.24953 52.3084,-180.42338 15.1792,-22.98917 16.9429,24.73467 0.828,77.62353 22.3554,-58.67162 5.8894,-68.1033 11.6359,-116.51531 6.2063,16.27284 14.3502,33.5678 18.5294,50.73899 -14.5625,-56.69673 14.9498,-95.48289 22.2487,-128.43399 -7.1932,-3.19013 -22.4781,25.06968 -25.9691,-41.90586 0.5121,-29.08882 8.0927,-15.24965 11.0193,-22.4077 -5.7124,-3.27868 -20.6985,-25.58074 -29.8122,-68.35082 6.6107,-10.04836 17.6652,26.05767 26.6562,27.5375 -5.7828,-34.00737 -15.7436,-59.9402 -16.1491,-86.03307 -26.2678,-54.89896 -9.2908,7.31701 -30.6049,-23.57065 -27.9611,-87.21524 23.2004,-20.23969 26.6562,-59.87085 42.3817,61.40403 66.552,156.57004 77.6406,195.99101 -8.4608,-48.05992 -22.142,-94.61973 -38.8374,-139.66451 12.8694,5.41254 -20.7326,-98.88533 16.7295,-29.81113 -40.0184,-147.24505 -171.2734,-284.82798 -292.0191,-349.388 14.7727,13.52122 33.4259,30.4993 26.7266,33.16129 -60.0469,-35.75286 -49.4874,-38.53862 -58.0912,-53.64744 -48.922,-19.904667 -52.1302,1.60467 -84.534,0.0384 C 1013.7704,58.288592 995.99959,63.489882 911.14654,32.848682 l 3.86122,18.035407 c -61.08715,-20.345314 -71.17179,7.721382 -137.19563,0.07042 -4.01913,-3.137845 21.15618,-11.353216 41.87065,-14.368364 -59.05891,7.792867 -56.2913,-11.635953 -114.08163,2.150934 14.24353,-9.99608 29.30007,-16.606786 44.49744,-25.104894 -48.16448,2.926592 -114.98212,28.031486 -94.35514,5.20129 C 577.1853,53.882166 437.66269,103.08584 359.36806,176.49711 l -2.46781,-16.44888 C 321.02362,203.11812 200.45291,288.67534 190.84519,344.45665 l -9.59171,2.23842 c -18.66916,31.60997 -30.74576,67.43432 -45.55477,99.96079 -24.41779,41.60712 -35.788073,16.00824 -32.31521,22.53146 -48.023648,97.36815 -71.877032,179.18898 -92.485877,246.28616 14.685243,21.94998 0.352087,132.13624 5.905465,220.32132 -24.1179828,435.5267 305.665152,858.3953 666.142842,956.0291 52.83657,18.8997 131.41393,18.1763 198.24758,20.116 -78.85796,-22.5486 -89.04823,-11.9529 -165.86088,-38.7328 -55.41108,-26.0918 -67.55809,-55.8859 -106.80196,-89.9477 l 15.53239,27.45 c -76.9727,-27.2387 -44.76204,-33.7086 -107.38344,-53.5418 l 16.58971,-21.6672 c -24.94592,-1.8864 -66.07719,-42.0478 -77.32478,-64.2784 l -27.29103,1.0755 c -32.79107,-40.4602 -50.26314,-69.6205 -48.99349,-92.2042 l -8.81499,15.7084 c -9.99608,-17.1541 -120.64005,-151.739 -63.23702,-120.4117 -10.66718,-9.7496 -24.84136,-15.8664 -40.21477,-43.7922 l 11.6893,-13.3633 c -27.62605,-35.5416 -50.84461,-81.0975 -49.08204,-96.2767 14.73859,19.9036 24.96406,23.624 35.0839,27.0254 -69.76131,-173.0883 -73.67588,-9.5373 -126.51245,-176.192 l 11.17824,-0.8984 c -8.56853,-12.9056 -13.76982,-26.9208 -20.66219,-40.6714 l 4.8652,-48.4835 c -50.226855,-58.0731 -14.05148,-246.9231 -6.80488,-350.4976 5.02524,-42.11818 41.924,-86.95063 69.99069,-157.2582 l -17.10077,-2.94474 c 32.68544,-57.01467 186.62869,-228.97626 257.92424,-220.12607 34.53657,-43.38676 -6.85823,-0.15897 -13.61084,-11.08861 75.86095,-78.50588 99.7154,-55.46336 150.9121,-69.58526 55.21583,-32.774 -47.38989,12.78183 -21.20953,-12.50017 95.44768,-24.38152 67.64558,-55.42708 192.16501,-67.80349 13.13392,7.47492 -30.48223,11.5474 -41.42895,21.24367 79.528,-38.90885 251.66563,-30.05865 363.47362,21.59683 129.7389,60.62837 275.5009,239.85363 281.2484,408.48319 l 6.5403,1.76257 c -3.3139,67.02889 10.2607,144.54786 -13.2566,215.75485 l 16.0072,-33.70969 M 831.6004,34.063916 l -11.95283,2.46888 11.1249,-0.987979 0.829,-1.480901 m -33.77904,-9.396464 c 16.90659,3.032219 36.52852,5.359196 33.77904,9.396464 18.49312,-4.054339 22.68936,-7.791799 -33.77904,-9.396464 M 1150.7537,804.43421 c 3.826,-57.04882 -11.2305,-39.01448 -16.2899,-17.24161 5.9065,3.0685 10.5776,40.21371 16.2899,17.24161 m -62.7622,163.32372 c 18.8633,-26.03953 32.6161,-54.54687 37.4631,-84.02405 -4.2304,21.01535 -15.6369,39.15638 -26.3745,58.30247 -59.2179,37.28605 -5.5694,-22.1431 -0.038,-44.7279 -63.6788,80.14575 -8.7435,48.05992 -11.0534,70.44948 m -170.04008,42.38067 c -31.68039,0.4406 5.99509,16.3251 47.35362,22.6893 a 423.34982,423.34982 0 0 0 31.02956,-26.7266 c -25.75786,6.312 -51.97342,6.4528 -78.38318,4.0373"
     overflow="visible"
     style="stroke-width:1.06693"
     fill="currentColor" />
</svg>
