<?xml version="1.0" encoding="UTF-8" standalone="no"?>
<!-- Created with Inkscape (http://www.inkscape.org/) -->

<svg
   xmlns:dc="http://purl.org/dc/elements/1.1/"
   xmlns:cc="http://creativecommons.org/ns#"
   xmlns:rdf="http://www.w3.org/1999/02/22-rdf-syntax-ns#"
   xmlns:svg="http://www.w3.org/2000/svg"
   xmlns="http://www.w3.org/2000/svg"
   xmlns:sodipodi="http://sodipodi.sourceforge.net/DTD/sodipodi-0.dtd"
   xmlns:inkscape="http://www.inkscape.org/namespaces/inkscape"
   version="1.1"
   id="svg91922"
   width="512"
   height="512"
   viewBox="0 0 512 511.99999"
   sodipodi:docname="diaspora.svg"
   inkscape:version="0.92.4 (5da689c313, 2019-01-14)">
  <metadata
     id="metadata91928">
    <rdf:RDF>
      <cc:Work
         rdf:about="">
        <dc:format>image/svg+xml</dc:format>
        <dc:type
           rdf:resource="http://purl.org/dc/dcmitype/StillImage" />
        <dc:title></dc:title>
      </cc:Work>
    </rdf:RDF>
  </metadata>
  <defs
     id="defs91926" />
  <sodipodi:namedview
     pagecolor="#ffffff"
     bordercolor="#666666"
     borderopacity="1"
     objecttolerance="10"
     gridtolerance="10"
     guidetolerance="10"
     inkscape:pageopacity="0"
     inkscape:pageshadow="2"
     inkscape:window-width="1893"
     inkscape:window-height="1255"
     id="namedview91924"
     showgrid="false"
     inkscape:zoom="0.60263472"
     inkscape:cx="503.01426"
     inkscape:cy="305.95062"
     inkscape:window-x="443"
     inkscape:window-y="322"
     inkscape:window-maximized="0"
     inkscape:current-layer="svg91922"
     fit-margin-top="0"
     fit-margin-left="0"
     fit-margin-right="0"
     fit-margin-bottom="0" />
  <path
     style="display:inline;fill:#3e4142;fill-opacity:1;stroke-width:1.0020926"
     d="M 235.0754,511.23874 C 202.70619,508.75883 175.71816,501.19465 144.27837,485.79023 66.126352,447.49846 15.584928,378.40771 2.3391325,291.75759 -0.76329202,271.46243 -0.78195948,239.28991 2.2970695,219.26357 10.739845,164.35086 36.136619,113.83908 74.58731,75.485123 114.95109,35.222893 165.00102,10.614245 224.65535,1.6993829 c 15.24386,-2.27806523 48.06637,-2.26318055 63.95014,0.02899 65.7282,9.4852571 126.22277,43.0230521 166.48101,92.2959991 27.97253,34.236188 48.31237,81.913388 55.13871,129.246818 2.36308,16.38538 2.36698,48.69175 0.008,65.12437 -5.25766,36.62302 -18.63217,73.74466 -37.18075,103.19708 -14.37753,22.82966 -36.89247,48.24595 -56.65706,63.95829 -51.41162,40.8709 -115.95976,60.69524 -181.31974,55.68781 z M 199.31649,408.37471 c 2.67052,-3.16854 9.22838,-11.62219 14.57303,-18.78587 5.34467,-7.16369 16.27391,-21.81666 24.28723,-32.56218 8.01331,-10.74553 15.48802,-20.35429 16.61047,-21.35281 2.00843,-1.7867 2.14372,-1.68336 8.52631,6.51244 3.56701,4.58037 12.94186,17.11971 20.83299,27.86524 20.43834,27.83135 32.81614,43.08227 34.96598,43.08227 5.38392,0 64.20767,-44.69328 64.20767,-48.7839 0,-1.9354 -3.70947,-7.43639 -28.58485,-42.39021 -20.38523,-28.64447 -28.04487,-39.93361 -27.44683,-40.45242 0.22305,-0.19354 12.35769,-4.3138 26.9658,-9.15619 31.26989,-10.36552 54.04401,-18.4765 62.38477,-22.21827 l 5.99104,-2.68766 -0.577,-4.20811 c -1.35763,-9.90143 -22.14488,-69.02786 -25.14273,-71.51496 -1.78977,-1.48485 -10.06051,0.61828 -39.66529,10.08634 -12.39429,3.96388 -29.97696,9.58343 -39.07257,12.4879 l -16.53748,5.28085 -0.73593,-2.68072 c -0.75816,-2.76178 -2.75151,-66.27863 -2.76464,-88.09383 l -0.007,-12.273434 h -41.46899 -41.46899 l -0.62644,3.13098 c -0.34454,1.722024 -0.63637,14.909724 -0.64846,29.305964 -0.0259,30.8903 -1.59083,67.76363 -2.93265,69.10497 -1.2785,1.27803 -5.41358,0.0511 -53.47134,-15.8631 -22.48994,-7.44758 -41.53159,-13.54106 -42.31478,-13.54106 -0.98259,0 -4.526,9.5495 -11.43185,30.80884 -5.504338,16.94486 -10.92989,34.17852 -12.056788,38.29702 -1.968596,7.19469 -1.978603,7.55847 -0.255292,9.28119 3.128644,3.12752 16.31643,8.20734 55.39154,21.33629 20.91501,7.0273 38.0273,13.28419 38.0273,13.90422 0,1.48445 -1.57784,3.79588 -27.07632,39.66519 -11.94769,16.80709 -23.4457,33.16588 -25.55113,36.35284 l -3.82806,5.7945 3.42153,3.58069 c 10.0496,10.51708 57.61711,46.44799 61.49068,46.44799 0.62369,0 3.31891,-2.59244 5.98942,-5.761 z"
     id="path92475"
     inkscape:connector-curvature="0" />
</svg>
