<svg
   width="1664"
   height="1536"
   xmlns="http://www.w3.org/2000/svg"
   viewBox="0 0 1664 1536"
   fill="currentColor">
  <path
     d="m 1280,1344 c 0,-35 -29,-64 -64,-64 -35,0 -64,29 -64,64 0,35 29,64 64,64 35,0 64,-29 64,-64 z m 256,0 c 0,-35 -29,-64 -64,-64 -35,0 -64,29 -64,64 0,35 29,64 64,64 35,0 64,-29 64,-64 z m 128,-224 v 320 c 0,53 -43,96 -96,96 H 96 c -53,0 -96,-43 -96,-96 v -320 c 0,-53 43,-96 96,-96 h 465 l 135,136 c 37,36 85,56 136,56 51,0 99,-20 136,-56 l 136,-136 h 464 c 53,0 96,43 96,96 z M 1339,551 c 10,24 5,52 -14,70 l -448,448 c -12,13 -29,19 -45,19 -16,0 -33,-6 -45,-19 L 339,621 c -19,-18 -24,-46 -14,-70 10,-23 33,-39 59,-39 H 640 V 64 C 640,29 669,0 704,0 h 256 c 35,0 64,29 64,64 v 448 h 256 c 26,0 49,16 59,39 z" />
</svg>
