<svg
   width="1653.958"
   height="1536"
   viewBox="0 0 1653.958 1536"
   xmlns="http://www.w3.org/2000/svg"
   fill="currentColor">
  <path
     d="m 945.23894,1269.2308 v -175.3846 c 0,-16.6154 -12.92307,-30.4616 -29.53846,-30.4616 H 738.46971 c -16.61538,0 -29.53846,13.8462 -29.53846,30.4616 v 175.3846 c 0,16.6154 12.92308,30.4615 29.53846,30.4615 h 177.23077 c 16.61539,0 29.53846,-13.8461 29.53846,-30.4615 z M 943.39279,924 960.00817,500.30769 c 0,-5.53846 -2.76923,-12.92307 -9.23077,-17.53846 -5.53846,-4.61538 -13.84615,-10.15385 -22.15384,-10.15385 H 725.54663 c -8.30769,0 -16.61538,5.53847 -22.15384,10.15385 -6.46154,4.61539 -9.23077,13.84615 -9.23077,19.38462 L 709.85433,924 c 0,12 13.84615,21.23077 31.38461,21.23077 H 912.00817 C 928.62356,945.23077 942.46971,936 943.39279,924 Z M 930.46971,61.846154 1639.3928,1361.5385 c 20.3077,36 19.3846,80.3077 -1.8462,116.3077 -21.2307,36 -60,58.1538 -101.5384,58.1538 H 118.16202 c -41.538462,0 -80.307693,-22.1538 -101.538462,-58.1538 -21.2307692,-36 -22.1538461,-80.3077 -1.846154,-116.3077 L 723.70048,61.846154 C 744.00817,24 783.70048,0 827.0851,0 c 43.38461,0 83.07692,24 103.38461,61.846154 z"
     style="stroke-width:0.923077" />
</svg>
