<svg
   width="1792"
   height="1536"
   viewBox="0 0 1792 1536"
   xmlns="http://www.w3.org/2000/svg"
   fill="currentColor">
  <path
     d="m 1408,928 v 320 c 0,159 -129,288 -288,288 H 288 C 129,1536 0,1407 0,1248 V 416 C 0,257 129,128 288,128 h 704 c 18,0 32,14 32,32 v 64 c 0,18 -14,32 -32,32 H 288 c -88,0 -160,72 -160,160 v 832 c 0,88 72,160 160,160 h 832 c 88,0 160,-72 160,-160 V 928 c 0,-18 14,-32 32,-32 h 64 c 18,0 32,14 32,32 z M 1792,64 v 512 c 0,35 -29,64 -64,64 -17,0 -33,-7 -45,-19 L 1507,445 855,1097 c -6,6 -15,10 -23,10 -8,0 -17,-4 -23,-10 L 695,983 c -6,-6 -10,-15 -10,-23 0,-8 4,-17 10,-23 L 1347,285 1171,109 c -12,-12 -19,-28 -19,-45 0,-35 29,-64 64,-64 h 512 c 35,0 64,29 64,64 z" />
</svg>
