<svg
   width="2048"
   height="1536"
   xmlns="http://www.w3.org/2000/svg"
   fill="currentColor"
   viewBox="0 0 2048 1536">
  <path
     d="m 634.28571,1196.5714 89.14286,-161.1428 C 590.85714,939.42857 512,785.14286 512,621.71429 512,531.42857 536,442.28571 581.71429,364.57143 403.42857,456 254.85714,600 146.28571,768 c 118.85715,184 286.85715,338.2857 488,428.5714 z M 1078.8571,329.14286 c 0,-29.71429 -25.1428,-54.85715 -54.8571,-54.85715 -190.85714,0 -347.42857,156.57143 -347.42857,347.42858 0,29.71428 25.14286,54.85714 54.85714,54.85714 29.71429,0 54.85714,-25.14286 54.85714,-54.85714 C 786.28571,490.28571 893.71429,384 1024,384 c 29.7143,0 54.8571,-25.14286 54.8571,-54.85714 z m 414.8572,-218.28572 c 0,2.28572 0,8 -1.1429,10.28572 -241.1428,430.85714 -480,864 -721.14283,1294.85714 l -56,101.7143 C 708.57143,1529.1429 696,1536 683.42857,1536 662.85714,1536 554.28571,1469.7143 530.28571,1456 518.85714,1449.1429 512,1437.7143 512,1424 c 0,-18.2857 38.85714,-80 50.28571,-99.4286 -221.71428,-100.5714 -408,-272 -539.428567,-477.71426 C 8,824 0,796.57143 0,768 0,740.57143 8,712 22.857143,689.14286 249.14286,341.71429 602.28571,109.71429 1024,109.71429 c 68.5714,0 138.2857,6.85714 205.7143,19.42857 L 1291.4286,18.285714 C 1298.2857,6.8571429 1309.7143,0 1323.4286,0 c 20.5714,0 128,66.285714 152,80 11.4285,6.857143 18.2857,18.285714 18.2857,30.85714 z M 1536,621.71429 C 1536,834.28571 1404.5714,1024 1206.8571,1099.4286 l 320,-573.71431 c 5.7143,32 9.1429,64 9.1429,96 z M 2048,768 c 0,29.71429 -8,53.71429 -22.8571,78.85714 -35.4286,58.28572 -80,114.28572 -124.5715,165.71426 -224,257.1429 -532.5714,413.7143 -876.5714,413.7143 l 84.5714,-150.8571 C 1441.1429,1246.8571 1723.4286,1044.5714 1901.7143,768 1817.1429,636.57143 1708.5714,521.14286 1579.4286,432 l 72,-128 C 1793.1429,398.85714 1936,541.71429 2025.1429,689.14286 2040,714.28571 2048,738.28571 2048,768 Z"
     style="stroke-width:1.14286" />
</svg>
