<svg
   width="2389.333"
   height="1536"
   xmlns="http://www.w3.org/2000/svg"
   viewBox="0 0 2389.333 1536"
   fill="currentColor">
  <path
     d="M 2218.6667,768 C 2092,572 1918.6667,404 1710.6667,297.33333 1764,388 1792,492 1792,597.33333 c 0,329.33337 -268,597.33337 -597.3333,597.33337 -329.33337,0 -597.33337,-268 -597.33337,-597.33337 0,-105.33333 28,-209.33333 81.33334,-300 C 470.66667,404 297.33333,572 170.66667,768 c 228,352 596,597.3333 1024.00003,597.3333 428,0 796,-245.3333 1024,-597.3333 z m -960,-512 c 0,-34.66667 -29.3334,-64 -64,-64 C 972,192 789.33333,374.66667 789.33333,597.33333 c 0,34.66667 29.33334,63.99997 64,63.99997 34.66667,0 64,-29.3333 64,-63.99997 0,-152 125.33337,-277.33333 277.33337,-277.33333 34.6666,0 64,-29.33333 64,-64 z m 1130.6666,512 c 0,33.3333 -10.6666,64 -26.6666,92 -245.3334,404 -694.6667,676 -1168,676 C 721.33333,1536 272,1262.6667 26.666667,860 10.666667,832 0,801.3333 0,768 0,734.6667 10.666667,704 26.666667,676 272,273.33333 721.33333,0 1194.6667,0 c 473.3333,0 922.6666,273.33333 1168,676 16,28 26.6666,58.6667 26.6666,92 z"
     style="stroke-width:1.33333" />
</svg>
