<svg
   width="1536"
   height="1516.325"
   viewBox="0 0 1536 1516.325"
   xmlns="http://www.w3.org/2000/svg">
  <path
     d="M 43.513213,0.03024741 A 42.345456,42.345467 0 0 0 9.2438151,68.76796 L 131.15554,226.54032 a 101.83294,101.83297 0 0 0 -6.73051,36.49672 v 237.10858 c 0,56.29503 45.3207,101.61574 101.61663,101.61574 H 1309.9667 c 56.2969,0 101.6176,-45.32071 101.6176,-101.61574 V 263.03704 a 101.83294,101.83297 0 0 0 -6.7315,-36.4958 L 1526.7646,68.76796 a 42.345456,42.345467 0 0 0 -31.2438,-68.70288218 42.345456,42.345467 0 0 0 -4.351,0 42.345456,42.345467 0 0 0 -31.4225,16.87164218 l -116.0401,150.16925 a 102.04284,102.04287 0 0 0 -33.7396,-5.71676 H 226.04074 a 102.15375,102.15378 0 0 0 -33.74327,5.71676 L 76.261991,16.93672 A 42.345456,42.345467 0 0 0 43.513213,0 Z M 441.97974,288.43754 A 114.32054,114.32057 0 0 1 556.30028,402.76086 114.32054,114.32057 0 0 1 441.97974,517.08051 114.32054,114.32057 0 0 1 327.6592,402.76086 114.32054,114.32057 0 0 1 441.97883,288.43754 Z m 660.51726,0 A 114.32054,114.32057 0 0 1 1216.8166,402.76086 114.32054,114.32057 0 0 1 1102.4961,517.08051 114.32054,114.32057 0 0 1 988.17645,402.76086 114.32054,114.32057 0 0 1 1102.497,288.43754 Z M 226.04166,635.63572 c -56.29684,0 -101.61663,45.32071 -101.61663,101.61756 v 677.45422 c 0,56.2968 45.3207,101.6175 101.61663,101.6175 H 1309.9667 c 56.2969,0 101.6176,-45.3207 101.6176,-101.6175 V 737.25328 c 0,-56.29685 -45.3207,-101.61756 -101.6176,-101.61756 z m 541.96024,84.65152 c 196.0472,0 355.6664,159.61744 355.6664,355.66196 0,196.049 -159.6192,355.662 -355.66549,355.662 -196.04628,0 -355.66186,-159.6139 -355.66186,-355.662 0,-196.04452 159.61558,-355.66196 355.66186,-355.66196 z m 0,64.37108 c -161.2636,0 -291.29171,130.02723 -291.29171,291.29178 0,161.2645 130.02811,291.3578 291.29171,291.3578 161.26452,0 291.2917,-130.0942 291.2917,-291.3587 0,-161.26457 -130.02718,-291.29179 -291.2917,-291.29179 z m 0,79.6167 c 116.31962,0 211.7062,95.38752 211.7062,211.70448 0,116.3187 -95.38658,211.7052 -211.70529,211.7052 -99.99518,0 -184.32587,-70.5882 -206.08109,-164.2691 h 106.84485 c 17.56091,37.1539 54.95129,62.6498 99.23624,62.6498 61.40041,0 110.08866,-48.6837 110.08866,-110.085 0,-61.4023 -48.68825,-110.08598 -110.08866,-110.08598 -41.50127,0 -76.75417,22.52608 -95.53048,55.90278 H 563.64215 C 587.80708,931.50128 670.42742,864.27502 768.00281,864.27502 Z"
     fill="currentColor"
     fill-rule="evenodd" />
</svg>
