<svg
   width="1536"
   height="1536"
   xmlns="http://www.w3.org/2000/svg"
   fill="currentColor"
   viewBox="0 0 1536 1536">
  <path
     d="M 1453.7143,329.14286 C 1499.1429,329.14286 1536,366 1536,411.42857 V 1453.7143 c 0,45.4286 -36.8571,82.2857 -82.2857,82.2857 H 630.85714 c -45.42857,0 -82.28571,-36.8571 -82.28571,-82.2857 V 1206.8571 H 82.285714 C 36.857143,1206.8571 0,1170 0,1124.5714 V 548.57143 C 0,503.14286 26.571429,439.71429 58.285714,408 L 408,58.285714 C 439.71429,26.571429 503.14286,0 548.57143,0 h 356.57143 c 45.42857,0 82.28571,36.857143 82.28571,82.285714 V 363.42857 c 33.42853,-19.71428 76.28573,-34.28571 109.71433,-34.28571 z M 987.42857,511.71429 731.14286,768 H 987.42857 Z M 438.85714,182.57143 182.57143,438.85714 h 256.28571 z m 168,554.57143 270.85715,-270.85715 V 109.71429 H 548.57143 v 356.57142 c 0,45.42858 -36.85714,82.28572 -82.28572,82.28572 H 109.71429 V 1097.1429 H 548.57143 V 877.71429 c 0,-45.42858 26.57143,-108.85715 58.28571,-140.57143 z M 1426.2857,1426.2857 V 438.85714 h -329.1428 v 356.57143 c 0,45.42857 -36.8572,82.28572 -82.2858,82.28572 H 658.28571 v 548.57141 z"
     style="stroke-width:0.857143" />
</svg>
