<svg
   width="1772.308"
   height="1536"
   xmlns="http://www.w3.org/2000/svg"
   fill="currentColor"
   viewBox="0 0 1772.308 1536">
  <path
     d="m 354.46154,1358.7692 v -118.1538 c 0,-32.3077 -26.76923,-59.0769 -59.07692,-59.0769 H 177.23077 c -32.30769,0 -59.07692,26.7692 -59.07692,59.0769 v 118.1538 c 0,32.3077 26.76923,59.077 59.07692,59.077 h 118.15385 c 32.30769,0 59.07692,-26.7693 59.07692,-59.077 z m 0,-354.4615 V 886.15385 c 0,-32.3077 -26.76923,-59.07693 -59.07692,-59.07693 H 177.23077 c -32.30769,0 -59.07692,26.76923 -59.07692,59.07693 v 118.15385 c 0,32.3077 26.76923,59.0769 59.07692,59.0769 h 118.15385 c 32.30769,0 59.07692,-26.7692 59.07692,-59.0769 z m 0,-354.46155 V 531.69231 c 0,-32.30769 -26.76923,-59.07693 -59.07692,-59.07693 H 177.23077 c -32.30769,0 -59.07692,26.76924 -59.07692,59.07693 v 118.15384 c 0,32.3077 26.76923,59.07693 59.07692,59.07693 h 118.15385 c 32.30769,0 59.07692,-26.76923 59.07692,-59.07693 z M 1299.6923,1358.7692 V 886.15385 c 0,-32.3077 -26.7692,-59.07693 -59.0769,-59.07693 H 531.69231 c -32.30769,0 -59.07693,26.76923 -59.07693,59.07693 v 472.61535 c 0,32.3077 26.76924,59.077 59.07693,59.077 h 708.92309 c 32.3077,0 59.0769,-26.7693 59.0769,-59.077 z M 354.46154,295.38462 V 177.23077 c 0,-32.30769 -26.76923,-59.07692 -59.07692,-59.07692 H 177.23077 c -32.30769,0 -59.07692,26.76923 -59.07692,59.07692 v 118.15385 c 0,32.30769 26.76923,59.07692 59.07692,59.07692 h 118.15385 c 32.30769,0 59.07692,-26.76923 59.07692,-59.07692 z M 1654.1538,1358.7692 v -118.1538 c 0,-32.3077 -26.7692,-59.0769 -59.0769,-59.0769 h -118.1538 c -32.3077,0 -59.0769,26.7692 -59.0769,59.0769 v 118.1538 c 0,32.3077 26.7692,59.077 59.0769,59.077 h 118.1538 c 32.3077,0 59.0769,-26.7693 59.0769,-59.077 z M 1299.6923,649.84615 V 177.23077 c 0,-32.30769 -26.7692,-59.07692 -59.0769,-59.07692 H 531.69231 c -32.30769,0 -59.07693,26.76923 -59.07693,59.07692 v 472.61538 c 0,32.3077 26.76924,59.07693 59.07693,59.07693 h 708.92309 c 32.3077,0 59.0769,-26.76923 59.0769,-59.07693 z m 354.4615,354.46155 V 886.15385 c 0,-32.3077 -26.7692,-59.07693 -59.0769,-59.07693 h -118.1538 c -32.3077,0 -59.0769,26.76923 -59.0769,59.07693 v 118.15385 c 0,32.3077 26.7692,59.0769 59.0769,59.0769 h 118.1538 c 32.3077,0 59.0769,-26.7692 59.0769,-59.0769 z m 0,-354.46155 V 531.69231 c 0,-32.30769 -26.7692,-59.07693 -59.0769,-59.07693 h -118.1538 c -32.3077,0 -59.0769,26.76924 -59.0769,59.07693 v 118.15384 c 0,32.3077 26.7692,59.07693 59.0769,59.07693 h 118.1538 c 32.3077,0 59.0769,-26.76923 59.0769,-59.07693 z m 0,-354.46153 V 177.23077 c 0,-32.30769 -26.7692,-59.07692 -59.0769,-59.07692 h -118.1538 c -32.3077,0 -59.0769,26.76923 -59.0769,59.07692 v 118.15385 c 0,32.30769 26.7692,59.07692 59.0769,59.07692 h 118.1538 c 32.3077,0 59.0769,-26.76923 59.0769,-59.07692 z M 1772.3077,147.69231 V 1388.3077 c 0,81.2308 -66.4615,147.6923 -147.6923,147.6923 H 147.69231 C 66.461538,1536 0,1469.5385 0,1388.3077 V 147.69231 C 0,66.461538 66.461538,0 147.69231,0 H 1624.6154 c 81.2308,0 147.6923,66.461538 147.6923,147.69231 z"
     style="stroke-width:0.923077" />
</svg>
