<svg
   width="1728"
   height="1536"
   xmlns="http://www.w3.org/2000/svg"
   fill="currentColor"
   viewBox="0 0 1728 1536">
  <path
     d="m 256,128 c 0,46 -25,87 -64,110 v 1266 c 0,17 -15,32 -32,32 H 96 c -17,0 -32,-15 -32,-32 V 238 C 25,215 0,174 0,128 0,57 57,0 128,0 199,0 256,57 256,128 Z m 1472,64 v 763 c 0,37 -23,51 -52,66 -113,61 -238,116 -369,116 -184,0 -272,-140 -490,-140 -159,0 -326,72 -464,146 -11,6 -21,9 -33,9 -35,0 -64,-29 -64,-64 V 346 c 0,-24 12,-41 31,-55 24,-16 53,-30 79,-43 126,-64 279,-120 421,-120 157,0 280,52 419,117 28,14 57,19 88,19 157,0 326,-136 370,-136 35,0 64,29 64,64 z" />
</svg>
