<svg
   width="1989.385"
   height="1536"
   viewBox="0 0 1989.385 1536"
   xmlns="http://www.w3.org/2000/svg"
   fill="currentColor">
  <path
     d="m 166.80156,0.01066928 c -3.43903,-0.04052356 -6.86491,0.0416188 -10.2448,0.1248564 C 107.40496,1.5122317 63.930843,16.559618 35.871012,48.734234 -51.844984,149.32686 44.710625,242.87497 78.223614,370.0653 122.97368,539.78347 72.081556,720.37838 207.90559,839.19457 c 46.78063,40.91127 103.26829,51.68945 157.54248,56.71985 -71.35542,84.07435 -114.37721,200.66168 -90.9524,320.45588 37.15682,190.0227 210.8463,322.5129 396.04228,319.582 6.3852,-0.098 12.83064,-0.4479 19.23993,-0.874 12.81531,-0.8521 25.63499,-2.3054 38.47877,-4.4981 109.89553,-18.7569 199.66399,-83.0131 252.74329,-171.7849 1.7688,-2.9582 3.43465,-5.9821 5.1224,-8.9951 1.68665,-3.0119 3.39302,-6.0544 4.99644,-9.12 1.86847,-3.2353 6.24282,-3.2506 8.12115,0 1.60447,3.0645 3.30977,6.1081 4.99757,9.12 38.8073,69.2767 99.4163,124.5607 174.5328,156.4177 a 365.6047,365.6047 0 0 0 9.8702,3.9976 376.0784,376.0784 0 0 0 73.4605,20.3647 378.98624,378.98624 0 0 0 57.7198,5.3721 c 3.1915,0.049 6.3129,0.042 9.4956,0 6.3655,-0.057 12.7879,-0.2475 19.1151,-0.6243 123.3745,-7.3062 238.295,-74.0957 307.3384,-176.5327 1.7699,-2.6252 3.5376,-5.1968 5.2461,-7.8703 3.4193,-5.3458 6.7039,-10.8384 9.8703,-16.366 9.5,-16.584 17.9377,-33.9949 24.9877,-52.098 8.2241,-21.1204 14.6301,-43.1565 19.1139,-66.0907 23.4249,-119.7942 -18.7218,-236.38153 -90.0773,-320.45588 54.2742,-5.0304 109.8868,-15.80858 156.6674,-56.71985 135.8241,-118.81619 84.933,-299.4111 129.682,-469.12927 33.5141,-127.18924 129.9437,-220.73844 42.2278,-321.329971 C 1925.4279,16.559618 1882.9527,1.5122317 1833.8009,0.13552568 1830.3804,0.0391453 1826.9118,-0.00904488 1823.4312,0.01066928 1718.473,-0.10104433 1609.3474,42.206654 1498.8517,94.5861 c -132.35,62.73486 -227.5398,137.12298 -304.2148,228.13015 -2.5727,2.98998 -5.0052,6.11577 -7.4958,9.11999 -2.5343,3.09403 -5.1268,6.11358 -7.6206,9.24595 L 1471.9911,510.99202 1009.3588,779.60193 968.8812,1289.2087 958.3856,756.11359 903.66455,724.38035 863.4367,1229.3653 852.94109,694.89563 798.09518,663.03753 757.99109,1169.6467 747.24687,633.55281 692.77663,601.94442 652.42173,1109.8032 641.80346,572.20998 587.45588,540.72646 546.97722,1050.0836 536.35786,510.99202 816.46003,348.32824 a 877.30562,877.30562 0 0 0 -7.62062,-9.62052 629.66502,629.66502 0 0 0 -2.87389,-3.49817 C 731.71101,243.63944 640.06861,168.58322 513.11923,105.20546 505.88085,101.4992 498.63042,97.968175 491.50594,94.5861 A 1542.8855,1542.8855 0 0 0 475.13989,86.96548 C 373.91969,39.824525 275.132,2.9634134 176.9215,0.2614773 173.54052,0.14100183 170.13325,0.02928822 166.80156,0.01285975 Z"
     style="stroke-width:1.09523" />
</svg>
