<?xml version="1.0" encoding="UTF-8" standalone="no"?>
<!-- Created with Inkscape (http://www.inkscape.org/) -->

<svg
   xmlns:dc="http://purl.org/dc/elements/1.1/"
   xmlns:cc="http://creativecommons.org/ns#"
   xmlns:rdf="http://www.w3.org/1999/02/22-rdf-syntax-ns#"
   xmlns:svg="http://www.w3.org/2000/svg"
   xmlns="http://www.w3.org/2000/svg"
   xmlns:sodipodi="http://sodipodi.sourceforge.net/DTD/sodipodi-0.dtd"
   xmlns:inkscape="http://www.inkscape.org/namespaces/inkscape"
   version="1.1"
   id="svg2"
   width="512"
   height="512"
   viewBox="0 0 512 512"
   sodipodi:docname="gitweb.svg"
   inkscape:version="0.92.4 (5da689c313, 2019-01-14)">
  <metadata
     id="metadata8">
    <rdf:RDF>
      <cc:Work
         rdf:about="">
        <dc:format>image/svg+xml</dc:format>
        <dc:type
           rdf:resource="http://purl.org/dc/dcmitype/StillImage" />
        <dc:title></dc:title>
      </cc:Work>
    </rdf:RDF>
  </metadata>
  <defs
     id="defs6" />
  <sodipodi:namedview
     pagecolor="#575757"
     bordercolor="#666666"
     borderopacity="1"
     objecttolerance="10"
     gridtolerance="10"
     guidetolerance="10"
     inkscape:pageopacity="0"
     inkscape:pageshadow="2"
     inkscape:window-width="1920"
     inkscape:window-height="1020"
     id="namedview4"
     showgrid="true"
     inkscape:zoom="2"
     inkscape:cx="195.3288"
     inkscape:cy="254.07096"
     inkscape:window-x="0"
     inkscape:window-y="31"
     inkscape:window-maximized="1"
     inkscape:current-layer="svg2"
     showguides="true">
    <inkscape:grid
       type="xygrid"
       id="grid7767" />
  </sodipodi:namedview>
  <g
     id="g7765"
     transform="matrix(1.7663401,0,0,1.7663401,-4.5673475,9.5668645)">
    <path
       sodipodi:nodetypes="cccccccccccccccccccscscccsc"
       style="display:inline;fill:#bf0303;stroke-width:0.31999999"
       d="M 11.7124,83.16759 V 70.847587 h 36.96 36.96 v 12.320003 12.32 h -36.96 -36.96 z m 98.88,0 V 70.847587 h 36.95999 36.96 v 12.320003 12.32 h -36.96 -36.95999 z m 98.75423,11.81382 c -0.10683,-0.27839 -0.19424,-5.59461 -0.19424,-11.81382 0,-6.219213 0.0874,-11.535437 0.19424,-11.81383 0.17556,-0.457517 3.74373,-0.506173 37.12,-0.506173 h 36.92576 v 12.320003 12.32 h -36.92576 c -33.37627,0 -36.94444,-0.0487 -37.12,-0.50618 z"
       id="path7107"
       inkscape:connector-curvature="0" />
    <path
       style="display:inline;fill:#007f00;stroke-width:0.31999999"
       d="m 36.52795,207.93332 c -0.30094,-0.19113 -0.41625,-3.16879 -0.48,-12.3951 l -0.0839,-12.14353 -12.16,-0.16 -12.16,-0.16 v -12.32 -12.32 l 12.16,-0.16 12.16,-0.16 0.16,-12.16 0.16,-12.16 h 12.16 12.16 l 0.16,12.16 0.16,12.16 12.16,0.16 12.16,0.16 v 12.32 12.32 l -12.16,0.16 -12.16,0.16 -0.0839,12.14353 c -0.0637,9.22631 -0.17906,12.20397 -0.48,12.3951 -0.21785,0.13837 -5.58009,0.25157 -11.91609,0.25157 -6.336,0 -11.69824,-0.1132 -11.91609,-0.25157 z m 98.88,0 c -0.30094,-0.19113 -0.41625,-3.16879 -0.48,-12.3951 l -0.0839,-12.14353 -12.16,-0.16 -12.16,-0.16 v -12.32 -12.32 l 12.16,-0.16 12.16,-0.16 0.16,-12.16 0.16,-12.16 h 12.15999 12.16 l 0.16,12.16 0.16,12.16 12.16,0.16 12.16,0.16 v 12.32 12.32 l -12.16,0.16 -12.16,0.16 -0.0839,12.14353 c -0.0637,9.22631 -0.17906,12.20397 -0.48,12.3951 -0.21785,0.13837 -5.58009,0.25157 -11.91609,0.25157 -6.33599,0 -11.69823,-0.1132 -11.91608,-0.25157 z m 98.87999,0 c -0.30094,-0.19113 -0.41625,-3.16879 -0.48,-12.3951 l -0.0839,-12.14353 -12.16,-0.16 -12.16,-0.16 v -12.32 -12.32 l 12.16,-0.16 12.16,-0.16 0.0838,-12.24379 0.0838,-12.2438 12.2362,0.0838 12.23619,0.0838 0.16,12.16 0.16,12.16 12.16,0.16966 c 6.688,0.0933 12.19771,0.2013 12.2438,0.24 0.0461,0.0387 0.0461,5.57834 0,12.31034 l -0.0838,12.24 -12.16,0.16 -12.16,0.16 -0.0839,12.14353 c -0.0638,9.22631 -0.17906,12.20397 -0.48,12.3951 -0.21785,0.13837 -5.58009,0.25157 -11.91609,0.25157 -6.336,0 -11.69824,-0.1132 -11.91609,-0.25157 z"
       id="path7105"
       inkscape:connector-curvature="0" />
  </g>
</svg>
