<svg
   width="1536"
   height="1536"
   xmlns="http://www.w3.org/2000/svg"
   fill="currentColor"
   viewBox="0 0 1536 1536">
  <path
     style="isolation:auto;mix-blend-mode:normal"
     d="M 768,0 A 768,768 0 0 0 0,768 768,768 0 0 0 768,1536 768,768 0 0 0 1536,768 768,768 0 0 0 768,0 Z m 156.38,165.762 c 2.712,-0.032 5.628,0.468 7.866,2.345 5.116,4.292 -9.465,20.236 -9.465,31.569 0,11.325 5.338,21.098 0,33.988 -5.337,12.897 -23.423,23.456 -35.135,35.19 -11.711,11.727 -191.446,143.35 -108.691,143.35 82.756,0 119.687,-62.023 142.754,-38.942 23.066,23.073 69.2,20.401 69.197,69.22 0,48.82 -117.174,127.897 -163.142,173.864 -11.493,11.498 10.893,127.154 -7.198,127.154 -18.195,0 -59.352,-68.055 -72.662,-56.238 -25.52,18.504 -15.659,7.725 -32.804,31.054 -16.883,40.761 -29.83,60.984 -29.83,84.21 0,23.225 -5.64,63.195 2.293,73.503 7.938,10.308 5.882,1.593 8.11,2.147 2.23,0.692 129.619,7.263 165.263,16.166 35.643,8.902 95.923,13.31 129.613,32.375 33.69,19.065 46.524,46.506 69.785,69.76 23.261,23.253 65.126,41.163 69.783,69.753 4.66,28.598 -22.36,44.834 -33.54,67.256 -11.181,22.416 -21.34,50.251 -33.54,67.246 -12.199,16.989 -23.674,23.808 -35.512,35.715 -11.837,11.9 -17.735,2.354 -35.511,35.715 -10.825,20.293 -17.757,62.325 -23.676,102.834 A 640,640 0 0 1 768,1408 a 640,640 0 0 1 -11.152,-0.559 619.159,619.159 0 0 1 -7.143,-31.529 c -9.52,-47.58 -13.079,-132.709 -34.621,-173.02 -21.542,-40.31 -46.033,-46.16 -69.05,-69.234 -23.019,-23.08 -64.422,-40.436 -69.057,-69.234 -4.639,-28.799 23.088,-46.021 34.63,-69.04 11.543,-23.01 48.247,-64.968 42.276,-101.921 -5.974,-36.954 -77.112,-36.588 -111.844,-71.326 -34.732,-34.739 -122.234,-56.967 -145.3,-97.721 -23.068,-40.754 -23.474,-93.976 -32.378,-129.621 -8.904,-35.645 7.17,-141.992 6.584,-144.22 -0.623,-2.216 8.093,0 -2.148,-8.114 -10.239,-7.885 -46.094,0 -69.143,0 -23.047,0 -56.977,12.17 -69.142,0 -4.119,-4.118 -5.445,-8.051 -5.403,-11.895 A 640,640 0 0 1 417.797,232.613 c 6.892,1.111 13.799,2.166 20.99,2.166 22.906,0 23.345,3.739 68.719,0 45.374,-3.738 146.223,-24.286 201.687,-33.5 55.465,-9.214 206.003,-34.266 207.639,-34.556 0.919,0 4.064,-0.92 7.549,-0.961 z m 116.905,24.38 a 640,640 0 0 1 195.649,143.151 c -22.352,13.76 -50.707,25.834 -71.85,39.934 -34.61,23.08 -71.257,77.894 -103.832,69.248 -32.574,-8.647 -23.086,-46.154 -34.629,-69.235 -11.544,-23.08 -34.629,-43.431 -34.629,-69.232 0,-25.801 23.083,-46.148 34.625,-69.229 6.925,-13.843 8.761,-30.274 14.666,-44.636 z"
     overflow="visible" />
</svg>
