<svg
   width="1536"
   height="1536"
   viewBox="0 0 1536 1536"
   fill="currentColor"
   xmlns="http://www.w3.org/2000/svg">
  <path
     d="m 678.02266,352.34273 c -17.14414,1.71441 -11.14369,17.14414 -20.57297,17.14414 -8.57207,0.85721 -6.85765,-18.85855 20.57297,-17.14414 z m 74.57701,12.0009 c -8.57207,2.57162 -9.42928,-13.71531 -24.85901,-9.42928 24.85901,-11.14369 33.43107,6.00045 24.85901,9.42928 z M 451.72002,730.371 c -7.71486,-2.57162 -6.00044,12.8581 -13.71531,24.859 -6.00045,11.14369 -21.43017,19.71576 -9.42927,21.43017 4.28603,0.85721 16.28693,-9.42927 21.43017,-21.43017 4.28604,-14.57252 8.57207,-22.28738 1.71441,-24.859 z m 732.91198,307.7373 c 0,-15.4297 -33.4311,-30.0022 -47.1464,-36.0027 23.1446,-77.14861 12.8581,-108.00806 -2.5716,-180.87067 -12.0009,-54.86124 -62.5761,-129.43825 -102.0076,-152.58283 10.2865,8.57207 29.145,33.43107 48.8608,71.14817 34.2882,64.29052 68.5765,159.44051 46.2891,238.30355 -8.572,30.85948 -29.145,35.14548 -42.8603,36.00268 -60.0045,6.8577 -24.859,-72.00537 -49.718,-179.15626 C 1007.1902,714.94127 978.04513,706.3692 971.18744,696.93993 936.04195,540.92826 897.46764,556.35798 886.32395,498.06791 c -9.42928,-52.28962 45.43197,-95.14997 -29.14504,-109.72249 -23.14458,-4.28603 -55.71845,-27.43062 -68.57655,-29.14504 -12.85811,-1.71441 -19.71576,-86.5779 28.28783,-89.14952 47.14638,-3.42883 55.71845,53.14683 47.14638,75.43421 -13.71531,22.28738 0.85721,30.85945 24.00179,23.14459 18.85856,-6.00045 6.85766,-55.71845 11.14369,-62.57611 -12.00089,-72.00538 -42.00314,-82.29186 -72.86259,-88.29231 -118.29456,9.42927 -65.14773,139.72473 -77.14862,127.72383 -17.14414,-18.00134 -66.86214,-1.71441 -66.86214,-12.8581 0.8572,-66.86214 -21.43018,-105.43646 -52.28963,-106.29366 -34.28828,-0.85721 -48.00359,47.14638 -49.718,74.577 -2.57162,25.71621 14.57252,79.72025 27.43062,75.43421 8.57207,-2.57162 23.14459,-19.71576 7.71486,-18.85855 -7.71486,0 -19.71576,-18.85855 -21.43017,-41.14593 -0.85721,-22.28738 7.71486,-44.57476 36.8599,-43.71756 33.43107,0.85721 33.43107,67.71935 30.00224,70.29097 -11.14369,7.71487 -24.859,22.28738 -26.57341,24.859 -11.14369,18.00135 -32.57387,23.14459 -41.14594,30.85945 -14.57252,15.42973 -18.00134,32.57387 -6.85765,38.57432 39.43152,22.28738 26.57341,48.00359 81.43466,49.718 36.00269,1.71442 62.5761,-5.14324 87.43511,-12.8581 18.85855,-6.00045 79.72024,-18.85856 92.57835,-41.14594 6.00045,-9.42927 12.8581,-9.42927 17.14414,-6.85765 8.57207,4.28603 10.28648,20.57296 -11.14369,25.71621 -30.00225,8.57207 -60.00449,24.859 -87.43511,35.14548 -26.57342,11.14369 -35.14549,15.42973 -60.00449,19.71576 -56.57566,10.28648 -98.5788,-20.57297 -60.86169,16.28693 12.8581,12.0009 24.859,19.71576 57.43286,18.85856 72.00539,-2.57162 151.72563,-89.14953 159.4405,-50.57521 1.71441,8.57207 -22.28739,18.85855 -41.14594,28.28783 -66.86214,32.57386 -114.00852,97.72159 -156.86887,75.43421 -38.57431,-20.57297 -77.14863,-115.72294 -76.29142,-72.86259 0.85721,66.00493 -86.5779,124.295 -46.28918,199.72922 -26.57341,6.85765 -85.72069,132.86707 -94.29276,198.01482 -5.14324,37.71711 3.42883,84.00625 -6.00045,109.72245 -12.8581,37.7171 -71.14818,-36.00265 -52.28962,-126.00938 3.42882,-15.42973 0,-18.85855 -4.28604,-11.14369 -23.14459,42.00314 -10.28648,101.15042 8.57207,142.29637 7.71486,18.0013 27.43062,25.7162 42.00314,41.1459 30.00225,34.2883 148.29681,121.7234 168.86977,143.1536 26.57342,24.859 18.85856,83.1491 -36.00269,89.1495 28.28783,53.1468 55.71845,58.2901 54.86125,144.868 32.57386,-17.1442 19.71576,-54.8613 6.00044,-78.8631 -9.42927,-17.1441 -21.43017,-24.859 -18.85855,-29.145 1.71441,-2.5716 18.85855,-17.1441 28.28783,-6.0004 29.14504,32.5738 84.00628,38.5743 142.29635,30.8594 59.14728,-6.8577 122.5806,-27.4306 151.72564,-74.577 13.71531,-22.2874 23.14458,-30.0022 29.14503,-25.7162 6.85766,3.4288 9.42928,18.8585 8.57207,44.5747 -0.8572,27.4307 -12.0009,55.7185 -19.71576,78.8631 -7.71486,26.5734 -10.28648,44.5748 15.42973,45.432 6.85769,-48.0036 20.573,-95.15 24.00183,-143.1536 4.28603,-54.8612 -35.14552,-156.0117 7.71486,-206.5869 11.14371,-13.7153 24.85901,-15.4297 43.71751,-15.4297 2.5717,-68.5766 108.0081,-63.4333 143.1536,-35.1455 z M 646.306,329.19814 c 3.42883,-21.43017 -6.85765,-36.8599 -12.00089,-38.57431 -10.28649,-2.57162 -8.57207,12.8581 -3.42883,11.14369 3.42883,0 7.71486,5.14324 6.00045,12.8581 -1.71442,10.28649 -0.85721,17.14414 6.85765,17.14414 0.85721,0 2.57162,0 2.57162,-2.57162 z m 359.1697,168.86977 c -3.4288,-16.28693 -15.42967,-10.28648 -29.14499,-18.85855 -16.28696,-10.28648 -19.71579,-27.43062 -25.71624,-21.43018 -18.00134,19.71576 22.28742,60.8617 39.43156,64.29053 10.28647,1.71441 18.00137,-12.0009 15.42967,-24.0018 z M 852.89288,315.48283 c 0.85721,-20.57297 -17.14414,-30.85945 -21.43017,-30.00224 -11.1437,0.8572 -7.71487,6.00045 -2.57163,7.71486 6.85766,1.71441 13.71532,13.71531 15.42973,26.57342 0,1.71441 8.57207,-1.71442 8.57207,-4.28604 z m 46.28917,-199.72922 c 0.85721,-4.28604 -10.28648,-9.42928 -18.00134,-15.42973 -6.85766,-6.857651 -13.71531,-12.8581 -20.57297,-12.8581 -17.14414,1.714414 -8.57207,19.71576 -11.14369,28.28783 -3.42883,9.42928 -16.28693,17.14414 -7.71486,24.00179 7.71486,6.00045 12.8581,-9.42927 29.14504,-15.42972 4.28603,-1.71441 24.00179,0.85721 28.28782,-8.57207 z M 1383.504,1265.2682 c 105.4365,65.1477 -39.4315,119.1517 -102.0076,150.8684 -48.8608,24.859 -114.0086,79.7202 -138.0103,102.8648 -18.0014,17.1442 -92.5784,25.7162 -134.5815,4.286 -48.86085,-24.859 -23.14461,-64.2905 -98.57885,-66.8621 -37.71711,-0.8572 -74.57701,-0.8572 -111.43691,-0.8572 -32.57386,0.8572 -65.14773,2.5716 -98.5788,3.4288 -113.15132,2.5716 -124.29501,75.4342 -197.1576,72.8626 -49.718,-1.7144 -112.29411,-41.1459 -220.30219,-63.4333 -75.43421,-15.4297 -148.2968,-19.7158 -163.72653,-53.1468 -15.42972,-33.4311 18.85856,-71.1482 21.43018,-103.7221 2.57162,-43.7175 -32.57387,-102.8648 -6.85766,-125.1522 22.28738,-19.7157 69.43377,-5.1432 100.29322,-22.2874 32.57386,-18.8585 46.28917,-33.431 46.28917,-73.7198 12.0009,41.146 -0.8572,74.577 -27.43062,90.864 -16.28693,10.2865 -46.28918,15.4297 -71.14818,12.8581 -19.71576,-1.7144 -31.71666,0.8572 -36.8599,8.572 -7.71486,9.4293 -5.14324,26.5735 4.28604,48.8608 9.42927,22.2874 20.57296,36.8599 18.85855,64.2906 -0.85721,27.4306 -31.71666,60.0045 -26.57341,83.149 1.71441,8.5721 10.28648,16.287 31.71665,22.2874 34.28828,9.4293 96.86439,18.8586 157.72608,33.4311 67.71935,17.1441 138.01032,48.0036 181.72788,42.0031 130.29546,-18.0013 55.71845,-157.726 35.14548,-191.1571 -110.57969,-173.1558 -183.44229,-286.3071 -241.73236,-241.7324 -14.57252,12.0009 -15.42972,-29.145 -14.57252,-45.4319 2.57162,-56.57571 30.85945,-77.14868 48.00359,-120.86623 32.57387,-83.14909 57.43287,-178.29906 107.15087,-227.15986 36.8599,-48.00359 95.14997,-126.00942 106.29366,-167.15536 C 543.44117,414.06163 540.86955,319.76887 539.15513,237.477 537.44072,149.18468 551.15603,72.036057 650.59204,18.032019 674.59383,5.1739144 706.31049,0.03067263 739.74156,0.03067263 798.88884,-0.82653432 864.89378,16.317605 906.89692,47.177055 973.75909,96.895057 1015.7622,202.33151 1010.619,277.76572 c -3.4288,59.14728 6.8576,120.00898 25.7162,183.44229 22.2874,74.57701 57.4329,126.86663 114.0085,186.87112 67.7194,72.00538 120.8662,213.44455 136.2959,303.45128 13.7153,84.00629 -5.1432,136.29589 -23.1446,138.86749 -27.4306,4.2861 -44.5747,90.864 -130.2954,87.4351 -54.8613,-2.5716 -60.0045,-35.1454 -75.4342,-63.4333 -24.859,-43.7175 -49.718,-30.0022 -59.1473,16.287 -5.14325,23.1445 -1.71442,57.4328 6.0004,83.149 15.4298,54.0041 10.2865,104.5793 0.8572,167.1554 -18.00129,118.2946 83.1491,140.5819 150.8685,84.0063 66.8621,-55.7185 81.4346,-64.2905 165.4409,-93.4356 127.7238,-43.7175 84.8635,-82.2919 16.2869,-105.4364 -61.7189,-20.573 -64.2905,-124.295 -42.0031,-144.0108 5.1432,111.4369 63.4333,127.7238 87.4351,143.1536 z"
     style="stroke-width:0.857207" />
</svg>
