<svg xmlns:dc="http://purl.org/dc/elements/1.1/" xmlns:cc="http://creativecommons.org/ns#" xmlns:rdf="http://www.w3.org/1999/02/22-rdf-syntax-ns#" xmlns:svg="http://www.w3.org/2000/svg" xmlns="http://www.w3.org/2000/svg" xmlns:sodipodi="http://sodipodi.sourceforge.net/DTD/sodipodi-0.dtd" xmlns:inkscape="http://www.inkscape.org/namespaces/inkscape" viewBox="0 0 32 32.000001" version="1.1" x="0px" y="0px"><g transform="translate(0,-1020.3622)"><path style="color:#000000;font-style:normal;font-variant:normal;font-weight:normal;font-stretch:normal;font-size:medium;line-height:normal;font-family:sans-serif;text-indent:0;text-align:start;text-decoration:none;text-decoration-line:none;text-decoration-style:solid;text-decoration-color:#000000;letter-spacing:normal;word-spacing:normal;text-transform:none;direction:ltr;block-progression:tb;writing-mode:lr-tb;baseline-shift:baseline;text-anchor:start;white-space:normal;clip-rule:nonzero;display:inline;overflow:visible;visibility:visible;opacity:1;isolation:auto;mix-blend-mode:normal;color-interpolation:sRGB;color-interpolation-filters:linearRGB;solid-color:#000000;solid-opacity:1;fill:#000000;fill-opacity:1;fill-rule:nonzero;stroke:none;stroke-width:1;stroke-linecap:round;stroke-linejoin:round;stroke-miterlimit:4.0999999;stroke-dasharray:none;stroke-dashoffset:0;stroke-opacity:1;color-rendering:auto;image-rendering:auto;shape-rendering:auto;text-rendering:auto;enable-background:accumulate" d="M 6.5234375 4 A 0.50005 0.50005 0 0 0 6.4726562 4.0019531 A 0.50005 0.50005 0 0 0 6 4.5 L 6 27.5 A 0.50005 0.50005 0 0 0 6.7597656 27.929688 L 8.6992188 26.755859 A 0.5002941 0.5002941 0 0 0 8.8085938 26.689453 L 25.759766 16.429688 A 0.50005 0.50005 0 0 0 25.759766 15.572266 L 8.8164062 5.3183594 A 0.50005 0.50005 0 0 0 8.8066406 5.3125 A 0.50005 0.50005 0 0 0 8.6894531 5.2402344 L 6.7597656 4.0722656 A 0.50005 0.50005 0 0 0 6.5234375 4 z M 7 5.3867188 L 8.171875 6.0957031 L 16.324219 16.003906 L 8.1816406 25.898438 L 7 26.613281 L 7 5.3867188 z M 10.751953 7.6582031 L 19.054688 12.683594 L 16.970703 15.216797 L 10.751953 7.6582031 z M 19.919922 13.207031 L 24.53125 16 L 19.916016 18.794922 L 17.619141 16.003906 L 19.919922 13.207031 z M 16.970703 16.791016 L 19.050781 19.318359 L 10.763672 24.335938 L 16.970703 16.791016 z " transform="translate(0,1020.3622)"></path></g></svg>