<svg
   width="1843.2"
   height="1536"
   xmlns="http://www.w3.org/2000/svg"
   fill="currentColor"
   viewBox="0 0 1843.2 1536">
  <path
     d="m 1248,1152 c 0,52.8 -43.2,96 -96,96 -52.8,0 -96,-43.2 -96,-96 0,-52.8 43.2,-96 96,-96 52.8,0 96,43.2 96,96 z m 307.2,0 c 0,52.8 -43.2,96 -96,96 -52.8,0 -96,-43.2 -96,-96 0,-52.8 43.2,-96 96,-96 52.8,0 96,43.2 96,96 z m 134.4,192 V 960 c 0,-20.4 -18,-38.4 -38.4,-38.4 H 192 c -20.4,0 -38.4,18 -38.4,38.4 v 384 c 0,20.4 18,38.4 38.4,38.4 h 1459.2 c 20.4,0 38.4,-18 38.4,-38.4 z M 213.6,768 h 1416 L 1441.2,189.6 c -6,-20.4 -28.8,-36 -50.4,-36 H 452.4 c -21.6,0 -44.4,15.6 -50.4,36 z m 1629.6,192 v 384 c 0,105.6 -86.4,192 -192,192 H 192 C 86.4,1536 0,1449.6 0,1344 V 960 C 0,927.6 9.6,900 19.2,870 L 255.6,142.8 C 283.2,58.8 363.6,0 452.4,0 h 938.4 c 88.8,0 169.2,58.8 196.8,142.8 L 1824,870 c 9.6,30 19.2,57.6 19.2,90 z"
     style="stroke-width:1.2" />
</svg>
