<svg
   width="1792"
   height="1536"
   xmlns="http://www.w3.org/2000/svg"
   fill="currentColor"
   viewBox="0 0 1792 1536">
  <path
     d="m 1280,896 h 305 c -12,13 -20,20 -22,22 l -623,600 c -12,12 -28,18 -44,18 -16,0 -32,-6 -44,-18 L 228,916 c -2,-1 -10,-8 -21,-20 h 369 c 29,0 55,-20 62,-48 l 70,-281 190,667 c 8,27 33,46 62,46 28,0 53,-19 61,-46 l 146,-485 56,112 c 11,21 33,35 57,35 z m 512,-428 c 0,115 -50,220 -103,300 H 1320 L 1209,547 c -11,-23 -37,-37 -62,-35 -27,3 -49,20 -56,46 L 962,988 766,302 c -8,-27 -33,-46 -63,-46 -29,0 -54,20 -61,48 L 526,768 H 103 C 50,688 0,583 0,468 0,175 179,0 478,0 653,0 817,138 896,216 975,138 1139,0 1314,0 c 299,0 478,175 478,468 z" />
</svg>
