<svg
   width="1929.8361"
   height="1536"
   xmlns="http://www.w3.org/2000/svg"
   viewBox="0 0 1929.8361 1536"
   fill="currentColor">
  <path
     d="m 1654.3676,884.8533 v 574.5412 c 0,41.8936 -34.7119,76.6055 -76.6055,76.6055 h -459.633 V 1076.367 H 811.70719 V 1536 H 352.07423 c -41.89363,0 -76.60549,-34.7119 -76.60549,-76.6055 V 884.8533 c 0,-2.3939 1.19696,-4.7878 1.19696,-7.1818 L 964.91818,310.3121 1653.1706,877.6715 c 1.197,2.394 1.197,4.7879 1.197,7.1818 z m 266.9223,-82.5903 -74.2116,88.5751 c -5.9848,7.1818 -15.5605,11.9696 -25.1362,13.1666 h -3.5909 c -9.5757,0 -17.9544,-2.3939 -25.1362,-8.3788 L 964.91818,204.97954 136.62128,895.6259 c -8.37873,5.9849 -17.95441,9.5757 -28.72706,8.3788 -9.57569,-1.197 -19.15138,-5.9848 -25.13618,-13.1666 L 8.5464683,802.263 C -4.6201007,786.7025 -2.2261787,761.5663 13.334311,748.3998 L 873.94916,31.420222 c 50.27235,-41.89363 131.66564,-41.89363 181.93804,0 L 1347.9456,275.60023 V 42.192873 c 0,-21.5453 16.7575,-38.3027505 38.3028,-38.3027505 h 229.8164 c 21.5453,0 38.3028,16.7574505 38.3028,38.3027505 V 530.55289 L 1916.502,748.3998 c 15.5605,13.1665 17.9544,38.3027 4.7879,53.8632 z"
     style="stroke-width:1.19696" />
</svg>
