<svg
   role="img"
   style="color:currentColor"
   width="41.144001"
   height="64"
   viewBox="0 0 15.429 24"
   xmlns="http://www.w3.org/2000/svg">
  <path
     fill="currentColor"
     d="M 3.653,0 A 0.214,0.214 0 0 0 3.447,0.156 C 3.131,1.26 3.626,2.306 4.285,3.091 q 0.23,0.27 0.476,0.501 A 2,2 0 0 0 4.096,3.612 C 2.912,3.845 1.903,4.597 1.356,6.144 A 3.9,3.9 0 0 0 1.156,7.61 1.565,1.565 0 0 0 0,9.114 1.59,1.59 0 0 0 1.227,10.655 l 0.026,12.046 c 0,0.195 0.1,0.377 0.264,0.482 l 0.008,0.005 C 2.062,23.498 3.572,24 6.735,24 c 3.238,0 4.7,-0.678 5.181,-1.04 l 0.008,-0.007 a 0.57,0.57 0 0 0 0.206,-0.439 c 0.002,-0.344 0.002,-1.136 0.002,-1.604 a 0.143,0.143 0 0 1 0.147,-0.144 c 0.397,0.006 0.869,0.006 1.318,0.005 a 1.826,1.826 0 0 0 1.832,-1.825 V 13.142 A 1.826,1.826 0 0 0 13.604,11.316 H 12.275 A 0.14,0.14 0 0 1 12.132,11.172 V 10.6 h 0.007 V 10.599 A 1.57,1.57 0 0 0 13.495,9.043 C 13.495,8.227 12.868,7.554 12.071,7.48 12.046,6.042 11.634,5.354 11.335,4.9 L 11.33,4.893 C 10.966,4.383 10.137,3.611 9.055,3.577 8.552,3.561 8.213,3.701 7.93,3.831 7.713,3.931 7.51,4.008 7.26,4.051 7.262,2.765 8.205,2.07 8.205,2.07 a 0.214,0.214 0 0 0 0.05,-0.298 c 0,0 -0.087,-0.122 -0.21,-0.26 C 7.924,1.376 7.776,1.218 7.575,1.134 A 0.2,0.2 0 0 0 7.496,1.117 0.2,0.2 0 0 0 7.351,1.172 4.3,4.3 0 0 0 6.476,2.273 3,3 0 0 0 6.343,2.546 3.5,3.5 0 0 0 5.962,1.7 C 5.509,0.978 4.778,0.436 3.732,0.016 A 0.2,0.2 0 0 0 3.654,0 Z m 0.156,0.524 c 0.85,0.378 1.43,0.83 1.79,1.403 0.274,0.438 0.426,0.962 0.484,1.584 A 3,3 0 0 0 6.071,3.973 L 5.903,3.921 A 5.5,5.5 0 0 1 4.613,2.815 C 4.062,2.158 3.678,1.355 3.809,0.524 m 3.706,1.094 c 0.07,0.054 0.141,0.101 0.212,0.18 0.034,0.039 0.032,0.04 0.058,0.073 C 7.453,2.179 6.715,3.015 6.833,4.324 A 0.214,0.214 0 0 0 7.055,4.519 C 7.524,4.502 7.837,4.347 8.111,4.22 8.384,4.094 8.619,3.992 9.042,4.006 c 0.875,0.027 1.639,0.715 1.939,1.134 0.295,0.449 0.65,1 0.663,2.36 A 1.7,1.7 0 0 0 11.234,7.642 1.94,1.94 0 0 0 9.464,6.482 1.94,1.94 0 0 0 7.594,7.93 1.78,1.78 0 0 0 6.238,7.29 c -0.484,0 -0.91,0.205 -1.233,0.517 A 1.87,1.87 0 0 0 3.155,6.182 c -0.649,0 -1.218,0.335 -1.552,0.84 A 3,3 0 0 1 1.76,6.287 C 2.27,4.85 3.115,4.242 4.18,4.033 4.547,3.96 4.844,4.022 5.17,4.128 5.496,4.234 5.841,4.39 6.264,4.47 A 0.214,0.214 0 0 0 6.516,4.225 C 6.404,3.555 6.589,2.959 6.852,2.481 A 3.7,3.7 0 0 1 7.515,1.618 M 3.155,6.611 A 1.442,1.442 0 0 1 4.518,8.536 0.214,0.214 0 0 0 4.686,8.819 H 4.691 A 0.214,0.214 0 0 0 4.929,8.673 1.373,1.373 0 0 1 7.542,8.663 0.214,0.214 0 0 0 7.959,8.573 1.51,1.51 0 0 1 9.463,6.909 c 0.678,0 1.249,0.445 1.442,1.056 a 0.214,0.214 0 0 0 0.259,0.143 l 0.15,-0.04 a 0.2,0.2 0 0 0 0.051,-0.02 1.14,1.14 0 0 1 1.702,0.995 1.14,1.14 0 0 1 -0.985,1.131 h -0.001 a 2.2,2.2 0 0 0 -0.485,0.126 11,11 0 0 1 -1.176,0.365 0.21,0.21 0 0 0 -0.162,0.186 1.3,1.3 0 0 1 -0.146,0.478 2.07,2.07 0 0 0 -0.239,1.111 l 0.001,0.151 a 0.44,0.44 0 0 1 -0.16,0.36 0.67,0.67 0 0 1 -0.43,0.14 0.586,0.586 0 0 1 -0.588,-0.59 0.8,0.8 0 0 0 -0.38,-0.681 L 8.314,11.818 c -0.24,-0.145 -0.43,-0.37 -0.532,-0.636 a 0.21,0.21 0 0 0 -0.207,-0.138 19.5,19.5 0 0 1 -5.37,-0.6 L 2.202,10.442 A 9,9 0 0 0 1.364,10.248 H 1.367 A 1.16,1.16 0 0 1 0.43,9.114 c 0,-0.619 0.488,-1.118 1.101,-1.14 A 0.214,0.214 0 0 0 1.735,7.798 1.44,1.44 0 0 1 3.155,6.611 m 8.549,4.106 v 0.455 c 0,0.314 0.259,0.573 0.572,0.573 h 1.329 a 1.397,1.397 0 0 1 1.397,1.397 v 5.804 A 1.396,1.396 0 0 1 13.6,20.342 h -0.002 c -0.448,0.002 -0.918,0 -1.31,-0.005 a 0.573,0.573 0 0 0 -0.584,0.573 c 0,0.468 0,1.262 -0.002,1.603 v 10e-4 q -0.002,0.065 -0.05,0.107 c -0.346,0.26 -1.75,0.95 -4.915,0.95 -3.107,0 -4.587,-0.52 -4.99,-0.752 A 0.14,0.14 0 0 1 1.682,22.701 L 1.657,10.746 q 0.217,0.05 0.431,0.11 h 0.003 c 0.115,0.031 0.246,0.064 0.383,0.097 v 10.37 c 0,0.129 0.069,0.247 0.18,0.31 0.453,0.217 1.767,0.732 4.071,0.732 2.32,0 3.595,-0.626 4.022,-0.884 a 0.36,0.36 0 0 0 0.164,-0.3 l 0.001,-10.21 q 0.4,-0.111 0.792,-0.254 m -7.99,0.894 a 0.493,0.493 0 0 1 0.494,0.493 v 8.578 A 0.493,0.493 0 0 1 3.715,21.175 0.493,0.493 0 0 1 3.221,20.682 v -8.578 a 0.493,0.493 0 0 1 0.494,-0.493 z m 8.652,1.14 a 0.663,0.663 0 0 0 -0.662,0.662 v 5.208 a 0.663,0.663 0 0 0 0.662,0.662 h 1.14 a 0.663,0.663 0 0 0 0.662,-0.662 V 13.412 A 0.663,0.663 0 0 0 13.506,12.75 Z m 0,0.428 h 1.14 a 0.233,0.233 0 0 1 0.233,0.233 v 5.21 a 0.233,0.233 0 0 1 -0.233,0.232 h -1.14 a 0.233,0.233 0 0 1 -0.233,-0.233 v -5.209 a 0.233,0.233 0 0 1 0.233,-0.233" />
</svg>
