<svg
   width="1316.571"
   height="1536"
   xmlns="http://www.w3.org/2000/svg"
   viewBox="0 0 1316.571 1536"
   fill="currentColor">
  <path
     d="m 1206.8571,109.71429 c 0,317.14285 -151.7142,546.85714 -319.71424,658.28571 168.00004,111.42857 319.71424,341.1429 319.71424,658.2857 h 82.2858 c 15.4285,0 27.4285,12 27.4285,27.4286 v 54.8571 c 0,15.4286 -12,27.4286 -27.4285,27.4286 H 27.428571 C 12,1536 0,1524 0,1508.5714 v -54.8571 c 0,-15.4286 12,-27.4286 27.428571,-27.4286 h 82.285719 c 0,-317.1428 151.71428,-546.85713 319.71428,-658.2857 -168,-111.42857 -319.71428,-341.14286 -319.71428,-658.28571 H 27.428571 C 12,109.71429 0,97.714286 0,82.285714 V 27.428571 C 0,12 12,0 27.428571,0 H 1289.1429 c 15.4285,0 27.4285,12 27.4285,27.428571 v 54.857143 c 0,15.428572 -12,27.428576 -27.4285,27.428576 z M 749.14286,716.57143 c 173.14285,-65.14286 348.00004,-294 348.00004,-606.85714 H 219.42857 c 0,312.85714 174.85714,541.71428 348,606.85714 21.42857,7.71428 36,28.28571 36,51.42857 0,23.14286 -14.57143,43.71429 -36,51.42857 -173.14286,65.14286 -348,294.00003 -348,606.85713 h 877.71433 c 0,-312.8571 -174.85719,-541.71427 -348.00004,-606.85713 -21.42857,-7.71428 -36,-28.28571 -36,-51.42857 0,-23.14286 14.57143,-43.71429 36,-51.42857 z"
     style="stroke-width:0.857143" />
</svg>
