<svg
   width="1623.799"
   height="1536"
   xmlns="http://www.w3.org/2000/svg"
   viewBox="0 0 1623.799 1536"
   fill="currentColor">
  <path
     d="m 802.73367,370.49246 c 0,-102.27135 -82.97488,-185.24623 -185.24623,-185.24623 -102.27136,0 -185.24623,82.97488 -185.24623,185.24623 0,27.9799 6.75376,54.99498 18.33165,80.0804 -25.08542,-11.57789 -52.1005,-18.33165 -80.0804,-18.33165 -102.27135,0 -185.24623,82.97487 -185.24623,185.24623 0,102.27135 82.97488,185.24623 185.24623,185.24623 102.27136,0 185.24623,-82.97488 185.24623,-185.24623 0,-27.9799 -6.75377,-54.99498 -18.33165,-80.0804 25.08542,11.57788 52.1005,18.33165 80.0804,18.33165 102.27135,0 185.24623,-82.97487 185.24623,-185.24623 z M 1623.799,1049.7286 c 0,22.191 -88.7638,110.9548 -110.9548,110.9548 -25.0854,0 -103.2362,-90.6935 -123.4975,-110.9548 l -92.6231,92.6232 212.2613,212.2613 c 17.3669,17.3668 27.0151,41.4874 27.0151,65.608 0,54.0302 -61.7487,115.7789 -115.7789,115.7789 -24.1206,0 -48.2412,-9.6482 -65.608,-27.0151 L 707.21608,861.58794 C 605.90955,936.8442 482.41206,987.9799 355.05528,987.9799 144.72362,987.9799 0,842.29146 0,632.92462 0,316.46231 316.46231,0 632.92462,0 842.29146,0 987.9799,144.72362 987.9799,355.05528 c 0,127.35678 -51.13568,250.85427 -126.39196,352.1608 l 342.51256,342.51252 92.6231,-92.6231 c -20.2613,-20.2613 -110.9548,-98.41203 -110.9548,-123.49746 0,-22.19095 88.7639,-110.95477 110.9548,-110.95477 7.7186,0 16.402,3.85929 22.191,9.64824 C 1354.6131,768 1623.799,1021.7487 1623.799,1049.7286 Z"
     style="stroke-width:0.964824" />
</svg>
