<svg
   width="1536"
   height="1536"
   xmlns="http://www.w3.org/2000/svg"
   viewBox="0 0 1536 1536"
   fill="currentColor">
  <path
     d="m 768,0 c 424.2857,0 768,343.71429 768,768 0,424.2857 -343.7143,768 -768,768 C 343.71429,1536 0,1192.2857 0,768 0,343.71429 343.71429,0 768,0 Z m 0,109.71429 c -111.42857,0 -216.85714,28.28571 -309.42857,77.14285 l 166.28571,166.28572 c 45.42857,-15.42857 93.42857,-24 143.14286,-24 50.57143,0 97.71429,8.57143 143.14286,24 L 1077.4286,186.85714 C 984.85714,138 879.42857,109.71429 768,109.71429 Z M 186.85714,1077.4286 353.14286,911.14286 c -15.42857,-45.42857 -24,-93.42857 -24,-143.14286 0,-50.57143 8.57143,-97.71429 24,-143.14286 L 186.85714,458.57143 C 138,551.14286 109.71429,656.57143 109.71429,768 c 0,111.42857 28.28571,216.85714 77.14285,309.4286 z M 768,1426.2857 c 111.42857,0 216.85714,-28.2857 309.4286,-77.1428 L 911.14286,1182.8571 c -45.42857,15.4286 -92.57143,24 -143.14286,24 -49.71429,0 -97.71429,-8.5714 -143.14286,-24 l -166.28571,166.2858 c 92.57143,48.8571 198,77.1428 309.42857,77.1428 z m 0,-329.1428 c 181.71429,0 329.1429,-147.42861 329.1429,-329.1429 0,-181.71429 -147.42861,-329.14286 -329.1429,-329.14286 -181.71429,0 -329.14286,147.42857 -329.14286,329.14286 0,181.71429 147.42857,329.1429 329.14286,329.1429 z m 414.8571,-186.00004 166.2858,166.28574 C 1398,984.85714 1426.2857,879.42857 1426.2857,768 c 0,-111.42857 -28.2857,-216.85714 -77.1428,-309.42857 l -166.2858,166.28571 c 15.4286,45.42857 24,93.42857 24,143.14286 0,49.71429 -8.5714,97.71429 -24,143.14286 z"
     style="stroke-width:0.857143" />
</svg>
