<svg
   width="1256.7271"
   height="1536"
   xmlns="http://www.w3.org/2000/svg"
   fill="currentColor"
   viewBox="0 0 1256.7271 1536">
  <path
     d="M 349.09091,698.18182 H 907.63636 V 488.72727 c 0,-153.81818 -125.45454,-279.27272 -279.27272,-279.27272 -153.81819,0 -279.27273,125.45454 -279.27273,279.27272 z M 1256.7273,802.90909 V 1431.2727 C 1256.7273,1489.0909 1209.8182,1536 1152,1536 H 104.72727 C 46.909091,1536 0,1489.0909 0,1431.2727 V 802.90909 C 0,745.09091 46.909091,698.18182 104.72727,698.18182 h 34.90909 V 488.72727 C 139.63636,220.36364 360,0 628.36364,0 896.72727,0 1117.0909,220.36364 1117.0909,488.72727 V 698.18182 H 1152 c 57.8182,0 104.7273,46.90909 104.7273,104.72727 z"
     style="stroke-width:1.09091" />
</svg>
