<?xml version="1.0" encoding="UTF-8" standalone="no"?>
<svg
   xmlns:dc="http://purl.org/dc/elements/1.1/"
   xmlns:cc="http://creativecommons.org/ns#"
   xmlns:rdf="http://www.w3.org/1999/02/22-rdf-syntax-ns#"
   xmlns:svg="http://www.w3.org/2000/svg"
   xmlns="http://www.w3.org/2000/svg"
   xmlns:sodipodi="http://sodipodi.sourceforge.net/DTD/sodipodi-0.dtd"
   xmlns:inkscape="http://www.inkscape.org/namespaces/inkscape"
   version="1.1"
   x="0px"
   y="0px"
   viewBox="0 0 43.570316 52.061451"
   xml:space="preserve"
   id="svg14"
   sodipodi:docname="macos.svg"
   width="43.570316"
   height="52.061451"
   inkscape:version="0.92.4 (5da689c313, 2019-01-14)"><metadata
     id="metadata20"><rdf:RDF><cc:Work
         rdf:about=""><dc:format>image/svg+xml</dc:format><dc:type
           rdf:resource="http://purl.org/dc/dcmitype/StillImage" /><dc:title></dc:title></cc:Work></rdf:RDF></metadata><defs
     id="defs18" /><sodipodi:namedview
     pagecolor="#ffffff"
     bordercolor="#666666"
     borderopacity="1"
     objecttolerance="10"
     gridtolerance="10"
     guidetolerance="10"
     inkscape:pageopacity="0"
     inkscape:pageshadow="2"
     inkscape:window-width="1040"
     inkscape:window-height="480"
     id="namedview16"
     showgrid="false"
     fit-margin-top="0"
     fit-margin-left="0"
     fit-margin-right="0"
     fit-margin-bottom="0"
     inkscape:zoom="3.6307692"
     inkscape:cx="21.870317"
     inkscape:cy="19.515727"
     inkscape:window-x="0"
     inkscape:window-y="27"
     inkscape:window-maximized="0"
     inkscape:current-layer="svg14" /><g
     id="g8"
     transform="translate(-4.1296828,0.04572518)"><path
       d="m 37.2,29.6 c 0,-6 4.6,-11 10.5,-11.5 C 45.6,14.8 42,12.6 36.8,12.5 32.5,12.4 28.9,15 27.2,18.7 25.6,15 21.9,12.4 17.6,12.5 -3.7,13.1 3.1,47.7 18.4,51.8 c 2.1,0.6 4.1,-0.1 5.7,-1.5 1.7,-1.5 4.3,-1.5 6.1,0 1.6,1.4 3.6,2 5.7,1.5 4.8,-1.3 8.7,-5.5 11.2,-10.7 -5.5,-0.8 -9.9,-5.6 -9.9,-11.5 z"
       id="path2"
       inkscape:connector-curvature="0" /><path
       d="m 27.3,15.1 c 0.5,-0.7 1.1,-1.2 1.8,-1.8 0.8,-3.1 2.4,-7 5.6,-9.9 C 35,3.1 35,2.5 34.7,2.1 34.4,1.7 33.8,1.7 33.4,2 c -4.2,3.8 -5.8,9 -6.5,12.5 0.1,0.3 0.2,0.4 0.4,0.6 z"
       id="path4"
       inkscape:connector-curvature="0" /><path
       d="m 26.3,9.5 c 0.5,-1.4 1.2,-2.8 2,-4.3 -2.4,-4.3 -7.4,-6.4 -12.6,-4.6 1,5.6 5.4,9.1 10.6,8.9 z"
       id="path6"
       inkscape:connector-curvature="0" /></g></svg>