<svg
   width="1285.8459"
   height="1536"
   xmlns="http://www.w3.org/2000/svg"
   viewBox="0 0 1285.8459 1536">
  <path
     d="m 1285.8462,1121.5385 c -23.077,72.923 -60,150.4615 -113.5385,230.7692 -79.3846,120.9231 -158.7692,180.9231 -237.23078,180.9231 -31.38461,0 -73.84615,-10.1539 -129.23077,-29.5385 -54.46153,-20.3077 -101.53846,-29.5385 -139.38461,-29.5385 -36.92308,0 -81.23077,10.1539 -131.07692,30.4616 C 484.61538,1525.8462 444,1536 413.53846,1536 318.46154,1536 227.07692,1455.6923 135.69231,1296.9231 46.153846,1138.1538 0,984 0,832.61538 0,691.38462 35.076923,576.92308 104.30769,487.38462 c 69.23077,-88.61539 156,-132.92308 262.15385,-132.92308 45.23077,0 98.76923,9.23077 163.38461,27.69231 63.69231,18.46153 106.15385,27.6923 127.38462,27.6923 26.76923,0 71.07692,-10.15384 132,-31.38461 60.92308,-20.30769 114.46154,-31.38462 159.69231,-31.38462 73.84612,0 139.38462,20.3077 196.61542,60 32.3077,22.15385 64.6153,53.53846 96,92.3077 -48,40.61538 -83.077,76.61538 -105.2308,108.92307 -39.6923,57.23077 -60,120.92308 -60,191.07693 0,75.6923 21.2308,144.92307 63.6923,205.84618 42.4615,60.923 91.3846,99.6923 145.8462,116.3077 z M 938.76923,38.769231 c 0,37.846154 -9.23077,80.307689 -26.76923,125.538459 -18.46154,46.15385 -47.07692,88.61539 -85.84615,127.38462 -33.23077,33.23077 -66.46154,55.38461 -99.69231,66.46154 -21.23077,6.46153 -52.61539,12 -96,15.6923 1.84615,-91.38461 25.84615,-170.76923 72,-237.23077 C 748.61538,70.153846 826.15385,24.923077 933.23077,0 c 1.84615,8.3076923 3.69231,14.769231 4.61538,20.307692 0,6.461539 0.92308,12 0.92308,18.461539 z"
     style="stroke-width:0.923077"
     fill="currentColor" />
</svg>
