<?xml version="1.0" encoding="UTF-8" standalone="no"?>
<!-- Created with Inkscape (http://www.inkscape.org/) -->

<svg
   xmlns:dc="http://purl.org/dc/elements/1.1/"
   xmlns:cc="http://creativecommons.org/ns#"
   xmlns:rdf="http://www.w3.org/1999/02/22-rdf-syntax-ns#"
   xmlns:svg="http://www.w3.org/2000/svg"
   xmlns="http://www.w3.org/2000/svg"
   xmlns:sodipodi="http://sodipodi.sourceforge.net/DTD/sodipodi-0.dtd"
   xmlns:inkscape="http://www.inkscape.org/namespaces/inkscape"
   width="512"
   height="512"
   id="svg2"
   sodipodi:version="0.32"
   inkscape:version="0.92.4 (5da689c313, 2019-01-14)"
   version="1.0"
   sodipodi:docname="mediawiki.svg"
   inkscape:output_extension="org.inkscape.output.svg.inkscape"
   class="mozwebext">
  <defs
     id="defs4" />
  <sodipodi:namedview
     id="base"
     pagecolor="#ffffff"
     bordercolor="#666666"
     borderopacity="1.0"
     inkscape:pageopacity="0.0"
     inkscape:pageshadow="2"
     inkscape:zoom="0.34574545"
     inkscape:cx="610.94242"
     inkscape:cy="-1060.531"
     inkscape:document-units="px"
     inkscape:current-layer="layer1"
     showgrid="false"
     inkscape:window-width="1814"
     inkscape:window-height="2096"
     inkscape:window-x="0"
     inkscape:window-y="27"
     inkscape:window-maximized="0"
     fit-margin-top="0"
     fit-margin-left="0"
     fit-margin-right="0"
     fit-margin-bottom="0" />
  <metadata
     id="metadata7">
    <rdf:RDF>
      <cc:Work
         rdf:about="">
        <dc:format>image/svg+xml</dc:format>
        <dc:type
           rdf:resource="http://purl.org/dc/dcmitype/StillImage" />
        <dc:title></dc:title>
      </cc:Work>
    </rdf:RDF>
  </metadata>
  <g
     inkscape:label="Ebene 1"
     inkscape:groupmode="layer"
     id="layer1"
     transform="translate(-26.0417,-165.90016)">
    <path
       style="opacity:1;fill:#02296b;fill-opacity:1;fill-rule:nonzero;stroke:none;stroke-width:3.92986131;stroke-linecap:butt;stroke-linejoin:round;stroke-miterlimit:4;stroke-dasharray:none;stroke-dashoffset:0;stroke-opacity:1"
       d="m 457.79511,312.26929 v 209.06861 10.19313 h -54.25684 v -9.04743 h 28.17504 l 0.0711,-201.17563 h -28.24607 v -9.03868 z"
       id="path2411"
       sodipodi:nodetypes="cccccccccc"
       inkscape:connector-curvature="0" />
    <path
       style="opacity:1;fill:#02296b;fill-opacity:1;fill-rule:nonzero;stroke:none;stroke-width:3.92986131;stroke-linecap:butt;stroke-linejoin:round;stroke-miterlimit:4;stroke-dasharray:none;stroke-dashoffset:0;stroke-opacity:1"
       d="m 538.0417,312.26929 v 209.06861 10.19313 h -54.25684 v -9.04743 h 28.17504 l 0.071,-201.17563 h -28.24609 v -9.03868 z"
       id="path2413"
       sodipodi:nodetypes="cccccccccc"
       inkscape:connector-curvature="0" />
    <path
       style="opacity:1;fill:#02296b;fill-opacity:1;fill-rule:nonzero;stroke:none;stroke-width:3.92986131;stroke-linecap:butt;stroke-linejoin:round;stroke-miterlimit:4;stroke-dasharray:none;stroke-dashoffset:0;stroke-opacity:1"
       d="m 106.28829,312.26929 v 209.06861 10.19313 h 54.25684 v -9.04743 h -28.17504 l -0.0711,-201.17563 h 28.24607 v -9.03868 z"
       id="path2403"
       sodipodi:nodetypes="cccccccccc"
       inkscape:connector-curvature="0" />
    <path
       style="opacity:1;fill:#02296b;fill-opacity:1;fill-rule:nonzero;stroke:none;stroke-width:3.92986131;stroke-linecap:butt;stroke-linejoin:round;stroke-miterlimit:4;stroke-dasharray:none;stroke-dashoffset:0;stroke-opacity:1"
       d="M 26.0417,312.26929 V 521.3379 531.53103 H 80.298543 V 522.4836 H 52.123508 l -0.07104,-201.17563 h 28.246074 v -9.03868 z"
       id="rect2481"
       sodipodi:nodetypes="cccccccccc"
       inkscape:connector-curvature="0" />
    <path
       style="fill:#e6dba1;stroke-width:0.59389961"
       d="m 312.66478,616.18594 c -12.99568,-22.40702 -32.50473,-43.55013 -31.67075,-71.14739 0.81192,-8.55659 -5.66126,-41.41763 -6.0283,-16.25982 -2.67519,26.36703 -10.44073,52.65345 -22.46493,76.11341 -14.72283,16.12304 -35.12286,-8.39386 -20.21517,-22.41958 2.50126,-14.49137 -5.32314,-8.77744 -9.13398,-3.89001 -4.512,-10.35267 9.73311,-44.17538 -12.60184,-26.24007 -9.5387,8.5939 -12.55239,39.30877 -27.97405,31.6082 -0.80337,-8.68538 13.2496,-38.09693 -3.45817,-30.34471 -4.27922,12.06211 -32.32488,21.70074 -21.94434,0.48063 10.96502,-11.92154 7.18274,-38.30694 -10.90255,-18.37386 -6.89243,8.57497 -32.48091,20.12925 -19.93528,-0.55886 3.76828,-10.03243 31.51082,-26.92447 20.31824,-33.31991 -17.25032,2.8854 -40.96311,9.77246 -52.721564,-7.89766 7.101684,-2.65177 39.397084,0.61382 27.805364,-9.58551 -10.03847,3.08318 -47.901004,8.38451 -29.273749,-10.0788 17.715939,-11.97085 36.058689,-23.05806 52.993319,-36.15066 -15.76435,-3.11254 -43.41434,0.89341 -52.112582,-4.09804 13.050742,0.56963 37.897862,-16.77365 12.036792,-19.85379 -12.956922,-0.82173 -32.538091,-21.21302 -8.767376,-22.99471 14.571496,-2.46815 32.692676,3.06014 43.834236,-9.4985 -19.17881,-1.99301 -23.20822,-15.38791 -40.40968,-18.83475 -20.936366,-13.81191 9.95161,-18.90985 21.42658,-18.47322 17.96803,-1.51584 36.60992,-0.19908 53.32603,7.02484 7.00726,-19.81113 -40.44619,-37.35252 -16.61833,-50.64361 20.26123,0.49288 35.5056,23.75682 53.83798,23.03317 -7.50021,-20.352 -2.00546,-40.74518 0.67652,-61.70666 0.64794,-12.25116 10.25458,-45.15871 15.84543,-17.49045 -0.74326,15.8043 24.52392,33.05425 20.89833,7.71793 -1.31463,-14.31479 9.53929,-24.19656 20.61245,-24.02683 21.44618,-6.32152 4.18954,34.5747 21.1534,39.15447 13.76641,-2.69898 17.85441,-43.4551 34.53,-25.84912 0.35571,13.59187 -10.39188,49.74647 14.94414,32.80639 7.07321,-7.45659 40.96655,-29.23761 28.98502,-5.38914 -9.58954,7.08052 -21.77127,42.19435 -0.38618,27.0511 17.22525,-11.57418 38.23047,-24.02379 49.62828,-35.81746 23.65394,11.28336 20.44542,43.16857 -0.81588,55.41102 -9.80175,6.18068 -21.21093,29.73423 0.50453,20.33828 14.4052,-5.36538 39.46793,-0.62839 42.39076,11.25631 -13.27612,15.50999 -30.55662,26.51436 -47.13,37.97585 -7.94934,21.79167 25.01734,6.65194 35.8906,10.6533 -2.48821,21.96511 -42.08547,19.36059 -59.57273,30.19657 8.70211,15.34137 27.93893,22.2048 39.80404,34.33489 8.44595,3.98596 39.00399,5.22335 29.53774,17.8817 -13.18765,5.1522 -40.23622,-9.9154 -44.42776,5.8928 10.14582,7.29403 26.49211,32.74854 1.63213,25.88684 -20.38186,6.33232 19.15182,23.00403 21.6734,35.26023 5.60713,20.39046 -25.9491,1.7891 -18.24874,22.71777 -15.29947,-1.68163 -32.22465,-35.84484 -42.56863,-23.05109 3.0512,17.06548 29.0025,43.74783 11.79734,55.54502 -17.49671,-3.12572 -27.23172,-38.3309 -44.95415,-27.30214 -2.17137,10.83012 19.43414,38.0513 -0.81732,35.71398 -6.6464,-7.44706 -11.94266,-37.95072 -23.6151,-25.88275 0.18239,11.10648 4.98552,26.48422 -7.31352,33.1244 z m 107.67788,-327.6329 c 16.29286,-10.85585 -11.42369,-5.46467 0,0 z"
       id="path2424"
       inkscape:connector-curvature="0" />
    <path
       style="fill:#ead716;stroke-width:0.59389961"
       d="m 313.62192,613.42924 c -16.2838,-22.06519 -35.21114,-48.00172 -28.97023,-77.04781 2.45807,-9.34059 -11.56923,-35.16579 -11.68983,-12.25409 -2.16279,27.61168 -8.35312,55.8132 -21.78644,80.1029 -15.13458,14.02087 -28.82554,-8.74632 -16.06787,-21.02505 3.33846,-10.48529 -3.03529,-22.10735 -8.91414,-13.59112 -0.95308,-10.06259 8.24054,-41.33796 -11.21535,-24.15902 -11.81875,8.54832 -17.98672,38.17137 -30.1864,36.67126 1.64119,-10.60136 18.97455,-47.08511 -4.13195,-33.13538 -4.53229,11.53872 -30.53921,24.4773 -19.79743,1.79634 12.9792,-12.71692 8.18429,-36.54694 -10.56303,-19.09 -7.34016,8.34409 -34.05916,20.7097 -18.32973,0.53902 10.71746,-15.26592 26.63305,-25.66113 38.79451,-39.62062 -22.52417,1.8947 -45.50592,19.87686 -67.84891,7.42252 3.28647,-10.55394 39.40902,-1.17441 28.28293,-16.71642 -12.31376,-4.34372 -40.210395,11.63125 -42.668099,-2.04194 21.118869,-12.70653 40.540369,-28.28407 62.922299,-38.83957 8.01948,-22.7673 -30.68709,4.32768 -36.95314,-11.75294 12.42955,-13.96585 33.84907,-8.47881 50.61355,-8.39177 8.20013,1.01882 28.9157,-3.71125 9.99945,-3.80092 -22.87263,-1.29762 -47.03942,3.7066 -68.66998,-6.12892 -14.421975,2.25752 -27.862478,-22.1731 -4.75875,-16.35022 12.08008,0.31061 46.69202,-0.13295 39.98663,-14.66441 -11.09252,-1.77656 -26.26258,-8.29903 -9.12832,-14.63462 -5.92077,-3.62014 -20.34742,-9.50017 -4.32725,-8.95925 6.73444,0.88175 -14.50595,-8.83139 0.45973,-6.82112 13.99603,-7.42776 48.94989,15.05899 48.62121,-7.21293 -4.46857,-13.32195 -30.3007,-24.39617 -18.6815,-39.6399 16.95052,8.01137 38.06642,26.23491 54.96551,23.28695 -2.11113,-18.96252 -7.07944,-37.91643 0.7053,-56.99846 3.50509,-9.67203 4.54141,-30.61747 7.75304,-33.67961 3.84463,11.42033 16.73739,50.52018 28.64146,27.32959 -1.50819,-13.83781 6.48379,-34.25146 15.70556,-25.47203 6.84618,-20.27279 18.35882,2.18807 12.5468,13.14026 -5.19805,19.94103 18.6383,31.74289 24.01649,8.72077 2.45522,-11.48965 24.9401,-31.85391 18.68066,-7.28858 -5.25986,14.88175 1.36747,45.71688 20.29989,25.76612 7.45488,-7.2172 36.23101,-23.03419 21.13581,-2.21959 -8.4836,7.36374 -18.70717,39.66038 2.24399,27.99464 13.7916,-7.95926 38.46081,-31.84667 49.86639,-20.58119 -6.39744,12.10822 4.28561,11.84711 9.57558,14.16939 4.58576,18.57475 -42.70757,31.5588 -17.43308,47.3922 14.61102,1.60482 29.26225,-9.63458 37.49828,-0.33961 27.60941,-0.07 -4.77117,21.66542 -15.27605,26.73603 -16.49652,3.55107 -34.43963,35.32067 -6.13585,29.7758 9.10534,-6.43947 38.82366,-0.86731 15.92718,5.81696 -16.3943,12.10322 -42.49066,7.12099 -55.38194,21.26006 12.49831,14.5555 29.91261,28.91005 48.17899,36.36732 10.83065,0.31219 37.30045,13.48673 12.33212,13.03922 -13.8647,-6.4905 -49.52577,-4.10107 -26.97608,15.08593 8.87087,5.21208 10.53911,23.14289 -2.98502,13.37995 -19.51246,-2.21373 -8.3684,16.91296 2.60592,20.36635 8.505,3.90405 31.22382,32.87578 9.72005,24.86045 -12.0607,2.29912 -16.68299,15.30189 -26.28332,0.1429 -5.95236,-11.03561 -31.90822,-22.33579 -23.10881,0.36865 1.69924,13.54181 23.56252,36.56146 11.37406,44.72751 -16.71343,-2.20458 -31.60863,-44.76895 -46.11043,-22.58115 -1.7966,9.33383 13.92476,32.69242 2.53944,32.90015 -7.51668,-8.68197 -13.78964,-38.44764 -27.0675,-28.94001 -0.7643,11.58163 3.97628,25.0234 -4.5464,34.81901 z M 380.9302,569.7134 c -2.73322,-13.01179 -10.59258,7.45345 0,0 z m -24.42187,-5.55851 c -2.14062,-7.58677 -6.07629,-2.26438 0,0 z m 14.63528,0.0545 c -3.50295,-8.49826 -6.23127,7.31797 0,0 z m -11.60678,-4.0519 c -5.75399,-6.75336 1.67459,5.12999 0,0 z m -46.06005,-1.00626 c -3.91033,-0.84948 4.88493,4.61612 0,0 z m 57.18398,-1.64809 c -3.43457,-2.57131 1.0153,4.6408 0,0 z m -126.74301,-1.77041 c -2.6868,-2.11909 -0.1539,4.10092 0,0 z m 48.45018,-3.56773 c -3.43453,-2.57136 1.01524,4.6408 0,0 z m 75.21691,-3.19089 c 3.74761,-18.83101 -13.18307,-3.73905 -2.17814,0.73186 z m -59.60932,1.02814 c -2.13579,-5.58315 -2.51714,4.43991 0,0 z m 102.3145,-4.8408 c -0.30551,-5.76752 -3.32188,3.82025 0,0 z m -54.27117,-3.55876 c -0.3055,-5.76753 -3.3219,3.82024 0,0 z m -23.16087,-5.44465 c -4.94483,-6.60487 1.48706,5.69992 0,0 z m 25.91627,-2.68859 c -5.07027,-12.77154 -1.12182,8.58067 0,0 z m -215.59551,-0.64936 c -2.10986,-4.55278 -1.83433,8.26481 0,0 z m 149.67204,0.72286 c -0.84852,-4.74027 -2.00066,3.13262 0,0 z m 57.82992,-3.55876 c 1.00661,-5.67787 -4.4224,1.88134 0,0 z M 234.086,525.98063 c -5.89824,1.59265 4.11227,7.14685 0,0 z m -56.45025,2.22423 c -1.49696,-4.04386 -2.68511,4.61682 0,0 z m 27.19028,-0.94439 c 6.53858,-13.44817 -11.74927,5.00268 0,0 z m -6.71319,-1.35841 c 6.10325,-4.70321 9.63905,-23.38992 0.86367,-8.48986 -1.59369,2.05568 -9.533,12.21739 -0.86367,8.48986 z m 16.4451,1.19068 c -2.52849,-3.12363 -0.58814,5.06231 0,0 z m 77.2426,-1.68851 c -3.05392,-12.21515 -7.10912,4.63004 0,0 z m -140.41068,-0.86315 c -3.43524,-2.26265 0.81316,5.87512 0,0 z m 189.50424,0.54986 c -2.14916,-5.48965 -1.14207,4.58841 0,0 z m 7.11753,0.51762 c 4.16027,-9.00403 -9.91815,0.49253 0,0 z m -161.31389,-2.00724 c 9.04248,-7.55943 -10.30594,2.23696 0,0 z m 44.19638,0.59993 c -0.95637,-4.9854 -1.92955,5.62398 0,0 z m 140.24949,-1.77938 c -8.41977,-6.69807 6.66048,8.88857 0,0 z m -191.68057,-0.36733 c -5.99532,-5.36332 0.16229,5.95619 0,0 z m 115.60117,-1.87436 c -5.09076,-0.99141 3.00746,5.46122 0,0 z m -74.88348,-0.84061 c 3.02674,-20.65733 -11.4978,9.81848 0,0 z m 12.49277,1.30292 c -0.95634,-4.98542 -1.92957,5.62395 0,0 z m -55.77113,-5.05172 c 0.76768,-12.61958 30.61732,-24.08063 22.70132,-31.06796 -10.02301,7.66703 -20.8792,17.98312 -22.70132,31.06796 z m 6.51565,3.27368 c 4.17961,-8.98615 -7.01916,9.13497 0,0 z m 12.28959,-0.39059 c -3.28915,-3.93695 -0.86874,8.45347 0,0 z m 15.07721,-2.05741 c 18.45784,-20.31477 -17.22144,3.69693 0,0 z m 144.88186,-0.42631 c -4.29593,-0.0383 4.35565,4.73709 0,0 z m -163.35103,-1.13066 c -0.81012,-7.46545 -2.22792,6.12248 0,0 z m 100.33123,0.72289 c -1.82189,-8.02797 -2.26497,4.15124 0,0 z m 55.36475,-2.05742 c -2.14919,-5.48963 -1.14205,4.5884 0,0 z m 14.31493,-1.18528 c -0.29579,-7.12816 -5.54801,-0.89157 0,0 z m 37.28716,1.28047 c -0.83138,-4.09732 -3.10636,2.3329 0,0 z m -202.83746,-2.09699 c 5.56837,-5.8264 -5.35304,-1.74611 0,0 z m 195.27509,-1.53375 c -8.48947,-10.33507 0.71358,6.79417 0,0 z m -199.51328,-2.64478 c 5.37623,-8.59116 -8.0105,7.16448 0,0 z m 90.46036,1.81109 c -0.47698,-7.36576 -2.83868,5.51296 0,0 z m -65.27111,-5.77247 c -6.99649,-1.88072 0.73742,7.65908 0,0 z m 55.18693,-1.53263 c -6.83198,-1.13616 3.9932,5.47296 0,0 z m 106.23658,2.65309 c -2.55227,-6.39637 -8.61951,-1.24525 0,0 z m -100.53512,-1.71353 c 1.40221,-5.94287 -5.0683,-0.86398 0,0 z m -73.09214,-2.56435 c -4.12932,-3.85916 0.33747,6.12334 0,0 z m -23.88421,-1.90663 c -4.17842,-1.40306 -0.10189,4.62538 0,0 z m 30.17536,-5.47956 c -7.60589,-2.55615 -1.41578,9.04202 0,0 z m -26.17174,0.66727 c 2.99685,-6.1849 -7.74722,10.103 0,0 z m 146.3542,0.39233 c -2.32433,-3.47328 -0.57058,5.04433 0,0 z m 28.30946,-4.38944 c -8.04206,-8.76439 3.53375,6.80985 0,0 z M 209.86698,487.8861 c -6.44173,-3.37917 0.037,7.69558 0,0 z m -49.58022,-11.79079 c -4.19324,-1.47045 -2.24081,5.38171 0,0 z M 139.10099,475.995 c -5.04267,-4.31467 -0.50326,2.90953 0,0 z m 4.28165,-2.84724 c -2.31564,-5.58713 -4.00731,3.22643 0,0 z m 53.82632,-4.55222 c -1.49697,-4.04386 -2.68511,4.61684 0,0 z m -68.13911,-3.33634 c 4.46093,-10.01224 -10.27635,8.1204 0,0 z m 32.54515,-0.21224 c -2.42809,-2.48134 -1.28183,5.64159 0,0 z m -5.77668,-18.30137 c -2.94412,-2.25139 -0.15165,4.01861 0,0 z m -32.28971,-14.07 c -4.68687,-2.46638 -4.74522,5.27794 0,0 z m 47.41446,-4.83653 c 9.95079,1.9074 22.41177,-7.19981 5.39893,-2.36691 -11.30115,1.66838 -34.66308,-0.22735 -38.33028,3.5644 10.98793,0.0497 21.97089,-0.45547 32.93135,-1.19749 z m -10.16998,-14.50385 c -2.94296,-8.19582 -6.95573,5.49525 0,0 z m -25.23899,-0.88586 c -2.75366,-6.67814 -5.90912,5.96026 0,0 z m 10.94245,0.0956 c -1.49695,-4.04385 -2.68509,4.61681 0,0 z m 18.23868,-1.8319 c -5.32067,-5.9955 1.05569,6.67017 0,0 z m -41.8155,-0.39233 c -3.33389,-4.07514 -1.43071,5.11096 0,0 z m -5.78298,-0.44484 c -1.16852,-4.70876 -1.5656,2.79145 0,0 z m -4.00362,-0.88969 c -3.07298,-3.96759 -3.31521,4.30999 0,0 z m 40.9258,-1.40869 c -2.67233,-3.57724 -1.19823,4.35412 0,0 z m -53.82632,-1.26039 c -3.259446,-5.80764 -1.789309,4.53125 0,0 z m 46.70879,-2.66907 c -1.88467,-4.20233 -1.88467,4.20232 0,0 z m 18.17579,-0.78797 c -3.81238,-6.30387 -6.0865,5.6958 0,0 z m -37.749,-5.43987 c -1.88467,-4.20234 -1.88467,4.20233 0,0 z m 196.62178,-25.40375 c -0.0683,-10.79715 -13.65052,-1.3613 0,0 z M 140.71356,366.281 c -2.11618,-4.01039 -2.42559,4.11493 0,0 z m 44.92942,0 c -5.84849,-7.38422 -25.99251,-0.27983 -7.94664,0.6449 l 4.00275,0.0127 z m -24.91033,-1.78105 c -4.54122,-8.73051 -26.14376,-3.54586 -7.83486,-0.88718 2.21823,1.25559 5.40379,2.47179 7.83486,0.88718 z m -32.02992,-1.77772 c -1.16851,-4.70875 -1.5656,2.79145 0,0 z m 32.59759,-5.36775 c -5.67129,-6.73187 -5.18359,3.44027 0,0 z m 221.85411,-1.74978 c -1.18934,-4.02103 -2.77064,6.42173 0,0 z m -234.87849,-1.77938 c -3.27221,-5.89656 -2.45541,3.90972 0,0 z m 267.35223,-4.9108 c 13.29121,-5.24939 -15.46437,3.48148 0,0 z m 3.55876,-40.51598 c -2.68683,-2.11908 -0.15388,4.10094 0,0 z m -11.56598,-2.83443 c -4.47131,-1.16066 0.34588,6.45613 0,0 z m -23.13198,-3.83824 c -2.3243,-3.47332 -0.57064,5.04432 0,0 z m 24.02167,-8.89692 c -2.62202,-3.66616 -1.56692,4.02377 0,0 z m -3.55877,-3.11393 c -2.68683,-2.11908 -0.15388,4.10094 0,0 z m 0,-3.50625 c -2.12831,-4.0991 -2.73243,4.51988 0,0 z m 4.44846,-2.72158 c -3.46537,-4.13982 -1.26362,5.17521 0,0 z m -124.90895,-1.48592 c -2.66643,2.02915 3.54388,2.11708 0,0 z m -43.98253,-1.33665 c -3.61323,1.96821 7.65885,4.37713 0,0 z m 79.92235,-38.59413 c -8.52373,0.008 3.62226,8.44099 0,0 z m 93.41759,212.28994 c 2.08407,-3.09404 0.79819,4.65506 0,0 z m -301.1605,-93.41758 c -12.749048,-0.47478 0.74683,-4.93656 0,0 z m -14.547242,-4.98568 c 2.789582,-6.55245 2.867202,6.74673 0,0 z m 15.548092,0.79667 c -0.19865,-5.02747 5.1423,2.25182 0,0 z m -21.908604,-2.03883 c -2.603706,-3.80005 10.056034,4.96303 0,0 z m 39.146424,-5.33815 c 2.61122,-4.29708 2.88131,4.53755 0,0 z m 277.13883,-7.11753 c 4.68735,-4.54445 6.6104,3.46344 0,0 z M 433.422,290.81235 c 2.71509,-8.75103 4.48453,-0.35515 0,0 z m -6.22784,-5.04838 c 5.60991,-6.38009 1.39894,8.87654 0,0 z m -2.8915,-8.59645 c -6.75318,-6.05474 8.5253,3.30834 0,0 z m -8.23067,-5.41619 c -7.99611,-19.95808 10.2372,-2.23036 0,0 z"
       id="path2416"
       inkscape:connector-curvature="0" />
    <path
       style="fill:#d18b0d;stroke-width:0.59389961"
       d="m 313.94247,614.15367 c -10.71965,-10.58451 9.59254,-12.47537 0,0 z m -73.06484,-3.64263 c -3.82366,-6.19307 3.94835,1.34337 0,0 z M 302.2255,596.7734 c -10.1684,-10.78113 13.8137,4.8635 0,0 z m 36.64929,-1.65175 c -9.70262,-9.30869 -1.02537,-12.56086 0,0 z m -8.12296,-18.65945 c -4.69994,-13.55195 6.75279,13.72707 0,0 z m -16.10362,-6.61442 c -8.70098,-4.34245 -4.29156,-18.49345 0.83546,-5.56328 13.77544,-5.94553 8.47205,19.88669 -0.83546,5.56328 z m -15.9402,-0.95413 c -0.54023,-6.66646 2.94075,4.8761 0,0 z m -11.52689,-6.85537 c -5.60403,-14.39706 9.52056,3.49709 1.23542,0.95627 l -0.8677,-0.67164 z m 53.23656,-4.85991 c -16.09829,-17.73292 -21.17609,-41.84076 -27.30417,-64.247 -16.96767,21.78447 -45.56523,2.89014 -66.31598,-1.97227 -23.52908,-12.71325 -39.80787,-35.58879 -46.12614,-60.27735 13.37005,-12.45346 9.18548,-37.7119 24.11534,-50.58092 15.11613,2.76252 -0.94593,-32.40999 14.83312,-16.26694 8.10648,14.73064 19.32645,-17.86927 30.9763,-3.04675 9.99647,-0.0406 10.78557,-20.05873 15.86247,-2.16785 9.28161,6.63115 29.53036,-3.29366 34.79713,14.24285 8.81116,-13.43131 17.4727,10.91208 15.64965,17.80369 11.28561,-7.16694 -4.0159,18.19789 12.28615,14.41202 -24.55347,10.86763 16.61299,37.59271 -7.2035,47.29154 4.9826,18.94877 21.12429,35.15453 38.01844,44.57441 9.07243,1.63116 23.52136,17.51537 5.77117,9.56454 -22.14305,-4.7932 -28.9674,-32.68216 -46.90915,-39.01442 -3.41726,6.80234 3.82184,23.44301 -8.00791,9.78682 -14.13501,9.53597 -14.52013,32.28833 -5.07253,49.08392 1.01615,8.16076 19.67621,31.06711 14.62961,30.81371 z m 0.47642,-149.58386 c -0.30551,-5.76753 -3.32191,3.82032 0,0 z m -18.50558,-26.03149 c -5.77909,-3.15256 2.61324,4.46211 0,0 z m 47.46207,149.68942 c -4.97513,-6.61383 7.85616,5.74753 0,0 z m -201.28961,-9.51462 c -1.67407,-10.97442 17.09918,-20.93557 5.14023,-5.36273 -0.61384,2.30475 -2.01154,6.09178 -5.14023,5.36273 z m 106.71839,-13.49956 c -9.44164,-5.77167 6.75193,-5.26653 0,0 z M 124.69912,426.01628 c 6.6635,-8.69332 39.53059,-1.10927 34.67761,-0.0681 -11.53442,0.7545 -23.16496,1.55569 -34.67761,0.0681 z m 221.04037,-3.42704 c 4.36169,-7.93342 5.88245,6.96274 0,0 z M 121.30575,376.93013 c 6.65103,-9.32029 20.60811,5.0429 4.87225,0.74853 l -2.44086,-0.33635 z m 59.38307,-26.73625 c -4.14846,-8.25074 -26.46053,-36.5783 -21.2652,-31.61728 7.79755,9.83102 21.62016,17.45003 21.2652,31.61728 z M 422.7457,275.86769 c 1.88467,-4.20233 1.88467,4.20232 0,0 z m -208.56087,-4.33238 c -1.40994,-5.54705 6.33254,-4.013 0,0 z m 203.33221,-3.34497 c -5.11527,-10.35699 6.58095,4.70034 0,0 z m -198.69101,-8.3371 c -5.11559,-7.33088 4.64308,-9.72714 0,0 z m 35.38468,0.0995 c -8.44102,-9.51455 8.52732,-36.40965 2.79777,-10.68865 -0.49539,3.65138 -1.18507,7.33935 -2.79777,10.68865 z m 19.53564,-23.008 c -8.83279,-12.712 11.94455,-6.77357 0.24343,2.32345 z"
       id="path2404"
       inkscape:connector-curvature="0" />
    <path
       style="fill:#b29412;stroke-width:0.59389961"
       d="m 313.94247,614.15365 c -10.71965,-10.58451 9.59254,-12.47537 0,0 z m -73.06484,-3.64263 c -3.82366,-6.19307 3.94835,1.34337 0,0 z m 61.34787,-13.73764 c -10.1684,-10.78113 13.8137,4.8635 0,0 z m 36.64929,-1.65175 c -9.70262,-9.30869 -1.02537,-12.56086 0,0 z m -8.12296,-18.65945 c -4.69994,-13.55195 6.75279,13.72707 0,0 z m -16.31346,-6.82242 c -8.46408,-3.6104 -3.0498,-17.54858 0.72054,-4.18843 12.36266,-12.89042 12.46109,22.20238 -0.72054,4.18843 z m -15.73036,-0.74613 c -0.54023,-6.66646 2.94075,4.8761 0,0 z m -11.52689,-6.85537 c -5.60403,-14.39706 9.52056,3.49709 1.23542,0.95627 l -0.8677,-0.67164 z m 54.58289,-3.06347 c -5.91125,-3.54969 -14.67272,-26.32091 -4.88543,-10.34515 0.73243,0.95559 13.67413,17.27096 4.88543,10.34515 z m 28.93968,-26.87056 c -2.85714,-5.54053 7.10431,5.81168 0,0 z M 321.8505,521.1682 c -4.78629,-12.6029 4.84022,6.55832 0,0 z m -153.28952,0.5696 c -1.89008,-10.18094 15.39052,-18.92278 4.79976,-4.92868 -0.26477,1.87208 -1.85676,6.21186 -4.79976,4.92868 z m 222.50627,-13.13104 c -22.40874,-10.39967 -40.32002,-29.20864 -51.45486,-51.08862 14.45716,21.22742 32.70362,38.56292 55.95988,48.91991 8.18366,5.99403 -0.25379,5.83961 -4.50502,2.16871 z m -117.78969,-3.19873 c 5.28495,-8.19859 -0.39817,8.6835 0,0 z m 13.64416,0.38505 c -0.044,-7.63387 4.81898,4.84648 0,0 z m 30.39146,-2.38685 c -4.10285,-13.43243 4.71716,-10.46641 0,0 z m -37.21465,-3.92948 c 0.96082,-14.95288 -26.92034,2.27318 -29.83079,-14.69574 -10.66008,-0.83151 -12.7059,-6.9703 -4.59177,-12.18897 -3.88465,-13.68952 -17.99557,-4.9039 -21.44498,-12.54149 -8.34356,1.32001 -5.76838,-6.38089 -12.39727,-11.30305 1.55551,-5.0852 9.57161,2.43026 4.04038,-7.86909 -2.60241,-9.32347 -28.74885,-10.65666 -7.21552,-13.36808 15.4661,2.68905 4.57957,-4.9573 6.09142,-7.87552 13.22151,7.28143 3.52514,-0.4239 9.258,-6.9206 10.30839,-3.46415 24.20686,-15.29697 4.60989,-18.28938 5.10125,2.02947 9.64857,-7.34171 10.71064,-7.4708 9.36238,3.32321 19.31364,5.33724 12.74873,-3.49056 9.96994,-17.49207 16.89756,13.34167 29.47389,0.34216 7.61554,-2.80587 22.8489,5.2001 10.10536,-5.0844 -10.10461,-0.5135 -16.18738,-8.31805 -1.27062,-6.45485 17.87514,4.4714 37.61876,24.73 43.99182,36.21346 -8.49321,8.8476 -19.05587,33.96856 -16.75759,37.69294 13.12804,-13.57717 17.70193,-1.39833 6.31015,7.89918 -2.76824,10.40521 5.11183,19.68302 -9.03942,21.96063 -6.50684,11.5824 -21.38002,19.6052 -34.79232,23.44416 z m -8.60035,-15.43396 c -7.97108,-5.20971 -0.72367,9.65781 0,0 z m -8.89691,1.7516 c 14.10965,-10.63095 -24.04065,-8.83688 -4.50679,-4.74832 1.46901,1.47168 2.13844,4.25159 4.50679,4.74832 z m 15.84562,-0.50968 c -6.8647,-7.44363 0.58807,6.0408 0,0 z m 2.60489,-2.73327 c -7.32453,-6.56847 2.41475,5.86485 0,0 z m 8.24023,-1.16507 c -1.88467,-4.20234 -1.88468,4.20236 0,0 z m -20.36281,-7.37332 c -4.751,0.40634 7.15783,5.61947 0,0 z m -10.77639,-2.41329 c -1.88467,-4.20234 -1.88468,4.20236 0,0 z m 5.33815,0.0525 c -0.30549,-5.76754 -3.3219,3.82024 0,0 z m -12.01083,-2.72159 c -1.62296,-3.99443 -3.28004,3.95112 0,0 z m -19.11052,-7.58386 c 1.52776,-7.74356 -3.99533,5.81406 0,0 z m 12.69823,-0.41334 c -3.70587,-4.34949 0.29521,4.73199 0,0 z m 67.15225,0.71287 c -1.75474,-5.07094 -2.57372,3.80424 0,0 z m -70.97142,-4.62272 c -1.50392,-8.19103 -9.69193,-3.27708 0,0 z m 66.37468,-1.19735 c -4.29593,-0.0382 4.35563,4.73711 0,0 z m -75.33649,-2.08524 c -8.14085,-5.86572 1.34343,7.20463 0,0 z m 86.01279,-0.58383 c -2.66645,2.02913 3.54386,2.11709 0,0 z m -6.54612,-0.69357 c -1.68656,-5.69714 -1.66754,9.20544 0,0 z M 234.0014,448.0925 c -5.89936,-5.81941 -7.21514,0.73875 0,0 z m -8.14385,-1.30818 c 1.77149,-11.66832 -7.89125,5.68907 0,0 z m 10.94267,-1.92781 c -2.6868,-2.1191 -0.15393,4.10093 0,0 z m -12.45567,-5.06846 c -3.49705,-10.42045 -12.67683,0.20775 0,0 z m 8.8969,-3.33109 c -0.25067,-15.01792 -14.7849,-1.98832 0,0 z m -15.12474,-4.95864 c -7.03823,-4.4113 -4.50236,7.4075 0,0 z m 24.1996,-4.56107 c -5.56565,-0.76525 5.5521,6.64463 0,0 z m 79.89427,-4.32302 c -2.76436,-3.7918 -0.65435,5.68393 0,0 z m -94.30727,-1.54894 c 4.60408,-9.38386 -7.81259,-4.33932 0,0 z M 238.5796,417.717 c 2.65338,-11.66232 -4.90727,9.75877 0,0 z m -4.46208,-5.05929 c -4.49247,-2.88713 0.6438,4.96719 0,0 z m 89.87245,-1.16462 c -2.62204,-3.66616 -1.56693,4.02377 0,0 z m 8.00721,-1.19928 c 0.46821,-15.37651 -14.27522,5.86532 0,0 z m -82.74128,-0.18776 c -3.43524,-2.26269 0.81314,5.87514 0,0 z m 74.3068,-5.06727 c -7.67714,-1.79698 -4.66755,8.61269 0,0 z m -5.80057,-0.67595 c -3.05047,-3.6521 -1.78113,4.45392 0,0 z m -68.39763,-2.75954 c -3.93336,-3.22064 5.42811,9.31078 0,0 z m -3.62999,-2.5584 c -0.36559,-10.50273 -8.87214,2.25176 0,0 z m 74.95447,-0.39982 c -3.58506,-7.30239 -2.0728,5.5052 0,0 z m -13.80729,-4.14352 c 9.68679,-6.90504 -18.53282,-12.19348 -2.30963,-2.18346 -0.13858,1.16808 -1.84842,9.28656 2.30963,2.18346 z m 9.99075,-0.80228 c -2.9441,-2.25142 -0.15169,4.0186 0,0 z m -70.28562,-1.28203 c -2.12828,-4.09909 -2.73244,4.51987 0,0 z m 39.5823,-6.24236 c -3.09381,-3.50094 -1.22991,4.50554 0,0 z m -24.0127,-1.76486 c -1.1685,-4.70878 -1.56563,2.79144 0,0 z m 37.37197,110.31626 c 7.48867,-6.77168 -2.32933,4.62484 0,0 z m 5.77806,0.006 c 2.08408,-3.09404 0.7982,4.65506 0,0 z m 31.21128,-12.32098 c -7.74742,-9.48692 2.18285,-15.16893 1.34854,-0.52983 l -0.0242,1.9606 z m -7.79072,-0.3426 c -13.04922,-7.83347 6.01462,-5.2902 0,0 z m -98.15463,-6.43602 c 5.52591,-15.95051 17.26856,2.81062 0,0 z m 97.59401,-12.0939 c 2.374,-12.84088 11.96693,4.12564 0,0 z m -4.17642,-1.31731 c 0.88506,-6.74231 8.79262,-4.90786 0,0 z M 205.26769,451.33666 c 0.4308,-7.27482 7.06994,2.45786 0,0 z m 128.3147,-4.87068 c -1.53619,-9.24121 9.19442,-3.77816 0,0 z m 17.92265,-2.0036 c -22.66248,-2.52598 1.38747,-15.04346 0,0 z m -21.73208,-12.84375 c -6.47918,-21.52548 20.67333,-3.54659 0,0 z m -205.07384,-5.50298 c 5.1124,-12.59879 41.85442,2.39204 16.09477,0.59345 -5.35877,0.39352 -10.8018,0.48499 -16.09477,-0.59345 z m 210.3879,-11.4951 c 2.68173,-9.82894 9.07016,5.40949 0,0 z m -119.63939,-3.5198 c 2.96556,-3.57719 2.49069,4.31444 0,0 z m 12.01083,-6.73375 c -10.38832,-7.88204 11.18227,1.65977 0,0 z m 116.10471,0.50591 c 1.88469,-4.20235 1.88469,4.20236 0,0 z M 208.3301,401.31415 c 5.69181,-3.23993 3.20952,6.41206 0,0 z m 126.95347,-1.45864 c -0.73607,-5.15162 3.5603,3.0284 0,0 z m -6.25202,-7.14172 c -4.19074,-10.0073 9.01176,1.04978 0,0 z m 10.08317,-1.11348 c 0.34049,-10.12076 8.57199,2.99059 0,0 z m -109.19107,-5.94844 c 2.04392,-3.92015 2.29471,2.72134 0,0 z m 10.9167,-2.06091 c 4.31849,-11.90466 -19.10028,-9.56959 -6.96658,-23.00478 5.65303,3.80662 29.08644,21.57971 6.96658,23.00478 z m -21.39195,-0.0738 c 0.42196,-7.1812 4.03638,5.66911 0,0 z m 107.21064,-0.88655 c 1.88467,-4.20233 1.88467,4.20233 0,0 z m 5.33814,-0.93013 c 1.50463,-11.59943 12.50301,0.18805 0,0 z m -97.33528,-0.71026 c -0.80791,-6.01735 5.24647,2.39311 0,0 z m 37.72597,-0.99751 c -12.73875,-4.78848 -7.09444,-18.48895 2.05374,-5.33643 4.29685,2.59521 3.38577,8.44242 -2.05374,5.33643 z m -151.08212,-3.06262 c 6.65103,-9.32029 20.60811,5.0429 4.87225,0.74853 l -2.44087,-0.33635 z m 194.91758,-2.52913 c 5.09907,-4.8368 4.89098,6.36668 0,0 z m 8.31381,-3.74989 c -3.02221,-12.25404 12.12979,4.39121 0,0 z m -20.0921,-3.81248 c 3.80196,-4.80132 -0.32555,6.56982 0,0 z m -53.40976,0.1945 c 1.1296,-5.6633 3.47112,3.3147 0,0 z m 5.11572,-2.9063 c -7.61512,-10.19128 12.46341,-4.85957 0,0 z m 38.20398,0.0677 c -7.16866,-9.12229 9.15484,4.2105 0,0 z m 14.51023,-2.44028 c 2.31235,-9.17959 6.63777,3.25382 0,0 z m -26.55585,-4.82241 c -5.46646,-8.02063 7.66114,-0.84131 0,0 z m -101.62054,-6.7379 c -4.14846,-8.25075 -26.46053,-36.57831 -21.2652,-31.61729 7.79755,9.83102 21.62016,17.45003 21.2652,31.61729 z M 422.7457,275.8677 c 1.88467,-4.20233 1.88467,4.20233 0,0 z m -208.56087,-4.33237 c -1.40994,-5.54705 6.33254,-4.013 0,0 z m 203.33221,-3.34497 c -5.11527,-10.35699 6.58095,4.70034 0,0 z m -198.69101,-8.3371 c -5.11559,-7.33088 4.64308,-9.72714 0,0 z m 35.38468,0.0995 c -8.44102,-9.51455 8.52732,-36.40965 2.79777,-10.68865 -0.49539,3.65138 -1.18507,7.33935 -2.79777,10.68865 z m 19.53564,-23.008 c -8.83279,-12.712 11.94455,-6.77357 0.24343,2.32345 z"
       id="path2402"
       inkscape:connector-curvature="0" />
  </g>
</svg>
