<svg
   width="1471.671"
   height="1536"
   viewBox="0 0 1471.671 1536"
   xmlns="http://www.w3.org/2000/svg"
   fill="currentColor">
  <path
     d="M 1465.912,1089.7223 C 1340.8342,1360.891 1066.6636,1536 768.47812,1536 345.21478,1536 0,1190.7852 0,767.52188 0,352.26352 325.20233,15.053717 739.46007,0.04437674 c 28.01743,-1.00062 51.03175,15.00934026 61.03797,39.02428026 11.00685,25.01556 4.00249,54.03362 -15.00933,72.044823 -114.07098,104.06475 -177.1102,246.15315 -177.1102,400.24902 0,300.18677 244.15191,544.3386 544.33869,544.3386 79.0492,0 155.0965,-17.0106 228.1419,-51.0317 25.0156,-11.00685 53.033,-6.00375 72.0449,13.0081 19.0118,19.0118 24.0149,48.0298 13.008,72.0448 z"
     style="stroke-width:1.00062" />
</svg>
