<svg
   width="1945.9091"
   height="1536"
   xmlns="http://www.w3.org/2000/svg"
   viewBox="0 0 1945.9091 1536"
   fill="currentColor">
  <path
     d="M 968.72727,1152 1095.2727,1025.4545 929.45455,859.63636 802.90909,986.1818 v 61.0909 H 907.63636 V 1152 Z M 1448.7273,366.54545 c -9.8182,-9.81818 -26.1818,-8.72727 -36,1.09091 l -381.8182,381.81819 c -9.8182,9.81818 -10.9091,26.18181 -1.0909,36 9.8182,9.81818 26.1818,8.72727 36,-1.09091 l 381.8182,-381.81819 c 9.8181,-9.81818 10.9091,-26.18181 1.0909,-36 z M 1536,1014.5455 v 207.2727 C 1536,1395.2727 1395.2727,1536 1221.8182,1536 H 314.18182 C 140.72727,1536 0,1395.2727 0,1221.8182 V 314.18182 C 0,140.72727 140.72727,0 314.18182,0 h 907.63638 c 43.6363,0 87.2727,8.72727 127.6363,27.27273 9.8182,4.36363 17.4546,14.18182 19.6364,25.09091 2.1818,12 -1.0909,22.90909 -9.8182,31.63636 l -53.4545,53.45455 c -9.8182,9.81818 -22.9091,13.0909 -34.9091,8.72727 -16.3636,-4.36364 -32.7273,-6.54546 -49.0909,-6.54546 H 314.18182 c -96,0 -174.54546,78.54546 -174.54546,174.54546 v 907.63638 c 0,96 78.54546,174.5454 174.54546,174.5454 h 907.63638 c 96,0 174.5454,-78.5454 174.5454,-174.5454 v -137.4546 c 0,-8.7272 3.2728,-17.4545 9.8182,-24 L 1476,990.5455 c 10.9091,-10.9091 25.0909,-13.091 38.1818,-7.6364 13.0909,5.4545 21.8182,17.4545 21.8182,31.6364 z M 1431.2727,209.45455 1745.4545,523.63636 1012.3636,1256.7273 H 698.18182 V 942.5455 Z m 484.3637,144 -100.3637,100.36363 -314.1818,-314.18182 100.3636,-100.36363 c 40.3637,-40.36364 108,-40.36364 148.3637,0 l 165.8182,165.81818 c 40.3636,40.36364 40.3636,108 0,148.36364 z"
     style="stroke-width:1.09091" />
</svg>
