<svg
   width="1536"
   height="1536"
   xmlns="http://www.w3.org/2000/svg"
   viewBox="0 0 1536 1536"
   fill="currentColor">
  <path
     d="m 1536,663.27273 v 209.45454 c 0,57.81818 -46.9091,104.72728 -104.7273,104.72728 H 977.45455 v 453.81815 c 0,57.8182 -46.9091,104.7273 -104.72728,104.7273 H 663.27273 c -57.81818,0 -104.72728,-46.9091 -104.72728,-104.7273 V 977.45455 H 104.72727 C 46.909091,977.45455 0,930.54545 0,872.72727 V 663.27273 C 0,605.45455 46.909091,558.54545 104.72727,558.54545 H 558.54545 V 104.72727 C 558.54545,46.909091 605.45455,0 663.27273,0 h 209.45454 c 57.81818,0 104.72728,46.909091 104.72728,104.72727 v 453.81818 h 453.81815 c 57.8182,0 104.7273,46.9091 104.7273,104.72728 z"
     style="stroke-width:1.09091" />
</svg>
