<svg
   width="1417.8459"
   height="1536"
   xmlns="http://www.w3.org/2000/svg"
   fill="currentColor"
   viewBox="0 0 1417.8459 1536">
  <path
     d="M 1417.8462,827.07692 C 1417.8462,1217.5385 1099.3846,1536 708.92308,1536 318.46154,1536 0,1217.5385 0,827.07692 0,602.76923 103.38462,396 283.38462,261.23077 336,221.53846 409.84615,231.69231 448.61538,284.30769 488.30769,336 477.23077,410.76923 425.53846,449.53846 c -120,90.46154 -189.23077,228 -189.23077,377.53846 0,260.30768 212.30769,472.61538 472.61539,472.61538 260.30769,0 472.61542,-212.3077 472.61542,-472.61538 C 1181.5385,677.53846 1112.3077,540 992.30769,449.53846 940.61538,410.76923 929.53846,336 969.23077,284.30769 1008,231.69231 1082.7692,221.53846 1134.4615,261.23077 1314.4615,396 1417.8462,602.76923 1417.8462,827.07692 Z M 827.07692,118.15385 v 590.76923 c 0,64.61538 -53.53846,118.15384 -118.15384,118.15384 -64.61539,0 -118.15385,-53.53846 -118.15385,-118.15384 V 118.15385 C 590.76923,53.538462 644.30769,0 708.92308,0 773.53846,0 827.07692,53.538462 827.07692,118.15385 Z"
     style="stroke-width:0.923077" />
</svg>
