<svg
   width="512"
   height="512"
   viewBox="0 0 512 512"
   xmlns="http://www.w3.org/2000/svg"
   fill="currentColor">
  <path
     d="M 0,0 V 256 H 256 V 213.33333 H 42.666667 V 42.66667 H 213.33333 v 192 H 256 V 0 Z M 0,512 V 298.66667 H 213.33333 V 512 H 21.333333 V 469.33333 H 170.66667 v -128 H 42.666667 V 512 Z M 298.66667,213.33333 V 0 H 512 V 213.33333 H 320 v -42.66666 h 149.33333 v -128 h -128 v 170.66666 z"
     id="path1"
     style="stroke-width:0.333333" />
  <path
     d="m 85.333333,85.33333 h 85.333337 v 85.33334 H 85.333333 Z m 298.666667,0 h 42.66667 V 128 H 384 Z M 85.333333,384 H 128 v 42.66667 H 85.333333 Z M 256,298.66667 h 42.66667 v 42.66666 H 256 Z m 128,42.66666 h 42.66667 V 384 H 384 Z m 0,85.33334 h 42.66667 v 42.66666 H 384 Z M 341.33333,256 v 42.66667 h 85.33334 v 42.66666 h 42.66666 V 256 Z M 512,384 h -42.66667 v 85.33333 H 426.66667 V 512 H 512 Z M 341.33333,341.33333 H 298.66667 V 384 H 256 v 42.66667 h 85.33333 z M 256,469.33333 H 384 V 512 H 256 Z"
     id="path2"
     style="stroke-width:0.333333" />
</svg>
