<svg
   width="1536"
   height="1536"
   xmlns="http://www.w3.org/2000/svg"
   viewBox="0 0 1536 1536"
   fill="currentColor">
  <path
     d="m 896,1248 v -192 c 0,-18 -14,-32 -32,-32 H 672 c -18,0 -32,14 -32,32 v 192 c 0,18 14,32 32,32 h 192 c 18,0 32,-14 32,-32 z m 256,-672 c 0,-183 -192,-320 -364,-320 -163,0 -285,70 -371,213 -9,14 -5,32 8,42 l 132,100 c 5,4 12,6 19,6 9,0 19,-4 25,-12 47,-60 67,-78 86,-92 17,-12 50,-24 86,-24 64,0 123,41 123,85 0,52 -27,78 -88,106 -71,32 -168,115 -168,212 v 36 c 0,18 14,32 32,32 h 192 c 18,0 32,-14 32,-32 0,-23 29,-72 76,-99 76,-43 180,-101 180,-253 z m 384,192 c 0,424 -344,768 -768,768 C 344,1536 0,1192 0,768 0,344 344,0 768,0 c 424,0 768,344 768,768 z" />
</svg>
