<?xml version="1.0" encoding="UTF-8" standalone="no"?>
<svg
   xmlns:dc="http://purl.org/dc/elements/1.1/"
   xmlns:cc="http://creativecommons.org/ns#"
   xmlns:rdf="http://www.w3.org/1999/02/22-rdf-syntax-ns#"
   xmlns:svg="http://www.w3.org/2000/svg"
   xmlns="http://www.w3.org/2000/svg"
   xmlns:sodipodi="http://sodipodi.sourceforge.net/DTD/sodipodi-0.dtd"
   xmlns:inkscape="http://www.inkscape.org/namespaces/inkscape"
   width="512"
   height="512"
   class="mozwebext"
   version="1.1"
   id="svg71647"
   sodipodi:docname="radicale.svg"
   inkscape:version="0.92.4 (5da689c313, 2019-01-14)">
  <metadata
     id="metadata71653">
    <rdf:RDF>
      <cc:Work
         rdf:about="">
        <dc:format>image/svg+xml</dc:format>
        <dc:type
           rdf:resource="http://purl.org/dc/dcmitype/StillImage" />
        <dc:title></dc:title>
      </cc:Work>
    </rdf:RDF>
  </metadata>
  <defs
     id="defs71651" />
  <sodipodi:namedview
     pagecolor="#ffffff"
     bordercolor="#666666"
     borderopacity="1"
     objecttolerance="10"
     gridtolerance="10"
     guidetolerance="10"
     inkscape:pageopacity="0"
     inkscape:pageshadow="2"
     inkscape:window-width="1832"
     inkscape:window-height="1228"
     id="namedview71649"
     showgrid="false"
     fit-margin-top="0"
     fit-margin-left="0"
     fit-margin-right="0"
     fit-margin-bottom="0"
     inkscape:zoom="0.78666667"
     inkscape:cx="87.81545"
     inkscape:cy="146"
     inkscape:window-x="1487"
     inkscape:window-y="479"
     inkscape:window-maximized="0"
     inkscape:current-layer="svg71647" />
  <path
     d="M 413.43884,316.22654 C 409.81341,153.08199 137.90582,165.77101 161.47115,323.47741 183.22375,481.18381 311.92668,512 311.92668,512 c 0,0 106.95031,-34.44163 101.51216,-195.77346 z"
     id="path71635"
     inkscape:connector-curvature="0"
     style="fill:#a40000;stroke-width:1.8127172" />
  <path
     d="m 208.60179,406.8624 c 83.385,7.25087 121.45206,5.43815 188.5226,-29.00348 -9.06359,87.01043 -83.385,119.63934 -83.385,119.63934 0,0 -77.94684,-21.7526 -103.32488,-90.63586 z"
     id="path71637"
     inkscape:connector-curvature="0"
     style="fill:#ffffff;stroke-width:1.8127172" />
  <g
     id="g71645"
     style="fill:none;stroke:#4e9a06;stroke-width:15"
     transform="matrix(1.8127172,0,0,1.8127172,76.273439,-24.5643)">
    <path
       d="M 103,137 C 77,69 13,62 13,62"
       id="path71639"
       inkscape:connector-curvature="0" />
    <path
       d="M 105,136 C 105,86 37,20 37,20"
       id="path71641"
       inkscape:connector-curvature="0" />
    <path
       d="M 105,135 C 112,73 83,17 83,17"
       id="path71643"
       inkscape:connector-curvature="0" />
  </g>
</svg>
