<svg
   width="1536"
   height="1536"
   xmlns="http://www.w3.org/2000/svg"
   viewBox="0 0 1536 1536"
   fill="currentColor">
  <path
     d="m 1536,128 v 448 c 0,35 -29,64 -64,64 h -448 c -26,0 -49,-16 -59,-40 -10,-23 -5,-51 14,-69 L 1117,393 C 1023,306 899,256 768,256 486,256 256,486 256,768 c 0,282 230,512 512,512 159,0 306,-72 404,-199 5,-7 14,-11 23,-12 9,0 18,3 25,9 l 137,138 c 12,11 12,30 2,43 -146,176 -362,277 -591,277 C 345,1536 0,1191 0,768 0,345 345,0 768,0 965,0 1156,79 1297,212 L 1427,83 c 18,-19 46,-24 70,-14 23,10 39,33 39,59 z" />
</svg>
