<svg
   width="1536"
   height="1536"
   xmlns="http://www.w3.org/2000/svg"
   viewBox="0 0 1536 1536"
   fill="currentColor">
  <path
     d="m 1325.1951,301.17647 c 0,-49.88235 -40.467,-90.35294 -90.3449,-90.35294 -49.878,0 -90.345,40.47059 -90.345,90.35294 0,49.88235 40.467,90.35294 90.345,90.35294 49.8779,0 90.3449,-40.47059 90.3449,-90.35294 z M 1536,30.11765 c 0,312.47059 -86.5806,520.4706 -309.6197,744.47059 -54.5834,53.64706 -116.6956,109.17647 -183.5132,165.64707 l -18.8219,356.70589 c -0.9411,9.4117 -6.5876,18.8236 -15.0575,24.4707 l -361.3798,210.8234 c -4.70547,2.8235 -9.41093,3.7647 -15.05749,3.7647 -7.52875,0 -15.05749,-2.8234 -21.64515,-8.4705 l -60.22997,-60.2354 c -7.52876,-8.4706 -10.35203,-19.7647 -7.52876,-30.1176 l 79.99294,-259.7647 -264.44724,-264.47059 -259.741776,80 c -2.823281,0.9412 -5.646562,0.9412 -8.469843,0.9412 -7.528745,0 -15.998587,-2.8236 -21.645149,-8.47061 L 8.6054887,925.17651 c -9.41093319,-10.353 -11.29312,-25.41181 -4.7054666,-36.7059 L 214.70495,527.05882 C 220.35151,518.58824 229.76244,512.94118 239.17337,512 l 356.6744,-18.82352 C 652.31337,426.35294 707.83788,364.2353 761.48021,309.64707 996.75355,75.294121 1176.5023,0 1504.0028,0 1520.9425,0 1536,13.17647 1536,30.11765 Z"
     style="stroke-width:0.941135" />
</svg>
