<svg
   width="1536"
   height="1536"
   xmlns="http://www.w3.org/2000/svg"
   viewBox="0 0 1536 1536"
   fill="currentColor">
  <path
     d="m 1134,947 c -50,161 -197,269 -366,269 -169,0 -316,-108 -366,-269 -11,-34 8,-69 42,-80 33,-11 69,8 80,42 33,107 132,179 244,179 112,0 211,-72 244,-179 11,-34 47,-53 81,-42 33,11 52,46 41,80 z M 640,512 c 0,71 -57,128 -128,128 -71,0 -128,-57 -128,-128 0,-71 57,-128 128,-128 71,0 128,57 128,128 z m 512,0 c 0,71 -57,128 -128,128 -71,0 -128,-57 -128,-128 0,-71 57,-128 128,-128 71,0 128,57 128,128 z m 256,256 c 0,-353 -287,-640 -640,-640 -353,0 -640,287 -640,640 0,353 287,640 640,640 353,0 640,-287 640,-640 z m 128,0 c 0,424 -344,768 -768,768 C 344,1536 0,1192 0,768 0,344 344,0 768,0 c 424,0 768,344 768,768 z" />
</svg>
