<svg
   width="1536"
   height="1536"
   viewBox="0 0 1536 1536"
   fill="currentColor"
   xmlns="http://www.w3.org/2000/svg">
  <path
     d="m 450.85715,1194.8572 c 0,60 -48.85714,109.7143 -109.71425,109.7143 -59.99997,0 -109.71429,-49.7143 -109.71429,-109.7143 0,-60.8571 49.71432,-109.7143 109.71429,-109.7143 60.85711,0 109.71425,48.8572 109.71425,109.7143 z m 426.85708,176.5714 c 0,60.8572 -48.85713,109.7143 -109.71427,109.7143 -60.85714,0 -109.71427,-48.8571 -109.71427,-109.7143 0,-60.8571 48.85713,-109.7143 109.71427,-109.7143 60.85714,0 109.71427,48.8572 109.71427,109.7143 z M 274.2857,768.00004 c 0,60.85715 -48.85707,109.71429 -109.71419,109.71429 -60.85713,0 -109.714298,-48.85714 -109.714298,-109.71429 0,-60.85715 48.857168,-109.71429 109.714298,-109.71429 60.85712,0 109.71419,48.85714 109.71419,109.71429 z m 1030.2856,426.85716 c 0,60 -49.7143,109.7143 -109.7143,109.7143 -60.8571,0 -109.7143,-49.7143 -109.7143,-109.7143 0,-60.8571 48.8572,-109.7143 109.7143,-109.7143 60,0 109.7143,48.8572 109.7143,109.7143 z M 478.28571,341.14288 c 0,75.42857 -61.71428,137.14286 -137.14281,137.14286 -75.42854,0 -137.14282,-61.71429 -137.14282,-137.14286 0,-75.42858 61.71428,-137.14287 137.14282,-137.14287 75.42853,0 137.14281,61.71429 137.14281,137.14287 z M 1481.1427,768.00004 c 0,60.85715 -48.8572,109.71429 -109.7143,109.71429 -60.8571,0 -109.7142,-48.85714 -109.7142,-109.71429 0,-60.85715 48.8571,-109.71429 109.7142,-109.71429 60.8571,0 109.7143,48.85714 109.7143,109.71429 z M 932.57136,164.57144 c 0,90.85715 -73.71427,164.57143 -164.5714,164.57143 -90.85714,0 -164.57141,-73.71428 -164.57141,-164.57143 0,-90.857156 73.71427,-164.571442074862 164.57141,-164.571442074862 90.85713,0 164.5714,73.714286074862 164.5714,164.571442074862 z M 1386.857,341.14288 c 0,106.28572 -86.5714,192.00001 -192,192.00001 -106.2857,0 -191.9999,-85.71429 -191.9999,-192.00001 0,-105.42859 85.7142,-192.00001 191.9999,-192.00001 105.4286,0 192,86.57142 192,192.00001 z"
     style="stroke-width:0.857143" />
</svg>
