<svg
   width="1610.525"
   height="1536"
   xmlns="http://www.w3.org/2000/svg"
   fill="currentColor"
   viewBox="0 0 1610.525 1536">
  <path
     d="m 1610.5255,595.23629 c 0,17.42155 -12.5822,33.87524 -25.1644,46.45747 l -351.3346,342.62384 83.2363,483.9319 c 0.9678,6.7751 0.9678,12.5823 0.9678,19.3573 0,25.1645 -11.6143,48.3932 -39.6824,48.3932 -13.5501,0 -27.1002,-4.8393 -38.7146,-11.6144 L 805.26276,1295.9698 370.69187,1524.3856 C 358.10964,1531.1607 345.52741,1536 331.97732,1536 c -28.06806,0 -40.65029,-23.2287 -40.65029,-48.3932 0,-6.775 0.96787,-12.5822 1.93573,-19.3573 L 376.49905,984.3176 24.196597,641.69376 C 12.582231,629.11153 0,612.65784 0,595.23629 0,566.20038 30.003781,554.58601 54.200378,550.71456 L 540.06805,480.06049 757.83743,39.68242 C 766.5482,21.293006 783.00189,0 805.26276,0 c 22.26087,0 38.71456,21.293006 47.42533,39.68242 l 217.76941,440.37807 485.8676,70.65407 c 23.2288,3.87145 54.2004,15.48582 54.2004,44.52173 z"
     style="stroke-width:0.967864" />
</svg>
