<svg
   width="1464.197"
   height="1536"
   xmlns="http://www.w3.org/2000/svg"
   viewBox="0 0 1464.197 1536"
   fill="currentColor">
  <path
     d="m 1462.7919,1005.1323 c -2.5729,8.5762 -9.4338,14.5796 -17.1524,17.1525 l -250.4255,82.3316 v 262.4322 c 0,8.5762 -4.2881,17.1524 -11.1491,22.2981 -7.7186,5.1458 -16.2948,6.861 -24.871,3.4305 l -250.42549,-80.6164 -154.37186,212.6901 c -5.14573,6.861 -13.72195,11.1491 -22.29816,11.1491 -8.57622,0 -17.15243,-4.2881 -22.29816,-11.1491 l -154.37186,-212.6901 -250.42546,80.6164 c -8.57621,3.4305 -17.15243,1.7153 -24.87102,-3.4305 -6.86097,-5.1457 -11.14908,-13.7219 -11.14908,-22.2981 V 1104.6164 L 18.55735,1022.2848 c -7.718593,-2.5729 -14.5795651,-8.5763 -17.1524291,-17.1525 -2.572864,-8.57619 -1.71524301,-18.01002 3.430486,-24.87099 L 159.20727,767.57119 4.8354069,554.88107 c -5.14572901,-7.71859 -6.00335,-16.29481 -3.430486,-24.87102 2.572864,-8.57621 9.4338361,-14.57956 17.1524291,-17.15243 L 268.98281,430.52596 V 168.0938 c 0,-8.57621 4.28811,-17.15243 11.14908,-22.29816 7.71859,-5.14572 16.29481,-6.86097 24.87102,-3.43048 L 555.42837,222.98157 709.80023,10.291457 c 10.29146,-13.7219427 34.30486,-13.7219427 44.59632,0 L 908.76841,222.98157 1159.1939,142.36516 c 8.5762,-3.43049 17.1524,-1.71524 24.871,3.43048 6.861,5.14573 11.1491,13.72195 11.1491,22.29816 v 262.43216 l 250.4255,82.33166 c 7.7186,2.57287 14.5795,8.57622 17.1524,17.15243 2.5729,8.57621 1.7152,17.15243 -3.4305,24.87102 l -154.3718,212.69012 154.3718,212.69012 c 5.1457,6.86097 6.0034,16.2948 3.4305,24.87099 z"
     style="stroke-width:0.857621" />
</svg>
