<svg
   width="1536"
   height="1536"
   xmlns="http://www.w3.org/2000/svg"
   viewBox="0 0 1536 1536"
   fill="currentColor">
  <path
     d="m 454.2099,324.43564 c 0,-71.98415 -57.7901,-129.77425 -129.77426,-129.77425 -71.98415,0 -129.77425,57.7901 -129.77425,129.77425 0,71.98416 57.7901,129.77426 129.77425,129.77426 71.98416,0 129.77426,-57.7901 129.77426,-129.77426 z M 1536,908.4198 c 0,34.4713 -14.1941,67.9287 -37.5129,91.2475 l -497.8059,498.8198 C 976.34851,1521.8059 942.89109,1536 908.4198,1536 c -34.47129,0 -67.92871,-14.1941 -91.24752,-37.5129 L 92.261386,772.56238 C 40.554455,721.86931 0,623.52475 0,551.54059 V 129.77426 C 0,58.80396 58.80396,0 129.77426,0 h 421.76633 c 71.98416,0 170.32872,40.55446 222.03565,92.26139 L 1498.4871,816.15842 C 1521.8059,840.49109 1536,873.9485 1536,908.4198 Z"
     style="stroke-width:1.01386" />
</svg>
