<svg
   width="1925.323"
   height="1536"
   xmlns="http://www.w3.org/2000/svg"
   fill="currentColor"
   viewBox="0 0 1925.323 1536">
  <path
     d="m 454.20997,324.43565 c 0,-71.98416 -57.79012,-129.77425 -129.77429,-129.77425 -71.98416,0 -129.77426,57.79009 -129.77426,129.77425 0,71.98416 57.7901,129.77427 129.77426,129.77427 71.98417,0 129.77429,-57.79011 129.77429,-129.77427 z M 1536.0002,908.4198 c 0,34.4713 -14.194,67.9287 -37.5128,91.2476 l -497.8061,498.8198 C 976.34865,1521.806 942.89122,1536 908.41993,1536 c -34.47129,0 -67.92872,-14.194 -91.24754,-37.5128 L 92.261399,772.5624 C 40.55446,721.86933 0,623.52478 0,551.54062 V 129.77427 C 0,58.80396 58.803968,0 129.77428,0 h 421.7664 c 71.98416,0 170.32872,40.55446 222.03567,92.2614 l 724.91105,723.89704 c 23.3188,24.33268 37.5128,57.79006 37.5128,92.26136 z m 389.3228,0 c 0,34.4713 -14.1941,67.9287 -37.5128,91.2476 l -497.8061,498.8198 C 1365.6715,1521.806 1332.214,1536 1297.7428,1536 c -52.7209,0 -79.0813,-24.3326 -113.5526,-59.8178 l 476.515,-476.5148 c 23.3189,-23.3189 37.5129,-56.7763 37.5129,-91.2476 0,-34.4713 -14.194,-67.92868 -37.5129,-92.26136 L 935.79419,92.2614 C 884.08726,40.55446 785.74268,0 713.75851,0 h 227.10498 c 71.98421,0 170.32871,40.55446 222.03571,92.2614 l 724.911,723.89704 c 23.3187,24.33268 37.5128,57.79006 37.5128,92.26136 z"
     style="stroke-width:1.01386" />
</svg>
