<svg
   width="2359.2019"
   height="1536"
   xmlns="http://www.w3.org/2000/svg"
   viewBox="0 0 2359.2019 1536"
   fill="currentColor">
  <path
     d="m 817.1277,745.6692 -665.99302,665.993 c -18.5792,18.5793 -47.16259,18.5793 -65.741798,0 l -71.458479,-71.4584 c -18.579204,-18.5792 -18.579204,-47.1626 0,-65.7418 L 575.59805,712.7983 13.934403,151.13468 c -18.579204,-18.5792 -18.579204,-47.16259 0,-65.7418 L 85.392882,13.9344 c 18.579208,-18.5792 47.162598,-18.5792 65.741798,0 l 665.99302,665.993 c 18.57921,18.5792 18.57921,47.1626 0,65.7418 z m 1542.074,653.1305 v 91.4669 c 0,25.725 -20.0084,45.7334 -45.7335,45.7334 H 941.46546 c -25.72506,0 -45.73343,-20.0084 -45.73343,-45.7334 v -91.4669 c 0,-25.725 20.00837,-45.7334 45.73343,-45.7334 H 2313.4682 c 25.7251,0 45.7335,20.0084 45.7335,45.7334 z"
     style="stroke-width:1.42917" />
</svg>
