<svg
   width="1954.9091"
   height="1536"
   xmlns="http://www.w3.org/2000/svg"
   viewBox="0 0 1954.9091 1536"
   fill="currentColor">
  <path
     d="m 558.54545,1221.8182 v 209.4545 c 0,57.8182 -46.90909,104.7273 -104.72727,104.7273 H 104.72727 C 46.909091,1536 0,1489.0909 0,1431.2727 V 1221.8182 C 0,1164 46.909091,1117.0909 104.72727,1117.0909 h 349.09091 c 57.81818,0 104.72727,46.9091 104.72727,104.7273 z m 0,-558.54547 v 209.45454 c 0,57.81818 -46.90909,104.72728 -104.72727,104.72728 H 104.72727 C 46.909091,977.45455 0,930.54545 0,872.72727 V 663.27273 C 0,605.45455 46.909091,558.54545 104.72727,558.54545 h 349.09091 c 57.81818,0 104.72727,46.9091 104.72727,104.72728 z m 698.18185,558.54547 v 209.4545 C 1256.7273,1489.0909 1209.8182,1536 1152,1536 H 802.90909 c -57.81818,0 -104.72727,-46.9091 -104.72727,-104.7273 v -209.4545 c 0,-57.8182 46.90909,-104.7273 104.72727,-104.7273 H 1152 c 57.8182,0 104.7273,46.9091 104.7273,104.7273 z M 558.54545,104.72727 v 209.45455 c 0,57.81818 -46.90909,104.72727 -104.72727,104.72727 H 104.72727 C 46.909091,418.90909 0,372 0,314.18182 V 104.72727 C 0,46.909091 46.909091,0 104.72727,0 h 349.09091 c 57.81818,0 104.72727,46.909091 104.72727,104.72727 z m 698.18185,558.54546 v 209.45454 c 0,57.81818 -46.9091,104.72728 -104.7273,104.72728 H 802.90909 c -57.81818,0 -104.72727,-46.9091 -104.72727,-104.72728 V 663.27273 c 0,-57.81818 46.90909,-104.72728 104.72727,-104.72728 H 1152 c 57.8182,0 104.7273,46.9091 104.7273,104.72728 z m 698.1818,558.54547 v 209.4545 C 1954.9091,1489.0909 1908,1536 1850.1818,1536 h -349.0909 c -57.8182,0 -104.7273,-46.9091 -104.7273,-104.7273 v -209.4545 c 0,-57.8182 46.9091,-104.7273 104.7273,-104.7273 h 349.0909 c 57.8182,0 104.7273,46.9091 104.7273,104.7273 z M 1256.7273,104.72727 V 314.18182 C 1256.7273,372 1209.8182,418.90909 1152,418.90909 H 802.90909 C 745.09091,418.90909 698.18182,372 698.18182,314.18182 V 104.72727 C 698.18182,46.909091 745.09091,0 802.90909,0 H 1152 c 57.8182,0 104.7273,46.909091 104.7273,104.72727 z m 698.1818,558.54546 v 209.45454 c 0,57.81818 -46.9091,104.72728 -104.7273,104.72728 h -349.0909 c -57.8182,0 -104.7273,-46.9091 -104.7273,-104.72728 V 663.27273 c 0,-57.81818 46.9091,-104.72728 104.7273,-104.72728 h 349.0909 c 57.8182,0 104.7273,46.9091 104.7273,104.72728 z m 0,-558.54546 V 314.18182 C 1954.9091,372 1908,418.90909 1850.1818,418.90909 h -349.0909 c -57.8182,0 -104.7273,-46.90909 -104.7273,-104.72727 V 104.72727 C 1396.3636,46.909091 1443.2727,0 1501.0909,0 h 349.0909 C 1908,0 1954.9091,46.909091 1954.9091,104.72727 Z"
     style="stroke-width:1.09091" />
</svg>
