<svg
   width="1536"
   height="1536"
   xmlns="http://www.w3.org/2000/svg"
   viewBox="0 0 1536 1536"
   fill="currentColor">
  <path
     d="m 1536,1236.0404 c 0,32.3232 -12.9293,64.6465 -36.202,87.9192 l -175.8384,175.8384 c -23.2727,23.2727 -55.596,36.202 -87.9192,36.202 -32.3232,0 -64.6465,-12.9293 -87.9192,-36.202 L 768,1119.6768 387.87879,1499.798 C 364.60606,1523.0707 332.28283,1536 299.9596,1536 c -32.32324,0 -64.64647,-12.9293 -87.9192,-36.202 L 36.20202,1323.9596 C 12.92929,1300.6869 0,1268.3636 0,1236.0404 c 0,-32.3232 12.92929,-64.6465 36.20202,-87.9192 L 416.32323,768 36.20202,387.87879 C 12.92929,364.60606 0,332.28283 0,299.9596 0,267.63636 12.92929,235.31313 36.20202,212.0404 L 212.0404,36.20202 C 235.31313,12.92929 267.63636,0 299.9596,0 c 32.32323,0 64.64646,12.92929 87.91919,36.20202 L 768,416.32323 1148.1212,36.20202 C 1171.3939,12.92929 1203.7172,0 1236.0404,0 c 32.3232,0 64.6465,12.92929 87.9192,36.20202 L 1499.798,212.0404 c 23.2727,23.27273 36.202,55.59596 36.202,87.9192 0,32.32323 -12.9293,64.64646 -36.202,87.91919 L 1119.6768,768 1499.798,1148.1212 c 23.2727,23.2727 36.202,55.596 36.202,87.9192 z"
     style="stroke-width:1.29293" />
</svg>
