<svg
   width="1408"
   height="1536"
   viewBox="0 0 1408 1536"
   xmlns="http://www.w3.org/2000/svg"
   fill="currentColor">
  <path
     d="m 512,608 v 576 c 0,18 -14,32 -32,32 h -64 c -18,0 -32,-14 -32,-32 V 608 c 0,-18 14,-32 32,-32 h 64 c 18,0 32,14 32,32 z m 256,0 v 576 c 0,18 -14,32 -32,32 h -64 c -18,0 -32,-14 -32,-32 V 608 c 0,-18 14,-32 32,-32 h 64 c 18,0 32,14 32,32 z m 256,0 v 576 c 0,18 -14,32 -32,32 h -64 c -18,0 -32,-14 -32,-32 V 608 c 0,-18 14,-32 32,-32 h 64 c 18,0 32,14 32,32 z m 128,724 V 384 H 256 v 948 c 0,48 27,76 32,76 h 832 c 5,0 32,-28 32,-76 z M 480,256 H 928 L 880,139 c -3,-4 -12,-10 -17,-11 H 546 c -6,1 -14,7 -17,11 z m 928,32 v 64 c 0,18 -14,32 -32,32 h -96 v 948 c 0,110 -72,204 -160,204 H 288 c -88,0 -160,-90 -160,-200 V 384 H 32 C 14,384 0,370 0,352 V 288 C 0,270 14,256 32,256 H 341 L 411,89 C 431,40 491,0 544,0 h 320 c 53,0 113,40 133,89 l 70,167 h 309 c 18,0 32,14 32,32 z" />
</svg>
