<svg
   width="1597.4399"
   height="1536"
   viewBox="0 0 1597.44 1536"
   xmlns="http://www.w3.org/2000/svg"
   fill="currentColor">
  <path
     d="m 1228.8,1351.68 c 0,-33.6 -27.84,-61.44 -61.44,-61.44 -33.6,0 -61.44,27.84 -61.44,61.44 0,33.6 27.84,61.44 61.44,61.44 33.6,0 61.44,-27.84 61.44,-61.44 z m 245.76,0 c 0,-33.6 -27.84,-61.44 -61.44,-61.44 -33.6,0 -61.44,27.84 -61.44,61.44 0,33.6 27.84,61.44 61.44,61.44 33.6,0 61.44,-27.84 61.44,-61.44 z m 122.88,-215.04 v 307.2 c 0,50.88 -41.28,92.16 -92.16,92.16 H 92.16 C 41.28,1536 0,1494.72 0,1443.84 v -307.2 c 0,-50.88 41.28,-92.16 92.16,-92.16 h 409.92 c 25.92,71.04 94.08,122.88 173.76,122.88 H 921.6 c 79.68,0 147.84,-51.84 173.76,-122.88 h 409.92 c 50.88,0 92.16,41.28 92.16,92.16 z m -312,-622.08 c -9.6,23.04 -31.68,38.4 -56.64,38.4 H 983.04 v 430.08 c 0,33.6 -27.84,61.44 -61.44,61.44 H 675.84 c -33.6,0 -61.44,-27.84 -61.44,-61.44 V 552.96 H 368.64 c -24.96,0 -47.04,-15.36 -56.64,-38.4 -9.6,-22.08 -4.8,-48.96 13.44,-66.24 L 755.52,18.24 C 767.04,5.76 783.36,0 798.72,0 c 15.36,0 31.68,5.76 43.2,18.24 L 1272,448.32 c 18.24,17.28 23.04,44.16 13.44,66.24 z"
     style="stroke-width:0.96" />
</svg>
