<svg
   width="1645.725"
   height="1536"
   xmlns="http://www.w3.org/2000/svg"
   viewBox="0 0 1645.725 1536"
   fill="currentColor">
  <path
     d="m 508.29095,768 c -89.14286,2.57143 -169.71428,41.14286 -227.14286,109.71429 H 166.29095 C 80.576661,877.71429 0.00523328,836.57143 0.00523328,741.42857 0.00523328,672 -2.5661953,438.85714 106.29095,438.85714 c 18,0 107.14286,72.85715 222.85714,72.85715 39.42858,0 77.14286,-6.85715 114,-19.71429 -2.57142,18.85714 -4.28571,37.71429 -4.28571,56.57143 0,78 24.85714,155.14286 69.42857,219.42857 z m 917.99995,546 c 0,138.8571 -91.7142,222 -228.8571,222 H 448.29095 c -137.14286,0 -228.85714,-83.1429 -228.85714,-222 0,-193.7143 45.42857,-491.14286 296.57143,-491.14286 29.14285,0 135.42857,119.14286 306.85714,119.14286 171.42857,0 277.71432,-119.14286 306.85712,-119.14286 251.1429,0 296.5714,297.42856 296.5714,491.14286 z M 548.57667,219.42857 c 0,120.85714 -98.57143,219.42857 -219.42858,219.42857 -120.85714,0 -219.42857,-98.57143 -219.42857,-219.42857 C 109.71952,98.571429 208.29095,0 329.14809,0 450.00524,0 548.57667,98.571429 548.57667,219.42857 Z m 603.42853,329.14286 c 0,181.71428 -147.4285,329.14286 -329.14282,329.14286 -181.71429,0 -329.14286,-147.42858 -329.14286,-329.14286 0,-181.71429 147.42857,-329.14286 329.14286,-329.14286 181.71432,0 329.14282,147.42857 329.14282,329.14286 z m 493.7143,192.85714 c 0,95.14286 -80.5714,136.28572 -166.2857,136.28572 h -114.8571 c -57.4286,-68.57143 -138,-107.14286 -227.1429,-109.71429 44.5714,-64.28571 69.4286,-141.42857 69.4286,-219.42857 0,-18.85714 -1.7143,-37.71429 -4.2857,-56.57143 36.8571,12.85714 74.5714,19.71429 114,19.71429 115.7142,0 204.8571,-72.85715 222.8571,-72.85715 108.8571,0 106.2857,233.14286 106.2857,302.57143 z m -109.7143,-522 c 0,120.85714 -98.5714,219.42857 -219.4285,219.42857 -120.8572,0 -219.4286,-98.57143 -219.4286,-219.42857 C 1097.1481,98.571429 1195.7195,0 1316.5767,0 c 120.8571,0 219.4285,98.571429 219.4285,219.42857 z"
     style="stroke-width:0.857143" />
</svg>
