<svg
   width="2162.512"
   height="1536"
   viewBox="0 0 2162.512 1536"
   xmlns="http://www.w3.org/2000/svg"
   fill="currentColor">
  <path
     d="m 1081.2559,1536 c -28.6279,0 -182.77848,-154.1505 -182.77848,-183.8796 0,-53.9527 140.93768,-83.6817 182.77848,-83.6817 41.8409,0 182.7785,29.729 182.7785,83.6817 0,29.7291 -154.1505,183.8796 -182.7785,183.8796 z m 297.2903,-298.3914 c -15.415,0 -135.4322,-110.1075 -297.2903,-110.1075 -162.95913,0 -280.77418,110.1075 -297.29031,110.1075 -26.42581,0 -186.08172,-158.5548 -186.08172,-184.9806 0,-9.9097 4.4043,-18.7183 11.01075,-25.3248 117.81506,-116.71395 309.40215,-181.67739 472.36128,-181.67739 162.9592,0 354.5463,64.96344 472.3613,181.67739 6.6065,6.6065 11.0108,15.4151 11.0108,25.3248 0,26.4258 -159.656,184.9806 -186.0818,184.9806 z m 300.5936,-299.49247 c -8.8086,0 -18.7183,-4.4043 -25.3247,-8.8086 -181.6775,-140.93764 -334.7269,-224.61936 -572.5592,-224.61936 -332.52472,0 -585.77203,233.42796 -597.88386,233.42796 -25.32473,0 -183.87957,-158.55484 -183.87957,-184.98065 0,-8.8086 4.4043,-17.6172 11.01076,-24.22365 C 507.5957,531.81935 804.88602,422.8129 1081.2559,422.8129 c 276.3699,0 573.6602,109.00645 770.7527,306.09893 6.6065,6.60645 11.0108,15.41505 11.0108,24.22365 0,26.42581 -158.5549,184.98065 -183.8796,184.98065 z m 298.3914,-298.3914 c -8.8086,0 -17.6172,-4.4043 -24.2237,-9.90968 -254.3484,-223.51828 -528.5161,-347.93978 -872.0516,-347.93978 -343.53547,0 -617.70321,124.4215 -872.0516,347.93978 -6.60645,5.50538 -15.41505,9.90968 -24.22365,9.90968 C 159.65591,639.72473 0,481.16989 0,454.74409 0,444.83441 4.404301,436.02581 11.010753,429.41935 289.5828,153.04946 691.47527,0 1081.2559,0 c 389.7807,0 791.6731,153.04946 1070.2452,429.41935 6.6064,6.60646 11.0107,15.41506 11.0107,25.32474 0,26.4258 -159.6559,184.98064 -184.9806,184.98064 z"
     style="stroke-width:1.10108" />
</svg>
