<?xml version="1.0" encoding="UTF-8" standalone="no"?>
<svg
   xmlns:dc="http://purl.org/dc/elements/1.1/"
   xmlns:cc="http://creativecommons.org/ns#"
   xmlns:rdf="http://www.w3.org/1999/02/22-rdf-syntax-ns#"
   xmlns:svg="http://www.w3.org/2000/svg"
   xmlns="http://www.w3.org/2000/svg"
   xmlns:sodipodi="http://sodipodi.sourceforge.net/DTD/sodipodi-0.dtd"
   xmlns:inkscape="http://www.inkscape.org/namespaces/inkscape"
   width="512"
   height="512"
   version="1.1"
   viewBox="0 0 512 512"
   xml:space="preserve"
   id="svg940"
   sodipodi:docname="wireguard.svg"
   inkscape:version="0.92.4 (5da689c313, 2019-01-14)"><metadata
     id="metadata944"><rdf:RDF><cc:Work
         rdf:about=""><dc:format>image/svg+xml</dc:format><dc:type
           rdf:resource="http://purl.org/dc/dcmitype/StillImage" /><dc:title></dc:title></cc:Work></rdf:RDF></metadata><sodipodi:namedview
     pagecolor="#ffffff"
     bordercolor="#666666"
     borderopacity="1"
     objecttolerance="10"
     gridtolerance="10"
     guidetolerance="10"
     inkscape:pageopacity="0"
     inkscape:pageshadow="2"
     inkscape:window-width="1581"
     inkscape:window-height="962"
     id="namedview942"
     showgrid="false"
     fit-margin-left="0"
     inkscape:zoom="0.59"
     inkscape:cx="200"
     inkscape:cy="200"
     inkscape:window-x="1320"
     inkscape:window-y="821"
     inkscape:window-maximized="0"
     inkscape:current-layer="svg940" /><defs
     id="defs910"><clipPath
       id="a"><path
         d="M 0,300 H 300 V 0 H 0 Z"
         id="path907"
         inkscape:connector-curvature="0" /></clipPath></defs><g
     transform="matrix(1.706675,0,0,-1.7066667,0,512)"
     id="g938"><g
       clip-path="url(#a)"
       id="g936"><g
         transform="translate(177.57,268.56)"
         id="g914"><path
           d="M 0,0 C 0.969,-0.066 2.097,0.81 3.987,1.635 2.125,2.437 1.014,3.29 0.048,3.228 -0.948,3.165 -2.544,2.197 -2.519,1.65 -2.492,1.047 -0.987,0.067 0,0"
           id="path912"
           inkscape:connector-curvature="0"
           style="fill:#871719" /></g><g
         transform="translate(179.32,268.11)"
         id="g918"><path
           d="M 0,0 C 0.969,-0.066 2.097,0.81 3.987,1.635 2.125,2.437 1.014,3.29 0.048,3.228 -0.948,3.165 -2.544,2.197 -2.519,1.65 -2.492,1.047 -0.987,0.067 0,0"
           id="path916"
           inkscape:connector-curvature="0"
           style="fill:#871719" /></g><g
         transform="translate(299.74,154.44)"
         id="g922"><path
           d="m 0,0 c 0,0 6.94,145.56 -153.04,145.56 -141.48,0 -145.9,-139.63 -145.9,-139.63 0,0 -20.811,-160.37 149.16,-160.37 C 13.24,-154.44 0,0 0,0"
           id="path920"
           inkscape:connector-curvature="0"
           style="fill:#871719" /></g><g
         transform="translate(133.86,128.17)"
         id="g926"><path
           d="m 0,0 c -2.627,-1.39 -4.65,-2.414 -6.63,-3.517 -8.1,-4.512 -15.026,-10.419 -20.544,-17.868 -1.784,-2.409 -3.01,-2.603 -5.727,-0.941 -35.338,21.61 -37.609,75.843 0.983,99.453 C -1.901,95.491 36.447,84.267 50.817,56.65 53.54,51.416 53.886,43.359 52.162,37.868 46.207,18.913 32.147,8.282 12.849,3.766 18.538,8.636 23.067,14.159 24.508,21.791 25.96,29.478 24.424,36.429 19.966,42.747 13.193,52.343 0.098,56.291 -10.845,52.136 -22.726,47.625 -29.235,36.782 -28.061,23.453 -26.971,11.072 -17.577,3.048 0,0"
           id="path924"
           inkscape:connector-curvature="0"
           style="fill:#ffffff" /></g><g
         transform="translate(58.513,66.293)"
         id="g930"><path
           d="M 0,0 C 2.838,19.152 25.265,36.788 44.23,34.776 38.356,26.832 35.643,17.846 34.988,8.883 28.686,7.722 22.747,6.941 16.981,5.478 11.304,4.037 5.803,1.903 0,0"
           id="path928"
           inkscape:connector-curvature="0"
           style="fill:#ffffff" /></g><g
         transform="translate(183.79,273.09)"
         id="g934"><path
           d="M 0,0 C 1.061,0.812 2.155,1.494 3.472,0.408 4.222,-0.209 4.95,-0.849 5.858,-1.624 4.731,-2.219 3.816,-2.72 2.883,-3.191 1.577,-3.849 0.601,-3.409 -0.189,-2.369 -0.831,-1.525 -0.946,-0.724 0,0 m 15.447,-157.8 c -1.598,1.382 -2.611,1.381 -4.485,0.182 -6.359,-4.068 -12.867,-7.922 -19.481,-11.562 -3.792,-2.086 -7.898,-3.599 -12.653,-5.724 1.633,-0.421 2.418,-0.619 3.201,-0.827 17.776,-4.73 27.272,-20.335 23.065,-37.813 -3.741,-15.544 -19.52,-25.482 -34.812,-22.86 -12.748,2.186 -23.877,12.772 -25.735,25.456 -2.026,13.824 4.859,27.119 17.108,32.689 6.794,3.089 13.771,5.778 20.549,8.9 7.706,3.551 16.038,6.355 22.766,11.296 16.7,12.262 27.012,29.145 31.033,49.523 2.408,12.207 2.245,24.36 -3.339,35.95 -4.286,8.895 -11.319,15.357 -18.875,21.253 -7.775,6.068 -16.007,11.554 -23.747,17.664 -2.095,1.653 -3.509,4.505 -4.478,7.09 -0.411,1.095 0.925,4.066 1.819,4.227 4.746,0.852 9.596,1.29 14.425,1.473 5.574,0.21 11.164,0.032 16.746,-0.042 1.21,-0.015 2.853,0.141 3.549,-0.542 2.891,-2.843 5.159,-1.014 7.166,0.856 1.689,1.573 2.893,3.668 4.236,5.433 -0.815,0.12 -2.487,0.541 -4.168,0.581 -5.613,0.133 -11.233,0.047 -16.843,0.253 -1,0.037 -1.963,1.066 -2.942,1.637 1.031,0.409 2.058,1.165 3.093,1.175 9.682,0.091 19.366,0.054 29.057,0.054 C 41.713,-6.44 34.98,0.458 28.998,2.328 28.953,1.646 28.911,1.011 28.867,0.334 22.923,0.193 17.089,0.304 11.789,3.122 10.393,3.865 9.48,5.516 8.343,6.749 6.912,8.3 5.738,10.296 3.994,11.308 c -3.576,2.076 -7.48,3.58 -11.211,5.397 -13.259,6.458 -27.262,6.231 -42.302,4.854 8.991,-2.092 17.11,-3.982 25.23,-5.872 -0.093,-0.494 -0.185,-0.987 -0.278,-1.481 -10.86,-1.455 -21.134,2.528 -31.756,4.003 3.849,-2.254 7.749,-4.35 11.778,-6.158 4.095,-1.837 8.316,-3.39 12.538,-5.091 -5.364,-4.583 -10.746,-5.588 -17.488,-4.048 -3.686,0.842 -7.585,1.29 -11.348,1.106 -3.887,-0.19 -7.802,-1.147 -11.332,-3.506 3.78,-1.916 7.263,-3.506 10.549,-5.432 1.355,-0.795 2.909,-2.144 3.287,-3.536 0.904,-3.333 1.166,-6.841 1.687,-10.281 -6.188,-0.701 -17.071,-6.994 -19.27,-11.09 9.512,-1.831 19.868,0.383 28.942,-5.746 -2.989,-2.262 -9.949,-5.075 -12.502,-7.007 3.156,-0.827 10.469,-0.423 13.33,-0.229 2.409,0.164 3.521,0.223 4.508,-0.59 l 28.001,-21.921 c 2.944,-2.374 14.835,-13.629 17.939,-20.704 2.643,-6.023 2.966,-11.148 2.965,-12.398 -0.002,-3.355 -0.413,-8.609 -2.721,-14.469 -0.969,-2.461 -3.812,-7.912 -9.677,-14.267 -9.09,-9.847 -20.783,-15.17 -33.57,-17.807 -29.732,-6.13 -54.436,-37.881 -47.462,-72.884 8.142,-40.866 53.247,-62.991 90.107,-43.552 23.824,12.564 36.456,37.078 33.072,63.762 -2.045,16.12 -9.338,29.269 -21.563,39.839"
           id="path932"
           inkscape:connector-curvature="0"
           style="fill:#ffffff" /></g></g></g></svg>