<svg
   width="1534.13"
   height="1536"
   xmlns="http://www.w3.org/2000/svg"
   viewBox="0 0 1534.13 1536"
   fill="currentColor">
  <path
     d="m 339.35971,1256.4723 c 0,-32.7206 -27.11138,-59.832 -59.83202,-59.832 -32.72063,0 -59.83201,27.1114 -59.83201,59.832 0,32.7206 27.11138,59.832 59.83201,59.832 32.72064,0 59.83202,-27.1114 59.83202,-59.832 z M 941.41935,863.82471 303.83445,1501.4096 C 282.33232,1522.9117 251.48144,1536 219.69568,1536 c -31.78576,0 -62.63664,-13.0883 -85.07365,-34.5904 L 35.525259,1400.4431 C 13.088253,1378.941 0,1348.0901 0,1316.3043 c 0,-31.7857 13.088253,-62.6366 35.525259,-85.0736 L 672.17529,594.58065 C 720.7888,717.0493 818.9507,815.2112 941.41935,863.82471 Z M 1534.1302,457.15399 c 0,30.85088 -11.2185,69.18076 -21.5021,99.09677 C 1453.731,722.65855 1293.8673,837.6482 1117.1759,837.6482 886.26172,837.6482 698.3518,649.73828 698.3518,418.8241 698.3518,187.90992 886.26172,0 1117.1759,0 c 68.2459,0 157.059,20.567255 214.0864,58.897139 9.3488,6.544127 14.958,14.958004 14.958,26.176507 0,10.283627 -6.5441,20.567254 -14.958,26.176504 l -273.9184,157.99392 v 209.41205 l 180.4309,100.03165 c 30.8509,-17.76263 247.7419,-154.25442 266.4394,-154.25442 18.6975,0 29.916,14.02313 29.916,32.72064 z"
     style="stroke-width:0.934875" />
</svg>
