<svg
   viewBox="0 0 512 512"
   width="512"
   height="512"
   xmlns="http://www.w3.org/2000/svg">
  <defs>
    <linearGradient
       id="autoidmagic-gradientBackground"
       x2="5"
       gradientUnits="userSpaceOnUse"
       y2="103"
       gradientTransform="matrix(5.2244898,0,0,5.2244898,-26.122449,-26.122447)">
      <stop
         id="autoidmagic-gradientBackgroundStart"
         stop-color="#2883f2"
         offset="0" />
      <stop
         id="autoidmagic-gradientBackgroundEnd"
         stop-color="#0c56b2"
         offset="1" />
    </linearGradient>
    <linearGradient
       id="autoidmagic-gradientLongShadow"
       y2="5"
       gradientUnits="userSpaceOnUse"
       y1="5"
       x2="103"
       x1="5"
       gradientTransform="matrix(5.2244898,0,0,5.2244898,-26.122449,-26.122447)">
      <stop
         stop-color="#1a237e"
         stop-opacity=".25"
         offset="0" />
      <stop
         stop-opacity="0"
         offset="1" />
    </linearGradient>
    <radialGradient
       id="autoidmagic-gradientFinish"
       gradientUnits="userSpaceOnUse"
       cy="0"
       cx="0"
       r="108"
       gradientTransform="matrix(5.2244898,0,0,5.2244898,-26.122449,-26.122447)">
      <stop
         stop-color="#fff"
         stop-opacity=".1"
         offset="0" />
      <stop
         stop-color="#fff"
         stop-opacity="0"
         offset="1" />
    </radialGradient>
    <filter
       id="autoidmagic-blurShadow"
       style="color-interpolation-filters:linearRGB"
       x="-0.088888889"
       y="-0.088888889"
       width="1.1777778"
       height="1.1777778">
      <feGaussianBlur
         stdDeviation="2" />
    </filter>
  </defs>
  <path
     d="M 0,0 H 512 V 389.22449 H 397.06123 V 512 L 256,389.22449 H 0 Z"
     style="fill:url(#autoidmagic-gradientBackground);stroke-width:5.22449" />
  <path
     d="M 0,0 H 512 V 5.2244919 H 0 Z"
     style="fill:#ffffff;fill-opacity:0.2;stroke-width:5.22449" />
  <path
     d="M 0,384 H 256 L 397.06123,506.77551 V 384 H 512 v 5.22449 H 397.06123 V 512 L 256,389.22449 H 0 Z"
     style="fill:#212121;fill-opacity:0.2;stroke-width:5.22449" />
  <path
     d="M 156.26449,293.04164 A 141.06123,141.06123 0 0 1 355.73551,93.570613 L 512,249.8351 V 389.22449 H 397.06123 V 512 L 256,389.22449 h -3.55265"
     style="fill:url(#autoidmagic-gradientLongShadow);stroke-width:5.22449" />
  <path
     d="m 27,42 a 27,27 0 1 0 54,0 h -7 a 20,20 0 0 1 -40,0 20,20 0 0 1 40,0 h 7 a 27,27 0 1 0 -54,0 m 30.34,8.84 a 5.5,5.5 0 1 0 11,0 5.5,5.5 0 1 0 -11,0"
     transform="matrix(5.2244898,0,0,5.2244898,-26.122449,-26.122447)"
     style="fill:#000000;fill-opacity:0.25;filter:url(#autoidmagic-blurShadow)" />
  <path
     d="m 114.93877,193.30612 a 141.06123,141.06123 0 1 0 282.12246,0 H 360.4898 a 104.4898,104.4898 0 0 1 -208.9796,0 104.4898,104.4898 0 0 1 208.9796,0 h 36.57143 a 141.06123,141.06123 0 1 0 -282.12246,0 m 158.51103,46.18449 a 28.734694,28.734694 0 1 0 57.46938,0 28.734694,28.734694 0 1 0 -57.46938,0"
     style="fill:#ffffff;stroke-width:5.22449" />
  <path
     d="m 151.5102,190.69388 v 2.61224 a 104.4898,104.4898 0 0 1 208.9796,0 v -2.61224 a 104.4898,104.4898 0 1 0 -208.9796,0 h -36.57143 v 2.61224 a 141.06123,141.06123 0 1 0 282.12246,0 v -2.61224 a 141.06123,141.06123 0 0 1 -282.12246,0 m 158.51103,46.18448 v 2.61225 a 28.734694,28.734694 0 1 0 57.46938,0 v -2.61225 a 28.734694,28.734694 0 0 1 -57.46938,0"
     style="fill:#e5e5e5;stroke-width:5.22449" />
  <path
     d="M 0,0 H 512 V 389.22449 H 397.06123 V 512 L 256,389.22449 H 0 Z"
     style="fill:url(#autoidmagic-gradientFinish);stroke-width:5.22449" />
</svg>
