<?xml version="1.0" encoding="UTF-8" standalone="no"?>
<svg
   xmlns:dc="http://purl.org/dc/elements/1.1/"
   xmlns:cc="http://creativecommons.org/ns#"
   xmlns:rdf="http://www.w3.org/1999/02/22-rdf-syntax-ns#"
   xmlns:svg="http://www.w3.org/2000/svg"
   xmlns="http://www.w3.org/2000/svg"
   xmlns:sodipodi="http://sodipodi.sourceforge.net/DTD/sodipodi-0.dtd"
   xmlns:inkscape="http://www.inkscape.org/namespaces/inkscape"
   viewBox="0 0 864 864"
   version="1.1"
   width="512"
   height="512"
   id="svg71028"
   sodipodi:docname="quassel.svg"
   inkscape:version="0.92.4 (5da689c313, 2019-01-14)">
  <metadata
     id="metadata71032">
    <rdf:RDF>
      <cc:Work
         rdf:about="">
        <dc:format>image/svg+xml</dc:format>
        <dc:type
           rdf:resource="http://purl.org/dc/dcmitype/StillImage" />
        <dc:title></dc:title>
      </cc:Work>
    </rdf:RDF>
  </metadata>
  <sodipodi:namedview
     pagecolor="#ffffff"
     bordercolor="#666666"
     borderopacity="1"
     objecttolerance="10"
     gridtolerance="10"
     guidetolerance="10"
     inkscape:pageopacity="0"
     inkscape:pageshadow="2"
     inkscape:window-width="1837"
     inkscape:window-height="1313"
     id="namedview71030"
     showgrid="false"
     fit-margin-top="0"
     fit-margin-left="0"
     fit-margin-right="0"
     fit-margin-bottom="0"
     inkscape:zoom="1.3037281"
     inkscape:cx="306.96607"
     inkscape:cy="74.03558"
     inkscape:window-x="1201"
     inkscape:window-y="448"
     inkscape:window-maximized="0"
     inkscape:current-layer="svg71028" />
  <defs
     id="defs71010">
    <linearGradient
       id="gradientBackground"
       x2="5"
       gradientUnits="userSpaceOnUse"
       y2="103"
       gradientTransform="matrix(8.8163265,0,0,8.8163265,-44.081633,-44.08163)">
      <stop
         id="gradientBackgroundStart"
         stop-color="#2883f2"
         offset="0" />
      <stop
         id="gradientBackgroundEnd"
         stop-color="#0c56b2"
         offset="1" />
    </linearGradient>
    <linearGradient
       id="gradientLongShadow"
       y2="5"
       gradientUnits="userSpaceOnUse"
       y1="5"
       x2="103"
       x1="5"
       gradientTransform="matrix(8.8163265,0,0,8.8163265,-44.081633,-44.08163)">
      <stop
         stop-color="#1a237e"
         stop-opacity=".25"
         offset="0"
         id="stop70997" />
      <stop
         stop-opacity="0"
         offset="1"
         id="stop70999" />
    </linearGradient>
    <radialGradient
       id="gradientFinish"
       gradientUnits="userSpaceOnUse"
       cy="0"
       cx="0"
       r="108"
       gradientTransform="matrix(8.8163265,0,0,8.8163265,-44.081633,-44.08163)">
      <stop
         stop-color="#fff"
         stop-opacity=".1"
         offset="0"
         id="stop71002" />
      <stop
         stop-color="#fff"
         stop-opacity="0"
         offset="1"
         id="stop71004" />
    </radialGradient>
    <filter
       id="blurShadow"
       style="color-interpolation-filters:linearRGB">
      <feGaussianBlur
         stdDeviation="2"
         id="feGaussianBlur71007" />
    </filter>
  </defs>
  <path
     d="M 0,0 H 864 V 656.81633 H 670.04082 V 864 L 432,656.81633 H 0 Z"
     id="path71012"
     style="fill:url(#gradientBackground);stroke-width:8.81632614"
     inkscape:connector-curvature="0" />
  <path
     d="M 0,0 H 864 V 8.81633 H 0 Z"
     id="path71014"
     inkscape:connector-curvature="0"
     style="fill:#ffffff;fill-opacity:0.2;stroke-width:8.81632614" />
  <path
     d="M 0,648 H 432 L 670.04082,855.18367 V 648 H 864 v 8.81633 H 670.04082 V 864 L 432,656.81633 H 0 Z"
     id="path71016"
     inkscape:connector-curvature="0"
     style="fill:#212121;fill-opacity:0.2;stroke-width:8.81632614" />
  <path
     d="M 263.69633,494.50776 A 238.04082,238.04082 0 0 1 600.30367,157.90041 L 864,421.59673 v 235.2196 H 670.04082 V 864 L 432,656.81633 h -5.9951"
     id="path71018"
     style="fill:url(#gradientLongShadow);stroke-width:8.81632614"
     inkscape:connector-curvature="0" />
  <path
     d="m 27,42 a 27,27 0 1 0 54,0 h -7 a 20,20 0 0 1 -40,0 20,20 0 0 1 40,0 h 7 a 27,27 0 1 0 -54,0 m 30.34,8.84 a 5.5,5.5 0 1 0 11,0 5.5,5.5 0 1 0 -11,0"
     id="path71020"
     inkscape:connector-curvature="0"
     transform="matrix(8.8163265,0,0,8.8163265,-44.081633,-44.08163)"
     style="fill:#000000;fill-opacity:0.25;filter:url(#blurShadow)" />
  <path
     d="m 193.95918,326.20408 a 238.04082,238.04082 0 1 0 476.08164,0 h -61.71429 a 176.32653,176.32653 0 0 1 -352.65306,0 176.32653,176.32653 0 0 1 352.65306,0 h 61.71429 a 238.04082,238.04082 0 1 0 -476.08164,0 m 267.48735,77.93633 a 48.489796,48.489796 0 1 0 96.97959,0 48.489796,48.489796 0 1 0 -96.97959,0"
     id="path71022"
     inkscape:connector-curvature="0"
     style="fill:#ffffff;stroke-width:8.81632614" />
  <path
     d="m 255.67347,321.79592 v 4.40816 a 176.32653,176.32653 0 0 1 352.65306,0 v -4.40816 a 176.32653,176.32653 0 1 0 -352.65306,0 h -61.71429 v 4.40816 a 238.04082,238.04082 0 1 0 476.08164,0 v -4.40816 a 238.04082,238.04082 0 0 1 -476.08164,0 m 267.48735,77.93632 v 4.40817 a 48.489796,48.489796 0 1 0 96.97959,0 v -4.40817 a 48.489796,48.489796 0 0 1 -96.97959,0"
     id="path71024"
     inkscape:connector-curvature="0"
     style="fill:#e5e5e5;stroke-width:8.81632614" />
  <path
     d="M 0,0 H 864 V 656.81633 H 670.04082 V 864 L 432,656.81633 H 0 Z"
     id="path71026"
     style="fill:url(#gradientFinish);stroke-width:8.81632614"
     inkscape:connector-curvature="0" />
</svg>
