<?xml version="1.0" encoding="UTF-8" standalone="no"?>
<!-- Created with Inkscape (http://www.inkscape.org/) -->

<svg
   xmlns:dc="http://purl.org/dc/elements/1.1/"
   xmlns:cc="http://creativecommons.org/ns#"
   xmlns:rdf="http://www.w3.org/1999/02/22-rdf-syntax-ns#"
   xmlns:svg="http://www.w3.org/2000/svg"
   xmlns="http://www.w3.org/2000/svg"
   xmlns:xlink="http://www.w3.org/1999/xlink"
   xmlns:sodipodi="http://sodipodi.sourceforge.net/DTD/sodipodi-0.dtd"
   xmlns:inkscape="http://www.inkscape.org/namespaces/inkscape"
   width="1500"
   height="1115"
   id="svg14507"
   version="1.1"
   inkscape:version="0.91 r13725"
   sodipodi:docname="FreedomBox-logo-white.svg">
  <defs
     id="defs14509">
    <linearGradient
       inkscape:collect="always"
       xlink:href="#linearGradient10958-4"
       id="linearGradient14441"
       gradientUnits="userSpaceOnUse"
       gradientTransform="translate(-1834.4685,224.95153)"
       x1="2677.0659"
       y1="-1001.1581"
       x2="2677.0659"
       y2="-1126.5048" />
    <linearGradient
       inkscape:collect="always"
       id="linearGradient10958-4">
      <stop
         style="stop-color:#646464;stop-opacity:1"
         offset="0"
         id="stop10960-1" />
      <stop
         style="stop-color:#969696;stop-opacity:1"
         offset="1"
         id="stop10962-1" />
    </linearGradient>
    <radialGradient
       inkscape:collect="always"
       xlink:href="#linearGradient12651"
       id="radialGradient14443"
       gradientUnits="userSpaceOnUse"
       gradientTransform="matrix(-7.2244231,7.2244502,-7.2148432,-7.214843,5889.8349,216.70132)"
       cx="245.80219"
       cy="466.2821"
       fx="245.80219"
       fy="466.2821"
       r="34.49239" />
    <linearGradient
       id="linearGradient12651">
      <stop
         id="stop12653"
         offset="0"
         style="stop-color:#61a6ed;stop-opacity:1" />
      <stop
         id="stop12657"
         offset="1"
         style="stop-color:#257edb;stop-opacity:1" />
    </linearGradient>
    <linearGradient
       id="linearGradient13380">
      <stop
         style="stop-color:#868686;stop-opacity:1"
         offset="0"
         id="stop13382" />
      <stop
         style="stop-color:#4d4d4d;stop-opacity:1"
         offset="1"
         id="stop13384" />
    </linearGradient>
  </defs>
  <sodipodi:namedview
     id="base"
     pagecolor="#ffffff"
     bordercolor="#666666"
     borderopacity="1.0"
     inkscape:pageopacity="0.0"
     inkscape:pageshadow="2"
     inkscape:zoom="0.29166667"
     inkscape:cx="1022.6857"
     inkscape:cy="357.34281"
     inkscape:document-units="px"
     inkscape:current-layer="g13600"
     showgrid="false"
     fit-margin-top="0"
     fit-margin-left="0"
     fit-margin-right="0"
     fit-margin-bottom="0"
     inkscape:window-width="1440"
     inkscape:window-height="805"
     inkscape:window-x="0"
     inkscape:window-y="1"
     inkscape:window-maximized="1" />
  <metadata
     id="metadata14512">
    <rdf:RDF>
      <cc:Work
         rdf:about="">
        <dc:format>image/svg+xml</dc:format>
        <dc:type
           rdf:resource="http://purl.org/dc/dcmitype/StillImage" />
        <dc:title></dc:title>
      </cc:Work>
    </rdf:RDF>
  </metadata>
  <g
     inkscape:label="Layer 1"
     inkscape:groupmode="layer"
     id="layer1"
     transform="translate(1170,216.56643)">
    <g
       id="g13600"
       transform="translate(-2672.219,1449.2669)">
      <path
         inkscape:connector-curvature="0"
         id="path13366"
         d="m 2040.3438,-1422.0805 c -12.2944,0.3444 -23.1688,4.1084 -30.1875,12.1562 -21.9405,25.1615 2.2109,48.5609 10.5937,80.375 11.1932,42.4518 -1.5363,87.6244 32.4375,117.3438 11.7012,10.2333 25.8307,12.9293 39.4063,14.1875 -17.8481,21.0296 -28.6094,50.1918 -22.75,80.1562 10.2556,52.4474 62.0982,87.3643 113.5,78.5938 29.3208,-5.0046 52.9132,-22.9697 65.75,-47.5 0.4673,-0.8094 1.5618,-0.8131 2.0312,0 12.8381,24.5246 36.4336,42.4961 65.75,47.5 51.4018,8.7705 103.0255,-26.1464 113.2813,-78.5938 5.8592,-29.9644 -4.6832,-59.1266 -22.5313,-80.1562 13.5756,-1.2582 27.4862,-3.9542 39.1875,-14.1875 33.9738,-29.7194 21.2443,-74.892 32.4375,-117.3438 8.3828,-31.8141 32.5029,-55.2135 10.5625,-80.375 -7.0187,-8.0478 -17.6432,-11.8117 -29.9375,-12.1562 -27.0502,-0.7631 -55.2287,10.0899 -83.7812,23.625 -28.5526,13.5351 -60.0552,36.7754 -79.875,61.6562 l 73.1562,42.5 -115.7187,67.1875 -10.125,127.4688 -2.625,-133.3438 -13.6875,-7.9375 -10.0625,126.3125 -2.625,-133.6875 -13.7188,-7.9687 -10.0312,126.7188 -2.6875,-134.0938 -13.625,-7.9062 -10.0938,127.0312 -2.6562,-134.4687 -13.5938,-7.875 -10.125,127.4062 -2.6562,-134.8437 70.0625,-40.6875 c -20.0559,-25.7166 -52.7714,-49.9356 -81.2813,-63.4688 -28.5099,-13.5332 -56.2117,-24.2288 -83.7812,-23.625 z"
         style="fill:#ffffff;fill-opacity:1;stroke:none"
         sodipodi:nodetypes="cccccsccccsccccczcccccccccccccccccczc" />
    </g>
  </g>
</svg>
