<?xml version="1.0" encoding="UTF-8" standalone="no"?>
<!-- Created with Inkscape (http://www.inkscape.org/) -->

<svg
   xmlns:dc="http://purl.org/dc/elements/1.1/"
   xmlns:cc="http://creativecommons.org/ns#"
   xmlns:rdf="http://www.w3.org/1999/02/22-rdf-syntax-ns#"
   xmlns:svg="http://www.w3.org/2000/svg"
   xmlns="http://www.w3.org/2000/svg"
   xmlns:sodipodi="http://sodipodi.sourceforge.net/DTD/sodipodi-0.dtd"
   xmlns:inkscape="http://www.inkscape.org/namespaces/inkscape"
   width="111.48425mm"
   height="86.076721mm"
   viewBox="0 0 395.02288 304.99626"
   id="svg2"
   version="1.1"
   inkscape:version="0.92.3 (2405546, 2018-03-11)"
   sodipodi:docname="freedombox-logo-background.svg">
  <defs
     id="defs4" />
  <sodipodi:namedview
     id="base"
     pagecolor="#ffffff"
     bordercolor="#666666"
     borderopacity="1.0"
     inkscape:pageopacity="0.0"
     inkscape:pageshadow="2"
     inkscape:zoom="0.7"
     inkscape:cx="253.51181"
     inkscape:cy="-88.105928"
     inkscape:document-units="px"
     inkscape:current-layer="layer1"
     showgrid="false"
     inkscape:snap-page="false"
     showguides="true"
     inkscape:window-width="1509"
     inkscape:window-height="1010"
     inkscape:window-x="1911"
     inkscape:window-y="108"
     inkscape:window-maximized="0"
     inkscape:guide-bbox="true"
     inkscape:measure-start="166.17,406.586"
     inkscape:measure-end="115.662,389.414"
     fit-margin-top="0"
     fit-margin-left="0"
     fit-margin-right="0"
     fit-margin-bottom="0" />
  <metadata
     id="metadata7">
    <rdf:RDF>
      <cc:Work
         rdf:about="">
        <dc:format>image/svg+xml</dc:format>
        <dc:type
           rdf:resource="http://purl.org/dc/dcmitype/StillImage" />
        <dc:title></dc:title>
      </cc:Work>
    </rdf:RDF>
  </metadata>
  <g
     inkscape:label="Layer 1"
     inkscape:groupmode="layer"
     id="layer1"
     transform="translate(-48.207506,-45.194866)">
    <path
       inkscape:connector-curvature="0"
       style="fill:#000000;fill-opacity:0.03137255;stroke:none;stroke-width:0.79384387"
       d="m 81.328607,45.19699 c -0.682706,-0.008 -1.363109,0.008 -2.034146,0.02461 -9.759911,0.273399 -18.392412,3.261428 -23.964239,9.650126 -17.417333,19.974303 1.755187,38.549772 8.409817,63.805204 8.885659,33.7001 -1.219581,69.56009 25.750316,93.15265 9.288925,8.12364 20.505545,10.26385 31.282455,11.26267 -14.16868,16.69421 -22.711402,39.84445 -18.05995,63.63151 7.37807,37.73179 41.86685,64.03994 78.64008,63.45789 1.26809,-0.0198 2.548,-0.089 3.82046,-0.17361 2.54482,-0.16925 5.09036,-0.45789 7.64074,-0.89308 21.82134,-3.72455 39.64631,-16.48369 50.18578,-34.11051 0.35136,-0.58753 0.68207,-1.18791 1.01715,-1.78615 0.33501,-0.59817 0.67382,-1.20236 0.99231,-1.81092 0.37089,-0.64254 1.23982,-0.64548 1.61246,0 0.31848,0.6084 0.6573,1.21284 0.9923,1.81092 7.70592,13.75588 19.74075,24.73331 34.65621,31.05914 0.64856,0.27507 1.30063,0.53664 1.95984,0.79385 4.61437,1.80083 9.49596,3.17474 14.58688,4.04367 3.82546,0.65271 7.65972,1.00652 11.46112,1.06669 0.63357,0.0103 1.2534,0.008 1.88538,0 1.26404,-0.0119 2.53927,-0.0492 3.7956,-0.12399 24.49787,-1.45091 47.31707,-14.71287 61.02675,-35.05321 0.35152,-0.52148 0.70248,-1.03208 1.04185,-1.56285 0.67882,-1.0616 1.33112,-2.15219 1.95984,-3.24984 1.88625,-3.29294 3.56182,-6.75013 4.96152,-10.34474 1.63302,-4.19371 2.90507,-8.56938 3.79553,-13.12326 4.65129,-23.78706 -3.71765,-46.9373 -17.88625,-63.63151 10.7769,-0.99882 21.81975,-3.13903 31.10875,-11.26267 26.96989,-23.59256 16.86466,-59.45255 25.75031,-93.15265 6.65464,-25.255432 25.80223,-43.830901 8.38498,-63.805204 -5.57175,-6.388698 -14.00594,-9.376647 -23.7657,-9.650126 -0.67914,-0.01905 -1.36787,-0.02858 -2.05908,-0.02461 -20.8411,-0.02223 -42.50954,8.378546 -64.45012,18.77933 -26.28012,12.456919 -45.1817,27.227814 -60.40659,45.29872 -0.51076,0.59379 -0.99374,1.21426 -1.48847,1.81099 -0.50321,0.6142 -1.01794,1.21395 -1.51322,1.83577 l 58.07461,33.73836 -91.86266,53.33639 -8.03768,101.19025 -2.08384,-105.85408 -10.86566,-6.30114 -7.98813,100.27241 -2.08384,-106.12701 -10.89051,-6.32598 -7.96328,100.59494 -2.13338,-106.44954 -10.81612,-6.27629 -8.01291,100.84294 -2.1086,-106.74716 -10.79136,-6.25151 -8.03767,101.14063 -2.1086,-107.04485 55.6186,-32.29952 c -0.50147,-0.64309 -1.00365,-1.27515 -1.51322,-1.91023 -0.18703,-0.22989 -0.38112,-0.46495 -0.57061,-0.69461 -14.74454,-18.182675 -32.94135,-33.086224 -58.14908,-45.670792 -1.43732,-0.735973 -2.87712,-1.437176 -4.29167,-2.108688 -1.04748,-0.49655 -2.12957,-0.99818 -3.24984,-1.513226 -20.09878,-9.360451 -39.71474,-16.679851 -59.215759,-17.216489 -0.671427,-0.02382 -1.348028,-0.04605 -2.009454,-0.04921 z"
       id="path13394"
       sodipodi:nodetypes="cccccccccccccccscccccccccsccccccccccccccccccccccccccccccccccc" />
  </g>
</svg>
