<?xml version="1.0" encoding="UTF-8" standalone="no"?>
<!-- Created with Inkscape (http://www.inkscape.org/) -->

<svg
   xmlns:dc="http://purl.org/dc/elements/1.1/"
   xmlns:cc="http://creativecommons.org/ns#"
   xmlns:rdf="http://www.w3.org/1999/02/22-rdf-syntax-ns#"
   xmlns:svg="http://www.w3.org/2000/svg"
   xmlns="http://www.w3.org/2000/svg"
   xmlns:xlink="http://www.w3.org/1999/xlink"
   xmlns:sodipodi="http://sodipodi.sourceforge.net/DTD/sodipodi-0.dtd"
   xmlns:inkscape="http://www.inkscape.org/namespaces/inkscape"
   width="1500"
   height="1115"
   id="svg14507"
   version="1.1"
   inkscape:version="0.48.2 r9819"
   sodipodi:docname="logo-grayscale-black.svg">
  <defs
     id="defs14509">
    <linearGradient
       id="linearGradient12651">
      <stop
         id="stop12653"
         offset="0"
         style="stop-color:#61a6ed;stop-opacity:1" />
      <stop
         id="stop12657"
         offset="1"
         style="stop-color:#257edb;stop-opacity:1" />
    </linearGradient>
    <linearGradient
       inkscape:collect="always"
       xlink:href="#linearGradient13374"
       id="linearGradient14455"
       gradientUnits="userSpaceOnUse"
       gradientTransform="translate(-334.4685,224.95149)"
       x1="2677.0659"
       y1="-1001.1581"
       x2="2677.0659"
       y2="-1126.5048" />
    <linearGradient
       id="linearGradient13374"
       inkscape:collect="always">
      <stop
         id="stop13376"
         offset="0"
         style="stop-color:#5a5a5a;stop-opacity:1" />
      <stop
         id="stop13378"
         offset="1"
         style="stop-color:#8c8c8c;stop-opacity:1" />
    </linearGradient>
    <radialGradient
       inkscape:collect="always"
       xlink:href="#linearGradient13380"
       id="radialGradient14457"
       gradientUnits="userSpaceOnUse"
       gradientTransform="matrix(-7.2244231,7.2244502,-7.2148432,-7.214843,7389.8349,216.70128)"
       cx="245.80219"
       cy="466.2821"
       fx="245.80219"
       fy="466.2821"
       r="34.49239" />
    <linearGradient
       id="linearGradient13380">
      <stop
         style="stop-color:#868686;stop-opacity:1"
         offset="0"
         id="stop13382" />
      <stop
         style="stop-color:#4d4d4d;stop-opacity:1"
         offset="1"
         id="stop13384" />
    </linearGradient>
  </defs>
  <sodipodi:namedview
     id="base"
     pagecolor="#ffffff"
     bordercolor="#666666"
     borderopacity="1.0"
     inkscape:pageopacity="0.0"
     inkscape:pageshadow="2"
     inkscape:zoom="0.29166667"
     inkscape:cx="1538.6857"
     inkscape:cy="357.34281"
     inkscape:document-units="px"
     inkscape:current-layer="layer1"
     showgrid="false"
     fit-margin-top="0"
     fit-margin-left="0"
     fit-margin-right="0"
     fit-margin-bottom="0"
     inkscape:window-width="1680"
     inkscape:window-height="1026"
     inkscape:window-x="0"
     inkscape:window-y="24"
     inkscape:window-maximized="1" />
  <metadata
     id="metadata14512">
    <rdf:RDF>
      <cc:Work
         rdf:about="">
        <dc:format>image/svg+xml</dc:format>
        <dc:type
           rdf:resource="http://purl.org/dc/dcmitype/StillImage" />
        <dc:title></dc:title>
      </cc:Work>
    </rdf:RDF>
  </metadata>
  <g
     inkscape:label="Layer 1"
     inkscape:groupmode="layer"
     id="layer1"
     transform="translate(1170,216.56643)">
    <path
       inkscape:connector-curvature="0"
       style="fill:#000000;fill-opacity:1;stroke:none"
       d="m -629.3126,27.1535 c -0.86,-0.01 -1.7171,0.01 -2.5624,0.031 -12.2945,0.3444 -23.1688,4.1084 -30.1876,12.1562 -21.9405,25.1615 2.211,48.5609 10.5938,80.375 11.1932,42.4518 -1.5363,87.6244 32.4375,117.3438 11.7012,10.2333 25.8307,12.9293 39.4063,14.1875 -17.8482,21.0296 -28.6094,50.1918 -22.75,80.1562 9.2941,47.5305 52.7394,80.6707 99.0624,79.9375 1.5974,-0.025 3.2097,-0.1121 4.8126,-0.2187 3.2057,-0.2132 6.4123,-0.5768 9.625,-1.125 27.4882,-4.6918 49.9422,-20.7644 63.2187,-42.9688 0.4426,-0.7401 0.8592,-1.4964 1.2813,-2.25 0.422,-0.7535 0.8488,-1.5146 1.25,-2.2812 0.4672,-0.8094 1.5618,-0.8131 2.0312,0 0.4012,0.7664 0.828,1.5278 1.25,2.2812 9.7071,17.3282 24.8673,31.1564 43.6562,39.125 0.817,0.3465 1.6384,0.676 2.4688,1 5.8127,2.2685 11.962,3.9992 18.375,5.0938 4.8189,0.8222 9.6489,1.2679 14.4375,1.3437 0.7981,0.013 1.5789,0.01 2.375,0 1.5923,-0.015 3.1987,-0.062 4.7813,-0.1562 30.8598,-1.8277 59.605,-18.5337 76.875,-44.1563 0.4428,-0.6569 0.8849,-1.3001 1.3124,-1.9687 0.8551,-1.3373 1.6768,-2.7111 2.4688,-4.0938 2.3761,-4.1481 4.4868,-8.5031 6.25,-13.0312 2.0571,-5.2828 3.6595,-10.7948 4.7812,-16.5313 5.8592,-29.9644 -4.6831,-59.1266 -22.5312,-80.1562 13.5756,-1.2582 27.4862,-3.9542 39.1875,-14.1875 33.9738,-29.7194 21.2443,-74.892 32.4375,-117.3438 8.3828,-31.8141 32.5029,-55.2135 10.5625,-80.375 -7.0187,-8.0478 -17.6432,-11.8117 -29.9375,-12.1562 -0.8555,-0.024 -1.7231,-0.036 -2.5938,-0.031 -26.2534,-0.028 -53.549,10.5544 -81.1874,23.6562 -33.1049,15.6919 -56.9151,34.2987 -76.0938,57.0625 -0.6434,0.748 -1.2518,1.5296 -1.875,2.2813 -0.6339,0.7737 -1.2823,1.5292 -1.9062,2.3125 l 73.1562,42.5 -115.7188,67.1875 -10.125,127.4687 -2.625,-133.3437 -13.6874,-7.9375 -10.0626,126.3125 -2.625,-133.6875 -13.7187,-7.9688 -10.0313,126.7188 -2.6874,-134.0938 -13.625,-7.9062 -10.0938,127.0312 -2.6562,-134.4687 -13.5938,-7.875 -10.125,127.4062 -2.6562,-134.8437 70.0624,-40.6875 c -0.6317,-0.8101 -1.2643,-1.6063 -1.9062,-2.4063 -0.2356,-0.2896 -0.4801,-0.5857 -0.7188,-0.875 -18.5736,-22.9046 -41.496,-41.6785 -73.25,-57.5312 -1.8106,-0.9271 -3.6243,-1.8104 -5.4062,-2.6563 -1.3195,-0.6255 -2.6826,-1.2574 -4.0938,-1.9062 -25.3183,-11.7913 -50.0284,-21.0115 -74.5937,-21.6875 -0.8458,-0.03 -1.6981,-0.058 -2.5313,-0.062 z m -264.25,517.46877 c -10.2777,-0.045 -23.6655,0.47085 -35.25,11.59375 -4.6255,4.442 -6.3436,12.185 -6.3437,18.8125 l 0,70.90625 c 0,2.0698 0.7126,3.80545 2.125,5.21875 1.4145,1.3631 3.1251,2.0625 5.0937,2.0625 l 14.2188,0 c 1.9686,0 3.6372,-0.6994 5,-2.0625 1.4133,-1.4133 2.125,-3.14905 2.125,-5.21875 l 0,-31.8125 48.625,0 c 1.9686,0 3.605,-0.66815 4.9688,-2.03125 1.4124,-1.4134 2.125,-3.0938 2.125,-5.0625 l 0,-7.21875 c 0,-1.9181 -0.7126,-3.55505 -2.125,-4.96875 -1.3639,-1.4134 -3.0002,-2.1249 -4.9688,-2.125 l -48.625,0 0,-14.46875 c -0.3417,-11.6702 7.8266,-12.1875 12.6875,-12.1875 l 48.1875,0 c 1.9686,1e-4 3.6372,-0.66835 5,-2.03125 1.4133,-1.4134 2.125,-3.12495 2.125,-5.09375 l 0,-7.125 c 0,-1.9687 -0.7116,-3.6489 -2.125,-5.0625 -1.3628,-1.4133 -3.0314,-2.1248 -5,-2.125 l -43.625,0 c -1.3272,0 -2.7504,0.01 -4.2188,0 z m 394.0313,0 c -1.3125,2e-4 -2.404,0.4665 -3.3125,1.375 -0.8583,0.8583 -1.2813,1.9496 -1.2812,3.3125 l 0,23.25 c -8.178,-2.5745 -15.4953,-3.84365 -21.9063,-3.84375 -12.4181,1e-4 -22.3174,3.7045 -29.6875,11.125 -7.3197,7.3702 -10.9687,17.993 -10.9688,31.875 0,13.8316 3.5265,24.4544 10.5938,31.875 7.1177,7.4206 15.9495,11.125 26.5,11.125 10.5503,0 19.8366,-2.81485 27.8125,-8.46875 l 0,2.34375 c 0,1.3125 0.4231,2.43505 1.2813,3.34375 0.858,0.8581 1.9495,1.28125 3.3124,1.28125 l 14.5626,0 c 1.3629,0 2.4542,-0.42315 3.3124,-1.28125 0.9087,-0.9087 1.3749,-2.03125 1.375,-3.34375 l 0,-99.28125 c -1e-4,-1.3629 -0.4663,-2.4542 -1.375,-3.3125 -0.8582,-0.9085 -1.9495,-1.3748 -3.3124,-1.375 l -16.9063,0 z m 297,0 c -1.9687,2e-4 -3.6804,0.7117 -5.0937,2.125 -1.4136,1.4136 -2.125,3.0938 -2.125,5.0625 l 0,94.28125 c 0,1.9687 0.7114,3.6491 2.125,5.0625 1.4133,1.363 3.125,2.0625 5.0937,2.0625 l 65.0937,0 c 11.2571,0 20.7452,-2.8462 28.4688,-8.5 7.7738,-5.7043 11.6874,-14.01445 11.6875,-24.96875 -1e-4,-10.9541 -4.8704,-19.0504 -14.5625,-24.25 6.8147,-5.5527 10.2187,-12.0169 10.2188,-19.4375 -2e-4,-7.4711 -1.981,-13.61055 -5.9688,-18.40625 -7.1684,-8.6825 -18.3127,-13.03105 -33.4062,-13.03125 l -61.5313,0 z m 21.3437,20.53125 40.5,0 c 3.1802,1e-4 5.738,0.9568 7.6563,2.875 1.9182,1.9183 2.875,4.59865 2.875,8.03125 0,3.3822 -0.9568,6.0194 -2.875,7.9375 -1.9183,1.8679 -4.4761,2.8125 -7.6563,2.8125 l -40.5,0 0,-21.65625 z m -591.625,3.5625 c -7.7235,1e-4 -13.9857,0.90145 -18.7812,2.71875 -4.7452,1.7668 -9.6947,4.5145 -14.8438,8.25 l 0,-4.78125 c 0,-1.3629 -0.4231,-2.4543 -1.2812,-3.3125 -0.8582,-0.9086 -1.9808,-1.3749 -3.3438,-1.375 l -16.9687,0 c -1.3125,1e-4 -2.4039,0.4664 -3.3125,1.375 -0.8582,0.8582 -1.2812,1.9496 -1.2812,3.3125 l 0,73.6875 c 0,1.363 0.423,2.48555 1.2812,3.34375 0.8581,0.8581 1.9496,1.28125 3.3125,1.28125 l 16.9687,0 c 1.3126,0 2.3918,-0.42315 3.25,-1.28125 0.9087,-0.8582 1.375,-1.98075 1.375,-3.34375 l 0,-48.375 c 6.209,-7.471 12.7165,-11.21865 19.5313,-11.21875 l 11.6563,0.4375 2.4374,0 c 1.363,0 2.4855,-0.42305 3.3438,-1.28125 0.9085,-0.8581 1.3437,-1.9495 1.3438,-3.3125 l 0,-11.53125 c -2e-4,-1.3125 -0.4353,-2.3918 -1.3438,-3.25 -0.8583,-0.9086 -1.9808,-1.34365 -3.3438,-1.34375 z m 52.5626,0 c -13.8821,1e-4 -24.7382,3.7165 -32.5626,11.1875 -7.8245,7.4207 -11.7187,18.08675 -11.7187,31.96875 0,13.8317 3.8823,24.41115 11.6563,31.78125 7.7739,7.3701 18.6298,11.0625 32.5624,11.0625 27.6128,0.05 41.4063,-7.16845 41.4063,-21.65625 0,-1.363 -0.4352,-2.4543 -1.3437,-3.3125 -0.8583,-0.9086 -1.981,-1.3749 -3.3438,-1.375 l -11.2812,0 c -3.6348,0.051 -6.6828,1.5963 -9.1563,4.625 -2.4735,3.0289 -7.0674,4.53125 -13.7813,4.53125 -6.7139,0 -11.6081,-1.4231 -14.6874,-4.25 -3.0289,-2.8269 -4.8078,-7.32205 -5.3126,-13.53125 l 57.0313,0 c 1.3629,1e-4 2.4542,-0.42305 3.3125,-1.28125 0.9085,-0.9086 1.3749,-2.0745 1.375,-3.4375 l 0,-4.3125 c -10e-5,-13.5287 -3.8823,-23.9062 -11.6562,-31.125 -7.774,-7.2691 -18.6181,-10.8749 -32.5,-10.875 z m 98.5,0 c -13.8821,1e-4 -24.7382,3.7165 -32.5626,11.1875 -7.8245,7.4207 -11.7187,18.08675 -11.7187,31.96875 0,13.8317 3.8823,24.41115 11.6563,31.78125 7.7739,7.3701 18.6298,11.0625 32.5624,11.0625 27.6128,0.05 41.4063,-7.16845 41.4063,-21.65625 0,-1.363 -0.4664,-2.4543 -1.375,-3.3125 -0.8582,-0.9086 -1.9497,-1.3749 -3.3125,-1.375 l -11.2812,0 c -3.6348,0.051 -6.6828,1.5963 -9.1563,4.625 -2.4735,3.0289 -7.0674,4.53125 -13.7813,4.53125 -6.7139,0 -11.6394,-1.4231 -14.7187,-4.25 -3.0288,-2.8269 -4.7765,-7.32205 -5.2813,-13.53125 l 57,0 c 1.363,1e-4 2.4855,-0.42305 3.3438,-1.28125 0.9085,-0.9086 1.3749,-2.0745 1.375,-3.4375 l 0,-4.3125 c -10e-5,-13.5287 -3.8823,-23.9062 -11.6562,-31.125 -7.774,-7.2691 -18.6181,-10.8749 -32.5,-10.875 z m 200.7812,0 c -14.7402,1e-4 -26.0313,3.6059 -33.9062,10.875 -7.8749,7.2188 -11.8126,17.9401 -11.8126,32.125 0,14.1345 3.9378,24.82455 11.8126,32.09375 7.875,7.2691 19.166,10.90625 33.9062,10.90625 14.7906,0 26.125,-3.63715 34,-10.90625 7.8749,-7.2692 11.8124,-17.95925 11.8125,-32.09375 -1e-4,-14.1849 -3.9376,-24.9062 -11.8125,-32.125 -7.875,-7.2691 -19.2094,-10.8749 -34,-10.875 z m 106.8125,0 c -4.9471,1e-4 -9.1852,0.9568 -12.7187,2.875 -3.4833,1.8679 -7.053,4.56015 -10.6876,8.09375 l 0,-4.78125 c 0,-1.3629 -0.4231,-2.4543 -1.2812,-3.3125 -0.8582,-0.9086 -1.9808,-1.3749 -3.3438,-1.375 l -16.9687,0 c -1.3125,1e-4 -2.4039,0.4664 -3.3125,1.375 -0.8582,0.8582 -1.2912,1.9496 -1.2812,3.3125 l 0.5312,73.6875 c 0.01,1.363 -0.1082,2.48555 0.75,3.34375 0.8581,0.8581 1.9496,1.28125 3.3125,1.28125 l 16.9687,0 c 1.3126,0 2.3918,-0.42315 3.25,-1.28125 0.9087,-0.8582 1.375,-1.98075 1.375,-3.34375 l 0,-50.75 c 5.149,-7.2186 10.5217,-10.8124 16.125,-10.8125 8.7836,-0.05 13.1876,5.97855 13.1876,18.09375 l 0,43.46875 c -2e-4,1.3125 0.4229,2.43505 1.2812,3.34375 0.9085,0.8581 2.0433,1.28125 3.4062,1.28125 l 16.875,0 c 1.3124,0 2.3918,-0.42315 3.25,-1.28125 0.9087,-0.8582 1.3749,-1.98075 1.375,-3.34375 l 0,-43.46875 c -1e-4,-2.1706 -0.1347,-4.3292 -0.4374,-6.5 5.7042,-7.7234 11.2114,-11.59365 16.5624,-11.59375 8.7836,-0.05 13.1876,5.97855 13.1876,18.09375 l 0,43.46875 c -2e-4,1.3125 0.4229,2.43505 1.2812,3.34375 0.9085,0.8581 2.0432,1.28125 3.4062,1.28125 l 16.875,0 c 1.3628,0 2.4854,-0.42315 3.3438,-1.28125 0.858,-0.8582 1.2812,-1.98075 1.2812,-3.34375 l 0,-43.46875 c 0,-12.4181 -2.8703,-21.5937 -8.625,-27.5 -5.7044,-5.9565 -13.5122,-8.90615 -23.4062,-8.90625 -9.8438,-0.05 -19.4545,4.78865 -28.8438,14.53125 -6.0576,-9.6921 -14.9568,-14.53115 -26.7187,-14.53125 z m 271.125,0 c -14.7402,1e-4 -26.0313,3.6059 -33.9063,10.875 -7.8748,7.2188 -11.8124,17.9401 -11.8124,32.125 0,14.1345 3.9375,24.82455 11.8124,32.09375 7.875,7.2691 19.1661,10.90625 33.9063,10.90625 14.7907,0 26.125,-3.63715 34,-10.90625 7.8749,-7.2692 11.8124,-17.95925 11.8125,-32.09375 -1e-4,-14.1849 -3.9376,-24.9062 -11.8125,-32.125 -7.875,-7.2691 -19.2093,-10.8749 -34,-10.875 z m 51.3437,1.5 c -1.1104,1e-4 -1.9879,0.3559 -2.5937,1.0625 -1.4134,1.6155 -1.3029,3.47375 0.3125,5.59375 l 24.5938,34.75 -26.3438,34.90625 c -0.8077,0.9087 -1.2187,1.7428 -1.2188,2.5 0,0.7067 0.1106,1.33895 0.3127,1.84375 0.4038,1.5649 1.483,2.34375 3.25,2.34375 l 16.125,0 c 4.644,0 8.5697,-2.2452 11.75,-6.6875 l 14.625,-19.6875 14.5311,19.6875 c 3.2307,4.4423 7.1684,6.6875 11.8125,6.6875 l 16.125,0 c 1.7669,0 2.8462,-0.77885 3.25,-2.34375 0.2019,-0.4038 0.3125,-0.9927 0.3125,-1.75 0,-0.8076 -0.411,-1.68505 -1.2187,-2.59375 l -26.3438,-34.90625 24.5938,-34.75 c 1.6153,-2.12 1.7259,-3.97825 0.3126,-5.59375 -0.6059,-0.7066 -1.4522,-1.0624 -2.5626,-1.0625 l -16.4374,0 c -4.8969,1e-4 -8.8344,2.21415 -11.8126,6.65625 L 49.1251,595.96602 36.5313,576.87227 c -2.9784,-4.4421 -6.9159,-6.65615 -11.8125,-6.65625 l -16.4063,0 z m -728.6249,15.6875 c 11.2065,1e-4 17.0576,5.93045 17.5626,17.84375 l -35.2188,0 c 0.6057,-11.9133 6.5001,-17.84365 17.6562,-17.84375 z m 98.5,0 c 11.2065,1e-4 17.0576,5.93045 17.5626,17.84375 l -35.2188,0 c 0.6057,-11.9133 6.5001,-17.84365 17.6562,-17.84375 z m 200.8438,0 c 6.7644,1e-4 11.7141,2.0362 14.8438,6.125 3.1801,4.089 4.7812,10.60835 4.7812,19.59375 0,8.9856 -1.6011,15.5481 -4.7812,19.6875 -3.1297,4.1394 -8.0794,6.21875 -14.8438,6.21875 -6.714,0 -11.6202,-2.07935 -14.75,-6.21875 -3.1299,-4.1394 -4.7187,-10.7019 -4.7188,-19.6875 0,-8.9854 1.5889,-15.50475 4.7188,-19.59375 3.1298,-4.0888 8.036,-6.1249 14.75,-6.125 z m 377.9374,0 c 6.7644,1e-4 11.7139,2.0362 14.8437,6.125 3.1802,4.089 4.7813,10.60835 4.7813,19.59375 0,8.9856 -1.601,15.5481 -4.7813,19.6875 -3.1297,4.1394 -8.0793,6.21875 -14.8437,6.21875 -6.7139,0 -11.6202,-2.07935 -14.75,-6.21875 -3.1298,-4.1394 -4.7187,-10.7019 -4.7187,-19.6875 0,-8.9854 1.5889,-15.50475 4.7187,-19.59375 3.1298,-4.0888 8.0361,-6.1249 14.75,-6.125 z m -477.5313,1.125 c 4.4422,1e-4 9.9255,1.01205 16.4376,3.03125 l 0,39.59375 c -7.2693,4.5433 -13.6539,6.8125 -19.1563,6.8125 -5.4519,0 -9.5554,-1.96885 -12.2813,-5.90625 -2.726,-3.9375 -4.0937,-10.21155 -4.0937,-18.84375 0,-8.6321 1.435,-14.89425 4.3125,-18.78125 2.8773,-3.9375 7.8149,-5.90615 14.7812,-5.90625 z m 339.375,19.6875 43.3126,0 c 3.8868,0 6.8676,1.14665 8.9374,3.46875 2.0696,2.3221 3.0937,5.5242 3.0938,9.5625 -1e-4,4.0385 -1.0241,7.20915 -3.0938,9.53125 -2.0698,2.3221 -5.0506,3.46885 -8.9374,3.46875 l -43.3126,0 0,-26.03125 z"
       id="path13394" />
  </g>
</svg>
