<?xml version="1.0" encoding="UTF-8" standalone="no"?>
<!-- Created with Inkscape (http://www.inkscape.org/) -->

<svg
   xmlns:dc="http://purl.org/dc/elements/1.1/"
   xmlns:cc="http://creativecommons.org/ns#"
   xmlns:rdf="http://www.w3.org/1999/02/22-rdf-syntax-ns#"
   xmlns:svg="http://www.w3.org/2000/svg"
   xmlns="http://www.w3.org/2000/svg"
   xmlns:xlink="http://www.w3.org/1999/xlink"
   xmlns:sodipodi="http://sodipodi.sourceforge.net/DTD/sodipodi-0.dtd"
   xmlns:inkscape="http://www.inkscape.org/namespaces/inkscape"
   width="128"
   height="128"
   id="svg14507"
   version="1.1"
   inkscape:version="0.91 r13725"
   sodipodi:docname="network-freedombox.svg">
  <defs
     id="defs14509">
    <radialGradient
       inkscape:collect="always"
       xlink:href="#linearGradient12651"
       id="radialGradient14443"
       gradientUnits="userSpaceOnUse"
       gradientTransform="matrix(-1.8566387,1.8566457,-1.8541768,-1.8541766,214.85486,1206.3646)"
       cx="245.80219"
       cy="466.2821"
       fx="245.80219"
       fy="466.2821"
       r="34.49239" />
    <linearGradient
       id="linearGradient12651">
      <stop
         id="stop12653"
         offset="0"
         style="stop-color:#61a6ed;stop-opacity:1" />
      <stop
         id="stop12657"
         offset="1"
         style="stop-color:#257edb;stop-opacity:1" />
    </linearGradient>
    <linearGradient
       id="linearGradient158">
      <stop
         style="stop-color:#686868;stop-opacity:0.0000000;"
         offset="0.0000000"
         id="stop159" />
      <stop
         style="stop-color:#686868;stop-opacity:1.0000000;"
         offset="0.23762377"
         id="stop162" />
      <stop
         style="stop-color:#686868;stop-opacity:1.0000000;"
         offset="0.78109992"
         id="stop163" />
      <stop
         style="stop-color:#686868;stop-opacity:0.0000000;"
         offset="1.0000000"
         id="stop160" />
    </linearGradient>
    <linearGradient
       id="linearGradient272">
      <stop
         style="stop-color:#474747;stop-opacity:0.0000000;"
         offset="0.0000000"
         id="stop273" />
      <stop
         style="stop-color:#474747;stop-opacity:1.0000000;"
         offset="0.10000000"
         id="stop275" />
      <stop
         style="stop-color:#474747;stop-opacity:1.0000000;"
         offset="0.89999998"
         id="stop276" />
      <stop
         style="stop-color:#474747;stop-opacity:0.0000000;"
         offset="1.0000000"
         id="stop274" />
    </linearGradient>
    <linearGradient
       id="linearGradient178">
      <stop
         style="stop-color:#ffffff;stop-opacity:0.0000000;"
         offset="0.0000000"
         id="stop179" />
      <stop
         style="stop-color:#ffffff;stop-opacity:0.70658684;"
         offset="0.10827128"
         id="stop180" />
      <stop
         style="stop-color:#ffffff;stop-opacity:0.70658684;"
         offset="0.92053902"
         id="stop181" />
      <stop
         style="stop-color:#ffffff;stop-opacity:0.0000000;"
         offset="1.0000000"
         id="stop182" />
    </linearGradient>
  </defs>
  <sodipodi:namedview
     id="base"
     pagecolor="#ffffff"
     bordercolor="#666666"
     borderopacity="1.0"
     inkscape:pageopacity="0.0"
     inkscape:pageshadow="2"
     inkscape:zoom="5.6"
     inkscape:cx="56.778811"
     inkscape:cy="64.555933"
     inkscape:document-units="px"
     inkscape:current-layer="layer1"
     showgrid="false"
     fit-margin-top="0"
     fit-margin-left="0"
     fit-margin-right="0"
     fit-margin-bottom="0"
     inkscape:window-width="1920"
     inkscape:window-height="1016"
     inkscape:window-x="0"
     inkscape:window-y="27"
     inkscape:window-maximized="1"
     showguides="true"
     inkscape:guide-bbox="true" />
  <metadata
     id="metadata14512">
    <rdf:RDF>
      <cc:Work
         rdf:about="">
        <dc:format>image/svg+xml</dc:format>
        <dc:type
           rdf:resource="http://purl.org/dc/dcmitype/StillImage" />
        <dc:title></dc:title>
      </cc:Work>
    </rdf:RDF>
  </metadata>
  <g
     inkscape:label="Layer 1"
     inkscape:groupmode="layer"
     id="layer1"
     transform="translate(1170,-770.43357)">
    <path
       style="fill:#ffffff;fill-opacity:1;stroke:none;stroke-width:0.93599999;stroke-miterlimit:4;stroke-dasharray:none;stroke-opacity:1"
       d="m -1135.5917,818.0002 29.9889,-17.36199 30.2,17.30203 0.1046,50.82015 -60.3567,-0.12627 z"
       id="rect4272"
       inkscape:connector-curvature="0"
       sodipodi:nodetypes="cccccc" />
    <path
       inkscape:connector-curvature="0"
       id="path13218"
       d="m -1159.9361,785.20628 c -3.1596,0.0885 -5.9542,1.05583 -7.758,3.12407 -5.6386,6.46638 0.5681,12.4799 2.7226,20.65596 2.8766,10.90988 -0.3949,22.51901 8.3362,30.15674 3.0072,2.6299 6.6384,3.32276 10.1272,3.64611 -4.5869,5.4045 -7.3525,12.89902 -5.8466,20.59972 2.6356,13.4787 15.9588,22.45216 29.1688,20.19819 7.5353,-1.28615 13.5984,-5.90309 16.8975,-12.20725 0.12,-0.20801 0.4013,-0.20897 0.522,0 3.2993,6.30269 9.3632,10.92127 16.8974,12.20725 13.21,2.25397 26.477,-6.71949 29.1127,-20.19819 1.5058,-7.7007 -1.2036,-15.19522 -5.7904,-20.59972 3.4888,-0.32335 7.0637,-1.01621 10.0709,-3.64611 8.7311,-7.63773 5.4597,-19.24686 8.3363,-30.15674 2.1544,-8.17606 8.353,-14.18958 2.7145,-20.65596 -1.8037,-2.06824 -4.5342,-3.03554 -7.6937,-3.12407 -6.9518,-0.19612 -14.1935,2.59304 -21.5314,6.0715 -7.3378,3.47844 -15.4339,9.45108 -20.5275,15.84532 l 18.8009,10.92228 -29.7392,17.26683 -2.6021,32.75881 -0.6746,-34.26865 -3.5176,-2.03991 -2.586,32.46166 -0.6746,-34.35699 -3.5256,-2.04791 -2.5781,32.56606 -0.6906,-34.4614 -3.5016,-2.03185 -2.594,32.64635 -0.6826,-34.55775 -3.4936,-2.02384 -2.6021,32.74273 -0.6826,-34.65412 18.0057,-10.45647 c -5.1543,-6.60903 -13.562,-12.8332 -20.8889,-16.31115 -7.3268,-3.47797 -14.4461,-6.22667 -21.5313,-6.0715 z"
       style="fill:url(#radialGradient14443);fill-opacity:1;stroke:none"
       sodipodi:nodetypes="cccccsccccsccccczcccccccccccccccccczc" />
  </g>
</svg>
