<?xml version="1.0" encoding="UTF-8" standalone="no"?>
<svg
   xmlns:dc="http://purl.org/dc/elements/1.1/"
   xmlns:cc="http://creativecommons.org/ns#"
   xmlns:rdf="http://www.w3.org/1999/02/22-rdf-syntax-ns#"
   xmlns:svg="http://www.w3.org/2000/svg"
   xmlns="http://www.w3.org/2000/svg"
   xmlns:sodipodi="http://sodipodi.sourceforge.net/DTD/sodipodi-0.dtd"
   xmlns:inkscape="http://www.inkscape.org/namespaces/inkscape"
   version="1.1"
   viewBox="0 -240 421.42371 421.46419"
   id="svg5455"
   sodipodi:docname="system-background.svg"
   width="111.50169mm"
   height="111.5124mm"
   inkscape:version="0.92.3 (2405546, 2018-03-11)">
  <metadata
     id="metadata5461">
    <rdf:RDF>
      <cc:Work
         rdf:about="">
        <dc:format>image/svg+xml</dc:format>
        <dc:type
           rdf:resource="http://purl.org/dc/dcmitype/StillImage" />
        <dc:title></dc:title>
      </cc:Work>
    </rdf:RDF>
  </metadata>
  <defs
     id="defs5459" />
  <sodipodi:namedview
     pagecolor="#ffffff"
     bordercolor="#666666"
     borderopacity="1"
     objecttolerance="10"
     gridtolerance="10"
     guidetolerance="10"
     inkscape:pageopacity="0"
     inkscape:pageshadow="2"
     inkscape:window-width="1920"
     inkscape:window-height="1053"
     id="namedview5457"
     showgrid="false"
     inkscape:zoom="1.1125147"
     inkscape:cx="252.43968"
     inkscape:cy="139.00361"
     inkscape:window-x="0"
     inkscape:window-y="27"
     inkscape:window-maximized="1"
     inkscape:current-layer="svg5455"
     units="mm" />
  <g
     transform="matrix(0.3670157,0,0,-0.3670157,-9.5494289,190.93977)"
     id="g5453"
     style="fill:#000000;fill-opacity:0.03137255">
    <path
       d="m 600,1174 q 33,0 74,-5 l 38,-152 5,-1 q 49,-14 94,-39 l 5,-2 134,80 q 61,-48 104,-105 l -80,-134 3,-5 q 25,-44 39,-93 l 1,-6 152,-38 q 5,-43 5,-73 0,-34 -5,-74 l -152,-38 -1,-6 q -15,-49 -39,-93 l -3,-5 80,-134 Q 1006,190 950,146 l -134,81 -5,-3 q -44,-25 -94,-39 l -5,-2 -38,-151 q -43,-5 -74,-5 -33,0 -74,5 l -38,151 -5,2 q -49,14 -94,39 l -5,3 -134,-81 q -60,48 -104,105 l 80,134 -3,5 q -25,45 -38,93 l -2,6 -151,38 q -6,42 -6,74 0,33 6,73 l 151,38 2,6 q 13,48 38,93 l 3,5 -80,134 q 47,61 105,105 l 133,-80 5,2 q 45,25 94,39 l 5,1 38,152 q 43,5 74,5 z m 0,-359 q -89,0 -152,-63 -63,-63 -63,-151.5 0,-88.5 63,-151.5 63,-63 152,-63 89,0 152,63 63,63 63,151.5 0,88.5 -63,151.5 -63,63 -152,63 z"
       id="path5451"
       inkscape:connector-curvature="0"
       style="fill:#000000;fill-opacity:0.03137255" />
  </g>
</svg>
