<?xml version="1.0" encoding="UTF-8" standalone="no"?>
<svg
   version="1.1"
   viewBox="34 107 384 384"
   width="512"
   height="512"
   id="svg16"
   sodipodi:docname="tiddlywiki.svg"
   inkscape:version="1.2.2 (b0a8486541, 2022-12-01)"
   inkscape:export-filename="tiddlywiki.png"
   inkscape:export-xdpi="48"
   inkscape:export-ydpi="48"
   xmlns:inkscape="http://www.inkscape.org/namespaces/inkscape"
   xmlns:sodipodi="http://sodipodi.sourceforge.net/DTD/sodipodi-0.dtd"
   xmlns="http://www.w3.org/2000/svg"
   xmlns:svg="http://www.w3.org/2000/svg"
   xmlns:dc="http://purl.org/dc/elements/1.1/">
  <sodipodi:namedview
     id="namedview18"
     pagecolor="#ffffff"
     bordercolor="#666666"
     borderopacity="1.0"
     inkscape:showpageshadow="2"
     inkscape:pageopacity="0.0"
     inkscape:pagecheckerboard="0"
     inkscape:deskcolor="#d1d1d1"
     inkscape:document-units="pt"
     showgrid="false"
     inkscape:zoom="0.69046898"
     inkscape:cx="-256.34751"
     inkscape:cy="155.69128"
     inkscape:window-width="1918"
     inkscape:window-height="1282"
     inkscape:window-x="26"
     inkscape:window-y="23"
     inkscape:window-maximized="0"
     inkscape:current-layer="svg16" />
  <metadata
     id="metadata2">
    <dc:date>2012-05-10 07:32Z</dc:date>
    <!-- Produced by OmniGraffle Professional 5.3.6 -->
  </metadata>
  <defs
     id="defs4" />
  <g
     stroke="none"
     stroke-opacity="1"
     stroke-dasharray="none"
     fill="none"
     fill-opacity="1"
     id="g14"
     transform="matrix(0.7819711,0,0,0.7819711,0.20115816,91.403102)">
    <title
       id="title6">Canvas 1</title>
    <g
       id="g12">
      <title
         id="title8">Layer 1</title>
      <path
         d="m 204.10294,372.67294 2.81039,0.8291 c 3.53151,-1.58007 10.63031,0.86197 14.3959,2.05591 -6.934,-7.68695 -17.38058,-18.97509 -24.90698,-26.09145 -2.4704,-8.61546 -1.41632,-17.2848 -0.88481,-26.0799 l 0.10661,-0.7276 c -2.96672,7.0407 -6.73159,13.8847 -8.75512,21.29577 -2.36798,9.99817 10.5243,20.78568 15.5234,26.96817 z m 214.89999,42.28504 c -19.34998,-0.54698 -27.86099,-0.49994 -37.71558,-16.70502 l -7.68051,0.22004 c -8.93988,-0.397 -5.2142,-0.21705 -11.1784,-0.51399 -9.9719,-0.38803 -8.37448,-9.86297 -10.12879,-14.86898 -2.8063,-16.99305 3.71359,-34.07392 3.50791,-51.07032 -0.0728,-6.03332 -8.61032,-27.38909 -11.6604,-35.02423 -9.56162,1.80024 -19.17511,2.14347 -28.8754,2.62683 -22.35922,-0.0548 -44.5668,-2.79281 -66.61382,-6.26983 -4.29641,17.74804 -17.06701,42.58935 -6.5111,60.62682 12.81291,18.65766 21.80439,23.82667 35.7414,24.95164 13.93686,1.12406 17.0839,16.85904 13.71207,22.47903 -2.98447,3.88403 -8.22986,4.58905 -12.68646,5.53003 l -8.9144,0.41898 c -7.01489,-0.23599 -13.28491,-2.12998 -19.53552,-5.051 -10.43848,-5.82696 -21.2195,-17.94095 -29.22959,-26.63797 1.86481,3.47299 2.97712,10.25293 1.28571,13.40802 -4.7359,6.70896 -25.21872,6.66797 -34.59912,2.49897 -10.65598,-4.73502 -36.40497,-37.98197 -40.386,-62.88245 10.591,-20.02872 26.02,-37.47495 33.826,-59.28323 -17.015,-10.85694 -26.128,-28.53113 -24.94499,-48.55152 l 0.427,-2.3175 c -16.74199,3.13418 -8.05998,1.96809 -26.06998,3.33049 -57.356,-0.17549 -107.796001,-39.06484 -79.393993,-99.50579 1.846985,-3.57904 3.603989,-6.833 6.735001,-5.27899 2.512985,1.24695 2.152008,6.24898 0.887985,11.79598 -16.234985,72.21878 63.111997,72.77153 111.887997,59.40782 4.84098,-1.3266 14.46898,-10.2612 21.13848,-13.22311 10.9019,-4.84113 22.7348,-6.8053 34.47801,-8.22059 29.20767,-3.32814 64.31171,12.05838 82.14798,12.56079 17.83648,0.50239 43.20953,-4.27082 58.785,-3.26582 11.30133,0.51708 22.39853,2.55699 33.30252,5.46282 7.05802,-34.3909 7.55701,-59.7379 24.289,-65.6059 9.82001,1.551 17.38696,14.93298 22.98801,22.08301 l 0.023,-0.004 c 11.40697,-0.45001 22.26203,2.44403 33.05499,5.65599 19.54004,-2.77296 35.93702,-13.74597 53.193,-22.28198 -0.054,0.269 -0.33594,0.35998 -0.50397,0.54098 -16.98199,13.73401 -19.35405,36.95803 -17.35602,58.43425 0.74304,11.14415 -2.406,23.24344 -6.29895,34.65357 -7.28503,18.5899 -21.35406,38.18498 -37.68304,37.17997 -6.17298,-0.19526 -9.75901,-3.69059 -14.34699,-7.4223 -0.89001,7.55863 -4.388,14.30321 -7.76001,20.98812 -7.78698,14.82183 -28.13598,21.35339 -46.97802,37.18005 -18.84076,15.8269 6.02902,72.35141 12.05902,82.65039 6.02902,10.29996 22.85998,14.06796 16.32901,23.36392 -1.99799,3.07004 -5.05301,4.16806 -8.31803,5.35904 z"
         fill="#000000"
         id="path10" />
    </g>
  </g>
</svg>
