<svg
   xmlns="http://www.w3.org/2000/svg"
   xmlns:xlink="http://www.w3.org/1999/xlink"
   width="512"
   height="512"
   viewBox="0 0 512 512">
  <defs>
    <linearGradient
       id="autoidmagic-gradient"
       gradientUnits="userSpaceOnUse"
       x1="0"
       x2="100"
       y1="100"
       y2="0">
      <stop
         offset="0%"
         stop-color="#0a00b2" />
      <stop
         offset="50%"
         stop-color="#ff0000" />
      <stop
         offset="100%"
         stop-color="#fffc00" />
    </linearGradient>
    <style>
			.petal {
				opacity: 0.65;
			}
			.petals {
				fill: url(#autoidmagic-gradient);
			}
		</style>
    <linearGradient
       xlink:href="#autoidmagic-gradient"
       id="autoidmagic-linearGradient368"
       gradientUnits="userSpaceOnUse"
       x1="0"
       y1="100"
       x2="100"
       y2="0" />
    <linearGradient
       xlink:href="#autoidmagic-gradient"
       id="autoidmagic-linearGradient370"
       gradientUnits="userSpaceOnUse"
       x1="0"
       y1="100"
       x2="100"
       y2="0" />
    <linearGradient
       xlink:href="#autoidmagic-gradient"
       id="autoidmagic-linearGradient372"
       gradientUnits="userSpaceOnUse"
       x1="0"
       y1="100"
       x2="100"
       y2="0" />
    <linearGradient
       xlink:href="#autoidmagic-gradient"
       id="autoidmagic-linearGradient374"
       gradientUnits="userSpaceOnUse"
       x1="0"
       y1="100"
       x2="100"
       y2="0" />
    <linearGradient
       xlink:href="#autoidmagic-gradient"
       id="autoidmagic-linearGradient376"
       gradientUnits="userSpaceOnUse"
       x1="0"
       y1="100"
       x2="100"
       y2="0" />
    <linearGradient
       xlink:href="#autoidmagic-gradient"
       id="autoidmagic-linearGradient378"
       gradientUnits="userSpaceOnUse"
       x1="0"
       y1="100"
       x2="100"
       y2="0" />
    <linearGradient
       xlink:href="#autoidmagic-gradient"
       id="autoidmagic-linearGradient380"
       gradientUnits="userSpaceOnUse"
       x1="0"
       y1="100"
       x2="100"
       y2="0" />
    <linearGradient
       xlink:href="#autoidmagic-gradient"
       id="autoidmagic-linearGradient382"
       gradientUnits="userSpaceOnUse"
       x1="0"
       y1="100"
       x2="100"
       y2="0" />
    <linearGradient
       xlink:href="#autoidmagic-gradient"
       id="autoidmagic-linearGradient384"
       gradientUnits="userSpaceOnUse"
       x1="0"
       y1="100"
       x2="100"
       y2="0" />
    <linearGradient
       xlink:href="#autoidmagic-gradient"
       id="autoidmagic-linearGradient386"
       gradientUnits="userSpaceOnUse"
       x1="0"
       y1="100"
       x2="100"
       y2="0" />
    <linearGradient
       xlink:href="#autoidmagic-gradient"
       id="autoidmagic-linearGradient388"
       gradientUnits="userSpaceOnUse"
       x1="0"
       y1="100"
       x2="100"
       y2="0" />
    <linearGradient
       xlink:href="#autoidmagic-gradient"
       id="autoidmagic-linearGradient390"
       gradientUnits="userSpaceOnUse"
       x1="0"
       y1="100"
       x2="100"
       y2="0" />
    <linearGradient
       xlink:href="#autoidmagic-gradient"
       id="autoidmagic-linearGradient392"
       gradientUnits="userSpaceOnUse"
       x1="0"
       y1="100"
       x2="100"
       y2="0" />
    <linearGradient
       xlink:href="#autoidmagic-gradient"
       id="autoidmagic-linearGradient394"
       gradientUnits="userSpaceOnUse"
       x1="0"
       y1="100"
       x2="100"
       y2="0" />
    <linearGradient
       xlink:href="#autoidmagic-gradient"
       id="autoidmagic-linearGradient396"
       gradientUnits="userSpaceOnUse"
       x1="0"
       y1="100"
       x2="100"
       y2="0" />
    <linearGradient
       xlink:href="#autoidmagic-gradient"
       id="autoidmagic-linearGradient398"
       gradientUnits="userSpaceOnUse"
       x1="0"
       y1="100"
       x2="100"
       y2="0" />
    <linearGradient
       xlink:href="#autoidmagic-gradient"
       id="autoidmagic-linearGradient400"
       gradientUnits="userSpaceOnUse"
       x1="0"
       y1="100"
       x2="100"
       y2="0" />
    <linearGradient
       xlink:href="#autoidmagic-gradient"
       id="autoidmagic-linearGradient402"
       gradientUnits="userSpaceOnUse"
       x1="0"
       y1="100"
       x2="100"
       y2="0" />
    <linearGradient
       xlink:href="#autoidmagic-gradient"
       id="autoidmagic-linearGradient404"
       gradientUnits="userSpaceOnUse"
       x1="0"
       y1="100"
       x2="100"
       y2="0" />
    <linearGradient
       xlink:href="#autoidmagic-gradient"
       id="autoidmagic-linearGradient406"
       gradientUnits="userSpaceOnUse"
       x1="0"
       y1="100"
       x2="100"
       y2="0" />
    <linearGradient
       xlink:href="#autoidmagic-gradient"
       id="autoidmagic-linearGradient408"
       gradientUnits="userSpaceOnUse"
       x1="0"
       y1="100"
       x2="100"
       y2="0" />
    <linearGradient
       xlink:href="#autoidmagic-gradient"
       id="autoidmagic-linearGradient410"
       gradientUnits="userSpaceOnUse"
       x1="0"
       y1="100"
       x2="100"
       y2="0" />
    <linearGradient
       xlink:href="#autoidmagic-gradient"
       id="autoidmagic-linearGradient412"
       gradientUnits="userSpaceOnUse"
       x1="0"
       y1="100"
       x2="100"
       y2="0" />
    <linearGradient
       xlink:href="#autoidmagic-gradient"
       id="autoidmagic-linearGradient414"
       gradientUnits="userSpaceOnUse"
       x1="0"
       y1="100"
       x2="100"
       y2="0" />
    <linearGradient
       xlink:href="#autoidmagic-gradient"
       id="autoidmagic-linearGradient416"
       gradientUnits="userSpaceOnUse"
       x1="0"
       y1="100"
       x2="100"
       y2="0" />
  </defs>
  <g
     class="petals"
     style="fill:url(#autoidmagic-linearGradient416)"
     transform="matrix(5.1487299,0,0,5.1487817,-1.1574957,-0.05808295)">
    <path
       class="petal"
       d="m 33.6,14.8 a 16.938,16.938 0 0 0 3.116,11.142 11.457,11.457 0 0 0 6.858,4.3 3.033,3.033 0 0 0 2.385,-0.713 11.924,11.924 0 0 0 3.634,-10.837 c -1.257,-7.54 -6.19,-12.43 -12.4,-17 A 32.468,32.468 0 0 0 33.6,14.8 Z"
       style="fill:url(#autoidmagic-linearGradient368)" />
    <path
       class="petal"
       d="m 25.117,20.232 a 16.938,16.938 0 0 0 5.893,9.956 11.457,11.457 0 0 0 7.738,2.381 3.033,3.033 0 0 0 2.119,-1.306 11.924,11.924 0 0 0 0.705,-11.409 C 38.406,12.9 32.376,9.449 25.2,6.642 a 32.468,32.468 0 0 0 -0.083,13.59 z"
       style="fill:url(#autoidmagic-linearGradient370)" />
    <path
       class="petal"
       d="m 18.329,27.677 a 16.937,16.937 0 0 0 8.271,8.092 11.457,11.457 0 0 0 8.09,0.3 3.033,3.033 0 0 0 1.709,-1.81 11.924,11.924 0 0 0 -2.271,-11.2 c -4.859,-5.9 -11.576,-7.67 -19.237,-8.523 a 32.466,32.466 0 0 0 3.438,13.141 z"
       style="fill:url(#autoidmagic-linearGradient372)" />
    <path
       class="petal"
       d="M 13.7,36.626 A 16.938,16.938 0 0 0 23.781,42.3 11.457,11.457 0 0 0 31.672,40.493 3.033,3.033 0 0 0 32.854,38.3 11.924,11.924 0 0 0 27.761,28.067 C 21.54,23.624 14.594,23.655 6.974,24.813 A 32.468,32.468 0 0 0 13.7,36.626 Z"
       style="fill:url(#autoidmagic-linearGradient374)" />
    <path
       class="petal"
       d="m 11.543,46.468 a 16.938,16.938 0 0 0 11.208,2.873 11.457,11.457 0 0 0 7.155,-3.788 3.034,3.034 0 0 0 0.575,-2.422 11.924,11.924 0 0 0 -7.568,-8.566 C 15.753,31.884 9.052,33.711 1.99,36.8 a 32.468,32.468 0 0 0 9.553,9.668 z"
       style="fill:url(#autoidmagic-linearGradient376)" />
    <path
       class="petal"
       d="m 12.008,56.532 a 16.938,16.938 0 0 0 11.569,-0.126 11.457,11.457 0 0 0 5.931,-5.51 3.033,3.033 0 0 0 -0.072,-2.488 11.924,11.924 0 0 0 -9.527,-6.315 C 12.3,41.356 6.3,44.855 0.279,49.669 a 32.467,32.467 0 0 0 11.729,6.863 z"
       style="fill:url(#autoidmagic-linearGradient378)" />
    <path
       class="petal"
       d="M 15.062,66.134 A 16.938,16.938 0 0 0 26.2,63.018 11.457,11.457 0 0 0 30.5,56.16 3.033,3.033 0 0 0 29.787,53.775 11.924,11.924 0 0 0 18.95,50.141 c -7.54,1.257 -12.43,6.19 -17,12.4 a 32.468,32.468 0 0 0 13.112,3.593 z"
       style="fill:url(#autoidmagic-linearGradient380)" />
    <path
       class="petal"
       d="m 20.5,74.618 a 16.938,16.938 0 0 0 9.956,-5.893 11.457,11.457 0 0 0 2.381,-7.738 3.033,3.033 0 0 0 -1.306,-2.119 11.925,11.925 0 0 0 -11.409,-0.705 c -6.958,3.166 -10.4,9.2 -13.212,16.376 a 32.466,32.466 0 0 0 13.59,0.079 z"
       style="fill:url(#autoidmagic-linearGradient382)" />
    <path
       class="petal"
       d="m 27.943,81.406 a 16.938,16.938 0 0 0 8.092,-8.269 11.457,11.457 0 0 0 0.3,-8.09 3.033,3.033 0 0 0 -1.81,-1.709 11.924,11.924 0 0 0 -11.2,2.271 c -5.9,4.859 -7.67,11.576 -8.523,19.237 a 32.467,32.467 0 0 0 13.141,-3.44 z"
       style="fill:url(#autoidmagic-linearGradient384)" />
    <path
       class="petal"
       d="M 36.891,86.035 A 16.938,16.938 0 0 0 42.567,75.953 11.457,11.457 0 0 0 40.76,68.062 3.033,3.033 0 0 0 38.569,66.88 11.924,11.924 0 0 0 28.336,71.974 c -4.443,6.221 -4.412,13.167 -3.254,20.787 a 32.467,32.467 0 0 0 11.809,-6.726 z"
       style="fill:url(#autoidmagic-linearGradient386)" />
    <path
       class="petal"
       d="m 46.733,88.191 a 16.937,16.937 0 0 0 2.873,-11.207 11.457,11.457 0 0 0 -3.788,-7.155 3.033,3.033 0 0 0 -2.422,-0.575 11.924,11.924 0 0 0 -8.566,7.568 c -2.681,7.159 -0.854,13.86 2.237,20.921 a 32.465,32.465 0 0 0 9.666,-9.552 z"
       style="fill:url(#autoidmagic-linearGradient388)" />
    <path
       class="petal"
       d="m 56.8,87.726 a 16.937,16.937 0 0 0 -0.125,-11.569 11.457,11.457 0 0 0 -5.511,-5.931 3.033,3.033 0 0 0 -2.488,0.072 11.924,11.924 0 0 0 -6.315,9.528 c -0.737,7.609 2.762,13.609 7.576,19.629 A 32.466,32.466 0 0 0 56.8,87.726 Z"
       style="fill:url(#autoidmagic-linearGradient390)" />
    <path
       class="petal"
       d="M 66.4,84.672 A 16.938,16.938 0 0 0 63.284,73.53 11.457,11.457 0 0 0 56.426,69.23 3.033,3.033 0 0 0 54.041,69.943 11.924,11.924 0 0 0 50.407,80.78 c 1.257,7.54 6.19,12.43 12.4,17 A 32.468,32.468 0 0 0 66.4,84.672 Z"
       style="fill:url(#autoidmagic-linearGradient392)" />
    <path
       class="petal"
       d="M 74.883,79.237 A 16.937,16.937 0 0 0 68.99,69.281 11.456,11.456 0 0 0 61.252,66.9 3.033,3.033 0 0 0 59.133,68.206 11.924,11.924 0 0 0 58.428,79.615 c 3.166,6.958 9.2,10.4 16.375,13.212 a 32.468,32.468 0 0 0 0.08,-13.59 z"
       style="fill:url(#autoidmagic-linearGradient394)" />
    <path
       class="petal"
       d="M 81.671,71.792 A 16.938,16.938 0 0 0 73.4,63.7 a 11.457,11.457 0 0 0 -8.09,-0.3 3.033,3.033 0 0 0 -1.708,1.81 11.924,11.924 0 0 0 2.271,11.2 c 4.859,5.9 11.576,7.67 19.237,8.523 A 32.466,32.466 0 0 0 81.671,71.792 Z"
       style="fill:url(#autoidmagic-linearGradient396)" />
    <path
       class="petal"
       d="m 86.3,62.843 a 16.938,16.938 0 0 0 -10.082,-5.676 11.457,11.457 0 0 0 -7.891,1.807 3.033,3.033 0 0 0 -1.182,2.191 11.924,11.924 0 0 0 5.094,10.235 c 6.221,4.443 13.167,4.412 20.787,3.254 A 32.467,32.467 0 0 0 86.3,62.843 Z"
       style="fill:url(#autoidmagic-linearGradient398)" />
    <path
       class="petal"
       d="m 88.457,53 a 16.938,16.938 0 0 0 -11.207,-2.873 11.457,11.457 0 0 0 -7.155,3.788 3.033,3.033 0 0 0 -0.574,2.422 11.925,11.925 0 0 0 7.567,8.563 c 7.158,2.681 13.86,0.854 20.921,-2.237 A 32.467,32.467 0 0 0 88.457,53 Z"
       style="fill:url(#autoidmagic-linearGradient400)" />
    <path
       class="petal"
       d="m 87.992,42.936 a 16.938,16.938 0 0 0 -11.569,0.126 11.457,11.457 0 0 0 -5.931,5.511 3.033,3.033 0 0 0 0.072,2.488 11.924,11.924 0 0 0 9.527,6.315 C 87.7,58.113 93.7,54.614 99.721,49.8 A 32.468,32.468 0 0 0 87.992,42.936 Z"
       style="fill:url(#autoidmagic-linearGradient402)" />
    <path
       class="petal"
       d="m 84.938,33.335 a 16.938,16.938 0 0 0 -11.138,3.116 11.457,11.457 0 0 0 -4.3,6.858 3.033,3.033 0 0 0 0.714,2.385 11.924,11.924 0 0 0 10.837,3.634 c 7.54,-1.257 12.43,-6.19 17,-12.4 A 32.466,32.466 0 0 0 84.938,33.335 Z"
       style="fill:url(#autoidmagic-linearGradient404)" />
    <path
       class="petal"
       d="m 79.5,24.851 a 16.938,16.938 0 0 0 -9.956,5.893 11.457,11.457 0 0 0 -2.381,7.738 3.033,3.033 0 0 0 1.309,2.118 11.924,11.924 0 0 0 11.409,0.705 c 6.958,-3.166 10.4,-9.2 13.212,-16.375 A 32.468,32.468 0 0 0 79.5,24.851 Z"
       style="fill:url(#autoidmagic-linearGradient406)" />
    <path
       class="petal"
       d="m 72.057,18.063 a 16.938,16.938 0 0 0 -8.092,8.269 11.457,11.457 0 0 0 -0.3,8.09 3.033,3.033 0 0 0 1.81,1.709 11.924,11.924 0 0 0 11.2,-2.271 c 5.9,-4.859 7.67,-11.576 8.523,-19.237 a 32.467,32.467 0 0 0 -13.141,3.44 z"
       style="fill:url(#autoidmagic-linearGradient408)" />
    <path
       class="petal"
       d="m 63.109,13.434 a 16.937,16.937 0 0 0 -5.676,10.082 11.457,11.457 0 0 0 1.807,7.891 3.033,3.033 0 0 0 2.191,1.182 11.924,11.924 0 0 0 10.233,-5.089 c 4.443,-6.221 4.412,-13.167 3.254,-20.787 a 32.466,32.466 0 0 0 -11.809,6.721 z"
       style="fill:url(#autoidmagic-linearGradient410)" />
    <path
       class="petal"
       d="m 53.267,11.278 a 16.937,16.937 0 0 0 -2.873,11.207 11.456,11.456 0 0 0 3.788,7.155 3.033,3.033 0 0 0 2.422,0.575 11.924,11.924 0 0 0 8.566,-7.568 C 67.851,15.488 66.024,8.787 62.933,1.726 a 32.466,32.466 0 0 0 -9.666,9.552 z"
       style="fill:url(#autoidmagic-linearGradient412)" />
    <path
       class="petal"
       d="m 43.2,11.743 a 16.938,16.938 0 0 0 0.126,11.569 11.457,11.457 0 0 0 5.511,5.931 3.033,3.033 0 0 0 2.488,-0.072 11.924,11.924 0 0 0 6.315,-9.528 C 58.379,12.034 54.88,6.034 50.066,0.014 A 32.468,32.468 0 0 0 43.2,11.743 Z"
       style="fill:url(#autoidmagic-linearGradient414)" />
  </g>
</svg>
