<?xml version="1.0" encoding="UTF-8" standalone="no"?>
<svg
   version="1.0"
   width="512"
   height="512"
   viewBox="0 0 384.00001 384"
   preserveAspectRatio="xMidYMid meet"
   id="svg24"
   sodipodi:docname="minidlna.svg"
   inkscape:version="1.1.2 (0a00cf5339, 2022-02-04)"
   xmlns:inkscape="http://www.inkscape.org/namespaces/inkscape"
   xmlns:sodipodi="http://sodipodi.sourceforge.net/DTD/sodipodi-0.dtd"
   xmlns="http://www.w3.org/2000/svg"
   xmlns:svg="http://www.w3.org/2000/svg">
  <defs
     id="defs28" />
  <sodipodi:namedview
     id="namedview26"
     pagecolor="#ffffff"
     bordercolor="#666666"
     borderopacity="1.0"
     inkscape:pageshadow="2"
     inkscape:pageopacity="0.0"
     inkscape:pagecheckerboard="0"
     inkscape:document-units="pt"
     showgrid="false"
     units="px"
     width="512px"
     inkscape:zoom="1.5560065"
     inkscape:cx="214.00939"
     inkscape:cy="117.9301"
     inkscape:window-width="3770"
     inkscape:window-height="2096"
     inkscape:window-x="0"
     inkscape:window-y="0"
     inkscape:window-maximized="1"
     inkscape:current-layer="svg24" />
  <g
     transform="matrix(0.29056705,0,0,-0.29056705,-26.151035,276.26444)"
     fill="#000000"
     stroke="none"
     id="g22">
    <path
       d="m 330,385 c 0,-8 5,-15 10,-15 6,0 10,7 10,15 0,8 -4,15 -10,15 -5,0 -10,-7 -10,-15 z"
       id="path2" />
    <path
       d="m 590,385 c 0,-8 5,-15 10,-15 6,0 10,7 10,15 0,8 -4,15 -10,15 -5,0 -10,-7 -10,-15 z"
       id="path4" />
    <path
       d="m 90,285 c 0,-63 4,-105 10,-105 6,0 10,36 10,87 0,47 3,83 7,79 4,-4 17,-33 29,-64 26,-71 46,-78 63,-20 7,24 19,54 27,68 12,23 13,17 14,-62 0,-52 4,-88 10,-88 6,0 10,42 10,105 0,95 -2,105 -18,105 -13,0 -24,-17 -41,-65 -13,-36 -26,-65 -30,-65 -4,0 -18,29 -30,65 -18,49 -28,65 -42,65 -17,0 -19,-9 -19,-105 z"
       id="path6" />
    <path
       d="M 670,285 V 180 h 40 c 98,0 146,57 121,142 -14,46 -54,68 -121,68 h -40 z m 115,60 c 54,-53 14,-150 -58,-143 l -32,3 -3,69 c -2,38 -1,75 2,83 9,22 64,15 91,-12 z"
       id="path8" />
    <path
       d="M 890,285 V 180 h 60 c 71,0 81,18 13,22 l -48,3 -3,93 c -4,128 -22,117 -22,-13 z"
       id="path10" />
    <path
       d="m 1050,285 c 0,-128 18,-142 22,-17 l 3,87 45,-87 c 31,-61 50,-88 62,-88 16,0 18,11 18,105 0,128 -18,142 -22,18 l -3,-88 -45,88 c -31,60 -50,87 -62,87 -16,0 -18,-11 -18,-105 z"
       id="path12" />
    <path
       d="m 1281,309 c -17,-44 -34,-92 -37,-105 -9,-35 12,-30 25,6 9,27 14,30 56,30 42,0 47,-3 56,-30 6,-16 17,-30 25,-30 10,0 7,17 -13,68 -14,37 -31,83 -38,102 -21,60 -39,50 -74,-41 z m 78,-36 c 1,-8 -12,-13 -34,-13 -19,0 -35,1 -35,3 0,2 8,26 17,52 l 16,50 18,-40 c 10,-22 18,-46 18,-52 z"
       id="path14" />
    <path
       d="m 330,260 c 0,-47 4,-80 10,-80 6,0 10,33 10,80 0,47 -4,80 -10,80 -6,0 -10,-33 -10,-80 z"
       id="path16" />
    <path
       d="m 410,260 c 0,-47 4,-80 10,-80 6,0 10,24 10,54 0,36 5,60 16,70 37,38 64,10 64,-66 0,-32 4,-58 10,-58 6,0 10,28 10,64 0,86 -27,114 -81,86 -13,-7 -19,-7 -19,0 0,5 -4,10 -10,10 -6,0 -10,-33 -10,-80 z"
       id="path18" />
    <path
       d="m 590,260 c 0,-47 4,-80 10,-80 6,0 10,33 10,80 0,47 -4,80 -10,80 -6,0 -10,-33 -10,-80 z"
       id="path20" />
  </g>
</svg>
