<?xml version="1.0" standalone="no"?>
<!DOCTYPE svg PUBLIC "-//W3C//DTD SVG 20010904//EN"
 "http://www.w3.org/TR/2001/REC-SVG-20010904/DTD/svg10.dtd">
<svg version="1.0" xmlns="http://www.w3.org/2000/svg"
 width="154.000000pt" height="54.000000pt" viewBox="0 0 154.000000 54.000000"
 preserveAspectRatio="xMidYMid meet">

<g transform="translate(0.000000,54.000000) scale(0.100000,-0.100000)"
fill="#000000" stroke="none">
<path d="M330 385 c0 -8 5 -15 10 -15 6 0 10 7 10 15 0 8 -4 15 -10 15 -5 0
-10 -7 -10 -15z"/>
<path d="M590 385 c0 -8 5 -15 10 -15 6 0 10 7 10 15 0 8 -4 15 -10 15 -5 0
-10 -7 -10 -15z"/>
<path d="M90 285 c0 -63 4 -105 10 -105 6 0 10 36 10 87 0 47 3 83 7 79 4 -4
17 -33 29 -64 26 -71 46 -78 63 -20 7 24 19 54 27 68 12 23 13 17 14 -62 0
-52 4 -88 10 -88 6 0 10 42 10 105 0 95 -2 105 -18 105 -13 0 -24 -17 -41 -65
-13 -36 -26 -65 -30 -65 -4 0 -18 29 -30 65 -18 49 -28 65 -42 65 -17 0 -19
-9 -19 -105z"/>
<path d="M670 285 l0 -105 40 0 c98 0 146 57 121 142 -14 46 -54 68 -121 68
l-40 0 0 -105z m115 60 c54 -53 14 -150 -58 -143 l-32 3 -3 69 c-2 38 -1 75 2
83 9 22 64 15 91 -12z"/>
<path d="M890 285 l0 -105 60 0 c71 0 81 18 13 22 l-48 3 -3 93 c-4 128 -22
117 -22 -13z"/>
<path d="M1050 285 c0 -128 18 -142 22 -17 l3 87 45 -87 c31 -61 50 -88 62
-88 16 0 18 11 18 105 0 128 -18 142 -22 18 l-3 -88 -45 88 c-31 60 -50 87
-62 87 -16 0 -18 -11 -18 -105z"/>
<path d="M1281 309 c-17 -44 -34 -92 -37 -105 -9 -35 12 -30 25 6 9 27 14 30
56 30 42 0 47 -3 56 -30 6 -16 17 -30 25 -30 10 0 7 17 -13 68 -14 37 -31 83
-38 102 -21 60 -39 50 -74 -41z m78 -36 c1 -8 -12 -13 -34 -13 -19 0 -35 1
-35 3 0 2 8 26 17 52 l16 50 18 -40 c10 -22 18 -46 18 -52z"/>
<path d="M330 260 c0 -47 4 -80 10 -80 6 0 10 33 10 80 0 47 -4 80 -10 80 -6
0 -10 -33 -10 -80z"/>
<path d="M410 260 c0 -47 4 -80 10 -80 6 0 10 24 10 54 0 36 5 60 16 70 37 38
64 10 64 -66 0 -32 4 -58 10 -58 6 0 10 28 10 64 0 86 -27 114 -81 86 -13 -7
-19 -7 -19 0 0 5 -4 10 -10 10 -6 0 -10 -33 -10 -80z"/>
<path d="M590 260 c0 -47 4 -80 10 -80 6 0 10 33 10 80 0 47 -4 80 -10 80 -6
0 -10 -33 -10 -80z"/>
</g>
</svg>
